%TF.GenerationSoftware,KiCad,Pcbnew,8.0.5*%
%TF.CreationDate,2025-09-09T17:04:41-07:00*%
%TF.ProjectId,ImmunoprecipitationDevice_RevF,496d6d75-6e6f-4707-9265-636970697461,rev?*%
%TF.SameCoordinates,Original*%
%TF.FileFunction,Legend,Top*%
%TF.FilePolarity,Positive*%
%FSLAX46Y46*%
G04 Gerber Fmt 4.6, Leading zero omitted, Abs format (unit mm)*
G04 Created by KiCad (PCBNEW 8.0.5) date 2025-09-09 17:04:41*
%MOMM*%
%LPD*%
G01*
G04 APERTURE LIST*
%ADD10C,1.015000*%
%ADD11C,0.253750*%
%ADD12C,0.101500*%
%ADD13C,0.000000*%
%ADD14R,0.152250X0.710500*%
%ADD15R,0.710500X0.152250*%
%ADD16C,0.152250*%
G04 APERTURE END LIST*
D10*
X115202500Y-64452500D02*
G75*
G02*
X13702500Y-64452500I-50750000J0D01*
G01*
X13702500Y-64452500D02*
G75*
G02*
X115202500Y-64452500I50750000J0D01*
G01*
D11*
X108290736Y-49392507D02*
X109305736Y-49392507D01*
X108290736Y-49875839D02*
X109305736Y-49875839D01*
X109305736Y-49875839D02*
X109305736Y-50262506D01*
X109305736Y-50262506D02*
X109257402Y-50359172D01*
X109257402Y-50359172D02*
X109209069Y-50407506D01*
X109209069Y-50407506D02*
X109112403Y-50455839D01*
X109112403Y-50455839D02*
X108967403Y-50455839D01*
X108967403Y-50455839D02*
X108870736Y-50407506D01*
X108870736Y-50407506D02*
X108822403Y-50359172D01*
X108822403Y-50359172D02*
X108774070Y-50262506D01*
X108774070Y-50262506D02*
X108774070Y-49875839D01*
X108387403Y-50890839D02*
X108339070Y-50939173D01*
X108339070Y-50939173D02*
X108290736Y-50890839D01*
X108290736Y-50890839D02*
X108339070Y-50842506D01*
X108339070Y-50842506D02*
X108387403Y-50890839D01*
X108387403Y-50890839D02*
X108290736Y-50890839D01*
X108822403Y-51712505D02*
X108822403Y-51374172D01*
X108290736Y-51374172D02*
X109305736Y-51374172D01*
X109305736Y-51374172D02*
X109305736Y-51857505D01*
X108290736Y-52389172D02*
X108339070Y-52292506D01*
X108339070Y-52292506D02*
X108435737Y-52244172D01*
X108435737Y-52244172D02*
X109305736Y-52244172D01*
X108290736Y-52920839D02*
X108339070Y-52824173D01*
X108339070Y-52824173D02*
X108387403Y-52775840D01*
X108387403Y-52775840D02*
X108484070Y-52727506D01*
X108484070Y-52727506D02*
X108774070Y-52727506D01*
X108774070Y-52727506D02*
X108870736Y-52775840D01*
X108870736Y-52775840D02*
X108919069Y-52824173D01*
X108919069Y-52824173D02*
X108967403Y-52920839D01*
X108967403Y-52920839D02*
X108967403Y-53065839D01*
X108967403Y-53065839D02*
X108919069Y-53162506D01*
X108919069Y-53162506D02*
X108870736Y-53210839D01*
X108870736Y-53210839D02*
X108774070Y-53259172D01*
X108774070Y-53259172D02*
X108484070Y-53259172D01*
X108484070Y-53259172D02*
X108387403Y-53210839D01*
X108387403Y-53210839D02*
X108339070Y-53162506D01*
X108339070Y-53162506D02*
X108290736Y-53065839D01*
X108290736Y-53065839D02*
X108290736Y-52920839D01*
X108967403Y-53597506D02*
X108290736Y-53790840D01*
X108290736Y-53790840D02*
X108774070Y-53984173D01*
X108774070Y-53984173D02*
X108290736Y-54177506D01*
X108290736Y-54177506D02*
X108967403Y-54370839D01*
X108677403Y-54757506D02*
X108677403Y-55530840D01*
X108290736Y-55144173D02*
X109064069Y-55144173D01*
X108387403Y-56014173D02*
X108339070Y-56062506D01*
X108339070Y-56062506D02*
X108290736Y-56014173D01*
X108290736Y-56014173D02*
X108339070Y-55965839D01*
X108339070Y-55965839D02*
X108387403Y-56014173D01*
X108387403Y-56014173D02*
X108290736Y-56014173D01*
X108290736Y-57077505D02*
X108774070Y-56739172D01*
X108290736Y-56497506D02*
X109305736Y-56497506D01*
X109305736Y-56497506D02*
X109305736Y-56884172D01*
X109305736Y-56884172D02*
X109257402Y-56980838D01*
X109257402Y-56980838D02*
X109209069Y-57029172D01*
X109209069Y-57029172D02*
X109112403Y-57077505D01*
X109112403Y-57077505D02*
X108967403Y-57077505D01*
X108967403Y-57077505D02*
X108870736Y-57029172D01*
X108870736Y-57029172D02*
X108822403Y-56980838D01*
X108822403Y-56980838D02*
X108774070Y-56884172D01*
X108774070Y-56884172D02*
X108774070Y-56497506D01*
X108339070Y-57899172D02*
X108290736Y-57802505D01*
X108290736Y-57802505D02*
X108290736Y-57609172D01*
X108290736Y-57609172D02*
X108339070Y-57512506D01*
X108339070Y-57512506D02*
X108435737Y-57464172D01*
X108435737Y-57464172D02*
X108822403Y-57464172D01*
X108822403Y-57464172D02*
X108919069Y-57512506D01*
X108919069Y-57512506D02*
X108967403Y-57609172D01*
X108967403Y-57609172D02*
X108967403Y-57802505D01*
X108967403Y-57802505D02*
X108919069Y-57899172D01*
X108919069Y-57899172D02*
X108822403Y-57947505D01*
X108822403Y-57947505D02*
X108725736Y-57947505D01*
X108725736Y-57947505D02*
X108629070Y-57464172D01*
X108967403Y-58285839D02*
X108290736Y-58527506D01*
X108290736Y-58527506D02*
X108967403Y-58769172D01*
X108822403Y-60267506D02*
X108822403Y-59929173D01*
X108290736Y-59929173D02*
X109305736Y-59929173D01*
X109305736Y-59929173D02*
X109305736Y-60412506D01*
X108387403Y-60799173D02*
X108339070Y-60847506D01*
X108339070Y-60847506D02*
X108290736Y-60799173D01*
X108290736Y-60799173D02*
X108339070Y-60750840D01*
X108339070Y-60750840D02*
X108387403Y-60799173D01*
X108387403Y-60799173D02*
X108290736Y-60799173D01*
X109209069Y-61234173D02*
X109257402Y-61282506D01*
X109257402Y-61282506D02*
X109305736Y-61379172D01*
X109305736Y-61379172D02*
X109305736Y-61620839D01*
X109305736Y-61620839D02*
X109257402Y-61717505D01*
X109257402Y-61717505D02*
X109209069Y-61765839D01*
X109209069Y-61765839D02*
X109112403Y-61814172D01*
X109112403Y-61814172D02*
X109015736Y-61814172D01*
X109015736Y-61814172D02*
X108870736Y-61765839D01*
X108870736Y-61765839D02*
X108290736Y-61185839D01*
X108290736Y-61185839D02*
X108290736Y-61814172D01*
X109305736Y-62442506D02*
X109305736Y-62539172D01*
X109305736Y-62539172D02*
X109257402Y-62635839D01*
X109257402Y-62635839D02*
X109209069Y-62684172D01*
X109209069Y-62684172D02*
X109112403Y-62732505D01*
X109112403Y-62732505D02*
X108919069Y-62780839D01*
X108919069Y-62780839D02*
X108677403Y-62780839D01*
X108677403Y-62780839D02*
X108484070Y-62732505D01*
X108484070Y-62732505D02*
X108387403Y-62684172D01*
X108387403Y-62684172D02*
X108339070Y-62635839D01*
X108339070Y-62635839D02*
X108290736Y-62539172D01*
X108290736Y-62539172D02*
X108290736Y-62442506D01*
X108290736Y-62442506D02*
X108339070Y-62345839D01*
X108339070Y-62345839D02*
X108387403Y-62297506D01*
X108387403Y-62297506D02*
X108484070Y-62249173D01*
X108484070Y-62249173D02*
X108677403Y-62200839D01*
X108677403Y-62200839D02*
X108919069Y-62200839D01*
X108919069Y-62200839D02*
X109112403Y-62249173D01*
X109112403Y-62249173D02*
X109209069Y-62297506D01*
X109209069Y-62297506D02*
X109257402Y-62345839D01*
X109257402Y-62345839D02*
X109305736Y-62442506D01*
X109209069Y-63167506D02*
X109257402Y-63215839D01*
X109257402Y-63215839D02*
X109305736Y-63312506D01*
X109305736Y-63312506D02*
X109305736Y-63554172D01*
X109305736Y-63554172D02*
X109257402Y-63650839D01*
X109257402Y-63650839D02*
X109209069Y-63699172D01*
X109209069Y-63699172D02*
X109112403Y-63747505D01*
X109112403Y-63747505D02*
X109015736Y-63747505D01*
X109015736Y-63747505D02*
X108870736Y-63699172D01*
X108870736Y-63699172D02*
X108290736Y-63119173D01*
X108290736Y-63119173D02*
X108290736Y-63747505D01*
X109305736Y-64665839D02*
X109305736Y-64182506D01*
X109305736Y-64182506D02*
X108822403Y-64134173D01*
X108822403Y-64134173D02*
X108870736Y-64182506D01*
X108870736Y-64182506D02*
X108919069Y-64279173D01*
X108919069Y-64279173D02*
X108919069Y-64520839D01*
X108919069Y-64520839D02*
X108870736Y-64617506D01*
X108870736Y-64617506D02*
X108822403Y-64665839D01*
X108822403Y-64665839D02*
X108725736Y-64714172D01*
X108725736Y-64714172D02*
X108484070Y-64714172D01*
X108484070Y-64714172D02*
X108387403Y-64665839D01*
X108387403Y-64665839D02*
X108339070Y-64617506D01*
X108339070Y-64617506D02*
X108290736Y-64520839D01*
X108290736Y-64520839D02*
X108290736Y-64279173D01*
X108290736Y-64279173D02*
X108339070Y-64182506D01*
X108339070Y-64182506D02*
X108387403Y-64134173D01*
X109305736Y-65342506D02*
X109305736Y-65439172D01*
X109305736Y-65439172D02*
X109257402Y-65535839D01*
X109257402Y-65535839D02*
X109209069Y-65584172D01*
X109209069Y-65584172D02*
X109112403Y-65632506D01*
X109112403Y-65632506D02*
X108919069Y-65680839D01*
X108919069Y-65680839D02*
X108677403Y-65680839D01*
X108677403Y-65680839D02*
X108484070Y-65632506D01*
X108484070Y-65632506D02*
X108387403Y-65584172D01*
X108387403Y-65584172D02*
X108339070Y-65535839D01*
X108339070Y-65535839D02*
X108290736Y-65439172D01*
X108290736Y-65439172D02*
X108290736Y-65342506D01*
X108290736Y-65342506D02*
X108339070Y-65245839D01*
X108339070Y-65245839D02*
X108387403Y-65197506D01*
X108387403Y-65197506D02*
X108484070Y-65149173D01*
X108484070Y-65149173D02*
X108677403Y-65100839D01*
X108677403Y-65100839D02*
X108919069Y-65100839D01*
X108919069Y-65100839D02*
X109112403Y-65149173D01*
X109112403Y-65149173D02*
X109209069Y-65197506D01*
X109209069Y-65197506D02*
X109257402Y-65245839D01*
X109257402Y-65245839D02*
X109305736Y-65342506D01*
X108290736Y-66164173D02*
X108290736Y-66357506D01*
X108290736Y-66357506D02*
X108339070Y-66454172D01*
X108339070Y-66454172D02*
X108387403Y-66502506D01*
X108387403Y-66502506D02*
X108532403Y-66599172D01*
X108532403Y-66599172D02*
X108725736Y-66647506D01*
X108725736Y-66647506D02*
X109112403Y-66647506D01*
X109112403Y-66647506D02*
X109209069Y-66599172D01*
X109209069Y-66599172D02*
X109257402Y-66550839D01*
X109257402Y-66550839D02*
X109305736Y-66454172D01*
X109305736Y-66454172D02*
X109305736Y-66260839D01*
X109305736Y-66260839D02*
X109257402Y-66164173D01*
X109257402Y-66164173D02*
X109209069Y-66115839D01*
X109209069Y-66115839D02*
X109112403Y-66067506D01*
X109112403Y-66067506D02*
X108870736Y-66067506D01*
X108870736Y-66067506D02*
X108774070Y-66115839D01*
X108774070Y-66115839D02*
X108725736Y-66164173D01*
X108725736Y-66164173D02*
X108677403Y-66260839D01*
X108677403Y-66260839D02*
X108677403Y-66454172D01*
X108677403Y-66454172D02*
X108725736Y-66550839D01*
X108725736Y-66550839D02*
X108774070Y-66599172D01*
X108774070Y-66599172D02*
X108870736Y-66647506D01*
X109305736Y-67275839D02*
X109305736Y-67372506D01*
X109305736Y-67372506D02*
X109257402Y-67469172D01*
X109257402Y-67469172D02*
X109209069Y-67517506D01*
X109209069Y-67517506D02*
X109112403Y-67565839D01*
X109112403Y-67565839D02*
X108919069Y-67614172D01*
X108919069Y-67614172D02*
X108677403Y-67614172D01*
X108677403Y-67614172D02*
X108484070Y-67565839D01*
X108484070Y-67565839D02*
X108387403Y-67517506D01*
X108387403Y-67517506D02*
X108339070Y-67469172D01*
X108339070Y-67469172D02*
X108290736Y-67372506D01*
X108290736Y-67372506D02*
X108290736Y-67275839D01*
X108290736Y-67275839D02*
X108339070Y-67179173D01*
X108339070Y-67179173D02*
X108387403Y-67130839D01*
X108387403Y-67130839D02*
X108484070Y-67082506D01*
X108484070Y-67082506D02*
X108677403Y-67034173D01*
X108677403Y-67034173D02*
X108919069Y-67034173D01*
X108919069Y-67034173D02*
X109112403Y-67082506D01*
X109112403Y-67082506D02*
X109209069Y-67130839D01*
X109209069Y-67130839D02*
X109257402Y-67179173D01*
X109257402Y-67179173D02*
X109305736Y-67275839D01*
X109305736Y-68532506D02*
X109305736Y-68049173D01*
X109305736Y-68049173D02*
X108822403Y-68000840D01*
X108822403Y-68000840D02*
X108870736Y-68049173D01*
X108870736Y-68049173D02*
X108919069Y-68145839D01*
X108919069Y-68145839D02*
X108919069Y-68387506D01*
X108919069Y-68387506D02*
X108870736Y-68484172D01*
X108870736Y-68484172D02*
X108822403Y-68532506D01*
X108822403Y-68532506D02*
X108725736Y-68580839D01*
X108725736Y-68580839D02*
X108484070Y-68580839D01*
X108484070Y-68580839D02*
X108387403Y-68532506D01*
X108387403Y-68532506D02*
X108339070Y-68484172D01*
X108339070Y-68484172D02*
X108290736Y-68387506D01*
X108290736Y-68387506D02*
X108290736Y-68145839D01*
X108290736Y-68145839D02*
X108339070Y-68049173D01*
X108339070Y-68049173D02*
X108387403Y-68000840D01*
X108387403Y-69015840D02*
X108339070Y-69064173D01*
X108339070Y-69064173D02*
X108290736Y-69015840D01*
X108290736Y-69015840D02*
X108339070Y-68967506D01*
X108339070Y-68967506D02*
X108387403Y-69015840D01*
X108387403Y-69015840D02*
X108290736Y-69015840D01*
X108290736Y-70079172D02*
X108774070Y-69740839D01*
X108290736Y-69499172D02*
X109305736Y-69499172D01*
X109305736Y-69499172D02*
X109305736Y-69885839D01*
X109305736Y-69885839D02*
X109257402Y-69982505D01*
X109257402Y-69982505D02*
X109209069Y-70030838D01*
X109209069Y-70030838D02*
X109112403Y-70079172D01*
X109112403Y-70079172D02*
X108967403Y-70079172D01*
X108967403Y-70079172D02*
X108870736Y-70030838D01*
X108870736Y-70030838D02*
X108822403Y-69982505D01*
X108822403Y-69982505D02*
X108774070Y-69885839D01*
X108774070Y-69885839D02*
X108774070Y-69499172D01*
X108290736Y-71094172D02*
X108774070Y-70755839D01*
X108290736Y-70514172D02*
X109305736Y-70514172D01*
X109305736Y-70514172D02*
X109305736Y-70900839D01*
X109305736Y-70900839D02*
X109257402Y-70997505D01*
X109257402Y-70997505D02*
X109209069Y-71045838D01*
X109209069Y-71045838D02*
X109112403Y-71094172D01*
X109112403Y-71094172D02*
X108967403Y-71094172D01*
X108967403Y-71094172D02*
X108870736Y-71045838D01*
X108870736Y-71045838D02*
X108822403Y-70997505D01*
X108822403Y-70997505D02*
X108774070Y-70900839D01*
X108774070Y-70900839D02*
X108774070Y-70514172D01*
X108290736Y-71529172D02*
X109305736Y-71529172D01*
X109305736Y-71529172D02*
X109305736Y-71915839D01*
X109305736Y-71915839D02*
X109257402Y-72012505D01*
X109257402Y-72012505D02*
X109209069Y-72060838D01*
X109209069Y-72060838D02*
X109112403Y-72109172D01*
X109112403Y-72109172D02*
X108967403Y-72109172D01*
X108967403Y-72109172D02*
X108870736Y-72060838D01*
X108870736Y-72060838D02*
X108822403Y-72012505D01*
X108822403Y-72012505D02*
X108774070Y-71915839D01*
X108774070Y-71915839D02*
X108774070Y-71529172D01*
X108967403Y-72979172D02*
X108290736Y-72979172D01*
X108967403Y-72544172D02*
X108435737Y-72544172D01*
X108435737Y-72544172D02*
X108339070Y-72592506D01*
X108339070Y-72592506D02*
X108290736Y-72689172D01*
X108290736Y-72689172D02*
X108290736Y-72834172D01*
X108290736Y-72834172D02*
X108339070Y-72930839D01*
X108339070Y-72930839D02*
X108387403Y-72979172D01*
X108339070Y-73897505D02*
X108290736Y-73800839D01*
X108290736Y-73800839D02*
X108290736Y-73607506D01*
X108290736Y-73607506D02*
X108339070Y-73510839D01*
X108339070Y-73510839D02*
X108387403Y-73462506D01*
X108387403Y-73462506D02*
X108484070Y-73414173D01*
X108484070Y-73414173D02*
X108774070Y-73414173D01*
X108774070Y-73414173D02*
X108870736Y-73462506D01*
X108870736Y-73462506D02*
X108919069Y-73510839D01*
X108919069Y-73510839D02*
X108967403Y-73607506D01*
X108967403Y-73607506D02*
X108967403Y-73800839D01*
X108967403Y-73800839D02*
X108919069Y-73897505D01*
X108339070Y-74767506D02*
X108290736Y-74670839D01*
X108290736Y-74670839D02*
X108290736Y-74477506D01*
X108290736Y-74477506D02*
X108339070Y-74380839D01*
X108339070Y-74380839D02*
X108387403Y-74332506D01*
X108387403Y-74332506D02*
X108484070Y-74284173D01*
X108484070Y-74284173D02*
X108774070Y-74284173D01*
X108774070Y-74284173D02*
X108870736Y-74332506D01*
X108870736Y-74332506D02*
X108919069Y-74380839D01*
X108919069Y-74380839D02*
X108967403Y-74477506D01*
X108967403Y-74477506D02*
X108967403Y-74670839D01*
X108967403Y-74670839D02*
X108919069Y-74767506D01*
X108290736Y-75202506D02*
X108967403Y-75202506D01*
X109305736Y-75202506D02*
X109257402Y-75154173D01*
X109257402Y-75154173D02*
X109209069Y-75202506D01*
X109209069Y-75202506D02*
X109257402Y-75250839D01*
X109257402Y-75250839D02*
X109305736Y-75202506D01*
X109305736Y-75202506D02*
X109209069Y-75202506D01*
X108967403Y-75685839D02*
X108290736Y-75685839D01*
X108870736Y-75685839D02*
X108919069Y-75734172D01*
X108919069Y-75734172D02*
X108967403Y-75830839D01*
X108967403Y-75830839D02*
X108967403Y-75975839D01*
X108967403Y-75975839D02*
X108919069Y-76072505D01*
X108919069Y-76072505D02*
X108822403Y-76120838D01*
X108822403Y-76120838D02*
X108290736Y-76120838D01*
X108339070Y-76990839D02*
X108290736Y-76894172D01*
X108290736Y-76894172D02*
X108290736Y-76700839D01*
X108290736Y-76700839D02*
X108339070Y-76604172D01*
X108339070Y-76604172D02*
X108435737Y-76555839D01*
X108435737Y-76555839D02*
X108822403Y-76555839D01*
X108822403Y-76555839D02*
X108919069Y-76604172D01*
X108919069Y-76604172D02*
X108967403Y-76700839D01*
X108967403Y-76700839D02*
X108967403Y-76894172D01*
X108967403Y-76894172D02*
X108919069Y-76990839D01*
X108919069Y-76990839D02*
X108822403Y-77039172D01*
X108822403Y-77039172D02*
X108725736Y-77039172D01*
X108725736Y-77039172D02*
X108629070Y-76555839D01*
X108290736Y-77619172D02*
X108339070Y-77522506D01*
X108339070Y-77522506D02*
X108435737Y-77474173D01*
X108435737Y-77474173D02*
X109305736Y-77474173D01*
X108290736Y-78150840D02*
X108339070Y-78054173D01*
X108339070Y-78054173D02*
X108435737Y-78005840D01*
X108435737Y-78005840D02*
X109305736Y-78005840D01*
X108290736Y-78537507D02*
X108967403Y-78537507D01*
X109305736Y-78537507D02*
X109257402Y-78489174D01*
X109257402Y-78489174D02*
X109209069Y-78537507D01*
X109209069Y-78537507D02*
X109257402Y-78585840D01*
X109257402Y-78585840D02*
X109305736Y-78537507D01*
X109305736Y-78537507D02*
X109209069Y-78537507D01*
D12*
G36*
X33413118Y-79969379D02*
G01*
X31991559Y-79969379D01*
X31991559Y-79200699D01*
X32217114Y-79200699D01*
X32217114Y-79220501D01*
X32224692Y-79238796D01*
X32238693Y-79252797D01*
X32256987Y-79260375D01*
X32266889Y-79261350D01*
X32675262Y-79261350D01*
X32509768Y-79675084D01*
X32506997Y-79684641D01*
X32507239Y-79704440D01*
X32515038Y-79722640D01*
X32529209Y-79736470D01*
X32547596Y-79743824D01*
X32567396Y-79743583D01*
X32585596Y-79735783D01*
X32599426Y-79721612D01*
X32604009Y-79712781D01*
X32772747Y-79290932D01*
X33106438Y-79541200D01*
X33114944Y-79546360D01*
X33134126Y-79551275D01*
X33153728Y-79548474D01*
X33170766Y-79538385D01*
X33182648Y-79522543D01*
X33187563Y-79503362D01*
X33184762Y-79483760D01*
X33174673Y-79466721D01*
X33167338Y-79460000D01*
X32834804Y-79210599D01*
X33167338Y-78961199D01*
X33174674Y-78954478D01*
X33184762Y-78937439D01*
X33187563Y-78917837D01*
X33182648Y-78898655D01*
X33170766Y-78882813D01*
X33153728Y-78872725D01*
X33134127Y-78869924D01*
X33114944Y-78874839D01*
X33106438Y-78879999D01*
X32772747Y-79130267D01*
X32604009Y-78708418D01*
X32599426Y-78699587D01*
X32585596Y-78685416D01*
X32567396Y-78677616D01*
X32547596Y-78677375D01*
X32529209Y-78684728D01*
X32515038Y-78698559D01*
X32507239Y-78716759D01*
X32506997Y-78736558D01*
X32509768Y-78746115D01*
X32675262Y-79159850D01*
X32266889Y-79159850D01*
X32256987Y-79160825D01*
X32238693Y-79168403D01*
X32224692Y-79182404D01*
X32217114Y-79200699D01*
X31991559Y-79200699D01*
X31991559Y-78451819D01*
X33413118Y-78451819D01*
X33413118Y-79969379D01*
G37*
G36*
X74266868Y-55101879D02*
G01*
X72845309Y-55101879D01*
X72845309Y-54333199D01*
X73070864Y-54333199D01*
X73070864Y-54353001D01*
X73078442Y-54371296D01*
X73092443Y-54385297D01*
X73110737Y-54392875D01*
X73120639Y-54393850D01*
X73529012Y-54393850D01*
X73363518Y-54807584D01*
X73360747Y-54817141D01*
X73360989Y-54836940D01*
X73368788Y-54855140D01*
X73382959Y-54868970D01*
X73401346Y-54876324D01*
X73421146Y-54876083D01*
X73439346Y-54868283D01*
X73453176Y-54854112D01*
X73457759Y-54845281D01*
X73626497Y-54423432D01*
X73960188Y-54673700D01*
X73968694Y-54678860D01*
X73987876Y-54683775D01*
X74007478Y-54680974D01*
X74024516Y-54670885D01*
X74036398Y-54655043D01*
X74041313Y-54635862D01*
X74038512Y-54616260D01*
X74028423Y-54599221D01*
X74021088Y-54592500D01*
X73688554Y-54343099D01*
X74021088Y-54093699D01*
X74028424Y-54086978D01*
X74038512Y-54069939D01*
X74041313Y-54050337D01*
X74036398Y-54031155D01*
X74024516Y-54015313D01*
X74007478Y-54005225D01*
X73987877Y-54002424D01*
X73968694Y-54007339D01*
X73960188Y-54012499D01*
X73626497Y-54262767D01*
X73457759Y-53840918D01*
X73453176Y-53832087D01*
X73439346Y-53817916D01*
X73421146Y-53810116D01*
X73401346Y-53809875D01*
X73382959Y-53817228D01*
X73368788Y-53831059D01*
X73360989Y-53849259D01*
X73360747Y-53869058D01*
X73363518Y-53878615D01*
X73529012Y-54292350D01*
X73120639Y-54292350D01*
X73110737Y-54293325D01*
X73092443Y-54300903D01*
X73078442Y-54314904D01*
X73070864Y-54333199D01*
X72845309Y-54333199D01*
X72845309Y-53584319D01*
X74266868Y-53584319D01*
X74266868Y-55101879D01*
G37*
G36*
X50493779Y-109375718D02*
G01*
X48976219Y-109375718D01*
X48976219Y-108510196D01*
X49201775Y-108510196D01*
X49202016Y-108529996D01*
X49209816Y-108548196D01*
X49223987Y-108562026D01*
X49232818Y-108566609D01*
X49654666Y-108735347D01*
X49404399Y-109069038D01*
X49399239Y-109077544D01*
X49394324Y-109096726D01*
X49397125Y-109116328D01*
X49407214Y-109133366D01*
X49423056Y-109145248D01*
X49442237Y-109150163D01*
X49461839Y-109147362D01*
X49478878Y-109137273D01*
X49485599Y-109129938D01*
X49734999Y-108797404D01*
X49984400Y-109129938D01*
X49991121Y-109137274D01*
X50008160Y-109147362D01*
X50027762Y-109150163D01*
X50046944Y-109145248D01*
X50062786Y-109133366D01*
X50072874Y-109116328D01*
X50075675Y-109096727D01*
X50070760Y-109077544D01*
X50065600Y-109069038D01*
X49815331Y-108735347D01*
X50237180Y-108566609D01*
X50246012Y-108562026D01*
X50260183Y-108548196D01*
X50267983Y-108529996D01*
X50268224Y-108510196D01*
X50260869Y-108491809D01*
X50247039Y-108477638D01*
X50228840Y-108469839D01*
X50209040Y-108469597D01*
X50199484Y-108472368D01*
X49785749Y-108637862D01*
X49785749Y-108229489D01*
X49784774Y-108219587D01*
X49777196Y-108201293D01*
X49763195Y-108187292D01*
X49744900Y-108179714D01*
X49725098Y-108179714D01*
X49706803Y-108187292D01*
X49692802Y-108201293D01*
X49685224Y-108219587D01*
X49684249Y-108229489D01*
X49684249Y-108637862D01*
X49270515Y-108472368D01*
X49260958Y-108469597D01*
X49241159Y-108469839D01*
X49222959Y-108477638D01*
X49209128Y-108491809D01*
X49201775Y-108510196D01*
X48976219Y-108510196D01*
X48976219Y-107954159D01*
X50493779Y-107954159D01*
X50493779Y-109375718D01*
G37*
G36*
X74520618Y-81745629D02*
G01*
X73099059Y-81745629D01*
X73099059Y-80976949D01*
X73324614Y-80976949D01*
X73324614Y-80996751D01*
X73332192Y-81015046D01*
X73346193Y-81029047D01*
X73364487Y-81036625D01*
X73374389Y-81037600D01*
X73782762Y-81037600D01*
X73617268Y-81451334D01*
X73614497Y-81460891D01*
X73614739Y-81480690D01*
X73622538Y-81498890D01*
X73636709Y-81512720D01*
X73655096Y-81520074D01*
X73674896Y-81519833D01*
X73693096Y-81512033D01*
X73706926Y-81497862D01*
X73711509Y-81489031D01*
X73880247Y-81067182D01*
X74213938Y-81317450D01*
X74222444Y-81322610D01*
X74241626Y-81327525D01*
X74261228Y-81324724D01*
X74278266Y-81314635D01*
X74290148Y-81298793D01*
X74295063Y-81279612D01*
X74292262Y-81260010D01*
X74282173Y-81242971D01*
X74274838Y-81236250D01*
X73942304Y-80986849D01*
X74274838Y-80737449D01*
X74282174Y-80730728D01*
X74292262Y-80713689D01*
X74295063Y-80694087D01*
X74290148Y-80674905D01*
X74278266Y-80659063D01*
X74261228Y-80648975D01*
X74241627Y-80646174D01*
X74222444Y-80651089D01*
X74213938Y-80656249D01*
X73880247Y-80906517D01*
X73711509Y-80484668D01*
X73706926Y-80475837D01*
X73693096Y-80461666D01*
X73674896Y-80453866D01*
X73655096Y-80453625D01*
X73636709Y-80460978D01*
X73622538Y-80474809D01*
X73614739Y-80493009D01*
X73614497Y-80512808D01*
X73617268Y-80522365D01*
X73782762Y-80936100D01*
X73374389Y-80936100D01*
X73364487Y-80937075D01*
X73346193Y-80944653D01*
X73332192Y-80958654D01*
X73324614Y-80976949D01*
X73099059Y-80976949D01*
X73099059Y-80228069D01*
X74520618Y-80228069D01*
X74520618Y-81745629D01*
G37*
G36*
X81197529Y-88720468D02*
G01*
X79679969Y-88720468D01*
X79679969Y-87854946D01*
X79905525Y-87854946D01*
X79905766Y-87874746D01*
X79913566Y-87892946D01*
X79927737Y-87906776D01*
X79936568Y-87911359D01*
X80358416Y-88080097D01*
X80108149Y-88413788D01*
X80102989Y-88422294D01*
X80098074Y-88441476D01*
X80100875Y-88461078D01*
X80110964Y-88478116D01*
X80126806Y-88489998D01*
X80145987Y-88494913D01*
X80165589Y-88492112D01*
X80182628Y-88482023D01*
X80189349Y-88474688D01*
X80438749Y-88142154D01*
X80688150Y-88474688D01*
X80694871Y-88482024D01*
X80711910Y-88492112D01*
X80731512Y-88494913D01*
X80750694Y-88489998D01*
X80766536Y-88478116D01*
X80776624Y-88461078D01*
X80779425Y-88441477D01*
X80774510Y-88422294D01*
X80769350Y-88413788D01*
X80519081Y-88080097D01*
X80940930Y-87911359D01*
X80949762Y-87906776D01*
X80963933Y-87892946D01*
X80971733Y-87874746D01*
X80971974Y-87854946D01*
X80964619Y-87836559D01*
X80950789Y-87822388D01*
X80932590Y-87814589D01*
X80912790Y-87814347D01*
X80903234Y-87817118D01*
X80489499Y-87982612D01*
X80489499Y-87574239D01*
X80488524Y-87564337D01*
X80480946Y-87546043D01*
X80466945Y-87532042D01*
X80448650Y-87524464D01*
X80428848Y-87524464D01*
X80410553Y-87532042D01*
X80396552Y-87546043D01*
X80388974Y-87564337D01*
X80387999Y-87574239D01*
X80387999Y-87982612D01*
X79974265Y-87817118D01*
X79964708Y-87814347D01*
X79944909Y-87814589D01*
X79926709Y-87822388D01*
X79912878Y-87836559D01*
X79905525Y-87854946D01*
X79679969Y-87854946D01*
X79679969Y-87298909D01*
X81197529Y-87298909D01*
X81197529Y-88720468D01*
G37*
G36*
X77137529Y-109121968D02*
G01*
X75619969Y-109121968D01*
X75619969Y-108256446D01*
X75845525Y-108256446D01*
X75845766Y-108276246D01*
X75853566Y-108294446D01*
X75867737Y-108308276D01*
X75876568Y-108312859D01*
X76298416Y-108481597D01*
X76048149Y-108815288D01*
X76042989Y-108823794D01*
X76038074Y-108842976D01*
X76040875Y-108862578D01*
X76050964Y-108879616D01*
X76066806Y-108891498D01*
X76085987Y-108896413D01*
X76105589Y-108893612D01*
X76122628Y-108883523D01*
X76129349Y-108876188D01*
X76378749Y-108543654D01*
X76628150Y-108876188D01*
X76634871Y-108883524D01*
X76651910Y-108893612D01*
X76671512Y-108896413D01*
X76690694Y-108891498D01*
X76706536Y-108879616D01*
X76716624Y-108862578D01*
X76719425Y-108842977D01*
X76714510Y-108823794D01*
X76709350Y-108815288D01*
X76459081Y-108481597D01*
X76880930Y-108312859D01*
X76889762Y-108308276D01*
X76903933Y-108294446D01*
X76911733Y-108276246D01*
X76911974Y-108256446D01*
X76904619Y-108238059D01*
X76890789Y-108223888D01*
X76872590Y-108216089D01*
X76852790Y-108215847D01*
X76843234Y-108218618D01*
X76429499Y-108384112D01*
X76429499Y-107975739D01*
X76428524Y-107965837D01*
X76420946Y-107947543D01*
X76406945Y-107933542D01*
X76388650Y-107925964D01*
X76368848Y-107925964D01*
X76350553Y-107933542D01*
X76336552Y-107947543D01*
X76328974Y-107965837D01*
X76327999Y-107975739D01*
X76327999Y-108384112D01*
X75914265Y-108218618D01*
X75904708Y-108215847D01*
X75884909Y-108216089D01*
X75866709Y-108223888D01*
X75852878Y-108238059D01*
X75845525Y-108256446D01*
X75619969Y-108256446D01*
X75619969Y-107700409D01*
X77137529Y-107700409D01*
X77137529Y-109121968D01*
G37*
G36*
X80255368Y-51041879D02*
G01*
X78833809Y-51041879D01*
X78833809Y-50273199D01*
X79059364Y-50273199D01*
X79059364Y-50293001D01*
X79066942Y-50311296D01*
X79080943Y-50325297D01*
X79099237Y-50332875D01*
X79109139Y-50333850D01*
X79517512Y-50333850D01*
X79352018Y-50747584D01*
X79349247Y-50757141D01*
X79349489Y-50776940D01*
X79357288Y-50795140D01*
X79371459Y-50808970D01*
X79389846Y-50816324D01*
X79409646Y-50816083D01*
X79427846Y-50808283D01*
X79441676Y-50794112D01*
X79446259Y-50785281D01*
X79614997Y-50363432D01*
X79948688Y-50613700D01*
X79957194Y-50618860D01*
X79976376Y-50623775D01*
X79995978Y-50620974D01*
X80013016Y-50610885D01*
X80024898Y-50595043D01*
X80029813Y-50575862D01*
X80027012Y-50556260D01*
X80016923Y-50539221D01*
X80009588Y-50532500D01*
X79677054Y-50283099D01*
X80009588Y-50033699D01*
X80016924Y-50026978D01*
X80027012Y-50009939D01*
X80029813Y-49990337D01*
X80024898Y-49971155D01*
X80013016Y-49955313D01*
X79995978Y-49945225D01*
X79976377Y-49942424D01*
X79957194Y-49947339D01*
X79948688Y-49952499D01*
X79614997Y-50202767D01*
X79446259Y-49780918D01*
X79441676Y-49772087D01*
X79427846Y-49757916D01*
X79409646Y-49750116D01*
X79389846Y-49749875D01*
X79371459Y-49757228D01*
X79357288Y-49771059D01*
X79349489Y-49789259D01*
X79349247Y-49809058D01*
X79352018Y-49818615D01*
X79517512Y-50232350D01*
X79109139Y-50232350D01*
X79099237Y-50233325D01*
X79080943Y-50240903D01*
X79066942Y-50254904D01*
X79059364Y-50273199D01*
X78833809Y-50273199D01*
X78833809Y-49524319D01*
X80255368Y-49524319D01*
X80255368Y-51041879D01*
G37*
G36*
X64370618Y-48758129D02*
G01*
X62949059Y-48758129D01*
X62949059Y-47989449D01*
X63174614Y-47989449D01*
X63174614Y-48009251D01*
X63182192Y-48027546D01*
X63196193Y-48041547D01*
X63214487Y-48049125D01*
X63224389Y-48050100D01*
X63632762Y-48050100D01*
X63467268Y-48463834D01*
X63464497Y-48473391D01*
X63464739Y-48493190D01*
X63472538Y-48511390D01*
X63486709Y-48525220D01*
X63505096Y-48532574D01*
X63524896Y-48532333D01*
X63543096Y-48524533D01*
X63556926Y-48510362D01*
X63561509Y-48501531D01*
X63730247Y-48079682D01*
X64063938Y-48329950D01*
X64072444Y-48335110D01*
X64091626Y-48340025D01*
X64111228Y-48337224D01*
X64128266Y-48327135D01*
X64140148Y-48311293D01*
X64145063Y-48292112D01*
X64142262Y-48272510D01*
X64132173Y-48255471D01*
X64124838Y-48248750D01*
X63792304Y-47999349D01*
X64124838Y-47749949D01*
X64132174Y-47743228D01*
X64142262Y-47726189D01*
X64145063Y-47706587D01*
X64140148Y-47687405D01*
X64128266Y-47671563D01*
X64111228Y-47661475D01*
X64091627Y-47658674D01*
X64072444Y-47663589D01*
X64063938Y-47668749D01*
X63730247Y-47919017D01*
X63561509Y-47497168D01*
X63556926Y-47488337D01*
X63543096Y-47474166D01*
X63524896Y-47466366D01*
X63505096Y-47466125D01*
X63486709Y-47473478D01*
X63472538Y-47487309D01*
X63464739Y-47505509D01*
X63464497Y-47525308D01*
X63467268Y-47534865D01*
X63632762Y-47948600D01*
X63224389Y-47948600D01*
X63214487Y-47949575D01*
X63196193Y-47957153D01*
X63182192Y-47971154D01*
X63174614Y-47989449D01*
X62949059Y-47989449D01*
X62949059Y-47240569D01*
X64370618Y-47240569D01*
X64370618Y-48758129D01*
G37*
G36*
X51803129Y-43417865D02*
G01*
X50285569Y-43417865D01*
X50285569Y-42861828D01*
X50511125Y-42861828D01*
X50518478Y-42880215D01*
X50532309Y-42894386D01*
X50550509Y-42902185D01*
X50570308Y-42902427D01*
X50579865Y-42899656D01*
X50993600Y-42734161D01*
X50993600Y-43142535D01*
X50994575Y-43152437D01*
X51002153Y-43170731D01*
X51016154Y-43184732D01*
X51034449Y-43192310D01*
X51054251Y-43192310D01*
X51072546Y-43184732D01*
X51086547Y-43170731D01*
X51094125Y-43152437D01*
X51095100Y-43142535D01*
X51095100Y-42734162D01*
X51508834Y-42899656D01*
X51518390Y-42902427D01*
X51538190Y-42902185D01*
X51556389Y-42894386D01*
X51570219Y-42880215D01*
X51577574Y-42861828D01*
X51577333Y-42842028D01*
X51569533Y-42823828D01*
X51555362Y-42809998D01*
X51546530Y-42805415D01*
X51124682Y-42636676D01*
X51374950Y-42302986D01*
X51380110Y-42294480D01*
X51385025Y-42275298D01*
X51382224Y-42255696D01*
X51372135Y-42238658D01*
X51356293Y-42226776D01*
X51337112Y-42221861D01*
X51317510Y-42224662D01*
X51300471Y-42234751D01*
X51293750Y-42242086D01*
X51044349Y-42574619D01*
X50794949Y-42242086D01*
X50788228Y-42234751D01*
X50771189Y-42224662D01*
X50751587Y-42221861D01*
X50732406Y-42226776D01*
X50716564Y-42238658D01*
X50706475Y-42255696D01*
X50703674Y-42275298D01*
X50708589Y-42294480D01*
X50713749Y-42302986D01*
X50964017Y-42636676D01*
X50542168Y-42805415D01*
X50533337Y-42809998D01*
X50519166Y-42823828D01*
X50511366Y-42842028D01*
X50511125Y-42861828D01*
X50285569Y-42861828D01*
X50285569Y-41996306D01*
X51803129Y-41996306D01*
X51803129Y-43417865D01*
G37*
G36*
X53865368Y-51041879D02*
G01*
X52443809Y-51041879D01*
X52443809Y-50273199D01*
X52669364Y-50273199D01*
X52669364Y-50293001D01*
X52676942Y-50311296D01*
X52690943Y-50325297D01*
X52709237Y-50332875D01*
X52719139Y-50333850D01*
X53127512Y-50333850D01*
X52962018Y-50747584D01*
X52959247Y-50757141D01*
X52959489Y-50776940D01*
X52967288Y-50795140D01*
X52981459Y-50808970D01*
X52999846Y-50816324D01*
X53019646Y-50816083D01*
X53037846Y-50808283D01*
X53051676Y-50794112D01*
X53056259Y-50785281D01*
X53224997Y-50363432D01*
X53558688Y-50613700D01*
X53567194Y-50618860D01*
X53586376Y-50623775D01*
X53605978Y-50620974D01*
X53623016Y-50610885D01*
X53634898Y-50595043D01*
X53639813Y-50575862D01*
X53637012Y-50556260D01*
X53626923Y-50539221D01*
X53619588Y-50532500D01*
X53287054Y-50283099D01*
X53619588Y-50033699D01*
X53626924Y-50026978D01*
X53637012Y-50009939D01*
X53639813Y-49990337D01*
X53634898Y-49971155D01*
X53623016Y-49955313D01*
X53605978Y-49945225D01*
X53586377Y-49942424D01*
X53567194Y-49947339D01*
X53558688Y-49952499D01*
X53224997Y-50202767D01*
X53056259Y-49780918D01*
X53051676Y-49772087D01*
X53037846Y-49757916D01*
X53019646Y-49750116D01*
X52999846Y-49749875D01*
X52981459Y-49757228D01*
X52967288Y-49771059D01*
X52959489Y-49789259D01*
X52959247Y-49809058D01*
X52962018Y-49818615D01*
X53127512Y-50232350D01*
X52719139Y-50232350D01*
X52709237Y-50233325D01*
X52690943Y-50240903D01*
X52676942Y-50254904D01*
X52669364Y-50273199D01*
X52443809Y-50273199D01*
X52443809Y-49524319D01*
X53865368Y-49524319D01*
X53865368Y-51041879D01*
G37*
G36*
X86193118Y-79969379D02*
G01*
X84771559Y-79969379D01*
X84771559Y-79200699D01*
X84997114Y-79200699D01*
X84997114Y-79220501D01*
X85004692Y-79238796D01*
X85018693Y-79252797D01*
X85036987Y-79260375D01*
X85046889Y-79261350D01*
X85455262Y-79261350D01*
X85289768Y-79675084D01*
X85286997Y-79684641D01*
X85287239Y-79704440D01*
X85295038Y-79722640D01*
X85309209Y-79736470D01*
X85327596Y-79743824D01*
X85347396Y-79743583D01*
X85365596Y-79735783D01*
X85379426Y-79721612D01*
X85384009Y-79712781D01*
X85552747Y-79290932D01*
X85886438Y-79541200D01*
X85894944Y-79546360D01*
X85914126Y-79551275D01*
X85933728Y-79548474D01*
X85950766Y-79538385D01*
X85962648Y-79522543D01*
X85967563Y-79503362D01*
X85964762Y-79483760D01*
X85954673Y-79466721D01*
X85947338Y-79460000D01*
X85614804Y-79210599D01*
X85947338Y-78961199D01*
X85954674Y-78954478D01*
X85964762Y-78937439D01*
X85967563Y-78917837D01*
X85962648Y-78898655D01*
X85950766Y-78882813D01*
X85933728Y-78872725D01*
X85914127Y-78869924D01*
X85894944Y-78874839D01*
X85886438Y-78879999D01*
X85552747Y-79130267D01*
X85384009Y-78708418D01*
X85379426Y-78699587D01*
X85365596Y-78685416D01*
X85347396Y-78677616D01*
X85327596Y-78677375D01*
X85309209Y-78684728D01*
X85295038Y-78698559D01*
X85287239Y-78716759D01*
X85286997Y-78736558D01*
X85289768Y-78746115D01*
X85455262Y-79159850D01*
X85046889Y-79159850D01*
X85036987Y-79160825D01*
X85018693Y-79168403D01*
X85004692Y-79182404D01*
X84997114Y-79200699D01*
X84771559Y-79200699D01*
X84771559Y-78451819D01*
X86193118Y-78451819D01*
X86193118Y-79969379D01*
G37*
G36*
X27475368Y-51041879D02*
G01*
X26053809Y-51041879D01*
X26053809Y-50273199D01*
X26279364Y-50273199D01*
X26279364Y-50293001D01*
X26286942Y-50311296D01*
X26300943Y-50325297D01*
X26319237Y-50332875D01*
X26329139Y-50333850D01*
X26737512Y-50333850D01*
X26572018Y-50747584D01*
X26569247Y-50757141D01*
X26569489Y-50776940D01*
X26577288Y-50795140D01*
X26591459Y-50808970D01*
X26609846Y-50816324D01*
X26629646Y-50816083D01*
X26647846Y-50808283D01*
X26661676Y-50794112D01*
X26666259Y-50785281D01*
X26834997Y-50363432D01*
X27168688Y-50613700D01*
X27177194Y-50618860D01*
X27196376Y-50623775D01*
X27215978Y-50620974D01*
X27233016Y-50610885D01*
X27244898Y-50595043D01*
X27249813Y-50575862D01*
X27247012Y-50556260D01*
X27236923Y-50539221D01*
X27229588Y-50532500D01*
X26897054Y-50283099D01*
X27229588Y-50033699D01*
X27236924Y-50026978D01*
X27247012Y-50009939D01*
X27249813Y-49990337D01*
X27244898Y-49971155D01*
X27233016Y-49955313D01*
X27215978Y-49945225D01*
X27196377Y-49942424D01*
X27177194Y-49947339D01*
X27168688Y-49952499D01*
X26834997Y-50202767D01*
X26666259Y-49780918D01*
X26661676Y-49772087D01*
X26647846Y-49757916D01*
X26629646Y-49750116D01*
X26609846Y-49749875D01*
X26591459Y-49757228D01*
X26577288Y-49771059D01*
X26569489Y-49789259D01*
X26569247Y-49809058D01*
X26572018Y-49818615D01*
X26737512Y-50232350D01*
X26329139Y-50232350D01*
X26319237Y-50233325D01*
X26300943Y-50240903D01*
X26286942Y-50254904D01*
X26279364Y-50273199D01*
X26053809Y-50273199D01*
X26053809Y-49524319D01*
X27475368Y-49524319D01*
X27475368Y-51041879D01*
G37*
G36*
X48130618Y-81745629D02*
G01*
X46709059Y-81745629D01*
X46709059Y-80976949D01*
X46934614Y-80976949D01*
X46934614Y-80996751D01*
X46942192Y-81015046D01*
X46956193Y-81029047D01*
X46974487Y-81036625D01*
X46984389Y-81037600D01*
X47392762Y-81037600D01*
X47227268Y-81451334D01*
X47224497Y-81460891D01*
X47224739Y-81480690D01*
X47232538Y-81498890D01*
X47246709Y-81512720D01*
X47265096Y-81520074D01*
X47284896Y-81519833D01*
X47303096Y-81512033D01*
X47316926Y-81497862D01*
X47321509Y-81489031D01*
X47490247Y-81067182D01*
X47823938Y-81317450D01*
X47832444Y-81322610D01*
X47851626Y-81327525D01*
X47871228Y-81324724D01*
X47888266Y-81314635D01*
X47900148Y-81298793D01*
X47905063Y-81279612D01*
X47902262Y-81260010D01*
X47892173Y-81242971D01*
X47884838Y-81236250D01*
X47552304Y-80986849D01*
X47884838Y-80737449D01*
X47892174Y-80730728D01*
X47902262Y-80713689D01*
X47905063Y-80694087D01*
X47900148Y-80674905D01*
X47888266Y-80659063D01*
X47871228Y-80648975D01*
X47851627Y-80646174D01*
X47832444Y-80651089D01*
X47823938Y-80656249D01*
X47490247Y-80906517D01*
X47321509Y-80484668D01*
X47316926Y-80475837D01*
X47303096Y-80461666D01*
X47284896Y-80453866D01*
X47265096Y-80453625D01*
X47246709Y-80460978D01*
X47232538Y-80474809D01*
X47224739Y-80493009D01*
X47224497Y-80512808D01*
X47227268Y-80522365D01*
X47392762Y-80936100D01*
X46984389Y-80936100D01*
X46974487Y-80937075D01*
X46956193Y-80944653D01*
X46942192Y-80958654D01*
X46934614Y-80976949D01*
X46709059Y-80976949D01*
X46709059Y-80228069D01*
X48130618Y-80228069D01*
X48130618Y-81745629D01*
G37*
G36*
X55863129Y-23016365D02*
G01*
X54345569Y-23016365D01*
X54345569Y-22460328D01*
X54571125Y-22460328D01*
X54578478Y-22478715D01*
X54592309Y-22492886D01*
X54610509Y-22500685D01*
X54630308Y-22500927D01*
X54639865Y-22498156D01*
X55053600Y-22332661D01*
X55053600Y-22741035D01*
X55054575Y-22750937D01*
X55062153Y-22769231D01*
X55076154Y-22783232D01*
X55094449Y-22790810D01*
X55114251Y-22790810D01*
X55132546Y-22783232D01*
X55146547Y-22769231D01*
X55154125Y-22750937D01*
X55155100Y-22741035D01*
X55155100Y-22332662D01*
X55568834Y-22498156D01*
X55578390Y-22500927D01*
X55598190Y-22500685D01*
X55616389Y-22492886D01*
X55630219Y-22478715D01*
X55637574Y-22460328D01*
X55637333Y-22440528D01*
X55629533Y-22422328D01*
X55615362Y-22408498D01*
X55606530Y-22403915D01*
X55184682Y-22235176D01*
X55434950Y-21901486D01*
X55440110Y-21892980D01*
X55445025Y-21873798D01*
X55442224Y-21854196D01*
X55432135Y-21837158D01*
X55416293Y-21825276D01*
X55397112Y-21820361D01*
X55377510Y-21823162D01*
X55360471Y-21833251D01*
X55353750Y-21840586D01*
X55104349Y-22173119D01*
X54854949Y-21840586D01*
X54848228Y-21833251D01*
X54831189Y-21823162D01*
X54811587Y-21820361D01*
X54792406Y-21825276D01*
X54776564Y-21837158D01*
X54766475Y-21854196D01*
X54763674Y-21873798D01*
X54768589Y-21892980D01*
X54773749Y-21901486D01*
X55024017Y-22235176D01*
X54602168Y-22403915D01*
X54593337Y-22408498D01*
X54579166Y-22422328D01*
X54571366Y-22440528D01*
X54571125Y-22460328D01*
X54345569Y-22460328D01*
X54345569Y-21594806D01*
X55863129Y-21594806D01*
X55863129Y-23016365D01*
G37*
G36*
X52270029Y-94658218D02*
G01*
X50752469Y-94658218D01*
X50752469Y-93792696D01*
X50978025Y-93792696D01*
X50978266Y-93812496D01*
X50986066Y-93830696D01*
X51000237Y-93844526D01*
X51009068Y-93849109D01*
X51430916Y-94017847D01*
X51180649Y-94351538D01*
X51175489Y-94360044D01*
X51170574Y-94379226D01*
X51173375Y-94398828D01*
X51183464Y-94415866D01*
X51199306Y-94427748D01*
X51218487Y-94432663D01*
X51238089Y-94429862D01*
X51255128Y-94419773D01*
X51261849Y-94412438D01*
X51511249Y-94079904D01*
X51760650Y-94412438D01*
X51767371Y-94419774D01*
X51784410Y-94429862D01*
X51804012Y-94432663D01*
X51823194Y-94427748D01*
X51839036Y-94415866D01*
X51849124Y-94398828D01*
X51851925Y-94379227D01*
X51847010Y-94360044D01*
X51841850Y-94351538D01*
X51591581Y-94017847D01*
X52013430Y-93849109D01*
X52022262Y-93844526D01*
X52036433Y-93830696D01*
X52044233Y-93812496D01*
X52044474Y-93792696D01*
X52037119Y-93774309D01*
X52023289Y-93760138D01*
X52005090Y-93752339D01*
X51985290Y-93752097D01*
X51975734Y-93754868D01*
X51561999Y-93920362D01*
X51561999Y-93511989D01*
X51561024Y-93502087D01*
X51553446Y-93483793D01*
X51539445Y-93469792D01*
X51521150Y-93462214D01*
X51501348Y-93462214D01*
X51483053Y-93469792D01*
X51469052Y-93483793D01*
X51461474Y-93502087D01*
X51460499Y-93511989D01*
X51460499Y-93920362D01*
X51046765Y-93754868D01*
X51037208Y-93752097D01*
X51017409Y-93752339D01*
X50999209Y-93760138D01*
X50985378Y-93774309D01*
X50978025Y-93792696D01*
X50752469Y-93792696D01*
X50752469Y-93236659D01*
X52270029Y-93236659D01*
X52270029Y-94658218D01*
G37*
G36*
X49519379Y-32912615D02*
G01*
X48001819Y-32912615D01*
X48001819Y-32356578D01*
X48227375Y-32356578D01*
X48234728Y-32374965D01*
X48248559Y-32389136D01*
X48266759Y-32396935D01*
X48286558Y-32397177D01*
X48296115Y-32394406D01*
X48709850Y-32228911D01*
X48709850Y-32637285D01*
X48710825Y-32647187D01*
X48718403Y-32665481D01*
X48732404Y-32679482D01*
X48750699Y-32687060D01*
X48770501Y-32687060D01*
X48788796Y-32679482D01*
X48802797Y-32665481D01*
X48810375Y-32647187D01*
X48811350Y-32637285D01*
X48811350Y-32228912D01*
X49225084Y-32394406D01*
X49234640Y-32397177D01*
X49254440Y-32396935D01*
X49272639Y-32389136D01*
X49286469Y-32374965D01*
X49293824Y-32356578D01*
X49293583Y-32336778D01*
X49285783Y-32318578D01*
X49271612Y-32304748D01*
X49262780Y-32300165D01*
X48840932Y-32131426D01*
X49091200Y-31797736D01*
X49096360Y-31789230D01*
X49101275Y-31770048D01*
X49098474Y-31750446D01*
X49088385Y-31733408D01*
X49072543Y-31721526D01*
X49053362Y-31716611D01*
X49033760Y-31719412D01*
X49016721Y-31729501D01*
X49010000Y-31736836D01*
X48760599Y-32069369D01*
X48511199Y-31736836D01*
X48504478Y-31729501D01*
X48487439Y-31719412D01*
X48467837Y-31716611D01*
X48448656Y-31721526D01*
X48432814Y-31733408D01*
X48422725Y-31750446D01*
X48419924Y-31770048D01*
X48424839Y-31789230D01*
X48429999Y-31797736D01*
X48680267Y-32131426D01*
X48258418Y-32300165D01*
X48249587Y-32304748D01*
X48235416Y-32318578D01*
X48227616Y-32336778D01*
X48227375Y-32356578D01*
X48001819Y-32356578D01*
X48001819Y-31491056D01*
X49519379Y-31491056D01*
X49519379Y-32912615D01*
G37*
G36*
X82506879Y-22762615D02*
G01*
X80989319Y-22762615D01*
X80989319Y-22206578D01*
X81214875Y-22206578D01*
X81222228Y-22224965D01*
X81236059Y-22239136D01*
X81254259Y-22246935D01*
X81274058Y-22247177D01*
X81283615Y-22244406D01*
X81697350Y-22078911D01*
X81697350Y-22487285D01*
X81698325Y-22497187D01*
X81705903Y-22515481D01*
X81719904Y-22529482D01*
X81738199Y-22537060D01*
X81758001Y-22537060D01*
X81776296Y-22529482D01*
X81790297Y-22515481D01*
X81797875Y-22497187D01*
X81798850Y-22487285D01*
X81798850Y-22078912D01*
X82212584Y-22244406D01*
X82222140Y-22247177D01*
X82241940Y-22246935D01*
X82260139Y-22239136D01*
X82273969Y-22224965D01*
X82281324Y-22206578D01*
X82281083Y-22186778D01*
X82273283Y-22168578D01*
X82259112Y-22154748D01*
X82250280Y-22150165D01*
X81828432Y-21981426D01*
X82078700Y-21647736D01*
X82083860Y-21639230D01*
X82088775Y-21620048D01*
X82085974Y-21600446D01*
X82075885Y-21583408D01*
X82060043Y-21571526D01*
X82040862Y-21566611D01*
X82021260Y-21569412D01*
X82004221Y-21579501D01*
X81997500Y-21586836D01*
X81748099Y-21919369D01*
X81498699Y-21586836D01*
X81491978Y-21579501D01*
X81474939Y-21569412D01*
X81455337Y-21566611D01*
X81436156Y-21571526D01*
X81420314Y-21583408D01*
X81410225Y-21600446D01*
X81407424Y-21620048D01*
X81412339Y-21639230D01*
X81417499Y-21647736D01*
X81667767Y-21981426D01*
X81245918Y-22150165D01*
X81237087Y-22154748D01*
X81222916Y-22168578D01*
X81215116Y-22186778D01*
X81214875Y-22206578D01*
X80989319Y-22206578D01*
X80989319Y-21341056D01*
X82506879Y-21341056D01*
X82506879Y-22762615D01*
G37*
G36*
X47876868Y-55101879D02*
G01*
X46455309Y-55101879D01*
X46455309Y-54333199D01*
X46680864Y-54333199D01*
X46680864Y-54353001D01*
X46688442Y-54371296D01*
X46702443Y-54385297D01*
X46720737Y-54392875D01*
X46730639Y-54393850D01*
X47139012Y-54393850D01*
X46973518Y-54807584D01*
X46970747Y-54817141D01*
X46970989Y-54836940D01*
X46978788Y-54855140D01*
X46992959Y-54868970D01*
X47011346Y-54876324D01*
X47031146Y-54876083D01*
X47049346Y-54868283D01*
X47063176Y-54854112D01*
X47067759Y-54845281D01*
X47236497Y-54423432D01*
X47570188Y-54673700D01*
X47578694Y-54678860D01*
X47597876Y-54683775D01*
X47617478Y-54680974D01*
X47634516Y-54670885D01*
X47646398Y-54655043D01*
X47651313Y-54635862D01*
X47648512Y-54616260D01*
X47638423Y-54599221D01*
X47631088Y-54592500D01*
X47298554Y-54343099D01*
X47631088Y-54093699D01*
X47638424Y-54086978D01*
X47648512Y-54069939D01*
X47651313Y-54050337D01*
X47646398Y-54031155D01*
X47634516Y-54015313D01*
X47617478Y-54005225D01*
X47597877Y-54002424D01*
X47578694Y-54007339D01*
X47570188Y-54012499D01*
X47236497Y-54262767D01*
X47067759Y-53840918D01*
X47063176Y-53832087D01*
X47049346Y-53817916D01*
X47031146Y-53810116D01*
X47011346Y-53809875D01*
X46992959Y-53817228D01*
X46978788Y-53831059D01*
X46970989Y-53849259D01*
X46970747Y-53869058D01*
X46973518Y-53878615D01*
X47139012Y-54292350D01*
X46730639Y-54292350D01*
X46720737Y-54293325D01*
X46702443Y-54300903D01*
X46688442Y-54314904D01*
X46680864Y-54333199D01*
X46455309Y-54333199D01*
X46455309Y-53584319D01*
X47876868Y-53584319D01*
X47876868Y-55101879D01*
G37*
G36*
X90760618Y-48758129D02*
G01*
X89339059Y-48758129D01*
X89339059Y-47989449D01*
X89564614Y-47989449D01*
X89564614Y-48009251D01*
X89572192Y-48027546D01*
X89586193Y-48041547D01*
X89604487Y-48049125D01*
X89614389Y-48050100D01*
X90022762Y-48050100D01*
X89857268Y-48463834D01*
X89854497Y-48473391D01*
X89854739Y-48493190D01*
X89862538Y-48511390D01*
X89876709Y-48525220D01*
X89895096Y-48532574D01*
X89914896Y-48532333D01*
X89933096Y-48524533D01*
X89946926Y-48510362D01*
X89951509Y-48501531D01*
X90120247Y-48079682D01*
X90453938Y-48329950D01*
X90462444Y-48335110D01*
X90481626Y-48340025D01*
X90501228Y-48337224D01*
X90518266Y-48327135D01*
X90530148Y-48311293D01*
X90535063Y-48292112D01*
X90532262Y-48272510D01*
X90522173Y-48255471D01*
X90514838Y-48248750D01*
X90182304Y-47999349D01*
X90514838Y-47749949D01*
X90522174Y-47743228D01*
X90532262Y-47726189D01*
X90535063Y-47706587D01*
X90530148Y-47687405D01*
X90518266Y-47671563D01*
X90501228Y-47661475D01*
X90481627Y-47658674D01*
X90462444Y-47663589D01*
X90453938Y-47668749D01*
X90120247Y-47919017D01*
X89951509Y-47497168D01*
X89946926Y-47488337D01*
X89933096Y-47474166D01*
X89914896Y-47466366D01*
X89895096Y-47466125D01*
X89876709Y-47473478D01*
X89862538Y-47487309D01*
X89854739Y-47505509D01*
X89854497Y-47525308D01*
X89857268Y-47534865D01*
X90022762Y-47948600D01*
X89614389Y-47948600D01*
X89604487Y-47949575D01*
X89586193Y-47957153D01*
X89572192Y-47971154D01*
X89564614Y-47989449D01*
X89339059Y-47989449D01*
X89339059Y-47240569D01*
X90760618Y-47240569D01*
X90760618Y-48758129D01*
G37*
G36*
X59803118Y-79969379D02*
G01*
X58381559Y-79969379D01*
X58381559Y-79200699D01*
X58607114Y-79200699D01*
X58607114Y-79220501D01*
X58614692Y-79238796D01*
X58628693Y-79252797D01*
X58646987Y-79260375D01*
X58656889Y-79261350D01*
X59065262Y-79261350D01*
X58899768Y-79675084D01*
X58896997Y-79684641D01*
X58897239Y-79704440D01*
X58905038Y-79722640D01*
X58919209Y-79736470D01*
X58937596Y-79743824D01*
X58957396Y-79743583D01*
X58975596Y-79735783D01*
X58989426Y-79721612D01*
X58994009Y-79712781D01*
X59162747Y-79290932D01*
X59496438Y-79541200D01*
X59504944Y-79546360D01*
X59524126Y-79551275D01*
X59543728Y-79548474D01*
X59560766Y-79538385D01*
X59572648Y-79522543D01*
X59577563Y-79503362D01*
X59574762Y-79483760D01*
X59564673Y-79466721D01*
X59557338Y-79460000D01*
X59224804Y-79210599D01*
X59557338Y-78961199D01*
X59564674Y-78954478D01*
X59574762Y-78937439D01*
X59577563Y-78917837D01*
X59572648Y-78898655D01*
X59560766Y-78882813D01*
X59543728Y-78872725D01*
X59524127Y-78869924D01*
X59504944Y-78874839D01*
X59496438Y-78879999D01*
X59162747Y-79130267D01*
X58994009Y-78708418D01*
X58989426Y-78699587D01*
X58975596Y-78685416D01*
X58957396Y-78677616D01*
X58937596Y-78677375D01*
X58919209Y-78684728D01*
X58905038Y-78698559D01*
X58897239Y-78716759D01*
X58896997Y-78736558D01*
X58899768Y-78746115D01*
X59065262Y-79159850D01*
X58656889Y-79159850D01*
X58646987Y-79160825D01*
X58628693Y-79168403D01*
X58614692Y-79182404D01*
X58607114Y-79200699D01*
X58381559Y-79200699D01*
X58381559Y-78451819D01*
X59803118Y-78451819D01*
X59803118Y-79969379D01*
G37*
G36*
X37980618Y-48758129D02*
G01*
X36559059Y-48758129D01*
X36559059Y-47989449D01*
X36784614Y-47989449D01*
X36784614Y-48009251D01*
X36792192Y-48027546D01*
X36806193Y-48041547D01*
X36824487Y-48049125D01*
X36834389Y-48050100D01*
X37242762Y-48050100D01*
X37077268Y-48463834D01*
X37074497Y-48473391D01*
X37074739Y-48493190D01*
X37082538Y-48511390D01*
X37096709Y-48525220D01*
X37115096Y-48532574D01*
X37134896Y-48532333D01*
X37153096Y-48524533D01*
X37166926Y-48510362D01*
X37171509Y-48501531D01*
X37340247Y-48079682D01*
X37673938Y-48329950D01*
X37682444Y-48335110D01*
X37701626Y-48340025D01*
X37721228Y-48337224D01*
X37738266Y-48327135D01*
X37750148Y-48311293D01*
X37755063Y-48292112D01*
X37752262Y-48272510D01*
X37742173Y-48255471D01*
X37734838Y-48248750D01*
X37402304Y-47999349D01*
X37734838Y-47749949D01*
X37742174Y-47743228D01*
X37752262Y-47726189D01*
X37755063Y-47706587D01*
X37750148Y-47687405D01*
X37738266Y-47671563D01*
X37721228Y-47661475D01*
X37701627Y-47658674D01*
X37682444Y-47663589D01*
X37673938Y-47668749D01*
X37340247Y-47919017D01*
X37171509Y-47497168D01*
X37166926Y-47488337D01*
X37153096Y-47474166D01*
X37134896Y-47466366D01*
X37115096Y-47466125D01*
X37096709Y-47473478D01*
X37082538Y-47487309D01*
X37074739Y-47505509D01*
X37074497Y-47525308D01*
X37077268Y-47534865D01*
X37242762Y-47948600D01*
X36834389Y-47948600D01*
X36824487Y-47949575D01*
X36806193Y-47957153D01*
X36792192Y-47971154D01*
X36784614Y-47989449D01*
X36559059Y-47989449D01*
X36559059Y-47240569D01*
X37980618Y-47240569D01*
X37980618Y-48758129D01*
G37*
G36*
X80730629Y-37480115D02*
G01*
X79213069Y-37480115D01*
X79213069Y-36924078D01*
X79438625Y-36924078D01*
X79445978Y-36942465D01*
X79459809Y-36956636D01*
X79478009Y-36964435D01*
X79497808Y-36964677D01*
X79507365Y-36961906D01*
X79921100Y-36796411D01*
X79921100Y-37204785D01*
X79922075Y-37214687D01*
X79929653Y-37232981D01*
X79943654Y-37246982D01*
X79961949Y-37254560D01*
X79981751Y-37254560D01*
X80000046Y-37246982D01*
X80014047Y-37232981D01*
X80021625Y-37214687D01*
X80022600Y-37204785D01*
X80022600Y-36796412D01*
X80436334Y-36961906D01*
X80445890Y-36964677D01*
X80465690Y-36964435D01*
X80483889Y-36956636D01*
X80497719Y-36942465D01*
X80505074Y-36924078D01*
X80504833Y-36904278D01*
X80497033Y-36886078D01*
X80482862Y-36872248D01*
X80474030Y-36867665D01*
X80052182Y-36698926D01*
X80302450Y-36365236D01*
X80307610Y-36356730D01*
X80312525Y-36337548D01*
X80309724Y-36317946D01*
X80299635Y-36300908D01*
X80283793Y-36289026D01*
X80264612Y-36284111D01*
X80245010Y-36286912D01*
X80227971Y-36297001D01*
X80221250Y-36304336D01*
X79971849Y-36636869D01*
X79722449Y-36304336D01*
X79715728Y-36297001D01*
X79698689Y-36286912D01*
X79679087Y-36284111D01*
X79659906Y-36289026D01*
X79644064Y-36300908D01*
X79633975Y-36317946D01*
X79631174Y-36337548D01*
X79636089Y-36356730D01*
X79641249Y-36365236D01*
X79891517Y-36698926D01*
X79469668Y-36867665D01*
X79460837Y-36872248D01*
X79446666Y-36886078D01*
X79438866Y-36904278D01*
X79438625Y-36924078D01*
X79213069Y-36924078D01*
X79213069Y-36058556D01*
X80730629Y-36058556D01*
X80730629Y-37480115D01*
G37*
G36*
X83481279Y-99225718D02*
G01*
X81963719Y-99225718D01*
X81963719Y-98360196D01*
X82189275Y-98360196D01*
X82189516Y-98379996D01*
X82197316Y-98398196D01*
X82211487Y-98412026D01*
X82220318Y-98416609D01*
X82642166Y-98585347D01*
X82391899Y-98919038D01*
X82386739Y-98927544D01*
X82381824Y-98946726D01*
X82384625Y-98966328D01*
X82394714Y-98983366D01*
X82410556Y-98995248D01*
X82429737Y-99000163D01*
X82449339Y-98997362D01*
X82466378Y-98987273D01*
X82473099Y-98979938D01*
X82722499Y-98647404D01*
X82971900Y-98979938D01*
X82978621Y-98987274D01*
X82995660Y-98997362D01*
X83015262Y-99000163D01*
X83034444Y-98995248D01*
X83050286Y-98983366D01*
X83060374Y-98966328D01*
X83063175Y-98946727D01*
X83058260Y-98927544D01*
X83053100Y-98919038D01*
X82802831Y-98585347D01*
X83224680Y-98416609D01*
X83233512Y-98412026D01*
X83247683Y-98398196D01*
X83255483Y-98379996D01*
X83255724Y-98360196D01*
X83248369Y-98341809D01*
X83234539Y-98327638D01*
X83216340Y-98319839D01*
X83196540Y-98319597D01*
X83186984Y-98322368D01*
X82773249Y-98487862D01*
X82773249Y-98079489D01*
X82772274Y-98069587D01*
X82764696Y-98051293D01*
X82750695Y-98037292D01*
X82732400Y-98029714D01*
X82712598Y-98029714D01*
X82694303Y-98037292D01*
X82680302Y-98051293D01*
X82672724Y-98069587D01*
X82671749Y-98079489D01*
X82671749Y-98487862D01*
X82258015Y-98322368D01*
X82248458Y-98319597D01*
X82228659Y-98319839D01*
X82210459Y-98327638D01*
X82196628Y-98341809D01*
X82189275Y-98360196D01*
X81963719Y-98360196D01*
X81963719Y-97804159D01*
X83481279Y-97804159D01*
X83481279Y-99225718D01*
G37*
G36*
X100656868Y-55101879D02*
G01*
X99235309Y-55101879D01*
X99235309Y-54333199D01*
X99460864Y-54333199D01*
X99460864Y-54353001D01*
X99468442Y-54371296D01*
X99482443Y-54385297D01*
X99500737Y-54392875D01*
X99510639Y-54393850D01*
X99919012Y-54393850D01*
X99753518Y-54807584D01*
X99750747Y-54817141D01*
X99750989Y-54836940D01*
X99758788Y-54855140D01*
X99772959Y-54868970D01*
X99791346Y-54876324D01*
X99811146Y-54876083D01*
X99829346Y-54868283D01*
X99843176Y-54854112D01*
X99847759Y-54845281D01*
X100016497Y-54423432D01*
X100350188Y-54673700D01*
X100358694Y-54678860D01*
X100377876Y-54683775D01*
X100397478Y-54680974D01*
X100414516Y-54670885D01*
X100426398Y-54655043D01*
X100431313Y-54635862D01*
X100428512Y-54616260D01*
X100418423Y-54599221D01*
X100411088Y-54592500D01*
X100078554Y-54343099D01*
X100411088Y-54093699D01*
X100418424Y-54086978D01*
X100428512Y-54069939D01*
X100431313Y-54050337D01*
X100426398Y-54031155D01*
X100414516Y-54015313D01*
X100397478Y-54005225D01*
X100377877Y-54002424D01*
X100358694Y-54007339D01*
X100350188Y-54012499D01*
X100016497Y-54262767D01*
X99847759Y-53840918D01*
X99843176Y-53832087D01*
X99829346Y-53817916D01*
X99811146Y-53810116D01*
X99791346Y-53809875D01*
X99772959Y-53817228D01*
X99758788Y-53831059D01*
X99750989Y-53849259D01*
X99750747Y-53869058D01*
X99753518Y-53878615D01*
X99919012Y-54292350D01*
X99510639Y-54292350D01*
X99500737Y-54293325D01*
X99482443Y-54300903D01*
X99468442Y-54314904D01*
X99460864Y-54333199D01*
X99235309Y-54333199D01*
X99235309Y-53584319D01*
X100656868Y-53584319D01*
X100656868Y-55101879D01*
G37*
G36*
X100910618Y-81745629D02*
G01*
X99489059Y-81745629D01*
X99489059Y-80976949D01*
X99714614Y-80976949D01*
X99714614Y-80996751D01*
X99722192Y-81015046D01*
X99736193Y-81029047D01*
X99754487Y-81036625D01*
X99764389Y-81037600D01*
X100172762Y-81037600D01*
X100007268Y-81451334D01*
X100004497Y-81460891D01*
X100004739Y-81480690D01*
X100012538Y-81498890D01*
X100026709Y-81512720D01*
X100045096Y-81520074D01*
X100064896Y-81519833D01*
X100083096Y-81512033D01*
X100096926Y-81497862D01*
X100101509Y-81489031D01*
X100270247Y-81067182D01*
X100603938Y-81317450D01*
X100612444Y-81322610D01*
X100631626Y-81327525D01*
X100651228Y-81324724D01*
X100668266Y-81314635D01*
X100680148Y-81298793D01*
X100685063Y-81279612D01*
X100682262Y-81260010D01*
X100672173Y-81242971D01*
X100664838Y-81236250D01*
X100332304Y-80986849D01*
X100664838Y-80737449D01*
X100672174Y-80730728D01*
X100682262Y-80713689D01*
X100685063Y-80694087D01*
X100680148Y-80674905D01*
X100668266Y-80659063D01*
X100651228Y-80648975D01*
X100631627Y-80646174D01*
X100612444Y-80651089D01*
X100603938Y-80656249D01*
X100270247Y-80906517D01*
X100101509Y-80484668D01*
X100096926Y-80475837D01*
X100083096Y-80461666D01*
X100064896Y-80453866D01*
X100045096Y-80453625D01*
X100026709Y-80460978D01*
X100012538Y-80474809D01*
X100004739Y-80493009D01*
X100004497Y-80512808D01*
X100007268Y-80522365D01*
X100172762Y-80936100D01*
X99764389Y-80936100D01*
X99754487Y-80937075D01*
X99736193Y-80944653D01*
X99722192Y-80958654D01*
X99714614Y-80976949D01*
X99489059Y-80976949D01*
X99489059Y-80228069D01*
X100910618Y-80228069D01*
X100910618Y-81745629D01*
G37*
D13*
G36*
X95882255Y-91416342D02*
G01*
X95918800Y-91440973D01*
X95969662Y-91498245D01*
X95995324Y-91561957D01*
X95995225Y-91629684D01*
X95975612Y-91686344D01*
X95935387Y-91740468D01*
X95882412Y-91775499D01*
X95822165Y-91791625D01*
X95760125Y-91789039D01*
X95701772Y-91767930D01*
X95652585Y-91728488D01*
X95619232Y-91673950D01*
X95600532Y-91611520D01*
X95601567Y-91559553D01*
X95623353Y-91509361D01*
X95641428Y-91483413D01*
X95694867Y-91431310D01*
X95755682Y-91402325D01*
X95819578Y-91397117D01*
X95882255Y-91416342D01*
G37*
G36*
X95826957Y-92471212D02*
G01*
X95858531Y-92476974D01*
X95883324Y-92490951D01*
X95911328Y-92516719D01*
X95912704Y-92518094D01*
X95953929Y-92575098D01*
X95972873Y-92636991D01*
X95971567Y-92699221D01*
X95952040Y-92757242D01*
X95916326Y-92806500D01*
X95866452Y-92842446D01*
X95804450Y-92860530D01*
X95759819Y-92860678D01*
X95694754Y-92844063D01*
X95643512Y-92807212D01*
X95602108Y-92747214D01*
X95600636Y-92744362D01*
X95580463Y-92700566D01*
X95573200Y-92666917D01*
X95577431Y-92630926D01*
X95584705Y-92603677D01*
X95601561Y-92569816D01*
X95630381Y-92531521D01*
X95644509Y-92516625D01*
X95673140Y-92491009D01*
X95698467Y-92477044D01*
X95730558Y-92471234D01*
X95778610Y-92470085D01*
X95826957Y-92471212D01*
G37*
G36*
X95032338Y-91956431D02*
G01*
X95082320Y-91975329D01*
X95124020Y-92009246D01*
X95152950Y-92055690D01*
X95164628Y-92112170D01*
X95156610Y-92169747D01*
X95128790Y-92222969D01*
X95085818Y-92260156D01*
X95033624Y-92280534D01*
X94978132Y-92283328D01*
X94925269Y-92267763D01*
X94880965Y-92233064D01*
X94863732Y-92208040D01*
X94840598Y-92165863D01*
X94605513Y-92172662D01*
X94520659Y-92174358D01*
X94448374Y-92174311D01*
X94392608Y-92172613D01*
X94357313Y-92169354D01*
X94347703Y-92166742D01*
X94328289Y-92143007D01*
X94327741Y-92112463D01*
X94341720Y-92091857D01*
X94359992Y-92087138D01*
X94400408Y-92082164D01*
X94458337Y-92077331D01*
X94529147Y-92073032D01*
X94598811Y-92069989D01*
X94839162Y-92061329D01*
X94877548Y-92014759D01*
X94925466Y-91973655D01*
X94978558Y-91955043D01*
X95032338Y-91956431D01*
G37*
G36*
X92423524Y-92994465D02*
G01*
X92511283Y-93000414D01*
X92586290Y-93011920D01*
X92655491Y-93030376D01*
X92725830Y-93057172D01*
X92793173Y-93088263D01*
X92902507Y-93152933D01*
X92990919Y-93228705D01*
X93057820Y-93313171D01*
X93102620Y-93403924D01*
X93124735Y-93498555D01*
X93123574Y-93594659D01*
X93098552Y-93689827D01*
X93049080Y-93781651D01*
X92981772Y-93860808D01*
X92879426Y-93942715D01*
X92759976Y-94007513D01*
X92627291Y-94054754D01*
X92485237Y-94083991D01*
X92337681Y-94094780D01*
X92188493Y-94086672D01*
X92041538Y-94059223D01*
X91900683Y-94011984D01*
X91854150Y-93990987D01*
X91742614Y-93925871D01*
X91651792Y-93849267D01*
X91583098Y-93762975D01*
X91537941Y-93668795D01*
X91517739Y-93568530D01*
X91517309Y-93561593D01*
X91517880Y-93499432D01*
X91525046Y-93442022D01*
X91530977Y-93418615D01*
X91577292Y-93319630D01*
X91647738Y-93230156D01*
X91741028Y-93151256D01*
X91855871Y-93083996D01*
X91990982Y-93029441D01*
X92008509Y-93023795D01*
X92051505Y-93011316D01*
X92091853Y-93002620D01*
X92135911Y-92997062D01*
X92190038Y-92993999D01*
X92260592Y-92992787D01*
X92316070Y-92992684D01*
X92423524Y-92994465D01*
G37*
G36*
X95612337Y-89039039D02*
G01*
X95638565Y-89069671D01*
X95643617Y-89084097D01*
X95646024Y-89107107D01*
X95648020Y-89153042D01*
X95649540Y-89218042D01*
X95650519Y-89298250D01*
X95650894Y-89389807D01*
X95650599Y-89488853D01*
X95650545Y-89496900D01*
X95649855Y-89618554D01*
X95649360Y-89753253D01*
X95649077Y-89892177D01*
X95649019Y-90026504D01*
X95649201Y-90147412D01*
X95649393Y-90201572D01*
X95650858Y-90531248D01*
X95754652Y-90568762D01*
X95793830Y-90583007D01*
X95853944Y-90604975D01*
X95930795Y-90633127D01*
X96020186Y-90665922D01*
X96117918Y-90701823D01*
X96219794Y-90739289D01*
X96247531Y-90749497D01*
X96636616Y-90892718D01*
X97144844Y-90902537D01*
X97281193Y-90905244D01*
X97393162Y-90907831D01*
X97483152Y-90910657D01*
X97553563Y-90914082D01*
X97606798Y-90918464D01*
X97645257Y-90924159D01*
X97671341Y-90931529D01*
X97687450Y-90940930D01*
X97695987Y-90952721D01*
X97699352Y-90967261D01*
X97699946Y-90984908D01*
X97699946Y-90985414D01*
X97695643Y-90999855D01*
X97681097Y-91019011D01*
X97653850Y-91045067D01*
X97611447Y-91080215D01*
X97551431Y-91126646D01*
X97489010Y-91173440D01*
X97407424Y-91234160D01*
X97317878Y-91300942D01*
X97228458Y-91367746D01*
X97147248Y-91428537D01*
X97102941Y-91461779D01*
X96927806Y-91593343D01*
X96945331Y-91676807D01*
X96970868Y-91838497D01*
X96984057Y-92015573D01*
X96985016Y-92199710D01*
X96973865Y-92382588D01*
X96950723Y-92555884D01*
X96931348Y-92650887D01*
X96930113Y-92666023D01*
X96936075Y-92681512D01*
X96952408Y-92700652D01*
X96982283Y-92726744D01*
X97028873Y-92763083D01*
X97066616Y-92791511D01*
X97207812Y-92897318D01*
X97328407Y-92987957D01*
X97429358Y-93064163D01*
X97511620Y-93126668D01*
X97576152Y-93176201D01*
X97623909Y-93213496D01*
X97655846Y-93239285D01*
X97672921Y-93254299D01*
X97676179Y-93257986D01*
X97686248Y-93295984D01*
X97674895Y-93333989D01*
X97656788Y-93353246D01*
X97645963Y-93358727D01*
X97628973Y-93363176D01*
X97603220Y-93366699D01*
X97566108Y-93369397D01*
X97515037Y-93371371D01*
X97447411Y-93372727D01*
X97360631Y-93373564D01*
X97252100Y-93373985D01*
X97128271Y-93374095D01*
X96998906Y-93374159D01*
X96893413Y-93374446D01*
X96808876Y-93375102D01*
X96742378Y-93376269D01*
X96691007Y-93378090D01*
X96651846Y-93380710D01*
X96621981Y-93384273D01*
X96598498Y-93388921D01*
X96578480Y-93394799D01*
X96559013Y-93402051D01*
X96558712Y-93402171D01*
X96520971Y-93416692D01*
X96463161Y-93438382D01*
X96389578Y-93465671D01*
X96304521Y-93496994D01*
X96212286Y-93530785D01*
X96117175Y-93565479D01*
X96023482Y-93599509D01*
X95935508Y-93631309D01*
X95857548Y-93659313D01*
X95793902Y-93681954D01*
X95748868Y-93697669D01*
X95734359Y-93702541D01*
X95694159Y-93717160D01*
X95665527Y-93730397D01*
X95656862Y-93736818D01*
X95655488Y-93752079D01*
X95654233Y-93791492D01*
X95653122Y-93852425D01*
X95652179Y-93932244D01*
X95651430Y-94028319D01*
X95650899Y-94138015D01*
X95650612Y-94258701D01*
X95650594Y-94387743D01*
X95650605Y-94398592D01*
X95650499Y-94570348D01*
X95649779Y-94717764D01*
X95648451Y-94840428D01*
X95646523Y-94937931D01*
X95644006Y-95009865D01*
X95640905Y-95055821D01*
X95637393Y-95075105D01*
X95607758Y-95109963D01*
X95571382Y-95121057D01*
X95536122Y-95109096D01*
X95503538Y-95087746D01*
X95503538Y-94437075D01*
X95503407Y-94282828D01*
X95502983Y-94153527D01*
X95502217Y-94047334D01*
X95501062Y-93962409D01*
X95499469Y-93896915D01*
X95497393Y-93849013D01*
X95494783Y-93816864D01*
X95491593Y-93798630D01*
X95487775Y-93792473D01*
X95486798Y-93792573D01*
X95466419Y-93799545D01*
X95428428Y-93812129D01*
X95380706Y-93827718D01*
X95376308Y-93829145D01*
X95329042Y-93845315D01*
X95291866Y-93859586D01*
X95272155Y-93869110D01*
X95271411Y-93869707D01*
X95266558Y-93876154D01*
X95262618Y-93887532D01*
X95259477Y-93906512D01*
X95257022Y-93935766D01*
X95255141Y-93977965D01*
X95253722Y-94035780D01*
X95252653Y-94111885D01*
X95251818Y-94208949D01*
X95251108Y-94329645D01*
X95250984Y-94354155D01*
X95250247Y-94467897D01*
X95249185Y-94557789D01*
X95247631Y-94626763D01*
X95245420Y-94677753D01*
X95242384Y-94713694D01*
X95238357Y-94737518D01*
X95233174Y-94752159D01*
X95228031Y-94759286D01*
X95192566Y-94778619D01*
X95152532Y-94772176D01*
X95134534Y-94761383D01*
X95127249Y-94754969D01*
X95121524Y-94745643D01*
X95117211Y-94730488D01*
X95114168Y-94706587D01*
X95112250Y-94671020D01*
X95111311Y-94620870D01*
X95111207Y-94553219D01*
X95111794Y-94465149D01*
X95112925Y-94353741D01*
X95113176Y-94330888D01*
X95114314Y-94212703D01*
X95114767Y-94118814D01*
X95114453Y-94046738D01*
X95113290Y-93993994D01*
X95111194Y-93958096D01*
X95108084Y-93936564D01*
X95103877Y-93926914D01*
X95099699Y-93926069D01*
X95078852Y-93932888D01*
X95039914Y-93944875D01*
X94990505Y-93959692D01*
X94979381Y-93962983D01*
X94877095Y-93993167D01*
X94871815Y-94173855D01*
X94869251Y-94247977D01*
X94866154Y-94299911D01*
X94861814Y-94334254D01*
X94855517Y-94355605D01*
X94846554Y-94368559D01*
X94840963Y-94373242D01*
X94800006Y-94390653D01*
X94762199Y-94382292D01*
X94747806Y-94370896D01*
X94737895Y-94354953D01*
X94731500Y-94327645D01*
X94728001Y-94284127D01*
X94726785Y-94219560D01*
X94726760Y-94205719D01*
X94726153Y-94146319D01*
X94724510Y-94097453D01*
X94722097Y-94064942D01*
X94719820Y-94054647D01*
X94705574Y-94056453D01*
X94669674Y-94065433D01*
X94615945Y-94080500D01*
X94548214Y-94100571D01*
X94470306Y-94124559D01*
X94441920Y-94133496D01*
X94121370Y-94232177D01*
X93802309Y-94324915D01*
X93487375Y-94411099D01*
X93179203Y-94490116D01*
X92880429Y-94561352D01*
X92593690Y-94624197D01*
X92321620Y-94678038D01*
X92066858Y-94722262D01*
X91832039Y-94756258D01*
X91689837Y-94772735D01*
X91410330Y-94792819D01*
X91148611Y-94793878D01*
X90904860Y-94775963D01*
X90679256Y-94739126D01*
X90471976Y-94683417D01*
X90283203Y-94608889D01*
X90113113Y-94515591D01*
X89961885Y-94403577D01*
X89829697Y-94272897D01*
X89792745Y-94228768D01*
X89755715Y-94178876D01*
X89715710Y-94118982D01*
X89675600Y-94054126D01*
X89638254Y-93989349D01*
X89606541Y-93929692D01*
X89583329Y-93880195D01*
X89571488Y-93845899D01*
X89570560Y-93838374D01*
X89564834Y-93812490D01*
X89551640Y-93780310D01*
X89539286Y-93748531D01*
X89524532Y-93700490D01*
X89510419Y-93646152D01*
X89509436Y-93641949D01*
X89497898Y-93593646D01*
X89488425Y-93556659D01*
X89482753Y-93537707D01*
X89482218Y-93536661D01*
X89470683Y-93542337D01*
X89442079Y-93561346D01*
X89400630Y-93590764D01*
X89350553Y-93627666D01*
X89346970Y-93630352D01*
X89159024Y-93787067D01*
X88992805Y-93958316D01*
X88848892Y-94142849D01*
X88727864Y-94339418D01*
X88630302Y-94546773D01*
X88556785Y-94763664D01*
X88507891Y-94988844D01*
X88484200Y-95221063D01*
X88486292Y-95459070D01*
X88487913Y-95482756D01*
X88514729Y-95701854D01*
X88561836Y-95918172D01*
X88627616Y-96126307D01*
X88710450Y-96320855D01*
X88774730Y-96440986D01*
X88816331Y-96523094D01*
X88837927Y-96596253D01*
X88841039Y-96667458D01*
X88834192Y-96714466D01*
X88803946Y-96799744D01*
X88754069Y-96870568D01*
X88688671Y-96924897D01*
X88611859Y-96960686D01*
X88527740Y-96975893D01*
X88440420Y-96968477D01*
X88370962Y-96944854D01*
X88325950Y-96919711D01*
X88285957Y-96886911D01*
X88247952Y-96842600D01*
X88208905Y-96782924D01*
X88165786Y-96704028D01*
X88138047Y-96648617D01*
X88057619Y-96469578D01*
X87986724Y-96282254D01*
X87927624Y-96093779D01*
X87882578Y-95911284D01*
X87855965Y-95758378D01*
X87848485Y-95705851D01*
X87841660Y-95663990D01*
X87836618Y-95639518D01*
X87835441Y-95636234D01*
X87832104Y-95617861D01*
X87829276Y-95577539D01*
X87826998Y-95520103D01*
X87825313Y-95450387D01*
X87824260Y-95373225D01*
X87824049Y-95328572D01*
X87968776Y-95328572D01*
X87969064Y-95406658D01*
X87970033Y-95478842D01*
X87971676Y-95540412D01*
X87973989Y-95586651D01*
X87976965Y-95612842D01*
X87978438Y-95616757D01*
X87993713Y-95616751D01*
X88025970Y-95609862D01*
X88051111Y-95602751D01*
X88097124Y-95592012D01*
X88157934Y-95582271D01*
X88221564Y-95575393D01*
X88231288Y-95574679D01*
X88345126Y-95566945D01*
X88345414Y-95310914D01*
X88346109Y-95210171D01*
X88348264Y-95129627D01*
X88352372Y-95062712D01*
X88358926Y-95002859D01*
X88368416Y-94943498D01*
X88375818Y-94904923D01*
X88437336Y-94663773D01*
X88522389Y-94435333D01*
X88630762Y-94219923D01*
X88762242Y-94017864D01*
X88916614Y-93829475D01*
X89093663Y-93655079D01*
X89293178Y-93494996D01*
X89338013Y-93463155D01*
X89446980Y-93387392D01*
X89440058Y-93183201D01*
X89437441Y-93112280D01*
X89434789Y-93051495D01*
X89432343Y-93005564D01*
X89430340Y-92979203D01*
X89429543Y-92974783D01*
X89414636Y-92976804D01*
X89381774Y-92992490D01*
X89334488Y-93019514D01*
X89276311Y-93055545D01*
X89210774Y-93098257D01*
X89141409Y-93145324D01*
X89071748Y-93194414D01*
X89005323Y-93243203D01*
X88945665Y-93289363D01*
X88918150Y-93311836D01*
X88716126Y-93496695D01*
X88538105Y-93693390D01*
X88383895Y-93902274D01*
X88253301Y-94123697D01*
X88146129Y-94358008D01*
X88062187Y-94605562D01*
X88001279Y-94866706D01*
X87977736Y-95014703D01*
X87974538Y-95051551D01*
X87972050Y-95106077D01*
X87970263Y-95173566D01*
X87969174Y-95249303D01*
X87968776Y-95328572D01*
X87824049Y-95328572D01*
X87823884Y-95293449D01*
X87824225Y-95215892D01*
X87825323Y-95145392D01*
X87827222Y-95086777D01*
X87829964Y-95044885D01*
X87830320Y-95041489D01*
X87871166Y-94784733D01*
X87935628Y-94532058D01*
X88022345Y-94286971D01*
X88129950Y-94052977D01*
X88257080Y-93833584D01*
X88354920Y-93693281D01*
X88416118Y-93617189D01*
X88492490Y-93530396D01*
X88578236Y-93438862D01*
X88667559Y-93348549D01*
X88754661Y-93265419D01*
X88833742Y-93195430D01*
X88860484Y-93173522D01*
X88942598Y-93111225D01*
X89037937Y-93043902D01*
X89138612Y-92976772D01*
X89236738Y-92915055D01*
X89324424Y-92863970D01*
X89345449Y-92852591D01*
X89429543Y-92808015D01*
X89432346Y-92806529D01*
X89441186Y-92224283D01*
X89443168Y-92084919D01*
X89444995Y-91939499D01*
X89446617Y-91793371D01*
X89447981Y-91651885D01*
X89448685Y-91564250D01*
X89582899Y-91564250D01*
X89655768Y-91556729D01*
X89731355Y-91553351D01*
X89790126Y-91562699D01*
X89839977Y-91587174D01*
X89886470Y-91626820D01*
X89928776Y-91679289D01*
X89946196Y-91726628D01*
X89938461Y-91767699D01*
X89924511Y-91786100D01*
X89899069Y-91803675D01*
X89872829Y-91802129D01*
X89840970Y-91780006D01*
X89813821Y-91752666D01*
X89773901Y-91715696D01*
X89735589Y-91696464D01*
X89708463Y-91690802D01*
X89674038Y-91687925D01*
X89652055Y-91694578D01*
X89632296Y-91715971D01*
X89618030Y-91736879D01*
X89598703Y-91769758D01*
X89588629Y-91800632D01*
X89585586Y-91839811D01*
X89586651Y-91882448D01*
X89590650Y-91974555D01*
X90406360Y-91978007D01*
X90589775Y-91978941D01*
X90747637Y-91980097D01*
X90881174Y-91981503D01*
X90991617Y-91983186D01*
X91080195Y-91985176D01*
X91148140Y-91987499D01*
X91196680Y-91990185D01*
X91227047Y-91993259D01*
X91240470Y-91996751D01*
X91240740Y-91996956D01*
X91253242Y-92021234D01*
X91255380Y-92053465D01*
X91253773Y-92068668D01*
X91250872Y-92081672D01*
X91244737Y-92092625D01*
X91233426Y-92101676D01*
X91215000Y-92108970D01*
X91187515Y-92114657D01*
X91149032Y-92118884D01*
X91097609Y-92121798D01*
X91031306Y-92123546D01*
X90948182Y-92124277D01*
X90846294Y-92124137D01*
X90723703Y-92123276D01*
X90578467Y-92121839D01*
X90408646Y-92119975D01*
X90384169Y-92119704D01*
X89583953Y-92110837D01*
X89583953Y-92207422D01*
X89588589Y-92283816D01*
X89603580Y-92338691D01*
X89630544Y-92375845D01*
X89664638Y-92396561D01*
X89697660Y-92406485D01*
X89727085Y-92402625D01*
X89752564Y-92391854D01*
X89787492Y-92368407D01*
X89812098Y-92340059D01*
X89813903Y-92336517D01*
X89839278Y-92304972D01*
X89872923Y-92291734D01*
X89906805Y-92296683D01*
X89932892Y-92319695D01*
X89940636Y-92338464D01*
X89939382Y-92384490D01*
X89916870Y-92434664D01*
X89876447Y-92482558D01*
X89857004Y-92498888D01*
X89829648Y-92517923D01*
X89803790Y-92529323D01*
X89771259Y-92535012D01*
X89723881Y-92536916D01*
X89694948Y-92537049D01*
X89582969Y-92537049D01*
X89586810Y-92644191D01*
X89590650Y-92751332D01*
X89649843Y-92755562D01*
X89694187Y-92756476D01*
X89732106Y-92753568D01*
X89739998Y-92752021D01*
X89782513Y-92731149D01*
X89826042Y-92693920D01*
X89861927Y-92648952D01*
X89879253Y-92613388D01*
X89894908Y-92576488D01*
X89913140Y-92549778D01*
X89916113Y-92547094D01*
X89927541Y-92542960D01*
X89951705Y-92539507D01*
X89990455Y-92536688D01*
X90045645Y-92534454D01*
X90119126Y-92532757D01*
X90212750Y-92531549D01*
X90328371Y-92530782D01*
X90467839Y-92530408D01*
X90561202Y-92530353D01*
X90708980Y-92530444D01*
X90832278Y-92530767D01*
X90933398Y-92531394D01*
X91014647Y-92532401D01*
X91078326Y-92533858D01*
X91126742Y-92535843D01*
X91162198Y-92538425D01*
X91186997Y-92541680D01*
X91203444Y-92545681D01*
X91213844Y-92550501D01*
X91214886Y-92551201D01*
X91237979Y-92579959D01*
X91244870Y-92615831D01*
X91235206Y-92648520D01*
X91218746Y-92663809D01*
X91198034Y-92667523D01*
X91151283Y-92670686D01*
X91079233Y-92673281D01*
X90982624Y-92675292D01*
X90862196Y-92676701D01*
X90718691Y-92677493D01*
X90596887Y-92677673D01*
X90455145Y-92677692D01*
X90337835Y-92677825D01*
X90242604Y-92678180D01*
X90167098Y-92678868D01*
X90108965Y-92680000D01*
X90065850Y-92681684D01*
X90035402Y-92684030D01*
X90015266Y-92687149D01*
X90003089Y-92691151D01*
X89996519Y-92696145D01*
X89993200Y-92702242D01*
X89991961Y-92705938D01*
X89970039Y-92745711D01*
X89931250Y-92790434D01*
X89882743Y-92833198D01*
X89831667Y-92867088D01*
X89818325Y-92873838D01*
X89747943Y-92897708D01*
X89668867Y-92905215D01*
X89667658Y-92905219D01*
X89583953Y-92905349D01*
X89583953Y-93105271D01*
X89588042Y-93273173D01*
X89601147Y-93421271D01*
X89624521Y-93555394D01*
X89659422Y-93681374D01*
X89707104Y-93805040D01*
X89757128Y-93909804D01*
X89846559Y-94061503D01*
X89949655Y-94194271D01*
X90067674Y-94308824D01*
X90201876Y-94405885D01*
X90353517Y-94486171D01*
X90523854Y-94550403D01*
X90714145Y-94599298D01*
X90925650Y-94633579D01*
X91043760Y-94645810D01*
X91197994Y-94652842D01*
X91374931Y-94649703D01*
X91572616Y-94636673D01*
X91789093Y-94614034D01*
X92022404Y-94582069D01*
X92270594Y-94541061D01*
X92531707Y-94491290D01*
X92803784Y-94433040D01*
X93084870Y-94366594D01*
X93226208Y-94330895D01*
X93375816Y-94291378D01*
X93545731Y-94244856D01*
X93730851Y-94192802D01*
X93926074Y-94136686D01*
X94126296Y-94077980D01*
X94326417Y-94018154D01*
X94521334Y-93958679D01*
X94576092Y-93941726D01*
X94726760Y-93894923D01*
X94726760Y-93608032D01*
X94726760Y-93321141D01*
X94759586Y-93299632D01*
X94800137Y-93285461D01*
X94835915Y-93295312D01*
X94860728Y-93327387D01*
X94861454Y-93329238D01*
X94865547Y-93353078D01*
X94869086Y-93398666D01*
X94871840Y-93460962D01*
X94873577Y-93534932D01*
X94874080Y-93603546D01*
X94874169Y-93689145D01*
X94874717Y-93751467D01*
X94876147Y-93794018D01*
X94878877Y-93820308D01*
X94883333Y-93833843D01*
X94889933Y-93838131D01*
X94899101Y-93836682D01*
X94901995Y-93835786D01*
X94928610Y-93827091D01*
X94971234Y-93812919D01*
X95019181Y-93796825D01*
X95108453Y-93766725D01*
X95112125Y-93543722D01*
X95113618Y-93461607D01*
X95115372Y-93402128D01*
X95117981Y-93361134D01*
X95122043Y-93334476D01*
X95128153Y-93318007D01*
X95136904Y-93307577D01*
X95147067Y-93300227D01*
X95187204Y-93287568D01*
X95225569Y-93300514D01*
X95245303Y-93319694D01*
X95253240Y-93344129D01*
X95258631Y-93394083D01*
X95261512Y-93470005D01*
X95262043Y-93524762D01*
X95262936Y-93591503D01*
X95265088Y-93647457D01*
X95268209Y-93687788D01*
X95272002Y-93707661D01*
X95273261Y-93708913D01*
X95290040Y-93704595D01*
X95325334Y-93693095D01*
X95372561Y-93676590D01*
X95390293Y-93670179D01*
X95440536Y-93651135D01*
X95474825Y-93633583D01*
X95495907Y-93612213D01*
X95506529Y-93581717D01*
X95509440Y-93536787D01*
X95507386Y-93472112D01*
X95506129Y-93446372D01*
X95503677Y-93388382D01*
X95504006Y-93351026D01*
X95508192Y-93328207D01*
X95517314Y-93313829D01*
X95531582Y-93302400D01*
X95567799Y-93283267D01*
X95596962Y-93286048D01*
X95624073Y-93307131D01*
X95637222Y-93324102D01*
X95645291Y-93347104D01*
X95649435Y-93382498D01*
X95650812Y-93436642D01*
X95650858Y-93454451D01*
X95651952Y-93507531D01*
X95654881Y-93548685D01*
X95659119Y-93571936D01*
X95661493Y-93574986D01*
X95678225Y-93570487D01*
X95716262Y-93557904D01*
X95771847Y-93538606D01*
X95841227Y-93513962D01*
X95920641Y-93485341D01*
X96006336Y-93454113D01*
X96094554Y-93421647D01*
X96181538Y-93389314D01*
X96263534Y-93358480D01*
X96336783Y-93330516D01*
X96397530Y-93306792D01*
X96400851Y-93305471D01*
X96581653Y-93233471D01*
X96990132Y-93226775D01*
X97398609Y-93220079D01*
X97094131Y-92992402D01*
X97011315Y-92929725D01*
X96937414Y-92872329D01*
X96874978Y-92822302D01*
X96826558Y-92781728D01*
X96794708Y-92752690D01*
X96781974Y-92737278D01*
X96781959Y-92737227D01*
X96781517Y-92713153D01*
X96786392Y-92669838D01*
X96795665Y-92614087D01*
X96804602Y-92569818D01*
X96814865Y-92519409D01*
X96822556Y-92472351D01*
X96828033Y-92423454D01*
X96831653Y-92367529D01*
X96833770Y-92299389D01*
X96834743Y-92213844D01*
X96834937Y-92128571D01*
X96834614Y-92024772D01*
X96833417Y-91942610D01*
X96830994Y-91876939D01*
X96827000Y-91822615D01*
X96821086Y-91774495D01*
X96812907Y-91727435D01*
X96805372Y-91691106D01*
X96793760Y-91632240D01*
X96785956Y-91581746D01*
X96782856Y-91546196D01*
X96783930Y-91533811D01*
X96797180Y-91518974D01*
X96828519Y-91491709D01*
X96874118Y-91454984D01*
X96930147Y-91411767D01*
X96992778Y-91365027D01*
X97058179Y-91317730D01*
X97105670Y-91284423D01*
X97126844Y-91268959D01*
X97164132Y-91240916D01*
X97212480Y-91204125D01*
X97266831Y-91162415D01*
X97273080Y-91157599D01*
X97412002Y-91050456D01*
X97003524Y-91043329D01*
X96595046Y-91036201D01*
X96414244Y-90964418D01*
X96345164Y-90937577D01*
X96257934Y-90904578D01*
X96159697Y-90868073D01*
X96057597Y-90830712D01*
X95958779Y-90795146D01*
X95942150Y-90789232D01*
X95650858Y-90685829D01*
X95650858Y-90750956D01*
X95643643Y-90806072D01*
X95623811Y-90844819D01*
X95594088Y-90863604D01*
X95566469Y-90862290D01*
X95534902Y-90846611D01*
X95515396Y-90818964D01*
X95505714Y-90774331D01*
X95503538Y-90720971D01*
X95503538Y-90630979D01*
X95383004Y-90590554D01*
X95262470Y-90550128D01*
X95262470Y-90675314D01*
X95261591Y-90732793D01*
X95259238Y-90781688D01*
X95255836Y-90814668D01*
X95253947Y-90822711D01*
X95230976Y-90849629D01*
X95194961Y-90861236D01*
X95156464Y-90854878D01*
X95146824Y-90849612D01*
X95133561Y-90839621D01*
X95124632Y-90826910D01*
X95119182Y-90806478D01*
X95116356Y-90773328D01*
X95115298Y-90722460D01*
X95115150Y-90664519D01*
X95115150Y-90500179D01*
X95003862Y-90463936D01*
X94952820Y-90447638D01*
X94911787Y-90435140D01*
X94887170Y-90428368D01*
X94883328Y-90427695D01*
X94879979Y-90440281D01*
X94877172Y-90474822D01*
X94875146Y-90526486D01*
X94874145Y-90590443D01*
X94874080Y-90612213D01*
X94873415Y-90691725D01*
X94871134Y-90748885D01*
X94866810Y-90788096D01*
X94860011Y-90813764D01*
X94853232Y-90826496D01*
X94824724Y-90848699D01*
X94787663Y-90856337D01*
X94753674Y-90848152D01*
X94742128Y-90838552D01*
X94736186Y-90818062D01*
X94731089Y-90773667D01*
X94727054Y-90708240D01*
X94724298Y-90624655D01*
X94723746Y-90596005D01*
X94720064Y-90371169D01*
X94535197Y-90313477D01*
X94350330Y-90255785D01*
X94247254Y-90329783D01*
X94092922Y-90426494D01*
X93936257Y-90496871D01*
X93777709Y-90540822D01*
X93617733Y-90558250D01*
X93456777Y-90549066D01*
X93322440Y-90521075D01*
X93163422Y-90463345D01*
X93014966Y-90382087D01*
X92879245Y-90279208D01*
X92758430Y-90156620D01*
X92654695Y-90016229D01*
X92570329Y-89860204D01*
X92532525Y-89776828D01*
X92340592Y-89740602D01*
X92255273Y-89725086D01*
X92162231Y-89709177D01*
X92065225Y-89693414D01*
X91968010Y-89678338D01*
X91874346Y-89664488D01*
X91787989Y-89652404D01*
X91712696Y-89642627D01*
X91652226Y-89635697D01*
X91610337Y-89632153D01*
X91590784Y-89632537D01*
X91590288Y-89632759D01*
X91583188Y-89648100D01*
X91575665Y-89680946D01*
X91572436Y-89701451D01*
X91544677Y-89842226D01*
X91499579Y-89993046D01*
X91440199Y-90146603D01*
X91369600Y-90295581D01*
X91290838Y-90432670D01*
X91229076Y-90522190D01*
X91105207Y-90667967D01*
X90971733Y-90790319D01*
X90830103Y-90888901D01*
X90681765Y-90963364D01*
X90528168Y-91013362D01*
X90370763Y-91038545D01*
X90210996Y-91038567D01*
X90050320Y-91013079D01*
X89890181Y-90961734D01*
X89732029Y-90884183D01*
X89728706Y-90882251D01*
X89680862Y-90855669D01*
X89642449Y-90836818D01*
X89618612Y-90828087D01*
X89613424Y-90828753D01*
X89607605Y-90855767D01*
X89601196Y-90901748D01*
X89594994Y-90958915D01*
X89589798Y-91019488D01*
X89586410Y-91075683D01*
X89585651Y-91099215D01*
X89583953Y-91188152D01*
X89681643Y-91193085D01*
X89775520Y-91206180D01*
X89854219Y-91236878D01*
X89922067Y-91287896D01*
X89983388Y-91361950D01*
X90005824Y-91396607D01*
X90011269Y-91401896D01*
X90022131Y-91406364D01*
X90040730Y-91410129D01*
X90069385Y-91413303D01*
X90110414Y-91416002D01*
X90166135Y-91418343D01*
X90238870Y-91420439D01*
X90330935Y-91422407D01*
X90444649Y-91424361D01*
X90582332Y-91426416D01*
X90615193Y-91426881D01*
X90757591Y-91428941D01*
X90875617Y-91430838D01*
X90971683Y-91432700D01*
X91048200Y-91434659D01*
X91107578Y-91436842D01*
X91152231Y-91439380D01*
X91184570Y-91442401D01*
X91207006Y-91446034D01*
X91221951Y-91450408D01*
X91231816Y-91455653D01*
X91237293Y-91460200D01*
X91254966Y-91484328D01*
X91253555Y-91512372D01*
X91250367Y-91522261D01*
X91237315Y-91559380D01*
X90601480Y-91563093D01*
X90472594Y-91563695D01*
X90351232Y-91563971D01*
X90240157Y-91563935D01*
X90142137Y-91563603D01*
X90059937Y-91562987D01*
X89996322Y-91562104D01*
X89954059Y-91560966D01*
X89936113Y-91559641D01*
X89908687Y-91539738D01*
X89893377Y-91504657D01*
X89863401Y-91437613D01*
X89816948Y-91383858D01*
X89759159Y-91346876D01*
X89695171Y-91330152D01*
X89641663Y-91334001D01*
X89590650Y-91346029D01*
X89586774Y-91455140D01*
X89582899Y-91564250D01*
X89448685Y-91564250D01*
X89449037Y-91520389D01*
X89449734Y-91404230D01*
X89450021Y-91308756D01*
X89450026Y-91297355D01*
X89451389Y-91143195D01*
X89455855Y-91011042D01*
X89463986Y-90896237D01*
X89476346Y-90794124D01*
X89493498Y-90700044D01*
X89516006Y-90609338D01*
X89544299Y-90517746D01*
X89620419Y-90328441D01*
X89715550Y-90157935D01*
X89829531Y-90006319D01*
X89962205Y-89873684D01*
X90113410Y-89760120D01*
X90282989Y-89665718D01*
X90470783Y-89590571D01*
X90676630Y-89534768D01*
X90900372Y-89498399D01*
X91141851Y-89481558D01*
X91357677Y-89482546D01*
X91508116Y-89489695D01*
X91610337Y-89497142D01*
X91659043Y-89500690D01*
X91812661Y-89515948D01*
X91971173Y-89535883D01*
X92136779Y-89560910D01*
X92311684Y-89591446D01*
X92498089Y-89627904D01*
X92698196Y-89670701D01*
X92914207Y-89720252D01*
X93148326Y-89776972D01*
X93402754Y-89841277D01*
X93679693Y-89913581D01*
X93769180Y-89937344D01*
X93842524Y-89957516D01*
X93936793Y-89984424D01*
X94047385Y-90016698D01*
X94169695Y-90052968D01*
X94299120Y-90091864D01*
X94431056Y-90132016D01*
X94560899Y-90172054D01*
X94622967Y-90191405D01*
X94726760Y-90223895D01*
X94726760Y-90012023D01*
X94727189Y-89929047D01*
X94728720Y-89868816D01*
X94731716Y-89827296D01*
X94736542Y-89800456D01*
X94743562Y-89784265D01*
X94747806Y-89779104D01*
X94783265Y-89759771D01*
X94823311Y-89766223D01*
X94841387Y-89777062D01*
X94850435Y-89785534D01*
X94857497Y-89798256D01*
X94862845Y-89818401D01*
X94866748Y-89849141D01*
X94869474Y-89893649D01*
X94871294Y-89955099D01*
X94872476Y-90036662D01*
X94873290Y-90141513D01*
X94873364Y-90153731D01*
X94874080Y-90274853D01*
X94985368Y-90311096D01*
X95036591Y-90327411D01*
X95077989Y-90339915D01*
X95103074Y-90346676D01*
X95107098Y-90347338D01*
X95109410Y-90334451D01*
X95111313Y-90297807D01*
X95112766Y-90240431D01*
X95113730Y-90165351D01*
X95114163Y-90075591D01*
X95114025Y-89974179D01*
X95113395Y-89877222D01*
X95112346Y-89752553D01*
X95111711Y-89651950D01*
X95111611Y-89572694D01*
X95112171Y-89512068D01*
X95113513Y-89467354D01*
X95115763Y-89435832D01*
X95119042Y-89414785D01*
X95123476Y-89401493D01*
X95129186Y-89393241D01*
X95135636Y-89387790D01*
X95169024Y-89376195D01*
X95206669Y-89379685D01*
X95235498Y-89396600D01*
X95238693Y-89400864D01*
X95241417Y-89418060D01*
X95243878Y-89458270D01*
X95245969Y-89517722D01*
X95247580Y-89592646D01*
X95248605Y-89679269D01*
X95248933Y-89758058D01*
X95249367Y-89861398D01*
X95250440Y-89965227D01*
X95252043Y-90063584D01*
X95254069Y-90150502D01*
X95256409Y-90220020D01*
X95257850Y-90249721D01*
X95266502Y-90399869D01*
X95385021Y-90439617D01*
X95503538Y-90479366D01*
X95503538Y-89770810D01*
X95503538Y-89062254D01*
X95535212Y-89041500D01*
X95575284Y-89028626D01*
X95612337Y-89039039D01*
G37*
D14*
X65975000Y-94506650D03*
D15*
X59651550Y-60179350D03*
D14*
X98221550Y-49014350D03*
D15*
X46202800Y-49775600D03*
X33261550Y-72359350D03*
D14*
X45441550Y-49014350D03*
D15*
X33261550Y-69314350D03*
D14*
X50536850Y-23268875D03*
X59905300Y-59671850D03*
D15*
X49775600Y-24030125D03*
D14*
X67030600Y-36210125D03*
X59885000Y-94506650D03*
D15*
X33261550Y-70836850D03*
D14*
X33515300Y-59671850D03*
X71598100Y-36210125D03*
X61407500Y-94506650D03*
X69020000Y-94506650D03*
X73120600Y-36210125D03*
D15*
X59651550Y-64746850D03*
D14*
X65508100Y-36210125D03*
D15*
X59651550Y-72359350D03*
X86041550Y-70836850D03*
X33261550Y-63224350D03*
X33261550Y-66269350D03*
D14*
X62930000Y-94506650D03*
D15*
X33261550Y-64746850D03*
X86041550Y-60179350D03*
D14*
X70542500Y-94506650D03*
X64452500Y-94506650D03*
D15*
X86041550Y-69314350D03*
X59651550Y-69314350D03*
D14*
X62463100Y-36210125D03*
D15*
X60433100Y-35956375D03*
X86041550Y-64746850D03*
X59651550Y-63224350D03*
X86041550Y-61701850D03*
D14*
X67497500Y-94506650D03*
D15*
X86041550Y-72359350D03*
X59651550Y-61701850D03*
X59651550Y-66269350D03*
X71050000Y-94760400D03*
X33261550Y-60179350D03*
D14*
X80946250Y-107447900D03*
D15*
X59651550Y-67791850D03*
X98982800Y-49775600D03*
D14*
X70075600Y-36210125D03*
D15*
X86041550Y-63224350D03*
X86041550Y-66269350D03*
X72592800Y-49775600D03*
D14*
X68553100Y-36210125D03*
D15*
X33261550Y-67791850D03*
X59651550Y-70836850D03*
D14*
X58362500Y-94506650D03*
X86295300Y-59671850D03*
D15*
X86041550Y-67791850D03*
D14*
X60940600Y-36210125D03*
D15*
X33261550Y-61701850D03*
D14*
X63985600Y-36210125D03*
D15*
X81707500Y-106686650D03*
D14*
X71831550Y-49014350D03*
D16*
X0Y0D02*
X128905000Y0D01*
X128905000Y-128905000D01*
X0Y-128905000D01*
X0Y0D01*
M02*
