%TF.GenerationSoftware,KiCad,Pcbnew,8.0.5*%
%TF.CreationDate,2025-09-09T17:04:41-07:00*%
%TF.ProjectId,ImmunoprecipitationDevice_RevF,496d6d75-6e6f-4707-9265-636970697461,rev?*%
%TF.SameCoordinates,Original*%
%TF.FileFunction,Copper,L4,Bot*%
%TF.FilePolarity,Positive*%
%FSLAX46Y46*%
G04 Gerber Fmt 4.6, Leading zero omitted, Abs format (unit mm)*
G04 Created by KiCad (PCBNEW 8.0.5) date 2025-09-09 17:04:41*
%MOMM*%
%LPD*%
G01*
G04 APERTURE LIST*
G04 Aperture macros list*
%AMFreePoly0*
4,1,131,0.099848,0.566264,0.164912,0.550844,0.227746,0.527974,0.287500,0.497965,0.343366,0.461221,0.394589,0.418240,0.440476,0.369603,0.480405,0.315968,0.513839,0.258060,0.540323,0.196662,0.559501,0.132604,0.571112,0.066753,0.575000,0.000000,0.571112,-0.066753,0.559501,-0.132604,0.540323,-0.196662,0.513839,-0.258060,0.480405,-0.315968,0.440476,-0.369603,0.394589,-0.418240,
0.343366,-0.461221,0.287500,-0.497965,0.227746,-0.527974,0.164912,-0.550844,0.099848,-0.566264,0.033433,-0.574027,-0.033433,-0.574027,-0.099848,-0.566264,-0.164912,-0.550844,-0.227746,-0.527974,-0.287500,-0.497965,-0.343366,-0.461221,-0.394589,-0.418240,-0.440476,-0.369603,-0.467112,-0.333824,-0.263114,-0.333824,-0.245662,-0.348023,-0.195984,-0.378233,-0.142656,-0.401397,-0.086671,-0.417083,
-0.050000,-0.422123,0.050000,-0.422123,0.086671,-0.417083,0.142656,-0.401397,0.195984,-0.378233,0.245662,-0.348023,0.263114,-0.333824,0.050000,-0.120710,0.050000,-0.422123,-0.050000,-0.422123,-0.050000,-0.120710,-0.263114,-0.333824,-0.467112,-0.333824,-0.480405,-0.315968,-0.513839,-0.258060,-0.540323,-0.196662,-0.559501,-0.132604,-0.571112,-0.066753,-0.572088,-0.050000,-0.422573,-0.050000,
-0.422025,-0.058006,-0.410196,-0.114932,-0.390726,-0.169716,-0.363977,-0.221339,-0.334213,-0.263503,-0.120710,-0.050000,0.120710,-0.050000,0.334213,-0.263503,0.363977,-0.221339,0.390726,-0.169716,0.410196,-0.114932,0.422025,-0.058006,0.422573,-0.050000,0.120710,-0.050000,-0.120710,-0.050000,-0.422573,-0.050000,-0.572088,-0.050000,-0.575000,0.000000,-0.572088,0.050000,-0.422573,0.050000,
-0.120710,0.050000,0.120710,0.050000,0.422573,0.050000,0.422025,0.058006,0.410196,0.114932,0.390726,0.169716,0.363977,0.221339,0.334213,0.263503,0.120710,0.050000,-0.120710,0.050000,-0.334213,0.263503,-0.363977,0.221339,-0.390726,0.169716,-0.410196,0.114932,-0.422025,0.058006,-0.422573,0.050000,-0.572088,0.050000,-0.571112,0.066753,-0.559501,0.132604,-0.540323,0.196662,
-0.513839,0.258060,-0.480405,0.315968,-0.467112,0.333824,-0.263114,0.333824,-0.050000,0.120710,0.050000,0.120710,0.263114,0.333824,0.245662,0.348023,0.195984,0.378233,0.142656,0.401397,0.086671,0.417083,0.050000,0.422123,0.050000,0.120710,-0.050000,0.120710,-0.050000,0.422123,-0.086671,0.417083,-0.142656,0.401397,-0.195984,0.378233,-0.245662,0.348023,-0.263114,0.333824,
-0.467112,0.333824,-0.440476,0.369603,-0.394589,0.418240,-0.343366,0.461221,-0.287500,0.497965,-0.227746,0.527974,-0.164912,0.550844,-0.099848,0.566264,-0.033433,0.574027,0.033433,0.574027,0.099848,0.566264,0.099848,0.566264,$1*%
G04 Aperture macros list end*
%ADD10C,0.150000*%
%TA.AperFunction,NonConductor*%
%ADD11C,0.150000*%
%TD*%
%ADD12C,0.140000*%
%TA.AperFunction,NonConductor*%
%ADD13C,0.140000*%
%TD*%
%ADD14C,0.100000*%
%TA.AperFunction,NonConductor*%
%ADD15C,0.100000*%
%TD*%
%ADD16C,0.250000*%
%TA.AperFunction,NonConductor*%
%ADD17C,0.250000*%
%TD*%
%TA.AperFunction,SMDPad,CuDef*%
%ADD18FreePoly0,270.000000*%
%TD*%
%TA.AperFunction,SMDPad,CuDef*%
%ADD19FreePoly0,180.000000*%
%TD*%
%TA.AperFunction,SMDPad,CuDef*%
%ADD20FreePoly0,0.000000*%
%TD*%
%TA.AperFunction,SMDPad,CuDef*%
%ADD21FreePoly0,90.000000*%
%TD*%
%TA.AperFunction,Conductor*%
%ADD22C,0.150000*%
%TD*%
G04 APERTURE END LIST*
D10*
D11*
X47350000Y-89816533D02*
X47483333Y-89816533D01*
X47483333Y-89816533D02*
X47550000Y-89849866D01*
X47550000Y-89849866D02*
X47616666Y-89916533D01*
X47616666Y-89916533D02*
X47650000Y-90049866D01*
X47650000Y-90049866D02*
X47650000Y-90283200D01*
X47650000Y-90283200D02*
X47616666Y-90416533D01*
X47616666Y-90416533D02*
X47550000Y-90483200D01*
X47550000Y-90483200D02*
X47483333Y-90516533D01*
X47483333Y-90516533D02*
X47350000Y-90516533D01*
X47350000Y-90516533D02*
X47283333Y-90483200D01*
X47283333Y-90483200D02*
X47216666Y-90416533D01*
X47216666Y-90416533D02*
X47183333Y-90283200D01*
X47183333Y-90283200D02*
X47183333Y-90049866D01*
X47183333Y-90049866D02*
X47216666Y-89916533D01*
X47216666Y-89916533D02*
X47283333Y-89849866D01*
X47283333Y-89849866D02*
X47350000Y-89816533D01*
X48316666Y-90516533D02*
X47916666Y-90516533D01*
X48116666Y-90516533D02*
X48116666Y-89816533D01*
X48116666Y-89816533D02*
X48049999Y-89916533D01*
X48049999Y-89916533D02*
X47983333Y-89983200D01*
X47983333Y-89983200D02*
X47916666Y-90016533D01*
X47120000Y-89622200D02*
X48380000Y-89622200D01*
D10*
D11*
X57789999Y-37268466D02*
X57789999Y-37968466D01*
X57886666Y-38162800D02*
X57693333Y-38162800D01*
D10*
D11*
X55809866Y-52689999D02*
X55809866Y-52456666D01*
X56176533Y-52356666D02*
X56176533Y-52689999D01*
X56176533Y-52689999D02*
X55476533Y-52689999D01*
X55476533Y-52689999D02*
X55476533Y-52356666D01*
X55282200Y-52786666D02*
X55282200Y-52293333D01*
D10*
D11*
X81476533Y-81440000D02*
X81476533Y-81306666D01*
X81476533Y-81306666D02*
X81509866Y-81240000D01*
X81509866Y-81240000D02*
X81576533Y-81173333D01*
X81576533Y-81173333D02*
X81709866Y-81140000D01*
X81709866Y-81140000D02*
X81943200Y-81140000D01*
X81943200Y-81140000D02*
X82076533Y-81173333D01*
X82076533Y-81173333D02*
X82143200Y-81240000D01*
X82143200Y-81240000D02*
X82176533Y-81306666D01*
X82176533Y-81306666D02*
X82176533Y-81440000D01*
X82176533Y-81440000D02*
X82143200Y-81506666D01*
X82143200Y-81506666D02*
X82076533Y-81573333D01*
X82076533Y-81573333D02*
X81943200Y-81606666D01*
X81943200Y-81606666D02*
X81709866Y-81606666D01*
X81709866Y-81606666D02*
X81576533Y-81573333D01*
X81576533Y-81573333D02*
X81509866Y-81506666D01*
X81509866Y-81506666D02*
X81476533Y-81440000D01*
X82176533Y-80473333D02*
X82176533Y-80873333D01*
X82176533Y-80673333D02*
X81476533Y-80673333D01*
X81476533Y-80673333D02*
X81576533Y-80740000D01*
X81576533Y-80740000D02*
X81643200Y-80806667D01*
X81643200Y-80806667D02*
X81676533Y-80873333D01*
X81282200Y-81670000D02*
X81282200Y-80410000D01*
D10*
D11*
X55476533Y-49940000D02*
X55476533Y-49806666D01*
X55476533Y-49806666D02*
X55509866Y-49740000D01*
X55509866Y-49740000D02*
X55576533Y-49673333D01*
X55576533Y-49673333D02*
X55709866Y-49640000D01*
X55709866Y-49640000D02*
X55943200Y-49640000D01*
X55943200Y-49640000D02*
X56076533Y-49673333D01*
X56076533Y-49673333D02*
X56143200Y-49740000D01*
X56143200Y-49740000D02*
X56176533Y-49806666D01*
X56176533Y-49806666D02*
X56176533Y-49940000D01*
X56176533Y-49940000D02*
X56143200Y-50006666D01*
X56143200Y-50006666D02*
X56076533Y-50073333D01*
X56076533Y-50073333D02*
X55943200Y-50106666D01*
X55943200Y-50106666D02*
X55709866Y-50106666D01*
X55709866Y-50106666D02*
X55576533Y-50073333D01*
X55576533Y-50073333D02*
X55509866Y-50006666D01*
X55509866Y-50006666D02*
X55476533Y-49940000D01*
X55543200Y-49373333D02*
X55509866Y-49340000D01*
X55509866Y-49340000D02*
X55476533Y-49273333D01*
X55476533Y-49273333D02*
X55476533Y-49106667D01*
X55476533Y-49106667D02*
X55509866Y-49040000D01*
X55509866Y-49040000D02*
X55543200Y-49006667D01*
X55543200Y-49006667D02*
X55609866Y-48973333D01*
X55609866Y-48973333D02*
X55676533Y-48973333D01*
X55676533Y-48973333D02*
X55776533Y-49006667D01*
X55776533Y-49006667D02*
X56176533Y-49406667D01*
X56176533Y-49406667D02*
X56176533Y-48973333D01*
X55282200Y-50170000D02*
X55282200Y-48910000D01*
D12*
D13*
X31177053Y-51039999D02*
X30477053Y-51039999D01*
X30577053Y-51106666D02*
X30577053Y-50973332D01*
X30577053Y-50973332D02*
X30610386Y-50873332D01*
X30610386Y-50873332D02*
X30677053Y-50806666D01*
X30677053Y-50806666D02*
X30743720Y-50773332D01*
X30743720Y-50773332D02*
X30877053Y-50773332D01*
X30877053Y-50773332D02*
X30943720Y-50806666D01*
X30943720Y-50806666D02*
X31010386Y-50873332D01*
X31010386Y-50873332D02*
X31043720Y-50973332D01*
X31043720Y-50973332D02*
X31043720Y-51106666D01*
X31043720Y-51106666D02*
X31010386Y-51206666D01*
X31010386Y-51206666D02*
X30943720Y-51273332D01*
X30943720Y-51273332D02*
X30877053Y-51306666D01*
X30877053Y-51306666D02*
X30743720Y-51306666D01*
X30743720Y-51306666D02*
X30677053Y-51273332D01*
X30677053Y-51273332D02*
X30610386Y-51206666D01*
X30610386Y-51206666D02*
X30577053Y-51106666D01*
X30282720Y-51336666D02*
X30282720Y-50743333D01*
D10*
D11*
X52050000Y-91483200D02*
X52150000Y-91516533D01*
X52150000Y-91516533D02*
X52316667Y-91516533D01*
X52316667Y-91516533D02*
X52383333Y-91483200D01*
X52383333Y-91483200D02*
X52416667Y-91449866D01*
X52416667Y-91449866D02*
X52450000Y-91383200D01*
X52450000Y-91383200D02*
X52450000Y-91316533D01*
X52450000Y-91316533D02*
X52416667Y-91249866D01*
X52416667Y-91249866D02*
X52383333Y-91216533D01*
X52383333Y-91216533D02*
X52316667Y-91183200D01*
X52316667Y-91183200D02*
X52183333Y-91149866D01*
X52183333Y-91149866D02*
X52116667Y-91116533D01*
X52116667Y-91116533D02*
X52083333Y-91083200D01*
X52083333Y-91083200D02*
X52050000Y-91016533D01*
X52050000Y-91016533D02*
X52050000Y-90949866D01*
X52050000Y-90949866D02*
X52083333Y-90883200D01*
X52083333Y-90883200D02*
X52116667Y-90849866D01*
X52116667Y-90849866D02*
X52183333Y-90816533D01*
X52183333Y-90816533D02*
X52350000Y-90816533D01*
X52350000Y-90816533D02*
X52450000Y-90849866D01*
X51986667Y-90622200D02*
X52513334Y-90622200D01*
D12*
D13*
X51789999Y-37267946D02*
X51789999Y-37967946D01*
X51856666Y-37867946D02*
X51723332Y-37867946D01*
X51723332Y-37867946D02*
X51623332Y-37834613D01*
X51623332Y-37834613D02*
X51556666Y-37767946D01*
X51556666Y-37767946D02*
X51523332Y-37701280D01*
X51523332Y-37701280D02*
X51523332Y-37567946D01*
X51523332Y-37567946D02*
X51556666Y-37501280D01*
X51556666Y-37501280D02*
X51623332Y-37434613D01*
X51623332Y-37434613D02*
X51723332Y-37401280D01*
X51723332Y-37401280D02*
X51856666Y-37401280D01*
X51856666Y-37401280D02*
X51956666Y-37434613D01*
X51956666Y-37434613D02*
X52023332Y-37501280D01*
X52023332Y-37501280D02*
X52056666Y-37567946D01*
X52056666Y-37567946D02*
X52056666Y-37701280D01*
X52056666Y-37701280D02*
X52023332Y-37767946D01*
X52023332Y-37767946D02*
X51956666Y-37834613D01*
X51956666Y-37834613D02*
X51856666Y-37867946D01*
X52086666Y-38162280D02*
X51493333Y-38162280D01*
D10*
D11*
X55476533Y-55940000D02*
X55476533Y-55806666D01*
X55476533Y-55806666D02*
X55509866Y-55740000D01*
X55509866Y-55740000D02*
X55576533Y-55673333D01*
X55576533Y-55673333D02*
X55709866Y-55640000D01*
X55709866Y-55640000D02*
X55943200Y-55640000D01*
X55943200Y-55640000D02*
X56076533Y-55673333D01*
X56076533Y-55673333D02*
X56143200Y-55740000D01*
X56143200Y-55740000D02*
X56176533Y-55806666D01*
X56176533Y-55806666D02*
X56176533Y-55940000D01*
X56176533Y-55940000D02*
X56143200Y-56006666D01*
X56143200Y-56006666D02*
X56076533Y-56073333D01*
X56076533Y-56073333D02*
X55943200Y-56106666D01*
X55943200Y-56106666D02*
X55709866Y-56106666D01*
X55709866Y-56106666D02*
X55576533Y-56073333D01*
X55576533Y-56073333D02*
X55509866Y-56006666D01*
X55509866Y-56006666D02*
X55476533Y-55940000D01*
X55476533Y-55406667D02*
X55476533Y-54973333D01*
X55476533Y-54973333D02*
X55743200Y-55206667D01*
X55743200Y-55206667D02*
X55743200Y-55106667D01*
X55743200Y-55106667D02*
X55776533Y-55040000D01*
X55776533Y-55040000D02*
X55809866Y-55006667D01*
X55809866Y-55006667D02*
X55876533Y-54973333D01*
X55876533Y-54973333D02*
X56043200Y-54973333D01*
X56043200Y-54973333D02*
X56109866Y-55006667D01*
X56109866Y-55006667D02*
X56143200Y-55040000D01*
X56143200Y-55040000D02*
X56176533Y-55106667D01*
X56176533Y-55106667D02*
X56176533Y-55306667D01*
X56176533Y-55306667D02*
X56143200Y-55373333D01*
X56143200Y-55373333D02*
X56109866Y-55406667D01*
X55282200Y-56170000D02*
X55282200Y-54910000D01*
D10*
D11*
X31143200Y-76739999D02*
X31176533Y-76639999D01*
X31176533Y-76639999D02*
X31176533Y-76473333D01*
X31176533Y-76473333D02*
X31143200Y-76406666D01*
X31143200Y-76406666D02*
X31109866Y-76373333D01*
X31109866Y-76373333D02*
X31043200Y-76339999D01*
X31043200Y-76339999D02*
X30976533Y-76339999D01*
X30976533Y-76339999D02*
X30909866Y-76373333D01*
X30909866Y-76373333D02*
X30876533Y-76406666D01*
X30876533Y-76406666D02*
X30843200Y-76473333D01*
X30843200Y-76473333D02*
X30809866Y-76606666D01*
X30809866Y-76606666D02*
X30776533Y-76673333D01*
X30776533Y-76673333D02*
X30743200Y-76706666D01*
X30743200Y-76706666D02*
X30676533Y-76739999D01*
X30676533Y-76739999D02*
X30609866Y-76739999D01*
X30609866Y-76739999D02*
X30543200Y-76706666D01*
X30543200Y-76706666D02*
X30509866Y-76673333D01*
X30509866Y-76673333D02*
X30476533Y-76606666D01*
X30476533Y-76606666D02*
X30476533Y-76439999D01*
X30476533Y-76439999D02*
X30509866Y-76339999D01*
X30282200Y-76803333D02*
X30282200Y-76276666D01*
D10*
D11*
X82976533Y-74056666D02*
X82976533Y-73723333D01*
X83176533Y-74123333D02*
X82476533Y-73890000D01*
X82476533Y-73890000D02*
X83176533Y-73656666D01*
X82809866Y-73190000D02*
X82843200Y-73090000D01*
X82843200Y-73090000D02*
X82876533Y-73056666D01*
X82876533Y-73056666D02*
X82943200Y-73023333D01*
X82943200Y-73023333D02*
X83043200Y-73023333D01*
X83043200Y-73023333D02*
X83109866Y-73056666D01*
X83109866Y-73056666D02*
X83143200Y-73090000D01*
X83143200Y-73090000D02*
X83176533Y-73156666D01*
X83176533Y-73156666D02*
X83176533Y-73423333D01*
X83176533Y-73423333D02*
X82476533Y-73423333D01*
X82476533Y-73423333D02*
X82476533Y-73190000D01*
X82476533Y-73190000D02*
X82509866Y-73123333D01*
X82509866Y-73123333D02*
X82543200Y-73090000D01*
X82543200Y-73090000D02*
X82609866Y-73056666D01*
X82609866Y-73056666D02*
X82676533Y-73056666D01*
X82676533Y-73056666D02*
X82743200Y-73090000D01*
X82743200Y-73090000D02*
X82776533Y-73123333D01*
X82776533Y-73123333D02*
X82809866Y-73190000D01*
X82809866Y-73190000D02*
X82809866Y-73423333D01*
X82282200Y-74120000D02*
X82282200Y-72960000D01*
D10*
D11*
X55809866Y-74990000D02*
X55843200Y-74890000D01*
X55843200Y-74890000D02*
X55876533Y-74856666D01*
X55876533Y-74856666D02*
X55943200Y-74823333D01*
X55943200Y-74823333D02*
X56043200Y-74823333D01*
X56043200Y-74823333D02*
X56109866Y-74856666D01*
X56109866Y-74856666D02*
X56143200Y-74890000D01*
X56143200Y-74890000D02*
X56176533Y-74956666D01*
X56176533Y-74956666D02*
X56176533Y-75223333D01*
X56176533Y-75223333D02*
X55476533Y-75223333D01*
X55476533Y-75223333D02*
X55476533Y-74990000D01*
X55476533Y-74990000D02*
X55509866Y-74923333D01*
X55509866Y-74923333D02*
X55543200Y-74890000D01*
X55543200Y-74890000D02*
X55609866Y-74856666D01*
X55609866Y-74856666D02*
X55676533Y-74856666D01*
X55676533Y-74856666D02*
X55743200Y-74890000D01*
X55743200Y-74890000D02*
X55776533Y-74923333D01*
X55776533Y-74923333D02*
X55809866Y-74990000D01*
X55809866Y-74990000D02*
X55809866Y-75223333D01*
X55282200Y-75320000D02*
X55282200Y-74760000D01*
D10*
D11*
X75740000Y-38635133D02*
X75640000Y-38601800D01*
X75640000Y-38601800D02*
X75606666Y-38568466D01*
X75606666Y-38568466D02*
X75573333Y-38501800D01*
X75573333Y-38501800D02*
X75573333Y-38401800D01*
X75573333Y-38401800D02*
X75606666Y-38335133D01*
X75606666Y-38335133D02*
X75640000Y-38301800D01*
X75640000Y-38301800D02*
X75706666Y-38268466D01*
X75706666Y-38268466D02*
X75973333Y-38268466D01*
X75973333Y-38268466D02*
X75973333Y-38968466D01*
X75973333Y-38968466D02*
X75740000Y-38968466D01*
X75740000Y-38968466D02*
X75673333Y-38935133D01*
X75673333Y-38935133D02*
X75640000Y-38901800D01*
X75640000Y-38901800D02*
X75606666Y-38835133D01*
X75606666Y-38835133D02*
X75606666Y-38768466D01*
X75606666Y-38768466D02*
X75640000Y-38701800D01*
X75640000Y-38701800D02*
X75673333Y-38668466D01*
X75673333Y-38668466D02*
X75740000Y-38635133D01*
X75740000Y-38635133D02*
X75973333Y-38635133D01*
X76070000Y-39162800D02*
X75510000Y-39162800D01*
D10*
D11*
X81809866Y-52689999D02*
X81809866Y-52456666D01*
X82176533Y-52356666D02*
X82176533Y-52689999D01*
X82176533Y-52689999D02*
X81476533Y-52689999D01*
X81476533Y-52689999D02*
X81476533Y-52356666D01*
X81282200Y-52786666D02*
X81282200Y-52293333D01*
D10*
D11*
X82476533Y-79840000D02*
X83176533Y-79673333D01*
X83176533Y-79673333D02*
X82676533Y-79540000D01*
X82676533Y-79540000D02*
X83176533Y-79406666D01*
X83176533Y-79406666D02*
X82476533Y-79240000D01*
X82282200Y-79870000D02*
X82282200Y-79210000D01*
D10*
D11*
X56690000Y-38968466D02*
X56556666Y-38968466D01*
X56556666Y-38968466D02*
X56490000Y-38935133D01*
X56490000Y-38935133D02*
X56423333Y-38868466D01*
X56423333Y-38868466D02*
X56390000Y-38735133D01*
X56390000Y-38735133D02*
X56390000Y-38501800D01*
X56390000Y-38501800D02*
X56423333Y-38368466D01*
X56423333Y-38368466D02*
X56490000Y-38301800D01*
X56490000Y-38301800D02*
X56556666Y-38268466D01*
X56556666Y-38268466D02*
X56690000Y-38268466D01*
X56690000Y-38268466D02*
X56756666Y-38301800D01*
X56756666Y-38301800D02*
X56823333Y-38368466D01*
X56823333Y-38368466D02*
X56856666Y-38501800D01*
X56856666Y-38501800D02*
X56856666Y-38735133D01*
X56856666Y-38735133D02*
X56823333Y-38868466D01*
X56823333Y-38868466D02*
X56756666Y-38935133D01*
X56756666Y-38935133D02*
X56690000Y-38968466D01*
X56156667Y-38968466D02*
X55723333Y-38968466D01*
X55723333Y-38968466D02*
X55956667Y-38701800D01*
X55956667Y-38701800D02*
X55856667Y-38701800D01*
X55856667Y-38701800D02*
X55790000Y-38668466D01*
X55790000Y-38668466D02*
X55756667Y-38635133D01*
X55756667Y-38635133D02*
X55723333Y-38568466D01*
X55723333Y-38568466D02*
X55723333Y-38401800D01*
X55723333Y-38401800D02*
X55756667Y-38335133D01*
X55756667Y-38335133D02*
X55790000Y-38301800D01*
X55790000Y-38301800D02*
X55856667Y-38268466D01*
X55856667Y-38268466D02*
X56056667Y-38268466D01*
X56056667Y-38268466D02*
X56123333Y-38301800D01*
X56123333Y-38301800D02*
X56156667Y-38335133D01*
X56920000Y-39162800D02*
X55660000Y-39162800D01*
D10*
D11*
X57176533Y-57039999D02*
X56476533Y-57039999D01*
X56282200Y-57136666D02*
X56282200Y-56943333D01*
D10*
D11*
X82190000Y-38968466D02*
X82056666Y-38968466D01*
X82056666Y-38968466D02*
X81990000Y-38935133D01*
X81990000Y-38935133D02*
X81923333Y-38868466D01*
X81923333Y-38868466D02*
X81890000Y-38735133D01*
X81890000Y-38735133D02*
X81890000Y-38501800D01*
X81890000Y-38501800D02*
X81923333Y-38368466D01*
X81923333Y-38368466D02*
X81990000Y-38301800D01*
X81990000Y-38301800D02*
X82056666Y-38268466D01*
X82056666Y-38268466D02*
X82190000Y-38268466D01*
X82190000Y-38268466D02*
X82256666Y-38301800D01*
X82256666Y-38301800D02*
X82323333Y-38368466D01*
X82323333Y-38368466D02*
X82356666Y-38501800D01*
X82356666Y-38501800D02*
X82356666Y-38735133D01*
X82356666Y-38735133D02*
X82323333Y-38868466D01*
X82323333Y-38868466D02*
X82256666Y-38935133D01*
X82256666Y-38935133D02*
X82190000Y-38968466D01*
X81223333Y-38268466D02*
X81623333Y-38268466D01*
X81423333Y-38268466D02*
X81423333Y-38968466D01*
X81423333Y-38968466D02*
X81490000Y-38868466D01*
X81490000Y-38868466D02*
X81556667Y-38801800D01*
X81556667Y-38801800D02*
X81623333Y-38768466D01*
X82420000Y-39162800D02*
X81160000Y-39162800D01*
D10*
D11*
X30476533Y-79840000D02*
X31176533Y-79673333D01*
X31176533Y-79673333D02*
X30676533Y-79540000D01*
X30676533Y-79540000D02*
X31176533Y-79406666D01*
X31176533Y-79406666D02*
X30476533Y-79240000D01*
X30282200Y-79870000D02*
X30282200Y-79210000D01*
D10*
D11*
X71750000Y-91516533D02*
X71750000Y-90816533D01*
X71653334Y-90622200D02*
X71846667Y-90622200D01*
D10*
D11*
X76100000Y-90149866D02*
X76333334Y-90149866D01*
X76433334Y-90516533D02*
X76100000Y-90516533D01*
X76100000Y-90516533D02*
X76100000Y-89816533D01*
X76100000Y-89816533D02*
X76433334Y-89816533D01*
X76003334Y-89622200D02*
X76496667Y-89622200D01*
D10*
D11*
X29809866Y-74990000D02*
X29843200Y-74890000D01*
X29843200Y-74890000D02*
X29876533Y-74856666D01*
X29876533Y-74856666D02*
X29943200Y-74823333D01*
X29943200Y-74823333D02*
X30043200Y-74823333D01*
X30043200Y-74823333D02*
X30109866Y-74856666D01*
X30109866Y-74856666D02*
X30143200Y-74890000D01*
X30143200Y-74890000D02*
X30176533Y-74956666D01*
X30176533Y-74956666D02*
X30176533Y-75223333D01*
X30176533Y-75223333D02*
X29476533Y-75223333D01*
X29476533Y-75223333D02*
X29476533Y-74990000D01*
X29476533Y-74990000D02*
X29509866Y-74923333D01*
X29509866Y-74923333D02*
X29543200Y-74890000D01*
X29543200Y-74890000D02*
X29609866Y-74856666D01*
X29609866Y-74856666D02*
X29676533Y-74856666D01*
X29676533Y-74856666D02*
X29743200Y-74890000D01*
X29743200Y-74890000D02*
X29776533Y-74923333D01*
X29776533Y-74923333D02*
X29809866Y-74990000D01*
X29809866Y-74990000D02*
X29809866Y-75223333D01*
X29282200Y-75320000D02*
X29282200Y-74760000D01*
D10*
D11*
X74806666Y-37468466D02*
X74473333Y-37468466D01*
X74873333Y-37268466D02*
X74640000Y-37968466D01*
X74640000Y-37968466D02*
X74406666Y-37268466D01*
X73940000Y-37635133D02*
X73840000Y-37601800D01*
X73840000Y-37601800D02*
X73806666Y-37568466D01*
X73806666Y-37568466D02*
X73773333Y-37501800D01*
X73773333Y-37501800D02*
X73773333Y-37401800D01*
X73773333Y-37401800D02*
X73806666Y-37335133D01*
X73806666Y-37335133D02*
X73840000Y-37301800D01*
X73840000Y-37301800D02*
X73906666Y-37268466D01*
X73906666Y-37268466D02*
X74173333Y-37268466D01*
X74173333Y-37268466D02*
X74173333Y-37968466D01*
X74173333Y-37968466D02*
X73940000Y-37968466D01*
X73940000Y-37968466D02*
X73873333Y-37935133D01*
X73873333Y-37935133D02*
X73840000Y-37901800D01*
X73840000Y-37901800D02*
X73806666Y-37835133D01*
X73806666Y-37835133D02*
X73806666Y-37768466D01*
X73806666Y-37768466D02*
X73840000Y-37701800D01*
X73840000Y-37701800D02*
X73873333Y-37668466D01*
X73873333Y-37668466D02*
X73940000Y-37635133D01*
X73940000Y-37635133D02*
X74173333Y-37635133D01*
X74870000Y-38162800D02*
X73710000Y-38162800D01*
D10*
D11*
X81976533Y-78556666D02*
X81976533Y-78223333D01*
X82176533Y-78623333D02*
X81476533Y-78390000D01*
X81476533Y-78390000D02*
X82176533Y-78156666D01*
X81509866Y-77556666D02*
X81476533Y-77623333D01*
X81476533Y-77623333D02*
X81476533Y-77723333D01*
X81476533Y-77723333D02*
X81509866Y-77823333D01*
X81509866Y-77823333D02*
X81576533Y-77890000D01*
X81576533Y-77890000D02*
X81643200Y-77923333D01*
X81643200Y-77923333D02*
X81776533Y-77956666D01*
X81776533Y-77956666D02*
X81876533Y-77956666D01*
X81876533Y-77956666D02*
X82009866Y-77923333D01*
X82009866Y-77923333D02*
X82076533Y-77890000D01*
X82076533Y-77890000D02*
X82143200Y-77823333D01*
X82143200Y-77823333D02*
X82176533Y-77723333D01*
X82176533Y-77723333D02*
X82176533Y-77656666D01*
X82176533Y-77656666D02*
X82143200Y-77556666D01*
X82143200Y-77556666D02*
X82109866Y-77523333D01*
X82109866Y-77523333D02*
X81876533Y-77523333D01*
X81876533Y-77523333D02*
X81876533Y-77656666D01*
X81282200Y-78620000D02*
X81282200Y-77460000D01*
D10*
D11*
X55976533Y-78556666D02*
X55976533Y-78223333D01*
X56176533Y-78623333D02*
X55476533Y-78390000D01*
X55476533Y-78390000D02*
X56176533Y-78156666D01*
X55509866Y-77556666D02*
X55476533Y-77623333D01*
X55476533Y-77623333D02*
X55476533Y-77723333D01*
X55476533Y-77723333D02*
X55509866Y-77823333D01*
X55509866Y-77823333D02*
X55576533Y-77890000D01*
X55576533Y-77890000D02*
X55643200Y-77923333D01*
X55643200Y-77923333D02*
X55776533Y-77956666D01*
X55776533Y-77956666D02*
X55876533Y-77956666D01*
X55876533Y-77956666D02*
X56009866Y-77923333D01*
X56009866Y-77923333D02*
X56076533Y-77890000D01*
X56076533Y-77890000D02*
X56143200Y-77823333D01*
X56143200Y-77823333D02*
X56176533Y-77723333D01*
X56176533Y-77723333D02*
X56176533Y-77656666D01*
X56176533Y-77656666D02*
X56143200Y-77556666D01*
X56143200Y-77556666D02*
X56109866Y-77523333D01*
X56109866Y-77523333D02*
X55876533Y-77523333D01*
X55876533Y-77523333D02*
X55876533Y-77656666D01*
X55282200Y-78620000D02*
X55282200Y-77460000D01*
D10*
D11*
X29476533Y-55940000D02*
X29476533Y-55806666D01*
X29476533Y-55806666D02*
X29509866Y-55740000D01*
X29509866Y-55740000D02*
X29576533Y-55673333D01*
X29576533Y-55673333D02*
X29709866Y-55640000D01*
X29709866Y-55640000D02*
X29943200Y-55640000D01*
X29943200Y-55640000D02*
X30076533Y-55673333D01*
X30076533Y-55673333D02*
X30143200Y-55740000D01*
X30143200Y-55740000D02*
X30176533Y-55806666D01*
X30176533Y-55806666D02*
X30176533Y-55940000D01*
X30176533Y-55940000D02*
X30143200Y-56006666D01*
X30143200Y-56006666D02*
X30076533Y-56073333D01*
X30076533Y-56073333D02*
X29943200Y-56106666D01*
X29943200Y-56106666D02*
X29709866Y-56106666D01*
X29709866Y-56106666D02*
X29576533Y-56073333D01*
X29576533Y-56073333D02*
X29509866Y-56006666D01*
X29509866Y-56006666D02*
X29476533Y-55940000D01*
X29476533Y-55406667D02*
X29476533Y-54973333D01*
X29476533Y-54973333D02*
X29743200Y-55206667D01*
X29743200Y-55206667D02*
X29743200Y-55106667D01*
X29743200Y-55106667D02*
X29776533Y-55040000D01*
X29776533Y-55040000D02*
X29809866Y-55006667D01*
X29809866Y-55006667D02*
X29876533Y-54973333D01*
X29876533Y-54973333D02*
X30043200Y-54973333D01*
X30043200Y-54973333D02*
X30109866Y-55006667D01*
X30109866Y-55006667D02*
X30143200Y-55040000D01*
X30143200Y-55040000D02*
X30176533Y-55106667D01*
X30176533Y-55106667D02*
X30176533Y-55306667D01*
X30176533Y-55306667D02*
X30143200Y-55373333D01*
X30143200Y-55373333D02*
X30109866Y-55406667D01*
X29282200Y-56170000D02*
X29282200Y-54910000D01*
D10*
D11*
X53439999Y-38635133D02*
X53206666Y-38635133D01*
X53106666Y-38268466D02*
X53439999Y-38268466D01*
X53439999Y-38268466D02*
X53439999Y-38968466D01*
X53439999Y-38968466D02*
X53106666Y-38968466D01*
X53536666Y-39162800D02*
X53043333Y-39162800D01*
D14*
D15*
X72871966Y-74506666D02*
X72905300Y-74539999D01*
X72905300Y-74539999D02*
X72938633Y-74639999D01*
X72938633Y-74639999D02*
X72938633Y-74706666D01*
X72938633Y-74706666D02*
X72905300Y-74806666D01*
X72905300Y-74806666D02*
X72838633Y-74873333D01*
X72838633Y-74873333D02*
X72771966Y-74906666D01*
X72771966Y-74906666D02*
X72638633Y-74939999D01*
X72638633Y-74939999D02*
X72538633Y-74939999D01*
X72538633Y-74939999D02*
X72405300Y-74906666D01*
X72405300Y-74906666D02*
X72338633Y-74873333D01*
X72338633Y-74873333D02*
X72271966Y-74806666D01*
X72271966Y-74806666D02*
X72238633Y-74706666D01*
X72238633Y-74706666D02*
X72238633Y-74639999D01*
X72238633Y-74639999D02*
X72271966Y-74539999D01*
X72271966Y-74539999D02*
X72305300Y-74506666D01*
X72238633Y-74273333D02*
X72238633Y-73839999D01*
X72238633Y-73839999D02*
X72505300Y-74073333D01*
X72505300Y-74073333D02*
X72505300Y-73973333D01*
X72505300Y-73973333D02*
X72538633Y-73906666D01*
X72538633Y-73906666D02*
X72571966Y-73873333D01*
X72571966Y-73873333D02*
X72638633Y-73839999D01*
X72638633Y-73839999D02*
X72805300Y-73839999D01*
X72805300Y-73839999D02*
X72871966Y-73873333D01*
X72871966Y-73873333D02*
X72905300Y-73906666D01*
X72905300Y-73906666D02*
X72938633Y-73973333D01*
X72938633Y-73973333D02*
X72938633Y-74173333D01*
X72938633Y-74173333D02*
X72905300Y-74239999D01*
X72905300Y-74239999D02*
X72871966Y-74273333D01*
D12*
D13*
X57177053Y-51039999D02*
X56477053Y-51039999D01*
X56577053Y-51106666D02*
X56577053Y-50973332D01*
X56577053Y-50973332D02*
X56610386Y-50873332D01*
X56610386Y-50873332D02*
X56677053Y-50806666D01*
X56677053Y-50806666D02*
X56743720Y-50773332D01*
X56743720Y-50773332D02*
X56877053Y-50773332D01*
X56877053Y-50773332D02*
X56943720Y-50806666D01*
X56943720Y-50806666D02*
X57010386Y-50873332D01*
X57010386Y-50873332D02*
X57043720Y-50973332D01*
X57043720Y-50973332D02*
X57043720Y-51106666D01*
X57043720Y-51106666D02*
X57010386Y-51206666D01*
X57010386Y-51206666D02*
X56943720Y-51273332D01*
X56943720Y-51273332D02*
X56877053Y-51306666D01*
X56877053Y-51306666D02*
X56743720Y-51306666D01*
X56743720Y-51306666D02*
X56677053Y-51273332D01*
X56677053Y-51273332D02*
X56610386Y-51206666D01*
X56610386Y-51206666D02*
X56577053Y-51106666D01*
X56282720Y-51336666D02*
X56282720Y-50743333D01*
D10*
D11*
X30976533Y-74056666D02*
X30976533Y-73723333D01*
X31176533Y-74123333D02*
X30476533Y-73890000D01*
X30476533Y-73890000D02*
X31176533Y-73656666D01*
X30809866Y-73190000D02*
X30843200Y-73090000D01*
X30843200Y-73090000D02*
X30876533Y-73056666D01*
X30876533Y-73056666D02*
X30943200Y-73023333D01*
X30943200Y-73023333D02*
X31043200Y-73023333D01*
X31043200Y-73023333D02*
X31109866Y-73056666D01*
X31109866Y-73056666D02*
X31143200Y-73090000D01*
X31143200Y-73090000D02*
X31176533Y-73156666D01*
X31176533Y-73156666D02*
X31176533Y-73423333D01*
X31176533Y-73423333D02*
X30476533Y-73423333D01*
X30476533Y-73423333D02*
X30476533Y-73190000D01*
X30476533Y-73190000D02*
X30509866Y-73123333D01*
X30509866Y-73123333D02*
X30543200Y-73090000D01*
X30543200Y-73090000D02*
X30609866Y-73056666D01*
X30609866Y-73056666D02*
X30676533Y-73056666D01*
X30676533Y-73056666D02*
X30743200Y-73090000D01*
X30743200Y-73090000D02*
X30776533Y-73123333D01*
X30776533Y-73123333D02*
X30809866Y-73190000D01*
X30809866Y-73190000D02*
X30809866Y-73423333D01*
X30282200Y-74120000D02*
X30282200Y-72960000D01*
D12*
D13*
X77750000Y-91517053D02*
X77750000Y-90817053D01*
X77683334Y-90917053D02*
X77816667Y-90917053D01*
X77816667Y-90917053D02*
X77916667Y-90950386D01*
X77916667Y-90950386D02*
X77983334Y-91017053D01*
X77983334Y-91017053D02*
X78016667Y-91083720D01*
X78016667Y-91083720D02*
X78016667Y-91217053D01*
X78016667Y-91217053D02*
X77983334Y-91283720D01*
X77983334Y-91283720D02*
X77916667Y-91350386D01*
X77916667Y-91350386D02*
X77816667Y-91383720D01*
X77816667Y-91383720D02*
X77683334Y-91383720D01*
X77683334Y-91383720D02*
X77583334Y-91350386D01*
X77583334Y-91350386D02*
X77516667Y-91283720D01*
X77516667Y-91283720D02*
X77483334Y-91217053D01*
X77483334Y-91217053D02*
X77483334Y-91083720D01*
X77483334Y-91083720D02*
X77516667Y-91017053D01*
X77516667Y-91017053D02*
X77583334Y-90950386D01*
X77583334Y-90950386D02*
X77683334Y-90917053D01*
X77453334Y-90622720D02*
X78046667Y-90622720D01*
D10*
D11*
X77489999Y-37301800D02*
X77389999Y-37268466D01*
X77389999Y-37268466D02*
X77223333Y-37268466D01*
X77223333Y-37268466D02*
X77156666Y-37301800D01*
X77156666Y-37301800D02*
X77123333Y-37335133D01*
X77123333Y-37335133D02*
X77089999Y-37401800D01*
X77089999Y-37401800D02*
X77089999Y-37468466D01*
X77089999Y-37468466D02*
X77123333Y-37535133D01*
X77123333Y-37535133D02*
X77156666Y-37568466D01*
X77156666Y-37568466D02*
X77223333Y-37601800D01*
X77223333Y-37601800D02*
X77356666Y-37635133D01*
X77356666Y-37635133D02*
X77423333Y-37668466D01*
X77423333Y-37668466D02*
X77456666Y-37701800D01*
X77456666Y-37701800D02*
X77489999Y-37768466D01*
X77489999Y-37768466D02*
X77489999Y-37835133D01*
X77489999Y-37835133D02*
X77456666Y-37901800D01*
X77456666Y-37901800D02*
X77423333Y-37935133D01*
X77423333Y-37935133D02*
X77356666Y-37968466D01*
X77356666Y-37968466D02*
X77189999Y-37968466D01*
X77189999Y-37968466D02*
X77089999Y-37935133D01*
X77553333Y-38162800D02*
X77026666Y-38162800D01*
D14*
D15*
X98871966Y-74506666D02*
X98905300Y-74539999D01*
X98905300Y-74539999D02*
X98938633Y-74639999D01*
X98938633Y-74639999D02*
X98938633Y-74706666D01*
X98938633Y-74706666D02*
X98905300Y-74806666D01*
X98905300Y-74806666D02*
X98838633Y-74873333D01*
X98838633Y-74873333D02*
X98771966Y-74906666D01*
X98771966Y-74906666D02*
X98638633Y-74939999D01*
X98638633Y-74939999D02*
X98538633Y-74939999D01*
X98538633Y-74939999D02*
X98405300Y-74906666D01*
X98405300Y-74906666D02*
X98338633Y-74873333D01*
X98338633Y-74873333D02*
X98271966Y-74806666D01*
X98271966Y-74806666D02*
X98238633Y-74706666D01*
X98238633Y-74706666D02*
X98238633Y-74639999D01*
X98238633Y-74639999D02*
X98271966Y-74539999D01*
X98271966Y-74539999D02*
X98305300Y-74506666D01*
X98471966Y-73906666D02*
X98938633Y-73906666D01*
X98205300Y-74073333D02*
X98705300Y-74239999D01*
X98705300Y-74239999D02*
X98705300Y-73806666D01*
D14*
D15*
X75256666Y-21573033D02*
X75289999Y-21539700D01*
X75289999Y-21539700D02*
X75389999Y-21506366D01*
X75389999Y-21506366D02*
X75456666Y-21506366D01*
X75456666Y-21506366D02*
X75556666Y-21539700D01*
X75556666Y-21539700D02*
X75623333Y-21606366D01*
X75623333Y-21606366D02*
X75656666Y-21673033D01*
X75656666Y-21673033D02*
X75689999Y-21806366D01*
X75689999Y-21806366D02*
X75689999Y-21906366D01*
X75689999Y-21906366D02*
X75656666Y-22039700D01*
X75656666Y-22039700D02*
X75623333Y-22106366D01*
X75623333Y-22106366D02*
X75556666Y-22173033D01*
X75556666Y-22173033D02*
X75456666Y-22206366D01*
X75456666Y-22206366D02*
X75389999Y-22206366D01*
X75389999Y-22206366D02*
X75289999Y-22173033D01*
X75289999Y-22173033D02*
X75256666Y-22139700D01*
X74589999Y-21506366D02*
X74989999Y-21506366D01*
X74789999Y-21506366D02*
X74789999Y-22206366D01*
X74789999Y-22206366D02*
X74856666Y-22106366D01*
X74856666Y-22106366D02*
X74923333Y-22039700D01*
X74923333Y-22039700D02*
X74989999Y-22006366D01*
D14*
D15*
X46871966Y-74506666D02*
X46905300Y-74539999D01*
X46905300Y-74539999D02*
X46938633Y-74639999D01*
X46938633Y-74639999D02*
X46938633Y-74706666D01*
X46938633Y-74706666D02*
X46905300Y-74806666D01*
X46905300Y-74806666D02*
X46838633Y-74873333D01*
X46838633Y-74873333D02*
X46771966Y-74906666D01*
X46771966Y-74906666D02*
X46638633Y-74939999D01*
X46638633Y-74939999D02*
X46538633Y-74939999D01*
X46538633Y-74939999D02*
X46405300Y-74906666D01*
X46405300Y-74906666D02*
X46338633Y-74873333D01*
X46338633Y-74873333D02*
X46271966Y-74806666D01*
X46271966Y-74806666D02*
X46238633Y-74706666D01*
X46238633Y-74706666D02*
X46238633Y-74639999D01*
X46238633Y-74639999D02*
X46271966Y-74539999D01*
X46271966Y-74539999D02*
X46305300Y-74506666D01*
X46305300Y-74239999D02*
X46271966Y-74206666D01*
X46271966Y-74206666D02*
X46238633Y-74139999D01*
X46238633Y-74139999D02*
X46238633Y-73973333D01*
X46238633Y-73973333D02*
X46271966Y-73906666D01*
X46271966Y-73906666D02*
X46305300Y-73873333D01*
X46305300Y-73873333D02*
X46371966Y-73839999D01*
X46371966Y-73839999D02*
X46438633Y-73839999D01*
X46438633Y-73839999D02*
X46538633Y-73873333D01*
X46538633Y-73873333D02*
X46938633Y-74273333D01*
X46938633Y-74273333D02*
X46938633Y-73839999D01*
D10*
D11*
X81476533Y-55940000D02*
X81476533Y-55806666D01*
X81476533Y-55806666D02*
X81509866Y-55740000D01*
X81509866Y-55740000D02*
X81576533Y-55673333D01*
X81576533Y-55673333D02*
X81709866Y-55640000D01*
X81709866Y-55640000D02*
X81943200Y-55640000D01*
X81943200Y-55640000D02*
X82076533Y-55673333D01*
X82076533Y-55673333D02*
X82143200Y-55740000D01*
X82143200Y-55740000D02*
X82176533Y-55806666D01*
X82176533Y-55806666D02*
X82176533Y-55940000D01*
X82176533Y-55940000D02*
X82143200Y-56006666D01*
X82143200Y-56006666D02*
X82076533Y-56073333D01*
X82076533Y-56073333D02*
X81943200Y-56106666D01*
X81943200Y-56106666D02*
X81709866Y-56106666D01*
X81709866Y-56106666D02*
X81576533Y-56073333D01*
X81576533Y-56073333D02*
X81509866Y-56006666D01*
X81509866Y-56006666D02*
X81476533Y-55940000D01*
X81476533Y-55406667D02*
X81476533Y-54973333D01*
X81476533Y-54973333D02*
X81743200Y-55206667D01*
X81743200Y-55206667D02*
X81743200Y-55106667D01*
X81743200Y-55106667D02*
X81776533Y-55040000D01*
X81776533Y-55040000D02*
X81809866Y-55006667D01*
X81809866Y-55006667D02*
X81876533Y-54973333D01*
X81876533Y-54973333D02*
X82043200Y-54973333D01*
X82043200Y-54973333D02*
X82109866Y-55006667D01*
X82109866Y-55006667D02*
X82143200Y-55040000D01*
X82143200Y-55040000D02*
X82176533Y-55106667D01*
X82176533Y-55106667D02*
X82176533Y-55306667D01*
X82176533Y-55306667D02*
X82143200Y-55373333D01*
X82143200Y-55373333D02*
X82109866Y-55406667D01*
X81282200Y-56170000D02*
X81282200Y-54910000D01*
D10*
D11*
X79306666Y-38468466D02*
X78973333Y-38468466D01*
X79373333Y-38268466D02*
X79140000Y-38968466D01*
X79140000Y-38968466D02*
X78906666Y-38268466D01*
X78306666Y-38935133D02*
X78373333Y-38968466D01*
X78373333Y-38968466D02*
X78473333Y-38968466D01*
X78473333Y-38968466D02*
X78573333Y-38935133D01*
X78573333Y-38935133D02*
X78640000Y-38868466D01*
X78640000Y-38868466D02*
X78673333Y-38801800D01*
X78673333Y-38801800D02*
X78706666Y-38668466D01*
X78706666Y-38668466D02*
X78706666Y-38568466D01*
X78706666Y-38568466D02*
X78673333Y-38435133D01*
X78673333Y-38435133D02*
X78640000Y-38368466D01*
X78640000Y-38368466D02*
X78573333Y-38301800D01*
X78573333Y-38301800D02*
X78473333Y-38268466D01*
X78473333Y-38268466D02*
X78406666Y-38268466D01*
X78406666Y-38268466D02*
X78306666Y-38301800D01*
X78306666Y-38301800D02*
X78273333Y-38335133D01*
X78273333Y-38335133D02*
X78273333Y-38568466D01*
X78273333Y-38568466D02*
X78406666Y-38568466D01*
X79370000Y-39162800D02*
X78210000Y-39162800D01*
D10*
D11*
X74516667Y-90816533D02*
X74983333Y-91516533D01*
X74983333Y-90816533D02*
X74516667Y-91516533D01*
X74486667Y-90622200D02*
X75013334Y-90622200D01*
D10*
G36*
X79005572Y-89911504D02*
G01*
X79048943Y-89954875D01*
X79075000Y-90059101D01*
X79075000Y-90273964D01*
X79048943Y-90378190D01*
X79005572Y-90421561D01*
X78965628Y-90441533D01*
X78867705Y-90441533D01*
X78827759Y-90421560D01*
X78784388Y-90378189D01*
X78758333Y-90273966D01*
X78758333Y-90059099D01*
X78784388Y-89954876D01*
X78827759Y-89911505D01*
X78867705Y-89891533D01*
X78965628Y-89891533D01*
X79005572Y-89911504D01*
G37*
G36*
X80032136Y-90669311D02*
G01*
X78467864Y-90669311D01*
X78467864Y-90049866D01*
X78608333Y-90049866D01*
X78608333Y-90283200D01*
X78608835Y-90290864D01*
X78608821Y-90291738D01*
X78608933Y-90292359D01*
X78608975Y-90292989D01*
X78609200Y-90293832D01*
X78610572Y-90301390D01*
X78643905Y-90434723D01*
X78646902Y-90444064D01*
X78647210Y-90444619D01*
X78647375Y-90445234D01*
X78651959Y-90453174D01*
X78656405Y-90461182D01*
X78656846Y-90461639D01*
X78657165Y-90462190D01*
X78663633Y-90469566D01*
X78730300Y-90536233D01*
X78737676Y-90542701D01*
X78739633Y-90543831D01*
X78741324Y-90545330D01*
X78749792Y-90550282D01*
X78816460Y-90583615D01*
X78820192Y-90585185D01*
X78821299Y-90585824D01*
X78822432Y-90586127D01*
X78825502Y-90587419D01*
X78832909Y-90588934D01*
X78840211Y-90590891D01*
X78843535Y-90591109D01*
X78844684Y-90591344D01*
X78845955Y-90591267D01*
X78850000Y-90591533D01*
X78983333Y-90591533D01*
X78987377Y-90591267D01*
X78988649Y-90591344D01*
X78989797Y-90591109D01*
X78993122Y-90590891D01*
X79000423Y-90588934D01*
X79007831Y-90587419D01*
X79010901Y-90586127D01*
X79012034Y-90585824D01*
X79013138Y-90585186D01*
X79016874Y-90583615D01*
X79083541Y-90550282D01*
X79092009Y-90545330D01*
X79093697Y-90543832D01*
X79095658Y-90542701D01*
X79103033Y-90536233D01*
X79132523Y-90506743D01*
X79308974Y-90506743D01*
X79308974Y-90526323D01*
X79311630Y-90536233D01*
X79314042Y-90545234D01*
X79323831Y-90562190D01*
X79337676Y-90576035D01*
X79350806Y-90583615D01*
X79354632Y-90585824D01*
X79373543Y-90590892D01*
X79373559Y-90590892D01*
X79383333Y-90591533D01*
X79816666Y-90591533D01*
X79826455Y-90590891D01*
X79845367Y-90585824D01*
X79862323Y-90576035D01*
X79876168Y-90562190D01*
X79885957Y-90545234D01*
X79891024Y-90526322D01*
X79891024Y-90506744D01*
X79885957Y-90487832D01*
X79876168Y-90470876D01*
X79862323Y-90457031D01*
X79845367Y-90447242D01*
X79826455Y-90442175D01*
X79816666Y-90441533D01*
X79564399Y-90441533D01*
X79836366Y-90169566D01*
X79839037Y-90166519D01*
X79839992Y-90165673D01*
X79840638Y-90164693D01*
X79842834Y-90162190D01*
X79846613Y-90155644D01*
X79850780Y-90149334D01*
X79852036Y-90146252D01*
X79852624Y-90145235D01*
X79852954Y-90144000D01*
X79854484Y-90140250D01*
X79887817Y-90040250D01*
X79890304Y-90030760D01*
X79890439Y-90028503D01*
X79891024Y-90026322D01*
X79891666Y-90016533D01*
X79891666Y-89949866D01*
X79891400Y-89945821D01*
X79891477Y-89944549D01*
X79891241Y-89943400D01*
X79891024Y-89940077D01*
X79889067Y-89932776D01*
X79887552Y-89925368D01*
X79886260Y-89922297D01*
X79885957Y-89921165D01*
X79885319Y-89920060D01*
X79883748Y-89916325D01*
X79850415Y-89849659D01*
X79845463Y-89841191D01*
X79843964Y-89839501D01*
X79842834Y-89837543D01*
X79836366Y-89830167D01*
X79803032Y-89796833D01*
X79795656Y-89790365D01*
X79793700Y-89789235D01*
X79792009Y-89787736D01*
X79783540Y-89782784D01*
X79716874Y-89749451D01*
X79713138Y-89747879D01*
X79712034Y-89747242D01*
X79710901Y-89746938D01*
X79707831Y-89745647D01*
X79700422Y-89744131D01*
X79693122Y-89742175D01*
X79689798Y-89741957D01*
X79688650Y-89741722D01*
X79687377Y-89741798D01*
X79683333Y-89741533D01*
X79516666Y-89741533D01*
X79512621Y-89741798D01*
X79511350Y-89741722D01*
X79510201Y-89741956D01*
X79506877Y-89742175D01*
X79499575Y-89744131D01*
X79492168Y-89745647D01*
X79489098Y-89746938D01*
X79487965Y-89747242D01*
X79486858Y-89747880D01*
X79483126Y-89749451D01*
X79416458Y-89782784D01*
X79407990Y-89787736D01*
X79406298Y-89789235D01*
X79404341Y-89790366D01*
X79396965Y-89796834D01*
X79363632Y-89830168D01*
X79357164Y-89837544D01*
X79347375Y-89854500D01*
X79342307Y-89873411D01*
X79342308Y-89892991D01*
X79347376Y-89911903D01*
X79357166Y-89928858D01*
X79371010Y-89942702D01*
X79387966Y-89952491D01*
X79406877Y-89957559D01*
X79426457Y-89957558D01*
X79445369Y-89952490D01*
X79462324Y-89942700D01*
X79469700Y-89936232D01*
X79494426Y-89911504D01*
X79534371Y-89891533D01*
X79665628Y-89891533D01*
X79705572Y-89911505D01*
X79721694Y-89927627D01*
X79741666Y-89967571D01*
X79741666Y-90004363D01*
X79717780Y-90076019D01*
X79330300Y-90463500D01*
X79323839Y-90470867D01*
X79323831Y-90470876D01*
X79316410Y-90483731D01*
X79314042Y-90487832D01*
X79308974Y-90506743D01*
X79132523Y-90506743D01*
X79169700Y-90469565D01*
X79176167Y-90462189D01*
X79176482Y-90461642D01*
X79176927Y-90461183D01*
X79181393Y-90453137D01*
X79185957Y-90445234D01*
X79186121Y-90444621D01*
X79186430Y-90444065D01*
X79189427Y-90434724D01*
X79222761Y-90301390D01*
X79224132Y-90293832D01*
X79224358Y-90292989D01*
X79224399Y-90292359D01*
X79224512Y-90291738D01*
X79224497Y-90290864D01*
X79225000Y-90283200D01*
X79225000Y-90049866D01*
X79224497Y-90042201D01*
X79224512Y-90041328D01*
X79224399Y-90040706D01*
X79224358Y-90040077D01*
X79224132Y-90039233D01*
X79222761Y-90031676D01*
X79189427Y-89898342D01*
X79186430Y-89889001D01*
X79186121Y-89888444D01*
X79185957Y-89887832D01*
X79181393Y-89879928D01*
X79176927Y-89871883D01*
X79176482Y-89871423D01*
X79176167Y-89870877D01*
X79169700Y-89863501D01*
X79103033Y-89796833D01*
X79095658Y-89790365D01*
X79093697Y-89789233D01*
X79092009Y-89787736D01*
X79083541Y-89782784D01*
X79016874Y-89749451D01*
X79013138Y-89747879D01*
X79012034Y-89747242D01*
X79010901Y-89746938D01*
X79007831Y-89745647D01*
X79000423Y-89744131D01*
X78993122Y-89742175D01*
X78989797Y-89741956D01*
X78988649Y-89741722D01*
X78987377Y-89741798D01*
X78983333Y-89741533D01*
X78850000Y-89741533D01*
X78845955Y-89741798D01*
X78844684Y-89741722D01*
X78843535Y-89741956D01*
X78840211Y-89742175D01*
X78832909Y-89744131D01*
X78825502Y-89745647D01*
X78822432Y-89746938D01*
X78821299Y-89747242D01*
X78820192Y-89747880D01*
X78816460Y-89749451D01*
X78749792Y-89782784D01*
X78741324Y-89787736D01*
X78739633Y-89789234D01*
X78737676Y-89790365D01*
X78730300Y-89796833D01*
X78663633Y-89863500D01*
X78657165Y-89870876D01*
X78656846Y-89871426D01*
X78656405Y-89871884D01*
X78651959Y-89879891D01*
X78647375Y-89887832D01*
X78647210Y-89888446D01*
X78646902Y-89889002D01*
X78643905Y-89898343D01*
X78610572Y-90031676D01*
X78609200Y-90039233D01*
X78608975Y-90040077D01*
X78608933Y-90040706D01*
X78608821Y-90041328D01*
X78608835Y-90042201D01*
X78608333Y-90049866D01*
X78467864Y-90049866D01*
X78467864Y-89612411D01*
X78545642Y-89612411D01*
X78545642Y-89631989D01*
X78550709Y-89650901D01*
X78560498Y-89667857D01*
X78574343Y-89681702D01*
X78591299Y-89691491D01*
X78610211Y-89696558D01*
X78620000Y-89697200D01*
X79880000Y-89697200D01*
X79889789Y-89696558D01*
X79908701Y-89691491D01*
X79925657Y-89681702D01*
X79939502Y-89667857D01*
X79949291Y-89650901D01*
X79954358Y-89631989D01*
X79954358Y-89612411D01*
X79949291Y-89593499D01*
X79939502Y-89576543D01*
X79925657Y-89562698D01*
X79908701Y-89552909D01*
X79889789Y-89547842D01*
X79880000Y-89547200D01*
X78620000Y-89547200D01*
X78610211Y-89547842D01*
X78591299Y-89552909D01*
X78574343Y-89562698D01*
X78560498Y-89576543D01*
X78550709Y-89593499D01*
X78545642Y-89612411D01*
X78467864Y-89612411D01*
X78467864Y-89469422D01*
X80032136Y-89469422D01*
X80032136Y-90669311D01*
G37*
D12*
D13*
X83177053Y-51039999D02*
X82477053Y-51039999D01*
X82577053Y-51106666D02*
X82577053Y-50973332D01*
X82577053Y-50973332D02*
X82610386Y-50873332D01*
X82610386Y-50873332D02*
X82677053Y-50806666D01*
X82677053Y-50806666D02*
X82743720Y-50773332D01*
X82743720Y-50773332D02*
X82877053Y-50773332D01*
X82877053Y-50773332D02*
X82943720Y-50806666D01*
X82943720Y-50806666D02*
X83010386Y-50873332D01*
X83010386Y-50873332D02*
X83043720Y-50973332D01*
X83043720Y-50973332D02*
X83043720Y-51106666D01*
X83043720Y-51106666D02*
X83010386Y-51206666D01*
X83010386Y-51206666D02*
X82943720Y-51273332D01*
X82943720Y-51273332D02*
X82877053Y-51306666D01*
X82877053Y-51306666D02*
X82743720Y-51306666D01*
X82743720Y-51306666D02*
X82677053Y-51273332D01*
X82677053Y-51273332D02*
X82610386Y-51206666D01*
X82610386Y-51206666D02*
X82577053Y-51106666D01*
X82282720Y-51336666D02*
X82282720Y-50743333D01*
D16*
D17*
X103690380Y-48662568D02*
X104690380Y-48662568D01*
X103690380Y-49138758D02*
X104690380Y-49138758D01*
X104690380Y-49138758D02*
X104690380Y-49519710D01*
X104690380Y-49519710D02*
X104642761Y-49614948D01*
X104642761Y-49614948D02*
X104595142Y-49662567D01*
X104595142Y-49662567D02*
X104499904Y-49710186D01*
X104499904Y-49710186D02*
X104357047Y-49710186D01*
X104357047Y-49710186D02*
X104261809Y-49662567D01*
X104261809Y-49662567D02*
X104214190Y-49614948D01*
X104214190Y-49614948D02*
X104166571Y-49519710D01*
X104166571Y-49519710D02*
X104166571Y-49138758D01*
X103785619Y-50138758D02*
X103738000Y-50186377D01*
X103738000Y-50186377D02*
X103690380Y-50138758D01*
X103690380Y-50138758D02*
X103738000Y-50091139D01*
X103738000Y-50091139D02*
X103785619Y-50138758D01*
X103785619Y-50138758D02*
X103690380Y-50138758D01*
X103785619Y-51186376D02*
X103738000Y-51138757D01*
X103738000Y-51138757D02*
X103690380Y-50995900D01*
X103690380Y-50995900D02*
X103690380Y-50900662D01*
X103690380Y-50900662D02*
X103738000Y-50757805D01*
X103738000Y-50757805D02*
X103833238Y-50662567D01*
X103833238Y-50662567D02*
X103928476Y-50614948D01*
X103928476Y-50614948D02*
X104118952Y-50567329D01*
X104118952Y-50567329D02*
X104261809Y-50567329D01*
X104261809Y-50567329D02*
X104452285Y-50614948D01*
X104452285Y-50614948D02*
X104547523Y-50662567D01*
X104547523Y-50662567D02*
X104642761Y-50757805D01*
X104642761Y-50757805D02*
X104690380Y-50900662D01*
X104690380Y-50900662D02*
X104690380Y-50995900D01*
X104690380Y-50995900D02*
X104642761Y-51138757D01*
X104642761Y-51138757D02*
X104595142Y-51186376D01*
X104357047Y-51472091D02*
X104357047Y-51853043D01*
X104690380Y-51614948D02*
X103833238Y-51614948D01*
X103833238Y-51614948D02*
X103738000Y-51662567D01*
X103738000Y-51662567D02*
X103690380Y-51757805D01*
X103690380Y-51757805D02*
X103690380Y-51853043D01*
X103690380Y-52186377D02*
X104357047Y-52186377D01*
X104166571Y-52186377D02*
X104261809Y-52233996D01*
X104261809Y-52233996D02*
X104309428Y-52281615D01*
X104309428Y-52281615D02*
X104357047Y-52376853D01*
X104357047Y-52376853D02*
X104357047Y-52472091D01*
X103690380Y-52948282D02*
X103738000Y-52853044D01*
X103738000Y-52853044D02*
X103833238Y-52805425D01*
X103833238Y-52805425D02*
X104690380Y-52805425D01*
X104071333Y-53329235D02*
X104071333Y-54091140D01*
X103785619Y-54567330D02*
X103738000Y-54614949D01*
X103738000Y-54614949D02*
X103690380Y-54567330D01*
X103690380Y-54567330D02*
X103738000Y-54519711D01*
X103738000Y-54519711D02*
X103785619Y-54567330D01*
X103785619Y-54567330D02*
X103690380Y-54567330D01*
X103690380Y-55614948D02*
X104166571Y-55281615D01*
X103690380Y-55043520D02*
X104690380Y-55043520D01*
X104690380Y-55043520D02*
X104690380Y-55424472D01*
X104690380Y-55424472D02*
X104642761Y-55519710D01*
X104642761Y-55519710D02*
X104595142Y-55567329D01*
X104595142Y-55567329D02*
X104499904Y-55614948D01*
X104499904Y-55614948D02*
X104357047Y-55614948D01*
X104357047Y-55614948D02*
X104261809Y-55567329D01*
X104261809Y-55567329D02*
X104214190Y-55519710D01*
X104214190Y-55519710D02*
X104166571Y-55424472D01*
X104166571Y-55424472D02*
X104166571Y-55043520D01*
X103738000Y-56424472D02*
X103690380Y-56329234D01*
X103690380Y-56329234D02*
X103690380Y-56138758D01*
X103690380Y-56138758D02*
X103738000Y-56043520D01*
X103738000Y-56043520D02*
X103833238Y-55995901D01*
X103833238Y-55995901D02*
X104214190Y-55995901D01*
X104214190Y-55995901D02*
X104309428Y-56043520D01*
X104309428Y-56043520D02*
X104357047Y-56138758D01*
X104357047Y-56138758D02*
X104357047Y-56329234D01*
X104357047Y-56329234D02*
X104309428Y-56424472D01*
X104309428Y-56424472D02*
X104214190Y-56472091D01*
X104214190Y-56472091D02*
X104118952Y-56472091D01*
X104118952Y-56472091D02*
X104023714Y-55995901D01*
X104357047Y-56805425D02*
X103690380Y-57043520D01*
X103690380Y-57043520D02*
X104357047Y-57281615D01*
X104214190Y-58757806D02*
X104214190Y-58424473D01*
X103690380Y-58424473D02*
X104690380Y-58424473D01*
X104690380Y-58424473D02*
X104690380Y-58900663D01*
X103785619Y-59281616D02*
X103738000Y-59329235D01*
X103738000Y-59329235D02*
X103690380Y-59281616D01*
X103690380Y-59281616D02*
X103738000Y-59233997D01*
X103738000Y-59233997D02*
X103785619Y-59281616D01*
X103785619Y-59281616D02*
X103690380Y-59281616D01*
X104595142Y-59710187D02*
X104642761Y-59757806D01*
X104642761Y-59757806D02*
X104690380Y-59853044D01*
X104690380Y-59853044D02*
X104690380Y-60091139D01*
X104690380Y-60091139D02*
X104642761Y-60186377D01*
X104642761Y-60186377D02*
X104595142Y-60233996D01*
X104595142Y-60233996D02*
X104499904Y-60281615D01*
X104499904Y-60281615D02*
X104404666Y-60281615D01*
X104404666Y-60281615D02*
X104261809Y-60233996D01*
X104261809Y-60233996D02*
X103690380Y-59662568D01*
X103690380Y-59662568D02*
X103690380Y-60281615D01*
X104690380Y-60900663D02*
X104690380Y-60995901D01*
X104690380Y-60995901D02*
X104642761Y-61091139D01*
X104642761Y-61091139D02*
X104595142Y-61138758D01*
X104595142Y-61138758D02*
X104499904Y-61186377D01*
X104499904Y-61186377D02*
X104309428Y-61233996D01*
X104309428Y-61233996D02*
X104071333Y-61233996D01*
X104071333Y-61233996D02*
X103880857Y-61186377D01*
X103880857Y-61186377D02*
X103785619Y-61138758D01*
X103785619Y-61138758D02*
X103738000Y-61091139D01*
X103738000Y-61091139D02*
X103690380Y-60995901D01*
X103690380Y-60995901D02*
X103690380Y-60900663D01*
X103690380Y-60900663D02*
X103738000Y-60805425D01*
X103738000Y-60805425D02*
X103785619Y-60757806D01*
X103785619Y-60757806D02*
X103880857Y-60710187D01*
X103880857Y-60710187D02*
X104071333Y-60662568D01*
X104071333Y-60662568D02*
X104309428Y-60662568D01*
X104309428Y-60662568D02*
X104499904Y-60710187D01*
X104499904Y-60710187D02*
X104595142Y-60757806D01*
X104595142Y-60757806D02*
X104642761Y-60805425D01*
X104642761Y-60805425D02*
X104690380Y-60900663D01*
X104595142Y-61614949D02*
X104642761Y-61662568D01*
X104642761Y-61662568D02*
X104690380Y-61757806D01*
X104690380Y-61757806D02*
X104690380Y-61995901D01*
X104690380Y-61995901D02*
X104642761Y-62091139D01*
X104642761Y-62091139D02*
X104595142Y-62138758D01*
X104595142Y-62138758D02*
X104499904Y-62186377D01*
X104499904Y-62186377D02*
X104404666Y-62186377D01*
X104404666Y-62186377D02*
X104261809Y-62138758D01*
X104261809Y-62138758D02*
X103690380Y-61567330D01*
X103690380Y-61567330D02*
X103690380Y-62186377D01*
X104690380Y-63091139D02*
X104690380Y-62614949D01*
X104690380Y-62614949D02*
X104214190Y-62567330D01*
X104214190Y-62567330D02*
X104261809Y-62614949D01*
X104261809Y-62614949D02*
X104309428Y-62710187D01*
X104309428Y-62710187D02*
X104309428Y-62948282D01*
X104309428Y-62948282D02*
X104261809Y-63043520D01*
X104261809Y-63043520D02*
X104214190Y-63091139D01*
X104214190Y-63091139D02*
X104118952Y-63138758D01*
X104118952Y-63138758D02*
X103880857Y-63138758D01*
X103880857Y-63138758D02*
X103785619Y-63091139D01*
X103785619Y-63091139D02*
X103738000Y-63043520D01*
X103738000Y-63043520D02*
X103690380Y-62948282D01*
X103690380Y-62948282D02*
X103690380Y-62710187D01*
X103690380Y-62710187D02*
X103738000Y-62614949D01*
X103738000Y-62614949D02*
X103785619Y-62567330D01*
X104690380Y-63757806D02*
X104690380Y-63853044D01*
X104690380Y-63853044D02*
X104642761Y-63948282D01*
X104642761Y-63948282D02*
X104595142Y-63995901D01*
X104595142Y-63995901D02*
X104499904Y-64043520D01*
X104499904Y-64043520D02*
X104309428Y-64091139D01*
X104309428Y-64091139D02*
X104071333Y-64091139D01*
X104071333Y-64091139D02*
X103880857Y-64043520D01*
X103880857Y-64043520D02*
X103785619Y-63995901D01*
X103785619Y-63995901D02*
X103738000Y-63948282D01*
X103738000Y-63948282D02*
X103690380Y-63853044D01*
X103690380Y-63853044D02*
X103690380Y-63757806D01*
X103690380Y-63757806D02*
X103738000Y-63662568D01*
X103738000Y-63662568D02*
X103785619Y-63614949D01*
X103785619Y-63614949D02*
X103880857Y-63567330D01*
X103880857Y-63567330D02*
X104071333Y-63519711D01*
X104071333Y-63519711D02*
X104309428Y-63519711D01*
X104309428Y-63519711D02*
X104499904Y-63567330D01*
X104499904Y-63567330D02*
X104595142Y-63614949D01*
X104595142Y-63614949D02*
X104642761Y-63662568D01*
X104642761Y-63662568D02*
X104690380Y-63757806D01*
X103690380Y-64567330D02*
X103690380Y-64757806D01*
X103690380Y-64757806D02*
X103738000Y-64853044D01*
X103738000Y-64853044D02*
X103785619Y-64900663D01*
X103785619Y-64900663D02*
X103928476Y-64995901D01*
X103928476Y-64995901D02*
X104118952Y-65043520D01*
X104118952Y-65043520D02*
X104499904Y-65043520D01*
X104499904Y-65043520D02*
X104595142Y-64995901D01*
X104595142Y-64995901D02*
X104642761Y-64948282D01*
X104642761Y-64948282D02*
X104690380Y-64853044D01*
X104690380Y-64853044D02*
X104690380Y-64662568D01*
X104690380Y-64662568D02*
X104642761Y-64567330D01*
X104642761Y-64567330D02*
X104595142Y-64519711D01*
X104595142Y-64519711D02*
X104499904Y-64472092D01*
X104499904Y-64472092D02*
X104261809Y-64472092D01*
X104261809Y-64472092D02*
X104166571Y-64519711D01*
X104166571Y-64519711D02*
X104118952Y-64567330D01*
X104118952Y-64567330D02*
X104071333Y-64662568D01*
X104071333Y-64662568D02*
X104071333Y-64853044D01*
X104071333Y-64853044D02*
X104118952Y-64948282D01*
X104118952Y-64948282D02*
X104166571Y-64995901D01*
X104166571Y-64995901D02*
X104261809Y-65043520D01*
X104690380Y-65662568D02*
X104690380Y-65757806D01*
X104690380Y-65757806D02*
X104642761Y-65853044D01*
X104642761Y-65853044D02*
X104595142Y-65900663D01*
X104595142Y-65900663D02*
X104499904Y-65948282D01*
X104499904Y-65948282D02*
X104309428Y-65995901D01*
X104309428Y-65995901D02*
X104071333Y-65995901D01*
X104071333Y-65995901D02*
X103880857Y-65948282D01*
X103880857Y-65948282D02*
X103785619Y-65900663D01*
X103785619Y-65900663D02*
X103738000Y-65853044D01*
X103738000Y-65853044D02*
X103690380Y-65757806D01*
X103690380Y-65757806D02*
X103690380Y-65662568D01*
X103690380Y-65662568D02*
X103738000Y-65567330D01*
X103738000Y-65567330D02*
X103785619Y-65519711D01*
X103785619Y-65519711D02*
X103880857Y-65472092D01*
X103880857Y-65472092D02*
X104071333Y-65424473D01*
X104071333Y-65424473D02*
X104309428Y-65424473D01*
X104309428Y-65424473D02*
X104499904Y-65472092D01*
X104499904Y-65472092D02*
X104595142Y-65519711D01*
X104595142Y-65519711D02*
X104642761Y-65567330D01*
X104642761Y-65567330D02*
X104690380Y-65662568D01*
X104690380Y-66900663D02*
X104690380Y-66424473D01*
X104690380Y-66424473D02*
X104214190Y-66376854D01*
X104214190Y-66376854D02*
X104261809Y-66424473D01*
X104261809Y-66424473D02*
X104309428Y-66519711D01*
X104309428Y-66519711D02*
X104309428Y-66757806D01*
X104309428Y-66757806D02*
X104261809Y-66853044D01*
X104261809Y-66853044D02*
X104214190Y-66900663D01*
X104214190Y-66900663D02*
X104118952Y-66948282D01*
X104118952Y-66948282D02*
X103880857Y-66948282D01*
X103880857Y-66948282D02*
X103785619Y-66900663D01*
X103785619Y-66900663D02*
X103738000Y-66853044D01*
X103738000Y-66853044D02*
X103690380Y-66757806D01*
X103690380Y-66757806D02*
X103690380Y-66519711D01*
X103690380Y-66519711D02*
X103738000Y-66424473D01*
X103738000Y-66424473D02*
X103785619Y-66376854D01*
X103785619Y-67376854D02*
X103738000Y-67424473D01*
X103738000Y-67424473D02*
X103690380Y-67376854D01*
X103690380Y-67376854D02*
X103738000Y-67329235D01*
X103738000Y-67329235D02*
X103785619Y-67376854D01*
X103785619Y-67376854D02*
X103690380Y-67376854D01*
X103690380Y-68424472D02*
X104166571Y-68091139D01*
X103690380Y-67853044D02*
X104690380Y-67853044D01*
X104690380Y-67853044D02*
X104690380Y-68233996D01*
X104690380Y-68233996D02*
X104642761Y-68329234D01*
X104642761Y-68329234D02*
X104595142Y-68376853D01*
X104595142Y-68376853D02*
X104499904Y-68424472D01*
X104499904Y-68424472D02*
X104357047Y-68424472D01*
X104357047Y-68424472D02*
X104261809Y-68376853D01*
X104261809Y-68376853D02*
X104214190Y-68329234D01*
X104214190Y-68329234D02*
X104166571Y-68233996D01*
X104166571Y-68233996D02*
X104166571Y-67853044D01*
X103690380Y-69424472D02*
X104166571Y-69091139D01*
X103690380Y-68853044D02*
X104690380Y-68853044D01*
X104690380Y-68853044D02*
X104690380Y-69233996D01*
X104690380Y-69233996D02*
X104642761Y-69329234D01*
X104642761Y-69329234D02*
X104595142Y-69376853D01*
X104595142Y-69376853D02*
X104499904Y-69424472D01*
X104499904Y-69424472D02*
X104357047Y-69424472D01*
X104357047Y-69424472D02*
X104261809Y-69376853D01*
X104261809Y-69376853D02*
X104214190Y-69329234D01*
X104214190Y-69329234D02*
X104166571Y-69233996D01*
X104166571Y-69233996D02*
X104166571Y-68853044D01*
X103690380Y-69853044D02*
X104690380Y-69853044D01*
X104690380Y-69853044D02*
X104690380Y-70233996D01*
X104690380Y-70233996D02*
X104642761Y-70329234D01*
X104642761Y-70329234D02*
X104595142Y-70376853D01*
X104595142Y-70376853D02*
X104499904Y-70424472D01*
X104499904Y-70424472D02*
X104357047Y-70424472D01*
X104357047Y-70424472D02*
X104261809Y-70376853D01*
X104261809Y-70376853D02*
X104214190Y-70329234D01*
X104214190Y-70329234D02*
X104166571Y-70233996D01*
X104166571Y-70233996D02*
X104166571Y-69853044D01*
X104357047Y-71281615D02*
X103690380Y-71281615D01*
X104357047Y-70853044D02*
X103833238Y-70853044D01*
X103833238Y-70853044D02*
X103738000Y-70900663D01*
X103738000Y-70900663D02*
X103690380Y-70995901D01*
X103690380Y-70995901D02*
X103690380Y-71138758D01*
X103690380Y-71138758D02*
X103738000Y-71233996D01*
X103738000Y-71233996D02*
X103785619Y-71281615D01*
X103738000Y-72186377D02*
X103690380Y-72091139D01*
X103690380Y-72091139D02*
X103690380Y-71900663D01*
X103690380Y-71900663D02*
X103738000Y-71805425D01*
X103738000Y-71805425D02*
X103785619Y-71757806D01*
X103785619Y-71757806D02*
X103880857Y-71710187D01*
X103880857Y-71710187D02*
X104166571Y-71710187D01*
X104166571Y-71710187D02*
X104261809Y-71757806D01*
X104261809Y-71757806D02*
X104309428Y-71805425D01*
X104309428Y-71805425D02*
X104357047Y-71900663D01*
X104357047Y-71900663D02*
X104357047Y-72091139D01*
X104357047Y-72091139D02*
X104309428Y-72186377D01*
X103738000Y-73043520D02*
X103690380Y-72948282D01*
X103690380Y-72948282D02*
X103690380Y-72757806D01*
X103690380Y-72757806D02*
X103738000Y-72662568D01*
X103738000Y-72662568D02*
X103785619Y-72614949D01*
X103785619Y-72614949D02*
X103880857Y-72567330D01*
X103880857Y-72567330D02*
X104166571Y-72567330D01*
X104166571Y-72567330D02*
X104261809Y-72614949D01*
X104261809Y-72614949D02*
X104309428Y-72662568D01*
X104309428Y-72662568D02*
X104357047Y-72757806D01*
X104357047Y-72757806D02*
X104357047Y-72948282D01*
X104357047Y-72948282D02*
X104309428Y-73043520D01*
X103690380Y-73472092D02*
X104357047Y-73472092D01*
X104690380Y-73472092D02*
X104642761Y-73424473D01*
X104642761Y-73424473D02*
X104595142Y-73472092D01*
X104595142Y-73472092D02*
X104642761Y-73519711D01*
X104642761Y-73519711D02*
X104690380Y-73472092D01*
X104690380Y-73472092D02*
X104595142Y-73472092D01*
X104357047Y-73948282D02*
X103690380Y-73948282D01*
X104261809Y-73948282D02*
X104309428Y-73995901D01*
X104309428Y-73995901D02*
X104357047Y-74091139D01*
X104357047Y-74091139D02*
X104357047Y-74233996D01*
X104357047Y-74233996D02*
X104309428Y-74329234D01*
X104309428Y-74329234D02*
X104214190Y-74376853D01*
X104214190Y-74376853D02*
X103690380Y-74376853D01*
X103738000Y-75233996D02*
X103690380Y-75138758D01*
X103690380Y-75138758D02*
X103690380Y-74948282D01*
X103690380Y-74948282D02*
X103738000Y-74853044D01*
X103738000Y-74853044D02*
X103833238Y-74805425D01*
X103833238Y-74805425D02*
X104214190Y-74805425D01*
X104214190Y-74805425D02*
X104309428Y-74853044D01*
X104309428Y-74853044D02*
X104357047Y-74948282D01*
X104357047Y-74948282D02*
X104357047Y-75138758D01*
X104357047Y-75138758D02*
X104309428Y-75233996D01*
X104309428Y-75233996D02*
X104214190Y-75281615D01*
X104214190Y-75281615D02*
X104118952Y-75281615D01*
X104118952Y-75281615D02*
X104023714Y-74805425D01*
X103690380Y-75853044D02*
X103738000Y-75757806D01*
X103738000Y-75757806D02*
X103833238Y-75710187D01*
X103833238Y-75710187D02*
X104690380Y-75710187D01*
X103690380Y-76376854D02*
X103738000Y-76281616D01*
X103738000Y-76281616D02*
X103833238Y-76233997D01*
X103833238Y-76233997D02*
X104690380Y-76233997D01*
X103690380Y-76757807D02*
X104357047Y-76757807D01*
X104690380Y-76757807D02*
X104642761Y-76710188D01*
X104642761Y-76710188D02*
X104595142Y-76757807D01*
X104595142Y-76757807D02*
X104642761Y-76805426D01*
X104642761Y-76805426D02*
X104690380Y-76757807D01*
X104690380Y-76757807D02*
X104595142Y-76757807D01*
D10*
D11*
X30476533Y-54273333D02*
X31176533Y-53806666D01*
X30476533Y-53806666D02*
X31176533Y-54273333D01*
X30282200Y-54303333D02*
X30282200Y-53776666D01*
D10*
D11*
X72850000Y-89816533D02*
X72983333Y-89816533D01*
X72983333Y-89816533D02*
X73050000Y-89849866D01*
X73050000Y-89849866D02*
X73116666Y-89916533D01*
X73116666Y-89916533D02*
X73150000Y-90049866D01*
X73150000Y-90049866D02*
X73150000Y-90283200D01*
X73150000Y-90283200D02*
X73116666Y-90416533D01*
X73116666Y-90416533D02*
X73050000Y-90483200D01*
X73050000Y-90483200D02*
X72983333Y-90516533D01*
X72983333Y-90516533D02*
X72850000Y-90516533D01*
X72850000Y-90516533D02*
X72783333Y-90483200D01*
X72783333Y-90483200D02*
X72716666Y-90416533D01*
X72716666Y-90416533D02*
X72683333Y-90283200D01*
X72683333Y-90283200D02*
X72683333Y-90049866D01*
X72683333Y-90049866D02*
X72716666Y-89916533D01*
X72716666Y-89916533D02*
X72783333Y-89849866D01*
X72783333Y-89849866D02*
X72850000Y-89816533D01*
X73383333Y-89816533D02*
X73816666Y-89816533D01*
X73816666Y-89816533D02*
X73583333Y-90083200D01*
X73583333Y-90083200D02*
X73683333Y-90083200D01*
X73683333Y-90083200D02*
X73749999Y-90116533D01*
X73749999Y-90116533D02*
X73783333Y-90149866D01*
X73783333Y-90149866D02*
X73816666Y-90216533D01*
X73816666Y-90216533D02*
X73816666Y-90383200D01*
X73816666Y-90383200D02*
X73783333Y-90449866D01*
X73783333Y-90449866D02*
X73749999Y-90483200D01*
X73749999Y-90483200D02*
X73683333Y-90516533D01*
X73683333Y-90516533D02*
X73483333Y-90516533D01*
X73483333Y-90516533D02*
X73416666Y-90483200D01*
X73416666Y-90483200D02*
X73383333Y-90449866D01*
X72620000Y-89622200D02*
X73880000Y-89622200D01*
D10*
D11*
X29809866Y-52689999D02*
X29809866Y-52456666D01*
X30176533Y-52356666D02*
X30176533Y-52689999D01*
X30176533Y-52689999D02*
X29476533Y-52689999D01*
X29476533Y-52689999D02*
X29476533Y-52356666D01*
X29282200Y-52786666D02*
X29282200Y-52293333D01*
D10*
D11*
X81809866Y-74990000D02*
X81843200Y-74890000D01*
X81843200Y-74890000D02*
X81876533Y-74856666D01*
X81876533Y-74856666D02*
X81943200Y-74823333D01*
X81943200Y-74823333D02*
X82043200Y-74823333D01*
X82043200Y-74823333D02*
X82109866Y-74856666D01*
X82109866Y-74856666D02*
X82143200Y-74890000D01*
X82143200Y-74890000D02*
X82176533Y-74956666D01*
X82176533Y-74956666D02*
X82176533Y-75223333D01*
X82176533Y-75223333D02*
X81476533Y-75223333D01*
X81476533Y-75223333D02*
X81476533Y-74990000D01*
X81476533Y-74990000D02*
X81509866Y-74923333D01*
X81509866Y-74923333D02*
X81543200Y-74890000D01*
X81543200Y-74890000D02*
X81609866Y-74856666D01*
X81609866Y-74856666D02*
X81676533Y-74856666D01*
X81676533Y-74856666D02*
X81743200Y-74890000D01*
X81743200Y-74890000D02*
X81776533Y-74923333D01*
X81776533Y-74923333D02*
X81809866Y-74990000D01*
X81809866Y-74990000D02*
X81809866Y-75223333D01*
X81282200Y-75320000D02*
X81282200Y-74760000D01*
D10*
D11*
X50233333Y-90316533D02*
X50566666Y-90316533D01*
X50166666Y-90516533D02*
X50400000Y-89816533D01*
X50400000Y-89816533D02*
X50633333Y-90516533D01*
X51233333Y-89849866D02*
X51166666Y-89816533D01*
X51166666Y-89816533D02*
X51066666Y-89816533D01*
X51066666Y-89816533D02*
X50966666Y-89849866D01*
X50966666Y-89849866D02*
X50900000Y-89916533D01*
X50900000Y-89916533D02*
X50866666Y-89983200D01*
X50866666Y-89983200D02*
X50833333Y-90116533D01*
X50833333Y-90116533D02*
X50833333Y-90216533D01*
X50833333Y-90216533D02*
X50866666Y-90349866D01*
X50866666Y-90349866D02*
X50900000Y-90416533D01*
X50900000Y-90416533D02*
X50966666Y-90483200D01*
X50966666Y-90483200D02*
X51066666Y-90516533D01*
X51066666Y-90516533D02*
X51133333Y-90516533D01*
X51133333Y-90516533D02*
X51233333Y-90483200D01*
X51233333Y-90483200D02*
X51266666Y-90449866D01*
X51266666Y-90449866D02*
X51266666Y-90216533D01*
X51266666Y-90216533D02*
X51133333Y-90216533D01*
X50170000Y-89622200D02*
X51330000Y-89622200D01*
D10*
D11*
X29476533Y-49940000D02*
X29476533Y-49806666D01*
X29476533Y-49806666D02*
X29509866Y-49740000D01*
X29509866Y-49740000D02*
X29576533Y-49673333D01*
X29576533Y-49673333D02*
X29709866Y-49640000D01*
X29709866Y-49640000D02*
X29943200Y-49640000D01*
X29943200Y-49640000D02*
X30076533Y-49673333D01*
X30076533Y-49673333D02*
X30143200Y-49740000D01*
X30143200Y-49740000D02*
X30176533Y-49806666D01*
X30176533Y-49806666D02*
X30176533Y-49940000D01*
X30176533Y-49940000D02*
X30143200Y-50006666D01*
X30143200Y-50006666D02*
X30076533Y-50073333D01*
X30076533Y-50073333D02*
X29943200Y-50106666D01*
X29943200Y-50106666D02*
X29709866Y-50106666D01*
X29709866Y-50106666D02*
X29576533Y-50073333D01*
X29576533Y-50073333D02*
X29509866Y-50006666D01*
X29509866Y-50006666D02*
X29476533Y-49940000D01*
X29543200Y-49373333D02*
X29509866Y-49340000D01*
X29509866Y-49340000D02*
X29476533Y-49273333D01*
X29476533Y-49273333D02*
X29476533Y-49106667D01*
X29476533Y-49106667D02*
X29509866Y-49040000D01*
X29509866Y-49040000D02*
X29543200Y-49006667D01*
X29543200Y-49006667D02*
X29609866Y-48973333D01*
X29609866Y-48973333D02*
X29676533Y-48973333D01*
X29676533Y-48973333D02*
X29776533Y-49006667D01*
X29776533Y-49006667D02*
X30176533Y-49406667D01*
X30176533Y-49406667D02*
X30176533Y-48973333D01*
X29282200Y-50170000D02*
X29282200Y-48910000D01*
D10*
D11*
X83143200Y-76739999D02*
X83176533Y-76639999D01*
X83176533Y-76639999D02*
X83176533Y-76473333D01*
X83176533Y-76473333D02*
X83143200Y-76406666D01*
X83143200Y-76406666D02*
X83109866Y-76373333D01*
X83109866Y-76373333D02*
X83043200Y-76339999D01*
X83043200Y-76339999D02*
X82976533Y-76339999D01*
X82976533Y-76339999D02*
X82909866Y-76373333D01*
X82909866Y-76373333D02*
X82876533Y-76406666D01*
X82876533Y-76406666D02*
X82843200Y-76473333D01*
X82843200Y-76473333D02*
X82809866Y-76606666D01*
X82809866Y-76606666D02*
X82776533Y-76673333D01*
X82776533Y-76673333D02*
X82743200Y-76706666D01*
X82743200Y-76706666D02*
X82676533Y-76739999D01*
X82676533Y-76739999D02*
X82609866Y-76739999D01*
X82609866Y-76739999D02*
X82543200Y-76706666D01*
X82543200Y-76706666D02*
X82509866Y-76673333D01*
X82509866Y-76673333D02*
X82476533Y-76606666D01*
X82476533Y-76606666D02*
X82476533Y-76439999D01*
X82476533Y-76439999D02*
X82509866Y-76339999D01*
X82282200Y-76803333D02*
X82282200Y-76276666D01*
D10*
D11*
X29976533Y-78556666D02*
X29976533Y-78223333D01*
X30176533Y-78623333D02*
X29476533Y-78390000D01*
X29476533Y-78390000D02*
X30176533Y-78156666D01*
X29509866Y-77556666D02*
X29476533Y-77623333D01*
X29476533Y-77623333D02*
X29476533Y-77723333D01*
X29476533Y-77723333D02*
X29509866Y-77823333D01*
X29509866Y-77823333D02*
X29576533Y-77890000D01*
X29576533Y-77890000D02*
X29643200Y-77923333D01*
X29643200Y-77923333D02*
X29776533Y-77956666D01*
X29776533Y-77956666D02*
X29876533Y-77956666D01*
X29876533Y-77956666D02*
X30009866Y-77923333D01*
X30009866Y-77923333D02*
X30076533Y-77890000D01*
X30076533Y-77890000D02*
X30143200Y-77823333D01*
X30143200Y-77823333D02*
X30176533Y-77723333D01*
X30176533Y-77723333D02*
X30176533Y-77656666D01*
X30176533Y-77656666D02*
X30143200Y-77556666D01*
X30143200Y-77556666D02*
X30109866Y-77523333D01*
X30109866Y-77523333D02*
X29876533Y-77523333D01*
X29876533Y-77523333D02*
X29876533Y-77656666D01*
X29282200Y-78620000D02*
X29282200Y-77460000D01*
D10*
D11*
X50690000Y-38968466D02*
X50556666Y-38968466D01*
X50556666Y-38968466D02*
X50490000Y-38935133D01*
X50490000Y-38935133D02*
X50423333Y-38868466D01*
X50423333Y-38868466D02*
X50390000Y-38735133D01*
X50390000Y-38735133D02*
X50390000Y-38501800D01*
X50390000Y-38501800D02*
X50423333Y-38368466D01*
X50423333Y-38368466D02*
X50490000Y-38301800D01*
X50490000Y-38301800D02*
X50556666Y-38268466D01*
X50556666Y-38268466D02*
X50690000Y-38268466D01*
X50690000Y-38268466D02*
X50756666Y-38301800D01*
X50756666Y-38301800D02*
X50823333Y-38368466D01*
X50823333Y-38368466D02*
X50856666Y-38501800D01*
X50856666Y-38501800D02*
X50856666Y-38735133D01*
X50856666Y-38735133D02*
X50823333Y-38868466D01*
X50823333Y-38868466D02*
X50756666Y-38935133D01*
X50756666Y-38935133D02*
X50690000Y-38968466D01*
X50123333Y-38901800D02*
X50090000Y-38935133D01*
X50090000Y-38935133D02*
X50023333Y-38968466D01*
X50023333Y-38968466D02*
X49856667Y-38968466D01*
X49856667Y-38968466D02*
X49790000Y-38935133D01*
X49790000Y-38935133D02*
X49756667Y-38901800D01*
X49756667Y-38901800D02*
X49723333Y-38835133D01*
X49723333Y-38835133D02*
X49723333Y-38768466D01*
X49723333Y-38768466D02*
X49756667Y-38668466D01*
X49756667Y-38668466D02*
X50156667Y-38268466D01*
X50156667Y-38268466D02*
X49723333Y-38268466D01*
X50920000Y-39162800D02*
X49660000Y-39162800D01*
D10*
D11*
X29476533Y-81440000D02*
X29476533Y-81306666D01*
X29476533Y-81306666D02*
X29509866Y-81240000D01*
X29509866Y-81240000D02*
X29576533Y-81173333D01*
X29576533Y-81173333D02*
X29709866Y-81140000D01*
X29709866Y-81140000D02*
X29943200Y-81140000D01*
X29943200Y-81140000D02*
X30076533Y-81173333D01*
X30076533Y-81173333D02*
X30143200Y-81240000D01*
X30143200Y-81240000D02*
X30176533Y-81306666D01*
X30176533Y-81306666D02*
X30176533Y-81440000D01*
X30176533Y-81440000D02*
X30143200Y-81506666D01*
X30143200Y-81506666D02*
X30076533Y-81573333D01*
X30076533Y-81573333D02*
X29943200Y-81606666D01*
X29943200Y-81606666D02*
X29709866Y-81606666D01*
X29709866Y-81606666D02*
X29576533Y-81573333D01*
X29576533Y-81573333D02*
X29509866Y-81506666D01*
X29509866Y-81506666D02*
X29476533Y-81440000D01*
X30176533Y-80473333D02*
X30176533Y-80873333D01*
X30176533Y-80673333D02*
X29476533Y-80673333D01*
X29476533Y-80673333D02*
X29576533Y-80740000D01*
X29576533Y-80740000D02*
X29643200Y-80806667D01*
X29643200Y-80806667D02*
X29676533Y-80873333D01*
X29282200Y-81670000D02*
X29282200Y-80410000D01*
D10*
D11*
X81476533Y-49940000D02*
X81476533Y-49806666D01*
X81476533Y-49806666D02*
X81509866Y-49740000D01*
X81509866Y-49740000D02*
X81576533Y-49673333D01*
X81576533Y-49673333D02*
X81709866Y-49640000D01*
X81709866Y-49640000D02*
X81943200Y-49640000D01*
X81943200Y-49640000D02*
X82076533Y-49673333D01*
X82076533Y-49673333D02*
X82143200Y-49740000D01*
X82143200Y-49740000D02*
X82176533Y-49806666D01*
X82176533Y-49806666D02*
X82176533Y-49940000D01*
X82176533Y-49940000D02*
X82143200Y-50006666D01*
X82143200Y-50006666D02*
X82076533Y-50073333D01*
X82076533Y-50073333D02*
X81943200Y-50106666D01*
X81943200Y-50106666D02*
X81709866Y-50106666D01*
X81709866Y-50106666D02*
X81576533Y-50073333D01*
X81576533Y-50073333D02*
X81509866Y-50006666D01*
X81509866Y-50006666D02*
X81476533Y-49940000D01*
X81543200Y-49373333D02*
X81509866Y-49340000D01*
X81509866Y-49340000D02*
X81476533Y-49273333D01*
X81476533Y-49273333D02*
X81476533Y-49106667D01*
X81476533Y-49106667D02*
X81509866Y-49040000D01*
X81509866Y-49040000D02*
X81543200Y-49006667D01*
X81543200Y-49006667D02*
X81609866Y-48973333D01*
X81609866Y-48973333D02*
X81676533Y-48973333D01*
X81676533Y-48973333D02*
X81776533Y-49006667D01*
X81776533Y-49006667D02*
X82176533Y-49406667D01*
X82176533Y-49406667D02*
X82176533Y-48973333D01*
X81282200Y-50170000D02*
X81282200Y-48910000D01*
D10*
D11*
X80590000Y-37968466D02*
X80423333Y-37268466D01*
X80423333Y-37268466D02*
X80290000Y-37768466D01*
X80290000Y-37768466D02*
X80156666Y-37268466D01*
X80156666Y-37268466D02*
X79990000Y-37968466D01*
X80620000Y-38162800D02*
X79960000Y-38162800D01*
D10*
G36*
X57329311Y-76955469D02*
G01*
X56129422Y-76955469D01*
X56129422Y-76276666D01*
X56207200Y-76276666D01*
X56207200Y-76803333D01*
X56207842Y-76813122D01*
X56212909Y-76832034D01*
X56222698Y-76848990D01*
X56236543Y-76862835D01*
X56253499Y-76872624D01*
X56272411Y-76877691D01*
X56291989Y-76877691D01*
X56310901Y-76872624D01*
X56327857Y-76862835D01*
X56341702Y-76848990D01*
X56351491Y-76832034D01*
X56356558Y-76813122D01*
X56357200Y-76803333D01*
X56357200Y-76439999D01*
X56401533Y-76439999D01*
X56401533Y-76606666D01*
X56401798Y-76610710D01*
X56401722Y-76611982D01*
X56401956Y-76613130D01*
X56402175Y-76616455D01*
X56404131Y-76623756D01*
X56405647Y-76631164D01*
X56406938Y-76634234D01*
X56407242Y-76635367D01*
X56407879Y-76636471D01*
X56409451Y-76640207D01*
X56442784Y-76706874D01*
X56447736Y-76715342D01*
X56449235Y-76717033D01*
X56450366Y-76718991D01*
X56456834Y-76726367D01*
X56490168Y-76759700D01*
X56497544Y-76766168D01*
X56499502Y-76767298D01*
X56501191Y-76768796D01*
X56509659Y-76773748D01*
X56576325Y-76807081D01*
X56580060Y-76808652D01*
X56581165Y-76809290D01*
X56582297Y-76809593D01*
X56585368Y-76810885D01*
X56592776Y-76812400D01*
X56600077Y-76814357D01*
X56603400Y-76814574D01*
X56604549Y-76814810D01*
X56605821Y-76814733D01*
X56609866Y-76814999D01*
X56676533Y-76814999D01*
X56680577Y-76814733D01*
X56681849Y-76814810D01*
X56682997Y-76814575D01*
X56686322Y-76814357D01*
X56693623Y-76812400D01*
X56701031Y-76810885D01*
X56704101Y-76809593D01*
X56705234Y-76809290D01*
X56706338Y-76808652D01*
X56710074Y-76807081D01*
X56776741Y-76773748D01*
X56785209Y-76768796D01*
X56786899Y-76767297D01*
X56788857Y-76766167D01*
X56796233Y-76759699D01*
X56829566Y-76726366D01*
X56836034Y-76718990D01*
X56837164Y-76717032D01*
X56838663Y-76715342D01*
X56843615Y-76706874D01*
X56876948Y-76640206D01*
X56878992Y-76635346D01*
X56879630Y-76634198D01*
X56880126Y-76632651D01*
X56880752Y-76631164D01*
X56881013Y-76629885D01*
X56882627Y-76624857D01*
X56913964Y-76499508D01*
X56938171Y-76451093D01*
X56954293Y-76434971D01*
X56994238Y-76414999D01*
X57025494Y-76414999D01*
X57065440Y-76434972D01*
X57081561Y-76451093D01*
X57101533Y-76491037D01*
X57101533Y-76627829D01*
X57072049Y-76716282D01*
X57069562Y-76725772D01*
X57068389Y-76745316D01*
X57072314Y-76764497D01*
X57081070Y-76782010D01*
X57094060Y-76796658D01*
X57110399Y-76807446D01*
X57128973Y-76813637D01*
X57148517Y-76814810D01*
X57167698Y-76810885D01*
X57185211Y-76802129D01*
X57199859Y-76789139D01*
X57210647Y-76772800D01*
X57214351Y-76763716D01*
X57247684Y-76663716D01*
X57250171Y-76654226D01*
X57250306Y-76651969D01*
X57250891Y-76649788D01*
X57251533Y-76639999D01*
X57251533Y-76473333D01*
X57251267Y-76469288D01*
X57251344Y-76468017D01*
X57251109Y-76466868D01*
X57250891Y-76463544D01*
X57248934Y-76456242D01*
X57247419Y-76448835D01*
X57246127Y-76445765D01*
X57245824Y-76444632D01*
X57245185Y-76443525D01*
X57243615Y-76439793D01*
X57210282Y-76373125D01*
X57205330Y-76364657D01*
X57203830Y-76362965D01*
X57202700Y-76361008D01*
X57196232Y-76353632D01*
X57162898Y-76320299D01*
X57155522Y-76313831D01*
X57153566Y-76312702D01*
X57151876Y-76311203D01*
X57143408Y-76306251D01*
X57076742Y-76272917D01*
X57073005Y-76271345D01*
X57071901Y-76270708D01*
X57070766Y-76270404D01*
X57067699Y-76269114D01*
X57060296Y-76267598D01*
X57052989Y-76265641D01*
X57049666Y-76265423D01*
X57048518Y-76265188D01*
X57047245Y-76265264D01*
X57043200Y-76264999D01*
X56976533Y-76264999D01*
X56972487Y-76265264D01*
X56971215Y-76265188D01*
X56970066Y-76265423D01*
X56966744Y-76265641D01*
X56959436Y-76267598D01*
X56952034Y-76269114D01*
X56948966Y-76270404D01*
X56947832Y-76270708D01*
X56946727Y-76271345D01*
X56942991Y-76272917D01*
X56876325Y-76306251D01*
X56867856Y-76311203D01*
X56866164Y-76312702D01*
X56864209Y-76313832D01*
X56856833Y-76320300D01*
X56823500Y-76353633D01*
X56817032Y-76361009D01*
X56815901Y-76362966D01*
X56814403Y-76364657D01*
X56809451Y-76373125D01*
X56776118Y-76439792D01*
X56774069Y-76444660D01*
X56773437Y-76445801D01*
X56772943Y-76447338D01*
X56772314Y-76448835D01*
X56772051Y-76450117D01*
X56770439Y-76455142D01*
X56739101Y-76580491D01*
X56714893Y-76628906D01*
X56698772Y-76645027D01*
X56658828Y-76664999D01*
X56627571Y-76664999D01*
X56587626Y-76645026D01*
X56571504Y-76628904D01*
X56551533Y-76588961D01*
X56551533Y-76452168D01*
X56581017Y-76363716D01*
X56583504Y-76354226D01*
X56584677Y-76334682D01*
X56580752Y-76315501D01*
X56571996Y-76297988D01*
X56559006Y-76283340D01*
X56542666Y-76272552D01*
X56524093Y-76266361D01*
X56504549Y-76265188D01*
X56485368Y-76269113D01*
X56467855Y-76277869D01*
X56453207Y-76290859D01*
X56442419Y-76307199D01*
X56438715Y-76316282D01*
X56405382Y-76416282D01*
X56402895Y-76425772D01*
X56402759Y-76428028D01*
X56402175Y-76430210D01*
X56401533Y-76439999D01*
X56357200Y-76439999D01*
X56357200Y-76276666D01*
X56356558Y-76266877D01*
X56351491Y-76247965D01*
X56341702Y-76231009D01*
X56327857Y-76217164D01*
X56310901Y-76207375D01*
X56291989Y-76202308D01*
X56272411Y-76202308D01*
X56253499Y-76207375D01*
X56236543Y-76217164D01*
X56222698Y-76231009D01*
X56212909Y-76247965D01*
X56207842Y-76266877D01*
X56207200Y-76276666D01*
X56129422Y-76276666D01*
X56129422Y-76124530D01*
X57329311Y-76124530D01*
X57329311Y-76955469D01*
G37*
D11*
X56476533Y-79840000D02*
X57176533Y-79673333D01*
X57176533Y-79673333D02*
X56676533Y-79540000D01*
X56676533Y-79540000D02*
X57176533Y-79406666D01*
X57176533Y-79406666D02*
X56476533Y-79240000D01*
X56282200Y-79870000D02*
X56282200Y-79210000D01*
D10*
D11*
X83176533Y-57039999D02*
X82476533Y-57039999D01*
X82282200Y-57136666D02*
X82282200Y-56943333D01*
D10*
D11*
X53800000Y-90149866D02*
X53900000Y-90183200D01*
X53900000Y-90183200D02*
X53933333Y-90216533D01*
X53933333Y-90216533D02*
X53966666Y-90283200D01*
X53966666Y-90283200D02*
X53966666Y-90383200D01*
X53966666Y-90383200D02*
X53933333Y-90449866D01*
X53933333Y-90449866D02*
X53900000Y-90483200D01*
X53900000Y-90483200D02*
X53833333Y-90516533D01*
X53833333Y-90516533D02*
X53566666Y-90516533D01*
X53566666Y-90516533D02*
X53566666Y-89816533D01*
X53566666Y-89816533D02*
X53800000Y-89816533D01*
X53800000Y-89816533D02*
X53866666Y-89849866D01*
X53866666Y-89849866D02*
X53900000Y-89883200D01*
X53900000Y-89883200D02*
X53933333Y-89949866D01*
X53933333Y-89949866D02*
X53933333Y-90016533D01*
X53933333Y-90016533D02*
X53900000Y-90083200D01*
X53900000Y-90083200D02*
X53866666Y-90116533D01*
X53866666Y-90116533D02*
X53800000Y-90149866D01*
X53800000Y-90149866D02*
X53566666Y-90149866D01*
X53470000Y-89622200D02*
X54030000Y-89622200D01*
D10*
D11*
X56476533Y-54273333D02*
X57176533Y-53806666D01*
X56476533Y-53806666D02*
X57176533Y-54273333D01*
X56282200Y-54303333D02*
X56282200Y-53776666D01*
D14*
D15*
X54283333Y-107211966D02*
X54250000Y-107245300D01*
X54250000Y-107245300D02*
X54150000Y-107278633D01*
X54150000Y-107278633D02*
X54083333Y-107278633D01*
X54083333Y-107278633D02*
X53983333Y-107245300D01*
X53983333Y-107245300D02*
X53916667Y-107178633D01*
X53916667Y-107178633D02*
X53883333Y-107111966D01*
X53883333Y-107111966D02*
X53850000Y-106978633D01*
X53850000Y-106978633D02*
X53850000Y-106878633D01*
X53850000Y-106878633D02*
X53883333Y-106745300D01*
X53883333Y-106745300D02*
X53916667Y-106678633D01*
X53916667Y-106678633D02*
X53983333Y-106611966D01*
X53983333Y-106611966D02*
X54083333Y-106578633D01*
X54083333Y-106578633D02*
X54150000Y-106578633D01*
X54150000Y-106578633D02*
X54250000Y-106611966D01*
X54250000Y-106611966D02*
X54283333Y-106645300D01*
X54916667Y-106578633D02*
X54583333Y-106578633D01*
X54583333Y-106578633D02*
X54550000Y-106911966D01*
X54550000Y-106911966D02*
X54583333Y-106878633D01*
X54583333Y-106878633D02*
X54650000Y-106845300D01*
X54650000Y-106845300D02*
X54816667Y-106845300D01*
X54816667Y-106845300D02*
X54883333Y-106878633D01*
X54883333Y-106878633D02*
X54916667Y-106911966D01*
X54916667Y-106911966D02*
X54950000Y-106978633D01*
X54950000Y-106978633D02*
X54950000Y-107145300D01*
X54950000Y-107145300D02*
X54916667Y-107211966D01*
X54916667Y-107211966D02*
X54883333Y-107245300D01*
X54883333Y-107245300D02*
X54816667Y-107278633D01*
X54816667Y-107278633D02*
X54650000Y-107278633D01*
X54650000Y-107278633D02*
X54583333Y-107245300D01*
X54583333Y-107245300D02*
X54550000Y-107211966D01*
D10*
D11*
X82476533Y-54273333D02*
X83176533Y-53806666D01*
X82476533Y-53806666D02*
X83176533Y-54273333D01*
X82282200Y-54303333D02*
X82282200Y-53776666D01*
D10*
D11*
X31176533Y-57039999D02*
X30476533Y-57039999D01*
X30282200Y-57136666D02*
X30282200Y-56943333D01*
D10*
G36*
X56901533Y-73952609D02*
G01*
X56713702Y-73889999D01*
X56901533Y-73827389D01*
X56901533Y-73952609D01*
G37*
G36*
X56698773Y-73151639D02*
G01*
X56714893Y-73167759D01*
X56734866Y-73207704D01*
X56734866Y-73348333D01*
X56551533Y-73348333D01*
X56551533Y-73207704D01*
X56571504Y-73167761D01*
X56587625Y-73151639D01*
X56627572Y-73131666D01*
X56658828Y-73131666D01*
X56698773Y-73151639D01*
G37*
G36*
X57065439Y-73118305D02*
G01*
X57081561Y-73134427D01*
X57101533Y-73174371D01*
X57101533Y-73348333D01*
X56884866Y-73348333D01*
X56884866Y-73202171D01*
X56908752Y-73130513D01*
X56920960Y-73118304D01*
X56960905Y-73098333D01*
X57025495Y-73098333D01*
X57065439Y-73118305D01*
G37*
G36*
X57329311Y-74275922D02*
G01*
X56129422Y-74275922D01*
X56129422Y-72960000D01*
X56207200Y-72960000D01*
X56207200Y-74120000D01*
X56207842Y-74129789D01*
X56212909Y-74148701D01*
X56222698Y-74165657D01*
X56236543Y-74179502D01*
X56253499Y-74189291D01*
X56272411Y-74194358D01*
X56291989Y-74194358D01*
X56310901Y-74189291D01*
X56327857Y-74179502D01*
X56341702Y-74165657D01*
X56351491Y-74148701D01*
X56356558Y-74129789D01*
X56357200Y-74120000D01*
X56357200Y-73884684D01*
X56401722Y-73884684D01*
X56402041Y-73890000D01*
X56401722Y-73895316D01*
X56402625Y-73899730D01*
X56402895Y-73904227D01*
X56404577Y-73909274D01*
X56405646Y-73914498D01*
X56407662Y-73918531D01*
X56409086Y-73922801D01*
X56412018Y-73927242D01*
X56414403Y-73932011D01*
X56417393Y-73935383D01*
X56419874Y-73939140D01*
X56423858Y-73942672D01*
X56427393Y-73946659D01*
X56431152Y-73949141D01*
X56434523Y-73952130D01*
X56439287Y-73954512D01*
X56443732Y-73957447D01*
X56451445Y-73960592D01*
X56452035Y-73960887D01*
X56452302Y-73960941D01*
X56452816Y-73961151D01*
X57152816Y-74194484D01*
X57162306Y-74196971D01*
X57181850Y-74198144D01*
X57201031Y-74194220D01*
X57218544Y-74185463D01*
X57233192Y-74172473D01*
X57243980Y-74156134D01*
X57250171Y-74137560D01*
X57251345Y-74118017D01*
X57247420Y-74098835D01*
X57238664Y-74081323D01*
X57225673Y-74066674D01*
X57209334Y-74055886D01*
X57200250Y-74052182D01*
X57051533Y-74002609D01*
X57051533Y-73777389D01*
X57200250Y-73727817D01*
X57209334Y-73724113D01*
X57225673Y-73713325D01*
X57238663Y-73698676D01*
X57247420Y-73681164D01*
X57251344Y-73661982D01*
X57250171Y-73642439D01*
X57243980Y-73623865D01*
X57233192Y-73607526D01*
X57218543Y-73594536D01*
X57201031Y-73585779D01*
X57181849Y-73581855D01*
X57162306Y-73583028D01*
X57152816Y-73585515D01*
X56452816Y-73818849D01*
X56452302Y-73819058D01*
X56452035Y-73819113D01*
X56451444Y-73819408D01*
X56443732Y-73822553D01*
X56439290Y-73825485D01*
X56434522Y-73827870D01*
X56431149Y-73830860D01*
X56427393Y-73833341D01*
X56423860Y-73837325D01*
X56419874Y-73840860D01*
X56417391Y-73844619D01*
X56414403Y-73847990D01*
X56412020Y-73852754D01*
X56409086Y-73857199D01*
X56407662Y-73861468D01*
X56405646Y-73865502D01*
X56404577Y-73870725D01*
X56402895Y-73875773D01*
X56402625Y-73880269D01*
X56401722Y-73884684D01*
X56357200Y-73884684D01*
X56357200Y-73190000D01*
X56401533Y-73190000D01*
X56401533Y-73423333D01*
X56402175Y-73433122D01*
X56407242Y-73452034D01*
X56417031Y-73468990D01*
X56430876Y-73482835D01*
X56447832Y-73492624D01*
X56466744Y-73497691D01*
X56476533Y-73498333D01*
X57176533Y-73498333D01*
X57186322Y-73497691D01*
X57205234Y-73492624D01*
X57222190Y-73482835D01*
X57236035Y-73468990D01*
X57245824Y-73452034D01*
X57250891Y-73433122D01*
X57251533Y-73423333D01*
X57251533Y-73156666D01*
X57251267Y-73152621D01*
X57251344Y-73151349D01*
X57251108Y-73150200D01*
X57250891Y-73146877D01*
X57248934Y-73139576D01*
X57247419Y-73132168D01*
X57246127Y-73129097D01*
X57245824Y-73127965D01*
X57245186Y-73126860D01*
X57243615Y-73123125D01*
X57210282Y-73056459D01*
X57205330Y-73047991D01*
X57203831Y-73046301D01*
X57202701Y-73044343D01*
X57196233Y-73036967D01*
X57162899Y-73003633D01*
X57155523Y-72997165D01*
X57153567Y-72996035D01*
X57151876Y-72994536D01*
X57143407Y-72989584D01*
X57076741Y-72956251D01*
X57073005Y-72954679D01*
X57071901Y-72954042D01*
X57070768Y-72953738D01*
X57067698Y-72952447D01*
X57060289Y-72950931D01*
X57052989Y-72948975D01*
X57049665Y-72948757D01*
X57048517Y-72948522D01*
X57047244Y-72948598D01*
X57043200Y-72948333D01*
X56943200Y-72948333D01*
X56939155Y-72948598D01*
X56937884Y-72948522D01*
X56936735Y-72948756D01*
X56933411Y-72948975D01*
X56926109Y-72950931D01*
X56918702Y-72952447D01*
X56915632Y-72953738D01*
X56914499Y-72954042D01*
X56913392Y-72954680D01*
X56909660Y-72956251D01*
X56842992Y-72989584D01*
X56834524Y-72994536D01*
X56832832Y-72996035D01*
X56830875Y-72997166D01*
X56823499Y-73003634D01*
X56793001Y-73034132D01*
X56788857Y-73030499D01*
X56786901Y-73029369D01*
X56785210Y-73027870D01*
X56776741Y-73022918D01*
X56710074Y-72989584D01*
X56706339Y-72988013D01*
X56705234Y-72987375D01*
X56704098Y-72987070D01*
X56701032Y-72985781D01*
X56693630Y-72984266D01*
X56686322Y-72982308D01*
X56682998Y-72982090D01*
X56681850Y-72981855D01*
X56680577Y-72981931D01*
X56676533Y-72981666D01*
X56609866Y-72981666D01*
X56605820Y-72981931D01*
X56604548Y-72981855D01*
X56603399Y-72982090D01*
X56600077Y-72982308D01*
X56592769Y-72984265D01*
X56585367Y-72985781D01*
X56582299Y-72987071D01*
X56581165Y-72987375D01*
X56580060Y-72988012D01*
X56576324Y-72989584D01*
X56509658Y-73022918D01*
X56501190Y-73027870D01*
X56499499Y-73029369D01*
X56497544Y-73030498D01*
X56490168Y-73036966D01*
X56456834Y-73070299D01*
X56450366Y-73077675D01*
X56449235Y-73079632D01*
X56447736Y-73081324D01*
X56442784Y-73089792D01*
X56409451Y-73156459D01*
X56407879Y-73160194D01*
X56407242Y-73161299D01*
X56406938Y-73162431D01*
X56405647Y-73165502D01*
X56404131Y-73172909D01*
X56402175Y-73180211D01*
X56401956Y-73183535D01*
X56401722Y-73184684D01*
X56401798Y-73185955D01*
X56401533Y-73190000D01*
X56357200Y-73190000D01*
X56357200Y-72960000D01*
X56356558Y-72950211D01*
X56351491Y-72931299D01*
X56341702Y-72914343D01*
X56327857Y-72900498D01*
X56310901Y-72890709D01*
X56291989Y-72885642D01*
X56272411Y-72885642D01*
X56253499Y-72890709D01*
X56236543Y-72900498D01*
X56222698Y-72914343D01*
X56212909Y-72931299D01*
X56207842Y-72950211D01*
X56207200Y-72960000D01*
X56129422Y-72960000D01*
X56129422Y-72807864D01*
X57329311Y-72807864D01*
X57329311Y-74275922D01*
G37*
D11*
X54733333Y-91316533D02*
X55066666Y-91316533D01*
X54666666Y-91516533D02*
X54900000Y-90816533D01*
X54900000Y-90816533D02*
X55133333Y-91516533D01*
X55600000Y-91149866D02*
X55700000Y-91183200D01*
X55700000Y-91183200D02*
X55733333Y-91216533D01*
X55733333Y-91216533D02*
X55766666Y-91283200D01*
X55766666Y-91283200D02*
X55766666Y-91383200D01*
X55766666Y-91383200D02*
X55733333Y-91449866D01*
X55733333Y-91449866D02*
X55700000Y-91483200D01*
X55700000Y-91483200D02*
X55633333Y-91516533D01*
X55633333Y-91516533D02*
X55366666Y-91516533D01*
X55366666Y-91516533D02*
X55366666Y-90816533D01*
X55366666Y-90816533D02*
X55600000Y-90816533D01*
X55600000Y-90816533D02*
X55666666Y-90849866D01*
X55666666Y-90849866D02*
X55700000Y-90883200D01*
X55700000Y-90883200D02*
X55733333Y-90949866D01*
X55733333Y-90949866D02*
X55733333Y-91016533D01*
X55733333Y-91016533D02*
X55700000Y-91083200D01*
X55700000Y-91083200D02*
X55666666Y-91116533D01*
X55666666Y-91116533D02*
X55600000Y-91149866D01*
X55600000Y-91149866D02*
X55366666Y-91149866D01*
X54670000Y-90622200D02*
X55830000Y-90622200D01*
D10*
D11*
X55023333Y-37968466D02*
X54556666Y-37268466D01*
X54556666Y-37968466D02*
X55023333Y-37268466D01*
X55053333Y-38162800D02*
X54526666Y-38162800D01*
D10*
D11*
X55476533Y-81440000D02*
X55476533Y-81306666D01*
X55476533Y-81306666D02*
X55509866Y-81240000D01*
X55509866Y-81240000D02*
X55576533Y-81173333D01*
X55576533Y-81173333D02*
X55709866Y-81140000D01*
X55709866Y-81140000D02*
X55943200Y-81140000D01*
X55943200Y-81140000D02*
X56076533Y-81173333D01*
X56076533Y-81173333D02*
X56143200Y-81240000D01*
X56143200Y-81240000D02*
X56176533Y-81306666D01*
X56176533Y-81306666D02*
X56176533Y-81440000D01*
X56176533Y-81440000D02*
X56143200Y-81506666D01*
X56143200Y-81506666D02*
X56076533Y-81573333D01*
X56076533Y-81573333D02*
X55943200Y-81606666D01*
X55943200Y-81606666D02*
X55709866Y-81606666D01*
X55709866Y-81606666D02*
X55576533Y-81573333D01*
X55576533Y-81573333D02*
X55509866Y-81506666D01*
X55509866Y-81506666D02*
X55476533Y-81440000D01*
X56176533Y-80473333D02*
X56176533Y-80873333D01*
X56176533Y-80673333D02*
X55476533Y-80673333D01*
X55476533Y-80673333D02*
X55576533Y-80740000D01*
X55576533Y-80740000D02*
X55643200Y-80806667D01*
X55643200Y-80806667D02*
X55676533Y-80873333D01*
X55282200Y-81670000D02*
X55282200Y-80410000D01*
D10*
D11*
X48950000Y-90816533D02*
X49116666Y-91516533D01*
X49116666Y-91516533D02*
X49250000Y-91016533D01*
X49250000Y-91016533D02*
X49383333Y-91516533D01*
X49383333Y-91516533D02*
X49550000Y-90816533D01*
X48920000Y-90622200D02*
X49580000Y-90622200D01*
D16*
G36*
X83270349Y-22236683D02*
G01*
X82009649Y-22236683D01*
X82009649Y-21594081D01*
X82134649Y-21594081D01*
X82134649Y-21618585D01*
X82139429Y-21642619D01*
X82148807Y-21665258D01*
X82162421Y-21685632D01*
X82179748Y-21702959D01*
X82200122Y-21716573D01*
X82222761Y-21725951D01*
X82246795Y-21730731D01*
X82259047Y-21731333D01*
X82514999Y-21731333D01*
X82514999Y-21987285D01*
X82515601Y-21999537D01*
X82520381Y-22023571D01*
X82529759Y-22046210D01*
X82543373Y-22066584D01*
X82560700Y-22083911D01*
X82581074Y-22097525D01*
X82603713Y-22106903D01*
X82627747Y-22111683D01*
X82652251Y-22111683D01*
X82676285Y-22106903D01*
X82698924Y-22097525D01*
X82719298Y-22083911D01*
X82736625Y-22066584D01*
X82750239Y-22046210D01*
X82759617Y-22023571D01*
X82764397Y-21999537D01*
X82764999Y-21987285D01*
X82764999Y-21731333D01*
X83020951Y-21731333D01*
X83033203Y-21730731D01*
X83057237Y-21725951D01*
X83079876Y-21716573D01*
X83100250Y-21702959D01*
X83117577Y-21685632D01*
X83131191Y-21665258D01*
X83140569Y-21642619D01*
X83145349Y-21618585D01*
X83145349Y-21594081D01*
X83140569Y-21570047D01*
X83131191Y-21547408D01*
X83117577Y-21527034D01*
X83100250Y-21509707D01*
X83079876Y-21496093D01*
X83057237Y-21486715D01*
X83033203Y-21481935D01*
X83020951Y-21481333D01*
X82764999Y-21481333D01*
X82764999Y-21225380D01*
X82764397Y-21213128D01*
X82759617Y-21189094D01*
X82750239Y-21166455D01*
X82736625Y-21146081D01*
X82719298Y-21128754D01*
X82698924Y-21115140D01*
X82676285Y-21105762D01*
X82652251Y-21100982D01*
X82627747Y-21100982D01*
X82603713Y-21105762D01*
X82581074Y-21115140D01*
X82560700Y-21128754D01*
X82543373Y-21146081D01*
X82529759Y-21166455D01*
X82520381Y-21189094D01*
X82515601Y-21213128D01*
X82514999Y-21225380D01*
X82514999Y-21481333D01*
X82259047Y-21481333D01*
X82246795Y-21481935D01*
X82222761Y-21486715D01*
X82200122Y-21496093D01*
X82179748Y-21509707D01*
X82162421Y-21527034D01*
X82148807Y-21547408D01*
X82139429Y-21570047D01*
X82134649Y-21594081D01*
X82009649Y-21594081D01*
X82009649Y-20975982D01*
X83270349Y-20975982D01*
X83270349Y-22236683D01*
G37*
G36*
X26969017Y-82420349D02*
G01*
X25708316Y-82420349D01*
X25708316Y-81777747D01*
X25833316Y-81777747D01*
X25833316Y-81802251D01*
X25838096Y-81826285D01*
X25847474Y-81848924D01*
X25861088Y-81869298D01*
X25878415Y-81886625D01*
X25898789Y-81900239D01*
X25921428Y-81909617D01*
X25945462Y-81914397D01*
X25957714Y-81914999D01*
X26213666Y-81914999D01*
X26213666Y-82170951D01*
X26214268Y-82183203D01*
X26219048Y-82207237D01*
X26228426Y-82229876D01*
X26242040Y-82250250D01*
X26259367Y-82267577D01*
X26279741Y-82281191D01*
X26302380Y-82290569D01*
X26326414Y-82295349D01*
X26350918Y-82295349D01*
X26374952Y-82290569D01*
X26397591Y-82281191D01*
X26417965Y-82267577D01*
X26435292Y-82250250D01*
X26448906Y-82229876D01*
X26458284Y-82207237D01*
X26463064Y-82183203D01*
X26463666Y-82170951D01*
X26463666Y-81914999D01*
X26719619Y-81914999D01*
X26731871Y-81914397D01*
X26755905Y-81909617D01*
X26778544Y-81900239D01*
X26798918Y-81886625D01*
X26816245Y-81869298D01*
X26829859Y-81848924D01*
X26839237Y-81826285D01*
X26844017Y-81802251D01*
X26844017Y-81777747D01*
X26839237Y-81753713D01*
X26829859Y-81731074D01*
X26816245Y-81710700D01*
X26798918Y-81693373D01*
X26778544Y-81679759D01*
X26755905Y-81670381D01*
X26731871Y-81665601D01*
X26719619Y-81664999D01*
X26463666Y-81664999D01*
X26463666Y-81409047D01*
X26463064Y-81396795D01*
X26458284Y-81372761D01*
X26448906Y-81350122D01*
X26435292Y-81329748D01*
X26417965Y-81312421D01*
X26397591Y-81298807D01*
X26374952Y-81289429D01*
X26350918Y-81284649D01*
X26326414Y-81284649D01*
X26302380Y-81289429D01*
X26279741Y-81298807D01*
X26259367Y-81312421D01*
X26242040Y-81329748D01*
X26228426Y-81350122D01*
X26219048Y-81372761D01*
X26214268Y-81396795D01*
X26213666Y-81409047D01*
X26213666Y-81664999D01*
X25957714Y-81664999D01*
X25945462Y-81665601D01*
X25921428Y-81670381D01*
X25898789Y-81679759D01*
X25878415Y-81693373D01*
X25861088Y-81710700D01*
X25847474Y-81731074D01*
X25838096Y-81753713D01*
X25833316Y-81777747D01*
X25708316Y-81777747D01*
X25708316Y-81159649D01*
X26969017Y-81159649D01*
X26969017Y-82420349D01*
G37*
G36*
X47469017Y-47920349D02*
G01*
X46208316Y-47920349D01*
X46208316Y-47277747D01*
X46333316Y-47277747D01*
X46333316Y-47302251D01*
X46338096Y-47326285D01*
X46347474Y-47348924D01*
X46361088Y-47369298D01*
X46378415Y-47386625D01*
X46398789Y-47400239D01*
X46421428Y-47409617D01*
X46445462Y-47414397D01*
X46457714Y-47414999D01*
X46713666Y-47414999D01*
X46713666Y-47670951D01*
X46714268Y-47683203D01*
X46719048Y-47707237D01*
X46728426Y-47729876D01*
X46742040Y-47750250D01*
X46759367Y-47767577D01*
X46779741Y-47781191D01*
X46802380Y-47790569D01*
X46826414Y-47795349D01*
X46850918Y-47795349D01*
X46874952Y-47790569D01*
X46897591Y-47781191D01*
X46917965Y-47767577D01*
X46935292Y-47750250D01*
X46948906Y-47729876D01*
X46958284Y-47707237D01*
X46963064Y-47683203D01*
X46963666Y-47670951D01*
X46963666Y-47414999D01*
X47219619Y-47414999D01*
X47231871Y-47414397D01*
X47255905Y-47409617D01*
X47278544Y-47400239D01*
X47298918Y-47386625D01*
X47316245Y-47369298D01*
X47329859Y-47348924D01*
X47339237Y-47326285D01*
X47344017Y-47302251D01*
X47344017Y-47277747D01*
X47339237Y-47253713D01*
X47329859Y-47231074D01*
X47316245Y-47210700D01*
X47298918Y-47193373D01*
X47278544Y-47179759D01*
X47255905Y-47170381D01*
X47231871Y-47165601D01*
X47219619Y-47164999D01*
X46963666Y-47164999D01*
X46963666Y-46909047D01*
X46963064Y-46896795D01*
X46958284Y-46872761D01*
X46948906Y-46850122D01*
X46935292Y-46829748D01*
X46917965Y-46812421D01*
X46897591Y-46798807D01*
X46874952Y-46789429D01*
X46850918Y-46784649D01*
X46826414Y-46784649D01*
X46802380Y-46789429D01*
X46779741Y-46798807D01*
X46759367Y-46812421D01*
X46742040Y-46829748D01*
X46728426Y-46850122D01*
X46719048Y-46872761D01*
X46714268Y-46896795D01*
X46713666Y-46909047D01*
X46713666Y-47164999D01*
X46457714Y-47164999D01*
X46445462Y-47165601D01*
X46421428Y-47170381D01*
X46398789Y-47179759D01*
X46378415Y-47193373D01*
X46361088Y-47210700D01*
X46347474Y-47231074D01*
X46338096Y-47253713D01*
X46333316Y-47277747D01*
X46208316Y-47277747D01*
X46208316Y-46659649D01*
X47469017Y-46659649D01*
X47469017Y-47920349D01*
G37*
G36*
X99469017Y-82520349D02*
G01*
X98208316Y-82520349D01*
X98208316Y-81877747D01*
X98333316Y-81877747D01*
X98333316Y-81902251D01*
X98338096Y-81926285D01*
X98347474Y-81948924D01*
X98361088Y-81969298D01*
X98378415Y-81986625D01*
X98398789Y-82000239D01*
X98421428Y-82009617D01*
X98445462Y-82014397D01*
X98457714Y-82014999D01*
X98713666Y-82014999D01*
X98713666Y-82270951D01*
X98714268Y-82283203D01*
X98719048Y-82307237D01*
X98728426Y-82329876D01*
X98742040Y-82350250D01*
X98759367Y-82367577D01*
X98779741Y-82381191D01*
X98802380Y-82390569D01*
X98826414Y-82395349D01*
X98850918Y-82395349D01*
X98874952Y-82390569D01*
X98897591Y-82381191D01*
X98917965Y-82367577D01*
X98935292Y-82350250D01*
X98948906Y-82329876D01*
X98958284Y-82307237D01*
X98963064Y-82283203D01*
X98963666Y-82270951D01*
X98963666Y-82014999D01*
X99219619Y-82014999D01*
X99231871Y-82014397D01*
X99255905Y-82009617D01*
X99278544Y-82000239D01*
X99298918Y-81986625D01*
X99316245Y-81969298D01*
X99329859Y-81948924D01*
X99339237Y-81926285D01*
X99344017Y-81902251D01*
X99344017Y-81877747D01*
X99339237Y-81853713D01*
X99329859Y-81831074D01*
X99316245Y-81810700D01*
X99298918Y-81793373D01*
X99278544Y-81779759D01*
X99255905Y-81770381D01*
X99231871Y-81765601D01*
X99219619Y-81764999D01*
X98963666Y-81764999D01*
X98963666Y-81509047D01*
X98963064Y-81496795D01*
X98958284Y-81472761D01*
X98948906Y-81450122D01*
X98935292Y-81429748D01*
X98917965Y-81412421D01*
X98897591Y-81398807D01*
X98874952Y-81389429D01*
X98850918Y-81384649D01*
X98826414Y-81384649D01*
X98802380Y-81389429D01*
X98779741Y-81398807D01*
X98759367Y-81412421D01*
X98742040Y-81429748D01*
X98728426Y-81450122D01*
X98719048Y-81472761D01*
X98714268Y-81496795D01*
X98713666Y-81509047D01*
X98713666Y-81764999D01*
X98457714Y-81764999D01*
X98445462Y-81765601D01*
X98421428Y-81770381D01*
X98398789Y-81779759D01*
X98378415Y-81793373D01*
X98361088Y-81810700D01*
X98347474Y-81831074D01*
X98338096Y-81853713D01*
X98333316Y-81877747D01*
X98208316Y-81877747D01*
X98208316Y-81259649D01*
X99469017Y-81259649D01*
X99469017Y-82520349D01*
G37*
G36*
X47630351Y-87309017D02*
G01*
X46369650Y-87309017D01*
X46369650Y-86666414D01*
X46494650Y-86666414D01*
X46494650Y-86690918D01*
X46499430Y-86714952D01*
X46508808Y-86737591D01*
X46522422Y-86757965D01*
X46539749Y-86775292D01*
X46560123Y-86788906D01*
X46582762Y-86798284D01*
X46606796Y-86803064D01*
X46619048Y-86803666D01*
X46875000Y-86803666D01*
X46875000Y-87059619D01*
X46875602Y-87071871D01*
X46880382Y-87095905D01*
X46889760Y-87118544D01*
X46903374Y-87138918D01*
X46920701Y-87156245D01*
X46941075Y-87169859D01*
X46963714Y-87179237D01*
X46987748Y-87184017D01*
X47012252Y-87184017D01*
X47036286Y-87179237D01*
X47058925Y-87169859D01*
X47079299Y-87156245D01*
X47096626Y-87138918D01*
X47110240Y-87118544D01*
X47119618Y-87095905D01*
X47124398Y-87071871D01*
X47125000Y-87059619D01*
X47125000Y-86803666D01*
X47380953Y-86803666D01*
X47393205Y-86803064D01*
X47417239Y-86798284D01*
X47439878Y-86788906D01*
X47460252Y-86775292D01*
X47477579Y-86757965D01*
X47491193Y-86737591D01*
X47500571Y-86714952D01*
X47505351Y-86690918D01*
X47505351Y-86666414D01*
X47500571Y-86642380D01*
X47491193Y-86619741D01*
X47477579Y-86599367D01*
X47460252Y-86582040D01*
X47439878Y-86568426D01*
X47417239Y-86559048D01*
X47393205Y-86554268D01*
X47380953Y-86553666D01*
X47125000Y-86553666D01*
X47125000Y-86297714D01*
X47124398Y-86285462D01*
X47119618Y-86261428D01*
X47110240Y-86238789D01*
X47096626Y-86218415D01*
X47079299Y-86201088D01*
X47058925Y-86187474D01*
X47036286Y-86178096D01*
X47012252Y-86173316D01*
X46987748Y-86173316D01*
X46963714Y-86178096D01*
X46941075Y-86187474D01*
X46920701Y-86201088D01*
X46903374Y-86218415D01*
X46889760Y-86238789D01*
X46880382Y-86261428D01*
X46875602Y-86285462D01*
X46875000Y-86297714D01*
X46875000Y-86553666D01*
X46619048Y-86553666D01*
X46606796Y-86554268D01*
X46582762Y-86559048D01*
X46560123Y-86568426D01*
X46539749Y-86582040D01*
X46522422Y-86599367D01*
X46508808Y-86619741D01*
X46499430Y-86642380D01*
X46494650Y-86666414D01*
X46369650Y-86666414D01*
X46369650Y-86048316D01*
X47630351Y-86048316D01*
X47630351Y-87309017D01*
G37*
G36*
X78969017Y-47920349D02*
G01*
X77708316Y-47920349D01*
X77708316Y-47277747D01*
X77833316Y-47277747D01*
X77833316Y-47302251D01*
X77838096Y-47326285D01*
X77847474Y-47348924D01*
X77861088Y-47369298D01*
X77878415Y-47386625D01*
X77898789Y-47400239D01*
X77921428Y-47409617D01*
X77945462Y-47414397D01*
X77957714Y-47414999D01*
X78213666Y-47414999D01*
X78213666Y-47670951D01*
X78214268Y-47683203D01*
X78219048Y-47707237D01*
X78228426Y-47729876D01*
X78242040Y-47750250D01*
X78259367Y-47767577D01*
X78279741Y-47781191D01*
X78302380Y-47790569D01*
X78326414Y-47795349D01*
X78350918Y-47795349D01*
X78374952Y-47790569D01*
X78397591Y-47781191D01*
X78417965Y-47767577D01*
X78435292Y-47750250D01*
X78448906Y-47729876D01*
X78458284Y-47707237D01*
X78463064Y-47683203D01*
X78463666Y-47670951D01*
X78463666Y-47414999D01*
X78719619Y-47414999D01*
X78731871Y-47414397D01*
X78755905Y-47409617D01*
X78778544Y-47400239D01*
X78798918Y-47386625D01*
X78816245Y-47369298D01*
X78829859Y-47348924D01*
X78839237Y-47326285D01*
X78844017Y-47302251D01*
X78844017Y-47277747D01*
X78839237Y-47253713D01*
X78829859Y-47231074D01*
X78816245Y-47210700D01*
X78798918Y-47193373D01*
X78778544Y-47179759D01*
X78755905Y-47170381D01*
X78731871Y-47165601D01*
X78719619Y-47164999D01*
X78463666Y-47164999D01*
X78463666Y-46909047D01*
X78463064Y-46896795D01*
X78458284Y-46872761D01*
X78448906Y-46850122D01*
X78435292Y-46829748D01*
X78417965Y-46812421D01*
X78397591Y-46798807D01*
X78374952Y-46789429D01*
X78350918Y-46784649D01*
X78326414Y-46784649D01*
X78302380Y-46789429D01*
X78279741Y-46798807D01*
X78259367Y-46812421D01*
X78242040Y-46829748D01*
X78228426Y-46850122D01*
X78219048Y-46872761D01*
X78214268Y-46896795D01*
X78213666Y-46909047D01*
X78213666Y-47164999D01*
X77957714Y-47164999D01*
X77945462Y-47165601D01*
X77921428Y-47170381D01*
X77898789Y-47179759D01*
X77878415Y-47193373D01*
X77861088Y-47210700D01*
X77847474Y-47231074D01*
X77838096Y-47253713D01*
X77833316Y-47277747D01*
X77708316Y-47277747D01*
X77708316Y-46659649D01*
X78969017Y-46659649D01*
X78969017Y-47920349D01*
G37*
G36*
X47469017Y-82520349D02*
G01*
X46208316Y-82520349D01*
X46208316Y-81877747D01*
X46333316Y-81877747D01*
X46333316Y-81902251D01*
X46338096Y-81926285D01*
X46347474Y-81948924D01*
X46361088Y-81969298D01*
X46378415Y-81986625D01*
X46398789Y-82000239D01*
X46421428Y-82009617D01*
X46445462Y-82014397D01*
X46457714Y-82014999D01*
X46713666Y-82014999D01*
X46713666Y-82270951D01*
X46714268Y-82283203D01*
X46719048Y-82307237D01*
X46728426Y-82329876D01*
X46742040Y-82350250D01*
X46759367Y-82367577D01*
X46779741Y-82381191D01*
X46802380Y-82390569D01*
X46826414Y-82395349D01*
X46850918Y-82395349D01*
X46874952Y-82390569D01*
X46897591Y-82381191D01*
X46917965Y-82367577D01*
X46935292Y-82350250D01*
X46948906Y-82329876D01*
X46958284Y-82307237D01*
X46963064Y-82283203D01*
X46963666Y-82270951D01*
X46963666Y-82014999D01*
X47219619Y-82014999D01*
X47231871Y-82014397D01*
X47255905Y-82009617D01*
X47278544Y-82000239D01*
X47298918Y-81986625D01*
X47316245Y-81969298D01*
X47329859Y-81948924D01*
X47339237Y-81926285D01*
X47344017Y-81902251D01*
X47344017Y-81877747D01*
X47339237Y-81853713D01*
X47329859Y-81831074D01*
X47316245Y-81810700D01*
X47298918Y-81793373D01*
X47278544Y-81779759D01*
X47255905Y-81770381D01*
X47231871Y-81765601D01*
X47219619Y-81764999D01*
X46963666Y-81764999D01*
X46963666Y-81509047D01*
X46963064Y-81496795D01*
X46958284Y-81472761D01*
X46948906Y-81450122D01*
X46935292Y-81429748D01*
X46917965Y-81412421D01*
X46897591Y-81398807D01*
X46874952Y-81389429D01*
X46850918Y-81384649D01*
X46826414Y-81384649D01*
X46802380Y-81389429D01*
X46779741Y-81398807D01*
X46759367Y-81412421D01*
X46742040Y-81429748D01*
X46728426Y-81450122D01*
X46719048Y-81472761D01*
X46714268Y-81496795D01*
X46713666Y-81509047D01*
X46713666Y-81764999D01*
X46457714Y-81764999D01*
X46445462Y-81765601D01*
X46421428Y-81770381D01*
X46398789Y-81779759D01*
X46378415Y-81793373D01*
X46361088Y-81810700D01*
X46347474Y-81831074D01*
X46338096Y-81853713D01*
X46333316Y-81877747D01*
X46208316Y-81877747D01*
X46208316Y-81259649D01*
X47469017Y-81259649D01*
X47469017Y-82520349D01*
G37*
G36*
X78969017Y-82420349D02*
G01*
X77708316Y-82420349D01*
X77708316Y-81777747D01*
X77833316Y-81777747D01*
X77833316Y-81802251D01*
X77838096Y-81826285D01*
X77847474Y-81848924D01*
X77861088Y-81869298D01*
X77878415Y-81886625D01*
X77898789Y-81900239D01*
X77921428Y-81909617D01*
X77945462Y-81914397D01*
X77957714Y-81914999D01*
X78213666Y-81914999D01*
X78213666Y-82170951D01*
X78214268Y-82183203D01*
X78219048Y-82207237D01*
X78228426Y-82229876D01*
X78242040Y-82250250D01*
X78259367Y-82267577D01*
X78279741Y-82281191D01*
X78302380Y-82290569D01*
X78326414Y-82295349D01*
X78350918Y-82295349D01*
X78374952Y-82290569D01*
X78397591Y-82281191D01*
X78417965Y-82267577D01*
X78435292Y-82250250D01*
X78448906Y-82229876D01*
X78458284Y-82207237D01*
X78463064Y-82183203D01*
X78463666Y-82170951D01*
X78463666Y-81914999D01*
X78719619Y-81914999D01*
X78731871Y-81914397D01*
X78755905Y-81909617D01*
X78778544Y-81900239D01*
X78798918Y-81886625D01*
X78816245Y-81869298D01*
X78829859Y-81848924D01*
X78839237Y-81826285D01*
X78844017Y-81802251D01*
X78844017Y-81777747D01*
X78839237Y-81753713D01*
X78829859Y-81731074D01*
X78816245Y-81710700D01*
X78798918Y-81693373D01*
X78778544Y-81679759D01*
X78755905Y-81670381D01*
X78731871Y-81665601D01*
X78719619Y-81664999D01*
X78463666Y-81664999D01*
X78463666Y-81409047D01*
X78463064Y-81396795D01*
X78458284Y-81372761D01*
X78448906Y-81350122D01*
X78435292Y-81329748D01*
X78417965Y-81312421D01*
X78397591Y-81298807D01*
X78374952Y-81289429D01*
X78350918Y-81284649D01*
X78326414Y-81284649D01*
X78302380Y-81289429D01*
X78279741Y-81298807D01*
X78259367Y-81312421D01*
X78242040Y-81329748D01*
X78228426Y-81350122D01*
X78219048Y-81372761D01*
X78214268Y-81396795D01*
X78213666Y-81409047D01*
X78213666Y-81664999D01*
X77957714Y-81664999D01*
X77945462Y-81665601D01*
X77921428Y-81670381D01*
X77898789Y-81679759D01*
X77878415Y-81693373D01*
X77861088Y-81710700D01*
X77847474Y-81731074D01*
X77838096Y-81753713D01*
X77833316Y-81777747D01*
X77708316Y-81777747D01*
X77708316Y-81159649D01*
X78969017Y-81159649D01*
X78969017Y-82420349D01*
G37*
G36*
X99469017Y-47920349D02*
G01*
X98208316Y-47920349D01*
X98208316Y-47277747D01*
X98333316Y-47277747D01*
X98333316Y-47302251D01*
X98338096Y-47326285D01*
X98347474Y-47348924D01*
X98361088Y-47369298D01*
X98378415Y-47386625D01*
X98398789Y-47400239D01*
X98421428Y-47409617D01*
X98445462Y-47414397D01*
X98457714Y-47414999D01*
X98713666Y-47414999D01*
X98713666Y-47670951D01*
X98714268Y-47683203D01*
X98719048Y-47707237D01*
X98728426Y-47729876D01*
X98742040Y-47750250D01*
X98759367Y-47767577D01*
X98779741Y-47781191D01*
X98802380Y-47790569D01*
X98826414Y-47795349D01*
X98850918Y-47795349D01*
X98874952Y-47790569D01*
X98897591Y-47781191D01*
X98917965Y-47767577D01*
X98935292Y-47750250D01*
X98948906Y-47729876D01*
X98958284Y-47707237D01*
X98963064Y-47683203D01*
X98963666Y-47670951D01*
X98963666Y-47414999D01*
X99219619Y-47414999D01*
X99231871Y-47414397D01*
X99255905Y-47409617D01*
X99278544Y-47400239D01*
X99298918Y-47386625D01*
X99316245Y-47369298D01*
X99329859Y-47348924D01*
X99339237Y-47326285D01*
X99344017Y-47302251D01*
X99344017Y-47277747D01*
X99339237Y-47253713D01*
X99329859Y-47231074D01*
X99316245Y-47210700D01*
X99298918Y-47193373D01*
X99278544Y-47179759D01*
X99255905Y-47170381D01*
X99231871Y-47165601D01*
X99219619Y-47164999D01*
X98963666Y-47164999D01*
X98963666Y-46909047D01*
X98963064Y-46896795D01*
X98958284Y-46872761D01*
X98948906Y-46850122D01*
X98935292Y-46829748D01*
X98917965Y-46812421D01*
X98897591Y-46798807D01*
X98874952Y-46789429D01*
X98850918Y-46784649D01*
X98826414Y-46784649D01*
X98802380Y-46789429D01*
X98779741Y-46798807D01*
X98759367Y-46812421D01*
X98742040Y-46829748D01*
X98728426Y-46850122D01*
X98719048Y-46872761D01*
X98714268Y-46896795D01*
X98713666Y-46909047D01*
X98713666Y-47164999D01*
X98457714Y-47164999D01*
X98445462Y-47165601D01*
X98421428Y-47170381D01*
X98398789Y-47179759D01*
X98378415Y-47193373D01*
X98361088Y-47210700D01*
X98347474Y-47231074D01*
X98338096Y-47253713D01*
X98333316Y-47277747D01*
X98208316Y-47277747D01*
X98208316Y-46659649D01*
X99469017Y-46659649D01*
X99469017Y-47920349D01*
G37*
G36*
X48670349Y-42736683D02*
G01*
X47409649Y-42736683D01*
X47409649Y-42094081D01*
X47534649Y-42094081D01*
X47534649Y-42118585D01*
X47539429Y-42142619D01*
X47548807Y-42165258D01*
X47562421Y-42185632D01*
X47579748Y-42202959D01*
X47600122Y-42216573D01*
X47622761Y-42225951D01*
X47646795Y-42230731D01*
X47659047Y-42231333D01*
X47914999Y-42231333D01*
X47914999Y-42487285D01*
X47915601Y-42499537D01*
X47920381Y-42523571D01*
X47929759Y-42546210D01*
X47943373Y-42566584D01*
X47960700Y-42583911D01*
X47981074Y-42597525D01*
X48003713Y-42606903D01*
X48027747Y-42611683D01*
X48052251Y-42611683D01*
X48076285Y-42606903D01*
X48098924Y-42597525D01*
X48119298Y-42583911D01*
X48136625Y-42566584D01*
X48150239Y-42546210D01*
X48159617Y-42523571D01*
X48164397Y-42499537D01*
X48164999Y-42487285D01*
X48164999Y-42231333D01*
X48420951Y-42231333D01*
X48433203Y-42230731D01*
X48457237Y-42225951D01*
X48479876Y-42216573D01*
X48500250Y-42202959D01*
X48517577Y-42185632D01*
X48531191Y-42165258D01*
X48540569Y-42142619D01*
X48545349Y-42118585D01*
X48545349Y-42094081D01*
X48540569Y-42070047D01*
X48531191Y-42047408D01*
X48517577Y-42027034D01*
X48500250Y-42009707D01*
X48479876Y-41996093D01*
X48457237Y-41986715D01*
X48433203Y-41981935D01*
X48420951Y-41981333D01*
X48164999Y-41981333D01*
X48164999Y-41725380D01*
X48164397Y-41713128D01*
X48159617Y-41689094D01*
X48150239Y-41666455D01*
X48136625Y-41646081D01*
X48119298Y-41628754D01*
X48098924Y-41615140D01*
X48076285Y-41605762D01*
X48052251Y-41600982D01*
X48027747Y-41600982D01*
X48003713Y-41605762D01*
X47981074Y-41615140D01*
X47960700Y-41628754D01*
X47943373Y-41646081D01*
X47929759Y-41666455D01*
X47920381Y-41689094D01*
X47915601Y-41713128D01*
X47914999Y-41725380D01*
X47914999Y-41981333D01*
X47659047Y-41981333D01*
X47646795Y-41981935D01*
X47622761Y-41986715D01*
X47600122Y-41996093D01*
X47579748Y-42009707D01*
X47562421Y-42027034D01*
X47548807Y-42047408D01*
X47539429Y-42070047D01*
X47534649Y-42094081D01*
X47409649Y-42094081D01*
X47409649Y-41475982D01*
X48670349Y-41475982D01*
X48670349Y-42736683D01*
G37*
G36*
X52969017Y-82420349D02*
G01*
X51708316Y-82420349D01*
X51708316Y-81777747D01*
X51833316Y-81777747D01*
X51833316Y-81802251D01*
X51838096Y-81826285D01*
X51847474Y-81848924D01*
X51861088Y-81869298D01*
X51878415Y-81886625D01*
X51898789Y-81900239D01*
X51921428Y-81909617D01*
X51945462Y-81914397D01*
X51957714Y-81914999D01*
X52213666Y-81914999D01*
X52213666Y-82170951D01*
X52214268Y-82183203D01*
X52219048Y-82207237D01*
X52228426Y-82229876D01*
X52242040Y-82250250D01*
X52259367Y-82267577D01*
X52279741Y-82281191D01*
X52302380Y-82290569D01*
X52326414Y-82295349D01*
X52350918Y-82295349D01*
X52374952Y-82290569D01*
X52397591Y-82281191D01*
X52417965Y-82267577D01*
X52435292Y-82250250D01*
X52448906Y-82229876D01*
X52458284Y-82207237D01*
X52463064Y-82183203D01*
X52463666Y-82170951D01*
X52463666Y-81914999D01*
X52719619Y-81914999D01*
X52731871Y-81914397D01*
X52755905Y-81909617D01*
X52778544Y-81900239D01*
X52798918Y-81886625D01*
X52816245Y-81869298D01*
X52829859Y-81848924D01*
X52839237Y-81826285D01*
X52844017Y-81802251D01*
X52844017Y-81777747D01*
X52839237Y-81753713D01*
X52829859Y-81731074D01*
X52816245Y-81710700D01*
X52798918Y-81693373D01*
X52778544Y-81679759D01*
X52755905Y-81670381D01*
X52731871Y-81665601D01*
X52719619Y-81664999D01*
X52463666Y-81664999D01*
X52463666Y-81409047D01*
X52463064Y-81396795D01*
X52458284Y-81372761D01*
X52448906Y-81350122D01*
X52435292Y-81329748D01*
X52417965Y-81312421D01*
X52397591Y-81298807D01*
X52374952Y-81289429D01*
X52350918Y-81284649D01*
X52326414Y-81284649D01*
X52302380Y-81289429D01*
X52279741Y-81298807D01*
X52259367Y-81312421D01*
X52242040Y-81329748D01*
X52228426Y-81350122D01*
X52219048Y-81372761D01*
X52214268Y-81396795D01*
X52213666Y-81409047D01*
X52213666Y-81664999D01*
X51957714Y-81664999D01*
X51945462Y-81665601D01*
X51921428Y-81670381D01*
X51898789Y-81679759D01*
X51878415Y-81693373D01*
X51861088Y-81710700D01*
X51847474Y-81731074D01*
X51838096Y-81753713D01*
X51833316Y-81777747D01*
X51708316Y-81777747D01*
X51708316Y-81159649D01*
X52969017Y-81159649D01*
X52969017Y-82420349D01*
G37*
G36*
X82130351Y-87309017D02*
G01*
X80869650Y-87309017D01*
X80869650Y-86666414D01*
X80994650Y-86666414D01*
X80994650Y-86690918D01*
X80999430Y-86714952D01*
X81008808Y-86737591D01*
X81022422Y-86757965D01*
X81039749Y-86775292D01*
X81060123Y-86788906D01*
X81082762Y-86798284D01*
X81106796Y-86803064D01*
X81119048Y-86803666D01*
X81375000Y-86803666D01*
X81375000Y-87059619D01*
X81375602Y-87071871D01*
X81380382Y-87095905D01*
X81389760Y-87118544D01*
X81403374Y-87138918D01*
X81420701Y-87156245D01*
X81441075Y-87169859D01*
X81463714Y-87179237D01*
X81487748Y-87184017D01*
X81512252Y-87184017D01*
X81536286Y-87179237D01*
X81558925Y-87169859D01*
X81579299Y-87156245D01*
X81596626Y-87138918D01*
X81610240Y-87118544D01*
X81619618Y-87095905D01*
X81624398Y-87071871D01*
X81625000Y-87059619D01*
X81625000Y-86803666D01*
X81880953Y-86803666D01*
X81893205Y-86803064D01*
X81917239Y-86798284D01*
X81939878Y-86788906D01*
X81960252Y-86775292D01*
X81977579Y-86757965D01*
X81991193Y-86737591D01*
X82000571Y-86714952D01*
X82005351Y-86690918D01*
X82005351Y-86666414D01*
X82000571Y-86642380D01*
X81991193Y-86619741D01*
X81977579Y-86599367D01*
X81960252Y-86582040D01*
X81939878Y-86568426D01*
X81917239Y-86559048D01*
X81893205Y-86554268D01*
X81880953Y-86553666D01*
X81625000Y-86553666D01*
X81625000Y-86297714D01*
X81624398Y-86285462D01*
X81619618Y-86261428D01*
X81610240Y-86238789D01*
X81596626Y-86218415D01*
X81579299Y-86201088D01*
X81558925Y-86187474D01*
X81536286Y-86178096D01*
X81512252Y-86173316D01*
X81487748Y-86173316D01*
X81463714Y-86178096D01*
X81441075Y-86187474D01*
X81420701Y-86201088D01*
X81403374Y-86218415D01*
X81389760Y-86238789D01*
X81380382Y-86261428D01*
X81375602Y-86285462D01*
X81375000Y-86297714D01*
X81375000Y-86553666D01*
X81119048Y-86553666D01*
X81106796Y-86554268D01*
X81082762Y-86559048D01*
X81060123Y-86568426D01*
X81039749Y-86582040D01*
X81022422Y-86599367D01*
X81008808Y-86619741D01*
X80999430Y-86642380D01*
X80994650Y-86666414D01*
X80869650Y-86666414D01*
X80869650Y-86048316D01*
X82130351Y-86048316D01*
X82130351Y-87309017D01*
G37*
G36*
X48670349Y-22236683D02*
G01*
X47409649Y-22236683D01*
X47409649Y-21594081D01*
X47534649Y-21594081D01*
X47534649Y-21618585D01*
X47539429Y-21642619D01*
X47548807Y-21665258D01*
X47562421Y-21685632D01*
X47579748Y-21702959D01*
X47600122Y-21716573D01*
X47622761Y-21725951D01*
X47646795Y-21730731D01*
X47659047Y-21731333D01*
X47914999Y-21731333D01*
X47914999Y-21987285D01*
X47915601Y-21999537D01*
X47920381Y-22023571D01*
X47929759Y-22046210D01*
X47943373Y-22066584D01*
X47960700Y-22083911D01*
X47981074Y-22097525D01*
X48003713Y-22106903D01*
X48027747Y-22111683D01*
X48052251Y-22111683D01*
X48076285Y-22106903D01*
X48098924Y-22097525D01*
X48119298Y-22083911D01*
X48136625Y-22066584D01*
X48150239Y-22046210D01*
X48159617Y-22023571D01*
X48164397Y-21999537D01*
X48164999Y-21987285D01*
X48164999Y-21731333D01*
X48420951Y-21731333D01*
X48433203Y-21730731D01*
X48457237Y-21725951D01*
X48479876Y-21716573D01*
X48500250Y-21702959D01*
X48517577Y-21685632D01*
X48531191Y-21665258D01*
X48540569Y-21642619D01*
X48545349Y-21618585D01*
X48545349Y-21594081D01*
X48540569Y-21570047D01*
X48531191Y-21547408D01*
X48517577Y-21527034D01*
X48500250Y-21509707D01*
X48479876Y-21496093D01*
X48457237Y-21486715D01*
X48433203Y-21481935D01*
X48420951Y-21481333D01*
X48164999Y-21481333D01*
X48164999Y-21225380D01*
X48164397Y-21213128D01*
X48159617Y-21189094D01*
X48150239Y-21166455D01*
X48136625Y-21146081D01*
X48119298Y-21128754D01*
X48098924Y-21115140D01*
X48076285Y-21105762D01*
X48052251Y-21100982D01*
X48027747Y-21100982D01*
X48003713Y-21105762D01*
X47981074Y-21115140D01*
X47960700Y-21128754D01*
X47943373Y-21146081D01*
X47929759Y-21166455D01*
X47920381Y-21189094D01*
X47915601Y-21213128D01*
X47914999Y-21225380D01*
X47914999Y-21481333D01*
X47659047Y-21481333D01*
X47646795Y-21481935D01*
X47622761Y-21486715D01*
X47600122Y-21496093D01*
X47579748Y-21509707D01*
X47562421Y-21527034D01*
X47548807Y-21547408D01*
X47539429Y-21570047D01*
X47534649Y-21594081D01*
X47409649Y-21594081D01*
X47409649Y-20975982D01*
X48670349Y-20975982D01*
X48670349Y-22236683D01*
G37*
G36*
X47530351Y-107809017D02*
G01*
X46269650Y-107809017D01*
X46269650Y-107166414D01*
X46394650Y-107166414D01*
X46394650Y-107190918D01*
X46399430Y-107214952D01*
X46408808Y-107237591D01*
X46422422Y-107257965D01*
X46439749Y-107275292D01*
X46460123Y-107288906D01*
X46482762Y-107298284D01*
X46506796Y-107303064D01*
X46519048Y-107303666D01*
X46775000Y-107303666D01*
X46775000Y-107559619D01*
X46775602Y-107571871D01*
X46780382Y-107595905D01*
X46789760Y-107618544D01*
X46803374Y-107638918D01*
X46820701Y-107656245D01*
X46841075Y-107669859D01*
X46863714Y-107679237D01*
X46887748Y-107684017D01*
X46912252Y-107684017D01*
X46936286Y-107679237D01*
X46958925Y-107669859D01*
X46979299Y-107656245D01*
X46996626Y-107638918D01*
X47010240Y-107618544D01*
X47019618Y-107595905D01*
X47024398Y-107571871D01*
X47025000Y-107559619D01*
X47025000Y-107303666D01*
X47280953Y-107303666D01*
X47293205Y-107303064D01*
X47317239Y-107298284D01*
X47339878Y-107288906D01*
X47360252Y-107275292D01*
X47377579Y-107257965D01*
X47391193Y-107237591D01*
X47400571Y-107214952D01*
X47405351Y-107190918D01*
X47405351Y-107166414D01*
X47400571Y-107142380D01*
X47391193Y-107119741D01*
X47377579Y-107099367D01*
X47360252Y-107082040D01*
X47339878Y-107068426D01*
X47317239Y-107059048D01*
X47293205Y-107054268D01*
X47280953Y-107053666D01*
X47025000Y-107053666D01*
X47025000Y-106797714D01*
X47024398Y-106785462D01*
X47019618Y-106761428D01*
X47010240Y-106738789D01*
X46996626Y-106718415D01*
X46979299Y-106701088D01*
X46958925Y-106687474D01*
X46936286Y-106678096D01*
X46912252Y-106673316D01*
X46887748Y-106673316D01*
X46863714Y-106678096D01*
X46841075Y-106687474D01*
X46820701Y-106701088D01*
X46803374Y-106718415D01*
X46789760Y-106738789D01*
X46780382Y-106761428D01*
X46775602Y-106785462D01*
X46775000Y-106797714D01*
X46775000Y-107053666D01*
X46519048Y-107053666D01*
X46506796Y-107054268D01*
X46482762Y-107059048D01*
X46460123Y-107068426D01*
X46439749Y-107082040D01*
X46422422Y-107099367D01*
X46408808Y-107119741D01*
X46399430Y-107142380D01*
X46394650Y-107166414D01*
X46269650Y-107166414D01*
X46269650Y-106548316D01*
X47530351Y-106548316D01*
X47530351Y-107809017D01*
G37*
G36*
X73469017Y-82520349D02*
G01*
X72208316Y-82520349D01*
X72208316Y-81877747D01*
X72333316Y-81877747D01*
X72333316Y-81902251D01*
X72338096Y-81926285D01*
X72347474Y-81948924D01*
X72361088Y-81969298D01*
X72378415Y-81986625D01*
X72398789Y-82000239D01*
X72421428Y-82009617D01*
X72445462Y-82014397D01*
X72457714Y-82014999D01*
X72713666Y-82014999D01*
X72713666Y-82270951D01*
X72714268Y-82283203D01*
X72719048Y-82307237D01*
X72728426Y-82329876D01*
X72742040Y-82350250D01*
X72759367Y-82367577D01*
X72779741Y-82381191D01*
X72802380Y-82390569D01*
X72826414Y-82395349D01*
X72850918Y-82395349D01*
X72874952Y-82390569D01*
X72897591Y-82381191D01*
X72917965Y-82367577D01*
X72935292Y-82350250D01*
X72948906Y-82329876D01*
X72958284Y-82307237D01*
X72963064Y-82283203D01*
X72963666Y-82270951D01*
X72963666Y-82014999D01*
X73219619Y-82014999D01*
X73231871Y-82014397D01*
X73255905Y-82009617D01*
X73278544Y-82000239D01*
X73298918Y-81986625D01*
X73316245Y-81969298D01*
X73329859Y-81948924D01*
X73339237Y-81926285D01*
X73344017Y-81902251D01*
X73344017Y-81877747D01*
X73339237Y-81853713D01*
X73329859Y-81831074D01*
X73316245Y-81810700D01*
X73298918Y-81793373D01*
X73278544Y-81779759D01*
X73255905Y-81770381D01*
X73231871Y-81765601D01*
X73219619Y-81764999D01*
X72963666Y-81764999D01*
X72963666Y-81509047D01*
X72963064Y-81496795D01*
X72958284Y-81472761D01*
X72948906Y-81450122D01*
X72935292Y-81429748D01*
X72917965Y-81412421D01*
X72897591Y-81398807D01*
X72874952Y-81389429D01*
X72850918Y-81384649D01*
X72826414Y-81384649D01*
X72802380Y-81389429D01*
X72779741Y-81398807D01*
X72759367Y-81412421D01*
X72742040Y-81429748D01*
X72728426Y-81450122D01*
X72719048Y-81472761D01*
X72714268Y-81496795D01*
X72713666Y-81509047D01*
X72713666Y-81764999D01*
X72457714Y-81764999D01*
X72445462Y-81765601D01*
X72421428Y-81770381D01*
X72398789Y-81779759D01*
X72378415Y-81793373D01*
X72361088Y-81810700D01*
X72347474Y-81831074D01*
X72338096Y-81853713D01*
X72333316Y-81877747D01*
X72208316Y-81877747D01*
X72208316Y-81259649D01*
X73469017Y-81259649D01*
X73469017Y-82520349D01*
G37*
G36*
X26969017Y-47920349D02*
G01*
X25708316Y-47920349D01*
X25708316Y-47277747D01*
X25833316Y-47277747D01*
X25833316Y-47302251D01*
X25838096Y-47326285D01*
X25847474Y-47348924D01*
X25861088Y-47369298D01*
X25878415Y-47386625D01*
X25898789Y-47400239D01*
X25921428Y-47409617D01*
X25945462Y-47414397D01*
X25957714Y-47414999D01*
X26213666Y-47414999D01*
X26213666Y-47670951D01*
X26214268Y-47683203D01*
X26219048Y-47707237D01*
X26228426Y-47729876D01*
X26242040Y-47750250D01*
X26259367Y-47767577D01*
X26279741Y-47781191D01*
X26302380Y-47790569D01*
X26326414Y-47795349D01*
X26350918Y-47795349D01*
X26374952Y-47790569D01*
X26397591Y-47781191D01*
X26417965Y-47767577D01*
X26435292Y-47750250D01*
X26448906Y-47729876D01*
X26458284Y-47707237D01*
X26463064Y-47683203D01*
X26463666Y-47670951D01*
X26463666Y-47414999D01*
X26719619Y-47414999D01*
X26731871Y-47414397D01*
X26755905Y-47409617D01*
X26778544Y-47400239D01*
X26798918Y-47386625D01*
X26816245Y-47369298D01*
X26829859Y-47348924D01*
X26839237Y-47326285D01*
X26844017Y-47302251D01*
X26844017Y-47277747D01*
X26839237Y-47253713D01*
X26829859Y-47231074D01*
X26816245Y-47210700D01*
X26798918Y-47193373D01*
X26778544Y-47179759D01*
X26755905Y-47170381D01*
X26731871Y-47165601D01*
X26719619Y-47164999D01*
X26463666Y-47164999D01*
X26463666Y-46909047D01*
X26463064Y-46896795D01*
X26458284Y-46872761D01*
X26448906Y-46850122D01*
X26435292Y-46829748D01*
X26417965Y-46812421D01*
X26397591Y-46798807D01*
X26374952Y-46789429D01*
X26350918Y-46784649D01*
X26326414Y-46784649D01*
X26302380Y-46789429D01*
X26279741Y-46798807D01*
X26259367Y-46812421D01*
X26242040Y-46829748D01*
X26228426Y-46850122D01*
X26219048Y-46872761D01*
X26214268Y-46896795D01*
X26213666Y-46909047D01*
X26213666Y-47164999D01*
X25957714Y-47164999D01*
X25945462Y-47165601D01*
X25921428Y-47170381D01*
X25898789Y-47179759D01*
X25878415Y-47193373D01*
X25861088Y-47210700D01*
X25847474Y-47231074D01*
X25838096Y-47253713D01*
X25833316Y-47277747D01*
X25708316Y-47277747D01*
X25708316Y-46659649D01*
X26969017Y-46659649D01*
X26969017Y-47920349D01*
G37*
G36*
X83170349Y-42736683D02*
G01*
X81909649Y-42736683D01*
X81909649Y-42094081D01*
X82034649Y-42094081D01*
X82034649Y-42118585D01*
X82039429Y-42142619D01*
X82048807Y-42165258D01*
X82062421Y-42185632D01*
X82079748Y-42202959D01*
X82100122Y-42216573D01*
X82122761Y-42225951D01*
X82146795Y-42230731D01*
X82159047Y-42231333D01*
X82414999Y-42231333D01*
X82414999Y-42487285D01*
X82415601Y-42499537D01*
X82420381Y-42523571D01*
X82429759Y-42546210D01*
X82443373Y-42566584D01*
X82460700Y-42583911D01*
X82481074Y-42597525D01*
X82503713Y-42606903D01*
X82527747Y-42611683D01*
X82552251Y-42611683D01*
X82576285Y-42606903D01*
X82598924Y-42597525D01*
X82619298Y-42583911D01*
X82636625Y-42566584D01*
X82650239Y-42546210D01*
X82659617Y-42523571D01*
X82664397Y-42499537D01*
X82664999Y-42487285D01*
X82664999Y-42231333D01*
X82920951Y-42231333D01*
X82933203Y-42230731D01*
X82957237Y-42225951D01*
X82979876Y-42216573D01*
X83000250Y-42202959D01*
X83017577Y-42185632D01*
X83031191Y-42165258D01*
X83040569Y-42142619D01*
X83045349Y-42118585D01*
X83045349Y-42094081D01*
X83040569Y-42070047D01*
X83031191Y-42047408D01*
X83017577Y-42027034D01*
X83000250Y-42009707D01*
X82979876Y-41996093D01*
X82957237Y-41986715D01*
X82933203Y-41981935D01*
X82920951Y-41981333D01*
X82664999Y-41981333D01*
X82664999Y-41725380D01*
X82664397Y-41713128D01*
X82659617Y-41689094D01*
X82650239Y-41666455D01*
X82636625Y-41646081D01*
X82619298Y-41628754D01*
X82598924Y-41615140D01*
X82576285Y-41605762D01*
X82552251Y-41600982D01*
X82527747Y-41600982D01*
X82503713Y-41605762D01*
X82481074Y-41615140D01*
X82460700Y-41628754D01*
X82443373Y-41646081D01*
X82429759Y-41666455D01*
X82420381Y-41689094D01*
X82415601Y-41713128D01*
X82414999Y-41725380D01*
X82414999Y-41981333D01*
X82159047Y-41981333D01*
X82146795Y-41981935D01*
X82122761Y-41986715D01*
X82100122Y-41996093D01*
X82079748Y-42009707D01*
X82062421Y-42027034D01*
X82048807Y-42047408D01*
X82039429Y-42070047D01*
X82034649Y-42094081D01*
X81909649Y-42094081D01*
X81909649Y-41475982D01*
X83170349Y-41475982D01*
X83170349Y-42736683D01*
G37*
G36*
X73469017Y-47920349D02*
G01*
X72208316Y-47920349D01*
X72208316Y-47277747D01*
X72333316Y-47277747D01*
X72333316Y-47302251D01*
X72338096Y-47326285D01*
X72347474Y-47348924D01*
X72361088Y-47369298D01*
X72378415Y-47386625D01*
X72398789Y-47400239D01*
X72421428Y-47409617D01*
X72445462Y-47414397D01*
X72457714Y-47414999D01*
X72713666Y-47414999D01*
X72713666Y-47670951D01*
X72714268Y-47683203D01*
X72719048Y-47707237D01*
X72728426Y-47729876D01*
X72742040Y-47750250D01*
X72759367Y-47767577D01*
X72779741Y-47781191D01*
X72802380Y-47790569D01*
X72826414Y-47795349D01*
X72850918Y-47795349D01*
X72874952Y-47790569D01*
X72897591Y-47781191D01*
X72917965Y-47767577D01*
X72935292Y-47750250D01*
X72948906Y-47729876D01*
X72958284Y-47707237D01*
X72963064Y-47683203D01*
X72963666Y-47670951D01*
X72963666Y-47414999D01*
X73219619Y-47414999D01*
X73231871Y-47414397D01*
X73255905Y-47409617D01*
X73278544Y-47400239D01*
X73298918Y-47386625D01*
X73316245Y-47369298D01*
X73329859Y-47348924D01*
X73339237Y-47326285D01*
X73344017Y-47302251D01*
X73344017Y-47277747D01*
X73339237Y-47253713D01*
X73329859Y-47231074D01*
X73316245Y-47210700D01*
X73298918Y-47193373D01*
X73278544Y-47179759D01*
X73255905Y-47170381D01*
X73231871Y-47165601D01*
X73219619Y-47164999D01*
X72963666Y-47164999D01*
X72963666Y-46909047D01*
X72963064Y-46896795D01*
X72958284Y-46872761D01*
X72948906Y-46850122D01*
X72935292Y-46829748D01*
X72917965Y-46812421D01*
X72897591Y-46798807D01*
X72874952Y-46789429D01*
X72850918Y-46784649D01*
X72826414Y-46784649D01*
X72802380Y-46789429D01*
X72779741Y-46798807D01*
X72759367Y-46812421D01*
X72742040Y-46829748D01*
X72728426Y-46850122D01*
X72719048Y-46872761D01*
X72714268Y-46896795D01*
X72713666Y-46909047D01*
X72713666Y-47164999D01*
X72457714Y-47164999D01*
X72445462Y-47165601D01*
X72421428Y-47170381D01*
X72398789Y-47179759D01*
X72378415Y-47193373D01*
X72361088Y-47210700D01*
X72347474Y-47231074D01*
X72338096Y-47253713D01*
X72333316Y-47277747D01*
X72208316Y-47277747D01*
X72208316Y-46659649D01*
X73469017Y-46659649D01*
X73469017Y-47920349D01*
G37*
G36*
X82130351Y-107809017D02*
G01*
X80869650Y-107809017D01*
X80869650Y-107166414D01*
X80994650Y-107166414D01*
X80994650Y-107190918D01*
X80999430Y-107214952D01*
X81008808Y-107237591D01*
X81022422Y-107257965D01*
X81039749Y-107275292D01*
X81060123Y-107288906D01*
X81082762Y-107298284D01*
X81106796Y-107303064D01*
X81119048Y-107303666D01*
X81375000Y-107303666D01*
X81375000Y-107559619D01*
X81375602Y-107571871D01*
X81380382Y-107595905D01*
X81389760Y-107618544D01*
X81403374Y-107638918D01*
X81420701Y-107656245D01*
X81441075Y-107669859D01*
X81463714Y-107679237D01*
X81487748Y-107684017D01*
X81512252Y-107684017D01*
X81536286Y-107679237D01*
X81558925Y-107669859D01*
X81579299Y-107656245D01*
X81596626Y-107638918D01*
X81610240Y-107618544D01*
X81619618Y-107595905D01*
X81624398Y-107571871D01*
X81625000Y-107559619D01*
X81625000Y-107303666D01*
X81880953Y-107303666D01*
X81893205Y-107303064D01*
X81917239Y-107298284D01*
X81939878Y-107288906D01*
X81960252Y-107275292D01*
X81977579Y-107257965D01*
X81991193Y-107237591D01*
X82000571Y-107214952D01*
X82005351Y-107190918D01*
X82005351Y-107166414D01*
X82000571Y-107142380D01*
X81991193Y-107119741D01*
X81977579Y-107099367D01*
X81960252Y-107082040D01*
X81939878Y-107068426D01*
X81917239Y-107059048D01*
X81893205Y-107054268D01*
X81880953Y-107053666D01*
X81625000Y-107053666D01*
X81625000Y-106797714D01*
X81624398Y-106785462D01*
X81619618Y-106761428D01*
X81610240Y-106738789D01*
X81596626Y-106718415D01*
X81579299Y-106701088D01*
X81558925Y-106687474D01*
X81536286Y-106678096D01*
X81512252Y-106673316D01*
X81487748Y-106673316D01*
X81463714Y-106678096D01*
X81441075Y-106687474D01*
X81420701Y-106701088D01*
X81403374Y-106718415D01*
X81389760Y-106738789D01*
X81380382Y-106761428D01*
X81375602Y-106785462D01*
X81375000Y-106797714D01*
X81375000Y-107053666D01*
X81119048Y-107053666D01*
X81106796Y-107054268D01*
X81082762Y-107059048D01*
X81060123Y-107068426D01*
X81039749Y-107082040D01*
X81022422Y-107099367D01*
X81008808Y-107119741D01*
X80999430Y-107142380D01*
X80994650Y-107166414D01*
X80869650Y-107166414D01*
X80869650Y-106548316D01*
X82130351Y-106548316D01*
X82130351Y-107809017D01*
G37*
G36*
X52969017Y-47920349D02*
G01*
X51708316Y-47920349D01*
X51708316Y-47277747D01*
X51833316Y-47277747D01*
X51833316Y-47302251D01*
X51838096Y-47326285D01*
X51847474Y-47348924D01*
X51861088Y-47369298D01*
X51878415Y-47386625D01*
X51898789Y-47400239D01*
X51921428Y-47409617D01*
X51945462Y-47414397D01*
X51957714Y-47414999D01*
X52213666Y-47414999D01*
X52213666Y-47670951D01*
X52214268Y-47683203D01*
X52219048Y-47707237D01*
X52228426Y-47729876D01*
X52242040Y-47750250D01*
X52259367Y-47767577D01*
X52279741Y-47781191D01*
X52302380Y-47790569D01*
X52326414Y-47795349D01*
X52350918Y-47795349D01*
X52374952Y-47790569D01*
X52397591Y-47781191D01*
X52417965Y-47767577D01*
X52435292Y-47750250D01*
X52448906Y-47729876D01*
X52458284Y-47707237D01*
X52463064Y-47683203D01*
X52463666Y-47670951D01*
X52463666Y-47414999D01*
X52719619Y-47414999D01*
X52731871Y-47414397D01*
X52755905Y-47409617D01*
X52778544Y-47400239D01*
X52798918Y-47386625D01*
X52816245Y-47369298D01*
X52829859Y-47348924D01*
X52839237Y-47326285D01*
X52844017Y-47302251D01*
X52844017Y-47277747D01*
X52839237Y-47253713D01*
X52829859Y-47231074D01*
X52816245Y-47210700D01*
X52798918Y-47193373D01*
X52778544Y-47179759D01*
X52755905Y-47170381D01*
X52731871Y-47165601D01*
X52719619Y-47164999D01*
X52463666Y-47164999D01*
X52463666Y-46909047D01*
X52463064Y-46896795D01*
X52458284Y-46872761D01*
X52448906Y-46850122D01*
X52435292Y-46829748D01*
X52417965Y-46812421D01*
X52397591Y-46798807D01*
X52374952Y-46789429D01*
X52350918Y-46784649D01*
X52326414Y-46784649D01*
X52302380Y-46789429D01*
X52279741Y-46798807D01*
X52259367Y-46812421D01*
X52242040Y-46829748D01*
X52228426Y-46850122D01*
X52219048Y-46872761D01*
X52214268Y-46896795D01*
X52213666Y-46909047D01*
X52213666Y-47164999D01*
X51957714Y-47164999D01*
X51945462Y-47165601D01*
X51921428Y-47170381D01*
X51898789Y-47179759D01*
X51878415Y-47193373D01*
X51861088Y-47210700D01*
X51847474Y-47231074D01*
X51838096Y-47253713D01*
X51833316Y-47277747D01*
X51708316Y-47277747D01*
X51708316Y-46659649D01*
X52969017Y-46659649D01*
X52969017Y-47920349D01*
G37*
D18*
X54270000Y-49540000D03*
D19*
X79250000Y-88610000D03*
D18*
X80270000Y-49540000D03*
D20*
X50290000Y-40175000D03*
D18*
X28270000Y-49540000D03*
X81270000Y-54040000D03*
X54270000Y-78040000D03*
X81270000Y-57040000D03*
X55270000Y-51040000D03*
D19*
X80270000Y-52540000D03*
X50750000Y-88610000D03*
X74750000Y-89610000D03*
D20*
X74290000Y-39175000D03*
D18*
X55270000Y-73540000D03*
D20*
X77290000Y-39175000D03*
D19*
X54270000Y-52540000D03*
D18*
X55270000Y-57040000D03*
X55270000Y-54040000D03*
X28270000Y-81040000D03*
D19*
X28270000Y-52540000D03*
D20*
X57790000Y-39175000D03*
X51790000Y-39175000D03*
D18*
X55270000Y-79540000D03*
X54270000Y-55540000D03*
D20*
X75790000Y-40175000D03*
D19*
X77750000Y-89610000D03*
D18*
X81270000Y-73540000D03*
D21*
X76250000Y-88610000D03*
D18*
X80270000Y-81040000D03*
X80270000Y-55540000D03*
X54270000Y-81040000D03*
X29270000Y-51040000D03*
X29270000Y-79540000D03*
D20*
X81790000Y-40175000D03*
X80290000Y-39175000D03*
X54790000Y-39175000D03*
D19*
X55250000Y-89610000D03*
D18*
X80270000Y-78040000D03*
X29270000Y-73540000D03*
X29270000Y-57040000D03*
X55270000Y-76540000D03*
D19*
X49250000Y-89610000D03*
D18*
X81270000Y-79540000D03*
D20*
X56290000Y-40175000D03*
D18*
X28270000Y-55540000D03*
D19*
X53750000Y-88610000D03*
X52250000Y-89610000D03*
X71750000Y-89610000D03*
D18*
X81270000Y-51040000D03*
D20*
X78790000Y-40175000D03*
D18*
X54270000Y-75040000D03*
X29270000Y-76540000D03*
D19*
X73250000Y-88610000D03*
D18*
X53290000Y-40175000D03*
X28270000Y-78040000D03*
D19*
X47750000Y-88610000D03*
D18*
X29270000Y-54040000D03*
X81270000Y-76540000D03*
X28270000Y-75040000D03*
X80270000Y-75040000D03*
D22*
X78520000Y-70540000D02*
X84770000Y-70540000D01*
X68290000Y-42425000D02*
X68290000Y-35675000D01*
X55270000Y-73540000D02*
X55270000Y-72040000D01*
X84770000Y-67540000D02*
X84770000Y-66540000D01*
X55270000Y-79540000D02*
X51770000Y-79540000D01*
X46750000Y-105360000D02*
X79000000Y-105360000D01*
X84770000Y-70540000D02*
X84770000Y-69540000D01*
X77750000Y-86110000D02*
X64250000Y-86110000D01*
X68750000Y-86860000D02*
X68750000Y-92860000D01*
X55250000Y-89610000D02*
X56750000Y-89610000D01*
X68750000Y-93110000D02*
X69750000Y-93110000D01*
X56290000Y-40175000D02*
X56290000Y-41925000D01*
X54270000Y-81040000D02*
X54270000Y-82040000D01*
X79000000Y-105860000D02*
X80000000Y-105860000D01*
X57790000Y-39175000D02*
X59540000Y-39175000D01*
X71520000Y-49790000D02*
X71520000Y-48790000D01*
X74750000Y-89610000D02*
X74750000Y-86610000D01*
X26270000Y-76540000D02*
X26270000Y-69040000D01*
X58770000Y-72040000D02*
X58770000Y-71040000D01*
X52270000Y-69040000D02*
X58770000Y-69040000D01*
X55270000Y-51040000D02*
X51770000Y-51040000D01*
X28270000Y-55540000D02*
X26520000Y-55540000D01*
X71290000Y-35675000D02*
X70290000Y-35675000D01*
X50540000Y-23425000D02*
X50540000Y-22925000D01*
X77750000Y-89610000D02*
X77750000Y-86110000D01*
X45020000Y-49790000D02*
X45520000Y-49790000D01*
X26020000Y-63040000D02*
X32770000Y-63040000D01*
X28270000Y-49540000D02*
X28270000Y-48290000D01*
X77770000Y-64540000D02*
X84770000Y-64540000D01*
X29270000Y-51040000D02*
X25770000Y-51040000D01*
X52250000Y-86610000D02*
X59750000Y-86610000D01*
X52520000Y-75040000D02*
X52520000Y-70540000D01*
X68290000Y-35675000D02*
X67290000Y-35675000D01*
X77770000Y-66040000D02*
X84770000Y-66040000D01*
X97020000Y-49790000D02*
X97520000Y-49790000D01*
X60790000Y-35925000D02*
X60790000Y-35675000D01*
X32770000Y-67540000D02*
X32770000Y-66540000D01*
X26520000Y-75040000D02*
X26520000Y-70540000D01*
X55270000Y-57040000D02*
X55270000Y-58790000D01*
X72790000Y-35675000D02*
X71790000Y-35675000D01*
X84770000Y-63040000D02*
X84770000Y-62040000D01*
X54790000Y-39175000D02*
X54790000Y-42175000D01*
X80270000Y-78040000D02*
X78020000Y-78040000D01*
X67250000Y-93110000D02*
X68250000Y-93110000D01*
X84770000Y-66040000D02*
X84770000Y-65040000D01*
X82790000Y-40175000D02*
X82790000Y-23425000D01*
X54270000Y-75040000D02*
X52520000Y-75040000D01*
X74750000Y-86610000D02*
X67250000Y-86610000D01*
X80290000Y-39175000D02*
X80290000Y-42675000D01*
X58770000Y-67540000D02*
X58770000Y-66540000D01*
X29270000Y-54040000D02*
X26270000Y-54040000D01*
X32770000Y-63040000D02*
X32770000Y-62040000D01*
X64250000Y-86110000D02*
X64250000Y-93110000D01*
X54790000Y-42175000D02*
X62290000Y-42175000D01*
X80270000Y-48290000D02*
X97020000Y-48290000D01*
X54270000Y-82040000D02*
X71020000Y-82040000D01*
X52020000Y-78040000D02*
X52020000Y-67540000D01*
X84520000Y-60040000D02*
X84770000Y-60040000D01*
X32770000Y-60040000D02*
X32770000Y-59040000D01*
X78790000Y-42425000D02*
X68290000Y-42425000D01*
X53290000Y-42425000D02*
X63790000Y-42425000D01*
X73250000Y-86860000D02*
X68750000Y-86860000D01*
X84770000Y-69040000D02*
X84770000Y-68040000D01*
X70000000Y-89610000D02*
X70000000Y-93610000D01*
X80270000Y-75040000D02*
X78520000Y-75040000D01*
X54270000Y-48290000D02*
X71020000Y-48290000D01*
X26020000Y-67540000D02*
X32770000Y-67540000D01*
X61250000Y-86360000D02*
X61250000Y-93110000D01*
X62750000Y-93110000D02*
X63750000Y-93110000D01*
X58520000Y-60040000D02*
X58770000Y-60040000D01*
X28270000Y-75040000D02*
X26520000Y-75040000D01*
X59750000Y-93110000D02*
X60750000Y-93110000D01*
X49040000Y-40175000D02*
X49040000Y-23425000D01*
X26020000Y-52540000D02*
X26020000Y-63040000D01*
X56750000Y-93110000D02*
X57750000Y-93110000D01*
X58770000Y-69040000D02*
X58770000Y-68040000D01*
X49250000Y-86110000D02*
X62750000Y-86110000D01*
X51770000Y-51040000D02*
X51770000Y-64540000D01*
X25770000Y-64540000D02*
X32770000Y-64540000D01*
X32770000Y-61540000D02*
X32770000Y-60540000D01*
X80270000Y-49540000D02*
X80270000Y-48290000D01*
X54270000Y-52540000D02*
X52020000Y-52540000D01*
X59540000Y-39175000D02*
X59540000Y-35175000D01*
X29270000Y-57040000D02*
X29270000Y-58790000D01*
X53750000Y-88610000D02*
X53750000Y-86860000D01*
X26520000Y-70540000D02*
X32770000Y-70540000D01*
X53290000Y-40175000D02*
X53290000Y-42425000D01*
X52270000Y-76540000D02*
X52270000Y-69040000D01*
X62750000Y-86110000D02*
X62750000Y-93110000D01*
X81270000Y-76540000D02*
X78270000Y-76540000D01*
X53750000Y-86860000D02*
X58250000Y-86860000D01*
X51770000Y-66040000D02*
X58770000Y-66040000D01*
X55270000Y-72040000D02*
X58770000Y-72040000D01*
X79250000Y-88610000D02*
X80500000Y-88610000D01*
X56750000Y-89610000D02*
X56750000Y-93110000D01*
X52250000Y-89610000D02*
X52250000Y-86610000D01*
X79000000Y-105360000D02*
X79000000Y-105860000D01*
X81270000Y-72040000D02*
X84770000Y-72040000D01*
X51770000Y-64540000D02*
X58770000Y-64540000D01*
X65750000Y-86360000D02*
X65750000Y-93110000D01*
X78520000Y-55540000D02*
X78520000Y-60040000D01*
X28270000Y-82040000D02*
X45020000Y-82040000D01*
X52520000Y-60040000D02*
X58520000Y-60040000D01*
X51790000Y-39175000D02*
X51790000Y-42675000D01*
X50750000Y-88610000D02*
X50750000Y-86360000D01*
X81270000Y-58790000D02*
X85270000Y-58790000D01*
X32770000Y-66040000D02*
X32770000Y-65040000D01*
X75790000Y-41925000D02*
X71290000Y-41925000D01*
X78270000Y-54040000D02*
X78270000Y-61540000D01*
X58770000Y-64540000D02*
X58770000Y-63540000D01*
X51790000Y-42675000D02*
X65290000Y-42675000D01*
X68750000Y-92860000D02*
X68750000Y-93110000D01*
X77770000Y-51040000D02*
X77770000Y-64540000D01*
X72790000Y-39175000D02*
X72790000Y-35675000D01*
X81270000Y-54040000D02*
X78270000Y-54040000D01*
X29270000Y-76540000D02*
X26270000Y-76540000D01*
X52020000Y-52540000D02*
X52020000Y-63040000D01*
X47750000Y-88610000D02*
X46750000Y-88610000D01*
X61250000Y-93110000D02*
X62250000Y-93110000D01*
X97520000Y-49790000D02*
X97520000Y-48790000D01*
X65750000Y-93110000D02*
X66750000Y-93110000D01*
X32770000Y-69040000D02*
X32770000Y-68040000D01*
X55270000Y-54040000D02*
X52270000Y-54040000D01*
X52520000Y-70540000D02*
X58770000Y-70540000D01*
X26020000Y-78040000D02*
X26020000Y-67540000D01*
X25770000Y-51040000D02*
X25770000Y-64540000D01*
X54270000Y-55540000D02*
X52520000Y-55540000D01*
X62290000Y-35675000D02*
X61290000Y-35675000D01*
X78270000Y-76540000D02*
X78270000Y-69040000D01*
X58770000Y-66040000D02*
X58770000Y-65040000D01*
X58770000Y-60040000D02*
X58770000Y-59040000D01*
X81270000Y-57040000D02*
X81270000Y-58790000D01*
X52020000Y-67540000D02*
X58770000Y-67540000D01*
X81270000Y-51040000D02*
X77770000Y-51040000D01*
X52270000Y-54040000D02*
X52270000Y-61540000D01*
X62290000Y-42175000D02*
X62290000Y-35675000D01*
X28270000Y-48290000D02*
X45020000Y-48290000D01*
X80290000Y-42675000D02*
X66790000Y-42675000D01*
X52020000Y-63040000D02*
X58770000Y-63040000D01*
X26520000Y-60040000D02*
X32520000Y-60040000D01*
X78520000Y-75040000D02*
X78520000Y-70540000D01*
X80270000Y-55540000D02*
X78520000Y-55540000D01*
X58770000Y-70540000D02*
X58770000Y-69540000D01*
X63790000Y-42425000D02*
X63790000Y-35675000D01*
X65290000Y-42675000D02*
X65290000Y-35675000D01*
X78020000Y-67540000D02*
X84770000Y-67540000D01*
X78020000Y-63040000D02*
X84770000Y-63040000D01*
X58770000Y-61540000D02*
X58770000Y-60540000D01*
X75790000Y-40175000D02*
X75790000Y-41925000D01*
X58770000Y-63040000D02*
X58770000Y-62040000D01*
X81270000Y-73540000D02*
X81270000Y-72040000D01*
X32770000Y-72040000D02*
X32770000Y-71040000D01*
X54270000Y-78040000D02*
X52020000Y-78040000D01*
X80270000Y-82040000D02*
X97020000Y-82040000D01*
X76250000Y-88610000D02*
X76250000Y-86360000D01*
X51770000Y-79540000D02*
X51770000Y-66040000D01*
X69790000Y-35675000D02*
X68790000Y-35675000D01*
X78520000Y-60040000D02*
X84520000Y-60040000D01*
X82790000Y-23425000D02*
X50540000Y-23425000D01*
X46750000Y-88610000D02*
X46750000Y-105360000D01*
X71290000Y-41925000D02*
X71290000Y-35675000D01*
X60790000Y-41925000D02*
X60790000Y-35925000D01*
X73250000Y-88610000D02*
X73250000Y-86860000D01*
X55270000Y-58790000D02*
X59270000Y-58790000D01*
X58250000Y-93110000D02*
X59250000Y-93110000D01*
X97020000Y-82040000D02*
X97020000Y-49790000D01*
X67250000Y-86610000D02*
X67250000Y-93110000D01*
X80500000Y-88610000D02*
X80500000Y-105360000D01*
X84770000Y-60040000D02*
X84770000Y-59040000D01*
X28270000Y-78040000D02*
X26020000Y-78040000D01*
X69790000Y-42175000D02*
X69790000Y-35675000D01*
X76250000Y-86360000D02*
X65750000Y-86360000D01*
X28270000Y-52540000D02*
X26020000Y-52540000D01*
X84770000Y-72040000D02*
X84770000Y-71040000D01*
X29270000Y-58790000D02*
X33270000Y-58790000D01*
X49250000Y-89610000D02*
X49250000Y-86110000D01*
X66790000Y-42675000D02*
X66790000Y-35675000D01*
X66790000Y-35675000D02*
X65790000Y-35675000D01*
X78020000Y-52540000D02*
X78020000Y-63040000D01*
X71020000Y-49790000D02*
X71520000Y-49790000D01*
X55270000Y-76540000D02*
X52270000Y-76540000D01*
X50750000Y-86360000D02*
X61250000Y-86360000D01*
X80270000Y-81040000D02*
X80270000Y-82040000D01*
X80270000Y-52540000D02*
X78020000Y-52540000D01*
X29270000Y-79540000D02*
X25770000Y-79540000D01*
X50290000Y-40175000D02*
X49040000Y-40175000D01*
X63790000Y-35675000D02*
X62790000Y-35675000D01*
X52520000Y-55540000D02*
X52520000Y-60040000D01*
X71750000Y-89610000D02*
X70000000Y-89610000D01*
X77290000Y-39175000D02*
X77290000Y-42175000D01*
X74290000Y-39175000D02*
X72790000Y-39175000D01*
X64250000Y-93110000D02*
X65250000Y-93110000D01*
X78270000Y-61540000D02*
X84770000Y-61540000D01*
X84770000Y-61540000D02*
X84770000Y-60540000D01*
X71020000Y-82040000D02*
X71020000Y-49790000D01*
X28270000Y-81040000D02*
X28270000Y-82040000D01*
X45520000Y-49790000D02*
X45520000Y-48790000D01*
X50540000Y-22925000D02*
X49540000Y-22925000D01*
X77770000Y-79540000D02*
X77770000Y-66040000D01*
X54270000Y-49540000D02*
X54270000Y-48290000D01*
X59750000Y-86610000D02*
X59750000Y-93110000D01*
X78020000Y-78040000D02*
X78020000Y-67540000D01*
X81790000Y-40175000D02*
X82790000Y-40175000D01*
X58250000Y-86860000D02*
X58250000Y-93110000D01*
X32520000Y-60040000D02*
X32770000Y-60040000D01*
X29270000Y-73540000D02*
X29270000Y-72040000D01*
X25770000Y-66040000D02*
X32770000Y-66040000D01*
X26270000Y-54040000D02*
X26270000Y-61540000D01*
X26270000Y-61540000D02*
X32770000Y-61540000D01*
X60790000Y-35675000D02*
X59790000Y-35675000D01*
X25770000Y-79540000D02*
X25770000Y-66040000D01*
X77290000Y-42175000D02*
X69790000Y-42175000D01*
X56290000Y-41925000D02*
X60790000Y-41925000D01*
X84770000Y-64540000D02*
X84770000Y-63540000D01*
X32770000Y-64540000D02*
X32770000Y-63540000D01*
X32770000Y-70540000D02*
X32770000Y-69540000D01*
X45020000Y-82040000D02*
X45020000Y-49790000D01*
X52270000Y-61540000D02*
X58770000Y-61540000D01*
X81270000Y-79540000D02*
X77770000Y-79540000D01*
X78270000Y-69040000D02*
X84770000Y-69040000D01*
X78790000Y-40175000D02*
X78790000Y-42425000D01*
X26520000Y-55540000D02*
X26520000Y-60040000D01*
X26270000Y-69040000D02*
X32770000Y-69040000D01*
X65290000Y-35675000D02*
X64290000Y-35675000D01*
X29270000Y-72040000D02*
X32770000Y-72040000D01*
%TA.AperFunction,NonConductor*%
G36*
X126996632Y-3368D02*
G01*
X127000000Y-11500D01*
X127000000Y-126988500D01*
X126996632Y-126996632D01*
X126988500Y-127000000D01*
X11500Y-127000000D01*
X3368Y-126996632D01*
X0Y-126988500D01*
X0Y-63500000D01*
X12698495Y-63500000D01*
X12702474Y-64135846D01*
X12714411Y-64771592D01*
X12734301Y-65407021D01*
X12762148Y-66042313D01*
X12797942Y-66677159D01*
X12841680Y-67311511D01*
X12893356Y-67945272D01*
X12952949Y-68578252D01*
X13020470Y-69210515D01*
X13095899Y-69841884D01*
X13179224Y-70472257D01*
X13270417Y-71101439D01*
X13270425Y-71101494D01*
X13270428Y-71101510D01*
X13369502Y-71729587D01*
X13476430Y-72356375D01*
X13591195Y-72981775D01*
X13713778Y-73605690D01*
X13782896Y-73935602D01*
X13844168Y-74228063D01*
X13982318Y-74848666D01*
X14128239Y-75467550D01*
X14281874Y-76084476D01*
X14443267Y-76699617D01*
X14612297Y-77312511D01*
X14789012Y-77923336D01*
X14973337Y-78531830D01*
X15165302Y-79138092D01*
X15364791Y-79741759D01*
X15571854Y-80342976D01*
X15786400Y-80941484D01*
X16008447Y-81537333D01*
X16237924Y-82130329D01*
X16474789Y-82720364D01*
X16719035Y-83307429D01*
X16970622Y-83891417D01*
X17229499Y-84472212D01*
X17440160Y-84929359D01*
X17495592Y-85049649D01*
X17768911Y-85623751D01*
X18049393Y-86194388D01*
X18049411Y-86194424D01*
X18336997Y-86761473D01*
X18631658Y-87324878D01*
X18933381Y-87884614D01*
X19195121Y-88355955D01*
X19242068Y-88440496D01*
X19557689Y-88992474D01*
X19880194Y-89540458D01*
X19880214Y-89540491D01*
X20209513Y-90084332D01*
X20545651Y-90624100D01*
X20545653Y-90624103D01*
X20888502Y-91159594D01*
X21238027Y-91690752D01*
X21594172Y-92217494D01*
X21956882Y-92739737D01*
X22326100Y-93257400D01*
X22326124Y-93257433D01*
X22326142Y-93257458D01*
X22701764Y-93770397D01*
X23083804Y-94278630D01*
X23334708Y-94603854D01*
X23472218Y-94782096D01*
X23866879Y-95280633D01*
X24267749Y-95774191D01*
X24267776Y-95774223D01*
X24674771Y-96262701D01*
X25087849Y-96746047D01*
X25506931Y-97224170D01*
X25506957Y-97224199D01*
X25506979Y-97224224D01*
X25932047Y-97697102D01*
X26363000Y-98164623D01*
X26363002Y-98164625D01*
X26799748Y-98626691D01*
X27242325Y-99083338D01*
X27690464Y-99534290D01*
X28144292Y-99979676D01*
X28603658Y-100419348D01*
X29068493Y-100853236D01*
X29538618Y-101281179D01*
X29538669Y-101281224D01*
X29538672Y-101281227D01*
X30014201Y-101703327D01*
X30194896Y-101859720D01*
X30494921Y-102119396D01*
X30494976Y-102119442D01*
X30980921Y-102529507D01*
X31471961Y-102933458D01*
X31968018Y-103331232D01*
X32469014Y-103722765D01*
X32974872Y-104107998D01*
X33485508Y-104486866D01*
X34000877Y-104859336D01*
X34520814Y-105225288D01*
X34520817Y-105225290D01*
X35045320Y-105584725D01*
X35574280Y-105937567D01*
X36107615Y-106283760D01*
X36645241Y-106623252D01*
X37187074Y-106955987D01*
X37733030Y-107281916D01*
X38283021Y-107600985D01*
X38836963Y-107913146D01*
X39394769Y-108218349D01*
X39716523Y-108389199D01*
X39956314Y-108516528D01*
X39956351Y-108516547D01*
X40521622Y-108807693D01*
X41090492Y-109091741D01*
X41090517Y-109091753D01*
X41662865Y-109368644D01*
X42238697Y-109638378D01*
X42574498Y-109790579D01*
X42817806Y-109900859D01*
X43400178Y-110156083D01*
X43985699Y-110403997D01*
X44574277Y-110644564D01*
X45165819Y-110877745D01*
X45760234Y-111103504D01*
X46357428Y-111321806D01*
X46957308Y-111532616D01*
X47559779Y-111735902D01*
X48164747Y-111931631D01*
X48772117Y-112119774D01*
X49381795Y-112300299D01*
X49993684Y-112473180D01*
X50607689Y-112638389D01*
X51223714Y-112795900D01*
X51841662Y-112945688D01*
X52461437Y-113087731D01*
X53082940Y-113222005D01*
X53706076Y-113348490D01*
X54330746Y-113467166D01*
X54956852Y-113578014D01*
X55584296Y-113681018D01*
X56212981Y-113776160D01*
X56842807Y-113863426D01*
X57473676Y-113942803D01*
X58105489Y-114014277D01*
X58216443Y-114025424D01*
X58738112Y-114077835D01*
X58814687Y-114084561D01*
X59371551Y-114133475D01*
X60005602Y-114181181D01*
X60005635Y-114181183D01*
X60005674Y-114181186D01*
X60640128Y-114220943D01*
X60640129Y-114220943D01*
X60640164Y-114220944D01*
X60640200Y-114220947D01*
X61275247Y-114252767D01*
X61910642Y-114276637D01*
X62546285Y-114292552D01*
X63102461Y-114299513D01*
X63182070Y-114300510D01*
X63182078Y-114300510D01*
X63817930Y-114300510D01*
X63896311Y-114299528D01*
X64453715Y-114292552D01*
X65089358Y-114276637D01*
X65724753Y-114252767D01*
X66359800Y-114220947D01*
X66359835Y-114220944D01*
X66359871Y-114220943D01*
X66994324Y-114181186D01*
X66994352Y-114181183D01*
X66994398Y-114181181D01*
X67628449Y-114133475D01*
X68261853Y-114077838D01*
X68261854Y-114077837D01*
X68261887Y-114077835D01*
X68682050Y-114035622D01*
X68894511Y-114014277D01*
X69526324Y-113942803D01*
X70157193Y-113863426D01*
X70787019Y-113776160D01*
X71415704Y-113681018D01*
X72043148Y-113578014D01*
X72669254Y-113467166D01*
X73293924Y-113348490D01*
X73917060Y-113222005D01*
X74538563Y-113087731D01*
X75158338Y-112945688D01*
X75776286Y-112795900D01*
X76392311Y-112638389D01*
X77006316Y-112473180D01*
X77618205Y-112300299D01*
X78227883Y-112119774D01*
X78835253Y-111931631D01*
X79440221Y-111735902D01*
X80042692Y-111532616D01*
X80642572Y-111321806D01*
X81239766Y-111103504D01*
X81834181Y-110877745D01*
X82425723Y-110644564D01*
X83014301Y-110403997D01*
X83599822Y-110156083D01*
X84182194Y-109900859D01*
X84761326Y-109638367D01*
X85337128Y-109368647D01*
X85909508Y-109091741D01*
X86478378Y-108807693D01*
X87043649Y-108516547D01*
X87605231Y-108218349D01*
X88163037Y-107913146D01*
X88716979Y-107600985D01*
X89266970Y-107281916D01*
X89812926Y-106955987D01*
X90354759Y-106623252D01*
X90892385Y-106283760D01*
X91425720Y-105937567D01*
X91954680Y-105584725D01*
X92479183Y-105225290D01*
X92999146Y-104859319D01*
X93514488Y-104486869D01*
X94025128Y-104107998D01*
X94530986Y-103722765D01*
X95031982Y-103331232D01*
X95528039Y-102933458D01*
X96019079Y-102529507D01*
X96505024Y-102119442D01*
X96505079Y-102119396D01*
X96729479Y-101925173D01*
X96985799Y-101703327D01*
X97461328Y-101281227D01*
X97461330Y-101281224D01*
X97461382Y-101281179D01*
X97931506Y-100853236D01*
X97931537Y-100853208D01*
X98396352Y-100419338D01*
X98855700Y-99979684D01*
X99309510Y-99534316D01*
X99757710Y-99083302D01*
X100200230Y-98626714D01*
X100637000Y-98164623D01*
X101067953Y-97697102D01*
X101493021Y-97224224D01*
X101493042Y-97224199D01*
X101493069Y-97224170D01*
X101912150Y-96746047D01*
X102325228Y-96262701D01*
X102325235Y-96262693D01*
X102732251Y-95774191D01*
X103133121Y-95280633D01*
X103527782Y-94782096D01*
X103916173Y-94278659D01*
X104298232Y-93770401D01*
X104673900Y-93257400D01*
X105043118Y-92739737D01*
X105405828Y-92217494D01*
X105761973Y-91690752D01*
X106111498Y-91159594D01*
X106454347Y-90624103D01*
X106790467Y-90084363D01*
X107119806Y-89540458D01*
X107442311Y-88992474D01*
X107757932Y-88440496D01*
X108066620Y-87884611D01*
X108368327Y-87324906D01*
X108663004Y-86761469D01*
X108950607Y-86194388D01*
X109231089Y-85623751D01*
X109504408Y-85049649D01*
X109770519Y-84472171D01*
X110029382Y-83891408D01*
X110280956Y-83307450D01*
X110525201Y-82720389D01*
X110762080Y-82130317D01*
X110991555Y-81537326D01*
X111213590Y-80941510D01*
X111428150Y-80342962D01*
X111635202Y-79741775D01*
X111635208Y-79741759D01*
X111834697Y-79138092D01*
X111834713Y-79138043D01*
X112026653Y-78531862D01*
X112210990Y-77923326D01*
X112387697Y-77312531D01*
X112556745Y-76699572D01*
X112718108Y-76084545D01*
X112718109Y-76084537D01*
X112718126Y-76084476D01*
X112871760Y-75467550D01*
X113017681Y-74848666D01*
X113155831Y-74228063D01*
X113155840Y-74228022D01*
X113286222Y-73605690D01*
X113408805Y-72981775D01*
X113523570Y-72356375D01*
X113630498Y-71729587D01*
X113729572Y-71101510D01*
X113729574Y-71101494D01*
X113729583Y-71101439D01*
X113768079Y-70835828D01*
X113820778Y-70472243D01*
X113904101Y-69841883D01*
X113979528Y-69210529D01*
X114047047Y-68578281D01*
X114106647Y-67945238D01*
X114158320Y-67311498D01*
X114202057Y-66677161D01*
X114237851Y-66042326D01*
X114265696Y-65407093D01*
X114265696Y-65407080D01*
X114265699Y-65407021D01*
X114285588Y-64771592D01*
X114285589Y-64771561D01*
X114297526Y-64135831D01*
X114301505Y-63500000D01*
X114297526Y-62864169D01*
X114285589Y-62228439D01*
X114285588Y-62228407D01*
X114265699Y-61592979D01*
X114265696Y-61592907D01*
X114237851Y-60957674D01*
X114202057Y-60322839D01*
X114158320Y-59688502D01*
X114106647Y-59054762D01*
X114106645Y-59054745D01*
X114106641Y-59054691D01*
X114047050Y-58421747D01*
X113979529Y-57789484D01*
X113979528Y-57789471D01*
X113904101Y-57158117D01*
X113820778Y-56527757D01*
X113771714Y-56189248D01*
X113729583Y-55898561D01*
X113729572Y-55898490D01*
X113630498Y-55270413D01*
X113523570Y-54643625D01*
X113408805Y-54018225D01*
X113286222Y-53394310D01*
X113155840Y-52771978D01*
X113155837Y-52771968D01*
X113155825Y-52771907D01*
X113017681Y-52151333D01*
X112871760Y-51532449D01*
X112718126Y-50915524D01*
X112718108Y-50915455D01*
X112556745Y-50300428D01*
X112387697Y-49687469D01*
X112210990Y-49076674D01*
X112026653Y-48468138D01*
X111834713Y-47861957D01*
X111834709Y-47861946D01*
X111834691Y-47861888D01*
X111635208Y-47258240D01*
X111428145Y-46657023D01*
X111213599Y-46058515D01*
X110991552Y-45462666D01*
X110762075Y-44869670D01*
X110701358Y-44718425D01*
X110525201Y-44279611D01*
X110280956Y-43692550D01*
X110029382Y-43108592D01*
X109770519Y-42527829D01*
X109770490Y-42527763D01*
X109598560Y-42154668D01*
X109504408Y-41950351D01*
X109231089Y-41376249D01*
X108950607Y-40805612D01*
X108950575Y-40805548D01*
X108663002Y-40238526D01*
X108368341Y-39675121D01*
X108368327Y-39675094D01*
X108066620Y-39115389D01*
X107757932Y-38559504D01*
X107757931Y-38559503D01*
X107757897Y-38559441D01*
X107442328Y-38007556D01*
X107442311Y-38007526D01*
X107119806Y-37459542D01*
X107119787Y-37459511D01*
X107119769Y-37459480D01*
X106790486Y-36915667D01*
X106454348Y-36375899D01*
X106454347Y-36375897D01*
X106111498Y-35840406D01*
X105761973Y-35309248D01*
X105761953Y-35309219D01*
X105761933Y-35309188D01*
X105640475Y-35129552D01*
X105405828Y-34782506D01*
X105043118Y-34260263D01*
X104673900Y-33742600D01*
X104673858Y-33742542D01*
X104673858Y-33742541D01*
X104298235Y-33229602D01*
X103916195Y-32721369D01*
X103756720Y-32514656D01*
X103527782Y-32217904D01*
X103133121Y-31719367D01*
X102732251Y-31225809D01*
X102732230Y-31225784D01*
X102732205Y-31225753D01*
X102325228Y-30737298D01*
X101912150Y-30253952D01*
X101493069Y-29775830D01*
X101493042Y-29775800D01*
X101493021Y-29775776D01*
X101067953Y-29302898D01*
X100637000Y-28835377D01*
X100200230Y-28373286D01*
X99757710Y-27916698D01*
X99757686Y-27916674D01*
X99757660Y-27916647D01*
X99309535Y-27465709D01*
X98855707Y-27020323D01*
X98396341Y-26580651D01*
X97931506Y-26146763D01*
X97461382Y-25718821D01*
X97461328Y-25718773D01*
X96985799Y-25296673D01*
X96821682Y-25154629D01*
X96505079Y-24880604D01*
X96019056Y-24470474D01*
X95528040Y-24066543D01*
X95528039Y-24066542D01*
X95031982Y-23668768D01*
X94530986Y-23277235D01*
X94025128Y-22892002D01*
X93514488Y-22513131D01*
X92999122Y-22140663D01*
X92479185Y-21774711D01*
X91954708Y-21415294D01*
X91954680Y-21415275D01*
X91425720Y-21062433D01*
X91425685Y-21062410D01*
X90892415Y-20716259D01*
X90892385Y-20716240D01*
X90354759Y-20376748D01*
X89812926Y-20044013D01*
X89812898Y-20043996D01*
X89266971Y-19718084D01*
X88717010Y-19399033D01*
X88716979Y-19399015D01*
X88163037Y-19086854D01*
X87605231Y-18781651D01*
X87457333Y-18703117D01*
X87043685Y-18483471D01*
X86478351Y-18192293D01*
X85909482Y-17908246D01*
X85337134Y-17631355D01*
X84761302Y-17361621D01*
X84182234Y-17099159D01*
X84182225Y-17099155D01*
X84182194Y-17099141D01*
X83901759Y-16976240D01*
X83599830Y-16843920D01*
X83014278Y-16595993D01*
X82612159Y-16431637D01*
X82425723Y-16355436D01*
X81834181Y-16122255D01*
X81239766Y-15896496D01*
X81206753Y-15884428D01*
X80642615Y-15678209D01*
X80576478Y-15654967D01*
X80042692Y-15467384D01*
X80042624Y-15467361D01*
X79440272Y-15264115D01*
X79440256Y-15264110D01*
X79440221Y-15264098D01*
X78835253Y-15068369D01*
X78835248Y-15068367D01*
X78835225Y-15068360D01*
X78227897Y-14880230D01*
X78094582Y-14840755D01*
X77618205Y-14699701D01*
X77006316Y-14526820D01*
X77006311Y-14526818D01*
X77006291Y-14526813D01*
X76392351Y-14361621D01*
X76267806Y-14329776D01*
X75776286Y-14204100D01*
X75776216Y-14204083D01*
X75158337Y-14054311D01*
X74538633Y-13912285D01*
X74538629Y-13912284D01*
X74538563Y-13912269D01*
X73917060Y-13777995D01*
X73917054Y-13777993D01*
X73917018Y-13777986D01*
X73293931Y-13651511D01*
X72814779Y-13560481D01*
X72669254Y-13532834D01*
X72043148Y-13421986D01*
X72043130Y-13421983D01*
X71415750Y-13318989D01*
X71415704Y-13318982D01*
X70787019Y-13223840D01*
X70786970Y-13223833D01*
X70786962Y-13223832D01*
X70157210Y-13136576D01*
X69526316Y-13057196D01*
X68894489Y-12985720D01*
X68261887Y-12922164D01*
X67628476Y-12866527D01*
X67583990Y-12863179D01*
X66994398Y-12818819D01*
X66994364Y-12818816D01*
X66994326Y-12818814D01*
X66994326Y-12818813D01*
X66359871Y-12779056D01*
X66359871Y-12779057D01*
X66359835Y-12779055D01*
X66359800Y-12779053D01*
X65724753Y-12747233D01*
X65724732Y-12747232D01*
X65724728Y-12747232D01*
X65089317Y-12723361D01*
X64453738Y-12707448D01*
X63817930Y-12699490D01*
X63817922Y-12699490D01*
X63182078Y-12699490D01*
X63182070Y-12699490D01*
X62546261Y-12707448D01*
X61910682Y-12723361D01*
X61275271Y-12747232D01*
X61275263Y-12747232D01*
X61275247Y-12747233D01*
X60640200Y-12779053D01*
X60640164Y-12779055D01*
X60640129Y-12779057D01*
X60640128Y-12779056D01*
X60005673Y-12818813D01*
X60005674Y-12818814D01*
X60005635Y-12818816D01*
X60005602Y-12818819D01*
X59500676Y-12856809D01*
X59371523Y-12866527D01*
X58738112Y-12922164D01*
X58105510Y-12985720D01*
X57473683Y-13057196D01*
X56842789Y-13136576D01*
X56213037Y-13223832D01*
X56213018Y-13223834D01*
X56212981Y-13223840D01*
X55704914Y-13300728D01*
X55584249Y-13318989D01*
X54956869Y-13421983D01*
X54330735Y-13532836D01*
X53706068Y-13651511D01*
X53082981Y-13777986D01*
X52996298Y-13796713D01*
X52461437Y-13912269D01*
X52461370Y-13912284D01*
X52461367Y-13912285D01*
X51841662Y-14054311D01*
X51223784Y-14204083D01*
X51223714Y-14204100D01*
X50823176Y-14306513D01*
X50607648Y-14361621D01*
X49993708Y-14526813D01*
X49737772Y-14599124D01*
X49381795Y-14699701D01*
X49176931Y-14760360D01*
X48772102Y-14880230D01*
X48164774Y-15068360D01*
X47801557Y-15185873D01*
X47559779Y-15264098D01*
X47559766Y-15264102D01*
X47559727Y-15264115D01*
X46957376Y-15467361D01*
X46957308Y-15467384D01*
X46561561Y-15606457D01*
X46357384Y-15678209D01*
X45760255Y-15896488D01*
X45760234Y-15896496D01*
X45165819Y-16122255D01*
X45165809Y-16122259D01*
X44574262Y-16355442D01*
X43985721Y-16595993D01*
X43400169Y-16843920D01*
X42817765Y-17099159D01*
X42238697Y-17361621D01*
X41662865Y-17631355D01*
X41090517Y-17908246D01*
X40521648Y-18192293D01*
X39956314Y-18483471D01*
X39394797Y-18781636D01*
X39394769Y-18781651D01*
X38963876Y-19017413D01*
X38836961Y-19086855D01*
X38282989Y-19399033D01*
X37733028Y-19718084D01*
X37187101Y-20043996D01*
X36645239Y-20376749D01*
X36107584Y-20716259D01*
X35574314Y-21062410D01*
X35045291Y-21415294D01*
X34520814Y-21774711D01*
X34000877Y-22140663D01*
X33485508Y-22513133D01*
X32974843Y-22892023D01*
X32469010Y-23277237D01*
X31968040Y-23668750D01*
X31471959Y-24066543D01*
X30980943Y-24470474D01*
X30494921Y-24880604D01*
X30014231Y-25296647D01*
X30014201Y-25296673D01*
X29538672Y-25718773D01*
X29538618Y-25718821D01*
X29068493Y-26146763D01*
X28603658Y-26580651D01*
X28144292Y-27020323D01*
X27690464Y-27465709D01*
X27242340Y-27916647D01*
X27242313Y-27916674D01*
X27242290Y-27916698D01*
X27039906Y-28125515D01*
X26799748Y-28373308D01*
X26363002Y-28835374D01*
X25932068Y-29302875D01*
X25932047Y-29302898D01*
X25506979Y-29775776D01*
X25506957Y-29775800D01*
X25506931Y-29775830D01*
X25087849Y-30253952D01*
X24674771Y-30737298D01*
X24267795Y-31225753D01*
X24267769Y-31225784D01*
X24267749Y-31225809D01*
X24017199Y-31534290D01*
X23866886Y-31719358D01*
X23472206Y-32217919D01*
X23083804Y-32721369D01*
X22701764Y-33229602D01*
X22326141Y-33742541D01*
X22326142Y-33742542D01*
X22326100Y-33742600D01*
X21956882Y-34260263D01*
X21956841Y-34260320D01*
X21956841Y-34260322D01*
X21594189Y-34782481D01*
X21238067Y-35309188D01*
X21238046Y-35309219D01*
X21238027Y-35309248D01*
X20888502Y-35840406D01*
X20888482Y-35840437D01*
X20545651Y-36375899D01*
X20209513Y-36915667D01*
X19880231Y-37459480D01*
X19880212Y-37459511D01*
X19880194Y-37459542D01*
X19687450Y-37787041D01*
X19557671Y-38007556D01*
X19242103Y-38559441D01*
X18933381Y-39115385D01*
X18631658Y-39675121D01*
X18336997Y-40238526D01*
X18049425Y-40805548D01*
X18049393Y-40805612D01*
X17768911Y-41376249D01*
X17768881Y-41376310D01*
X17768880Y-41376314D01*
X17495595Y-41950344D01*
X17229510Y-42527763D01*
X16970622Y-43108582D01*
X16719035Y-43692570D01*
X16474789Y-44279635D01*
X16237924Y-44869670D01*
X16008447Y-45462666D01*
X15786400Y-46058515D01*
X15571854Y-46657023D01*
X15364791Y-47258240D01*
X15165309Y-47861888D01*
X14973337Y-48468169D01*
X14789012Y-49076663D01*
X14612297Y-49687488D01*
X14443274Y-50300358D01*
X14443255Y-50300428D01*
X14281892Y-50915455D01*
X14281874Y-50915524D01*
X14128239Y-51532449D01*
X13982318Y-52151333D01*
X13844175Y-52771907D01*
X13844162Y-52771968D01*
X13844160Y-52771978D01*
X13713778Y-53394310D01*
X13591195Y-54018225D01*
X13476430Y-54643625D01*
X13369502Y-55270413D01*
X13270428Y-55898490D01*
X13270417Y-55898561D01*
X13179224Y-56527742D01*
X13095899Y-57158115D01*
X13020470Y-57789484D01*
X12952949Y-58421747D01*
X12893359Y-59054691D01*
X12841680Y-59688488D01*
X12797942Y-60322840D01*
X12762148Y-60957686D01*
X12734301Y-61592979D01*
X12714411Y-62228407D01*
X12702474Y-62864153D01*
X12698495Y-63500000D01*
X0Y-63500000D01*
X0Y-11500D01*
X3368Y-3368D01*
X11500Y0D01*
X126988500Y0D01*
X126996632Y-3368D01*
G37*
%TD.AperFunction*%
D10*
X0Y0D02*
X127000000Y0D01*
X127000000Y-127000000D01*
X0Y-127000000D01*
X0Y0D01*
M02*
