%TF.GenerationSoftware,KiCad,Pcbnew,9.0.5*%
%TF.CreationDate,2025-10-28T13:08:04-07:00*%
%TF.ProjectId,ImmunoprecipitationDevice_RevF,496d6d75-6e6f-4707-9265-636970697461,rev?*%
%TF.SameCoordinates,Original*%
%TF.FileFunction,Legend,Top*%
%TF.FilePolarity,Positive*%
%FSLAX46Y46*%
G04 Gerber Fmt 4.6, Leading zero omitted, Abs format (unit mm)*
G04 Created by KiCad (PCBNEW 9.0.5) date 2025-10-28 13:08:04*
%MOMM*%
%LPD*%
G01*
G04 APERTURE LIST*
%ADD10C,0.101500*%
%ADD11C,1.015000*%
%ADD12C,0.253750*%
%ADD13C,0.000000*%
%ADD14R,0.152250X0.710500*%
%ADD15R,0.710500X0.152250*%
%ADD16C,0.152250*%
G04 APERTURE END LIST*
D10*
G36*
X47755068Y-85003779D02*
G01*
X46333509Y-85003779D01*
X46333509Y-84235099D01*
X46559064Y-84235099D01*
X46559064Y-84254901D01*
X46566642Y-84273196D01*
X46580643Y-84287197D01*
X46598937Y-84294775D01*
X46608839Y-84295750D01*
X47017212Y-84295750D01*
X46851718Y-84709484D01*
X46848947Y-84719041D01*
X46849189Y-84738840D01*
X46856988Y-84757040D01*
X46871159Y-84770870D01*
X46889546Y-84778224D01*
X46909346Y-84777983D01*
X46927546Y-84770183D01*
X46941376Y-84756012D01*
X46945959Y-84747181D01*
X47114697Y-84325332D01*
X47448388Y-84575600D01*
X47456894Y-84580760D01*
X47476076Y-84585675D01*
X47495678Y-84582874D01*
X47512716Y-84572785D01*
X47524598Y-84556943D01*
X47529513Y-84537762D01*
X47526712Y-84518160D01*
X47516623Y-84501121D01*
X47509288Y-84494400D01*
X47176754Y-84244999D01*
X47509288Y-83995599D01*
X47516624Y-83988878D01*
X47526712Y-83971839D01*
X47529513Y-83952237D01*
X47524598Y-83933055D01*
X47512716Y-83917213D01*
X47495678Y-83907125D01*
X47476077Y-83904324D01*
X47456894Y-83909239D01*
X47448388Y-83914399D01*
X47114697Y-84164667D01*
X46945959Y-83742818D01*
X46941376Y-83733987D01*
X46927546Y-83719816D01*
X46909346Y-83712016D01*
X46889546Y-83711775D01*
X46871159Y-83719128D01*
X46856988Y-83732959D01*
X46849189Y-83751159D01*
X46848947Y-83770958D01*
X46851718Y-83780515D01*
X47017212Y-84194250D01*
X46608839Y-84194250D01*
X46598937Y-84195225D01*
X46580643Y-84202803D01*
X46566642Y-84216804D01*
X46559064Y-84235099D01*
X46333509Y-84235099D01*
X46333509Y-83486219D01*
X47755068Y-83486219D01*
X47755068Y-85003779D01*
G37*
G36*
X47755068Y-45418779D02*
G01*
X46333509Y-45418779D01*
X46333509Y-44650099D01*
X46559064Y-44650099D01*
X46559064Y-44669901D01*
X46566642Y-44688196D01*
X46580643Y-44702197D01*
X46598937Y-44709775D01*
X46608839Y-44710750D01*
X47017212Y-44710750D01*
X46851718Y-45124484D01*
X46848947Y-45134041D01*
X46849189Y-45153840D01*
X46856988Y-45172040D01*
X46871159Y-45185870D01*
X46889546Y-45193224D01*
X46909346Y-45192983D01*
X46927546Y-45185183D01*
X46941376Y-45171012D01*
X46945959Y-45162181D01*
X47114697Y-44740332D01*
X47448388Y-44990600D01*
X47456894Y-44995760D01*
X47476076Y-45000675D01*
X47495678Y-44997874D01*
X47512716Y-44987785D01*
X47524598Y-44971943D01*
X47529513Y-44952762D01*
X47526712Y-44933160D01*
X47516623Y-44916121D01*
X47509288Y-44909400D01*
X47176754Y-44659999D01*
X47509288Y-44410599D01*
X47516624Y-44403878D01*
X47526712Y-44386839D01*
X47529513Y-44367237D01*
X47524598Y-44348055D01*
X47512716Y-44332213D01*
X47495678Y-44322125D01*
X47476077Y-44319324D01*
X47456894Y-44324239D01*
X47448388Y-44329399D01*
X47114697Y-44579667D01*
X46945959Y-44157818D01*
X46941376Y-44148987D01*
X46927546Y-44134816D01*
X46909346Y-44127016D01*
X46889546Y-44126775D01*
X46871159Y-44134128D01*
X46856988Y-44147959D01*
X46849189Y-44166159D01*
X46848947Y-44185958D01*
X46851718Y-44195515D01*
X47017212Y-44609250D01*
X46608839Y-44609250D01*
X46598937Y-44610225D01*
X46580643Y-44617803D01*
X46566642Y-44631804D01*
X46559064Y-44650099D01*
X46333509Y-44650099D01*
X46333509Y-43901219D01*
X47755068Y-43901219D01*
X47755068Y-45418779D01*
G37*
G36*
X76175068Y-45418779D02*
G01*
X74753509Y-45418779D01*
X74753509Y-44650099D01*
X74979064Y-44650099D01*
X74979064Y-44669901D01*
X74986642Y-44688196D01*
X75000643Y-44702197D01*
X75018937Y-44709775D01*
X75028839Y-44710750D01*
X75437212Y-44710750D01*
X75271718Y-45124484D01*
X75268947Y-45134041D01*
X75269189Y-45153840D01*
X75276988Y-45172040D01*
X75291159Y-45185870D01*
X75309546Y-45193224D01*
X75329346Y-45192983D01*
X75347546Y-45185183D01*
X75361376Y-45171012D01*
X75365959Y-45162181D01*
X75534697Y-44740332D01*
X75868388Y-44990600D01*
X75876894Y-44995760D01*
X75896076Y-45000675D01*
X75915678Y-44997874D01*
X75932716Y-44987785D01*
X75944598Y-44971943D01*
X75949513Y-44952762D01*
X75946712Y-44933160D01*
X75936623Y-44916121D01*
X75929288Y-44909400D01*
X75596754Y-44659999D01*
X75929288Y-44410599D01*
X75936624Y-44403878D01*
X75946712Y-44386839D01*
X75949513Y-44367237D01*
X75944598Y-44348055D01*
X75932716Y-44332213D01*
X75915678Y-44322125D01*
X75896077Y-44319324D01*
X75876894Y-44324239D01*
X75868388Y-44329399D01*
X75534697Y-44579667D01*
X75365959Y-44157818D01*
X75361376Y-44148987D01*
X75347546Y-44134816D01*
X75329346Y-44127016D01*
X75309546Y-44126775D01*
X75291159Y-44134128D01*
X75276988Y-44147959D01*
X75269189Y-44166159D01*
X75268947Y-44185958D01*
X75271718Y-44195515D01*
X75437212Y-44609250D01*
X75028839Y-44609250D01*
X75018937Y-44610225D01*
X75000643Y-44617803D01*
X74986642Y-44631804D01*
X74979064Y-44650099D01*
X74753509Y-44650099D01*
X74753509Y-43901219D01*
X76175068Y-43901219D01*
X76175068Y-45418779D01*
G37*
G36*
X76175068Y-85003779D02*
G01*
X74753509Y-85003779D01*
X74753509Y-84235099D01*
X74979064Y-84235099D01*
X74979064Y-84254901D01*
X74986642Y-84273196D01*
X75000643Y-84287197D01*
X75018937Y-84294775D01*
X75028839Y-84295750D01*
X75437212Y-84295750D01*
X75271718Y-84709484D01*
X75268947Y-84719041D01*
X75269189Y-84738840D01*
X75276988Y-84757040D01*
X75291159Y-84770870D01*
X75309546Y-84778224D01*
X75329346Y-84777983D01*
X75347546Y-84770183D01*
X75361376Y-84756012D01*
X75365959Y-84747181D01*
X75534697Y-84325332D01*
X75868388Y-84575600D01*
X75876894Y-84580760D01*
X75896076Y-84585675D01*
X75915678Y-84582874D01*
X75932716Y-84572785D01*
X75944598Y-84556943D01*
X75949513Y-84537762D01*
X75946712Y-84518160D01*
X75936623Y-84501121D01*
X75929288Y-84494400D01*
X75596754Y-84244999D01*
X75929288Y-83995599D01*
X75936624Y-83988878D01*
X75946712Y-83971839D01*
X75949513Y-83952237D01*
X75944598Y-83933055D01*
X75932716Y-83917213D01*
X75915678Y-83907125D01*
X75896077Y-83904324D01*
X75876894Y-83909239D01*
X75868388Y-83914399D01*
X75534697Y-84164667D01*
X75365959Y-83742818D01*
X75361376Y-83733987D01*
X75347546Y-83719816D01*
X75329346Y-83712016D01*
X75309546Y-83711775D01*
X75291159Y-83719128D01*
X75276988Y-83732959D01*
X75269189Y-83751159D01*
X75268947Y-83770958D01*
X75271718Y-83780515D01*
X75437212Y-84194250D01*
X75028839Y-84194250D01*
X75018937Y-84195225D01*
X75000643Y-84202803D01*
X74986642Y-84216804D01*
X74979064Y-84235099D01*
X74753509Y-84235099D01*
X74753509Y-83486219D01*
X76175068Y-83486219D01*
X76175068Y-85003779D01*
G37*
G36*
X48017179Y-98415640D02*
G01*
X46499619Y-98415640D01*
X46499619Y-97859603D01*
X46725175Y-97859603D01*
X46732528Y-97877990D01*
X46746359Y-97892161D01*
X46764559Y-97899960D01*
X46784358Y-97900202D01*
X46793915Y-97897431D01*
X47207650Y-97731936D01*
X47207650Y-98140310D01*
X47208625Y-98150212D01*
X47216203Y-98168506D01*
X47230204Y-98182507D01*
X47248499Y-98190085D01*
X47268301Y-98190085D01*
X47286596Y-98182507D01*
X47300597Y-98168506D01*
X47308175Y-98150212D01*
X47309150Y-98140310D01*
X47309150Y-97731937D01*
X47722884Y-97897431D01*
X47732440Y-97900202D01*
X47752240Y-97899960D01*
X47770439Y-97892161D01*
X47784269Y-97877990D01*
X47791624Y-97859603D01*
X47791383Y-97839803D01*
X47783583Y-97821603D01*
X47769412Y-97807773D01*
X47760580Y-97803190D01*
X47338732Y-97634451D01*
X47589000Y-97300761D01*
X47594160Y-97292255D01*
X47599075Y-97273073D01*
X47596274Y-97253471D01*
X47586185Y-97236433D01*
X47570343Y-97224551D01*
X47551162Y-97219636D01*
X47531560Y-97222437D01*
X47514521Y-97232526D01*
X47507800Y-97239861D01*
X47258399Y-97572394D01*
X47008999Y-97239861D01*
X47002278Y-97232526D01*
X46985239Y-97222437D01*
X46965637Y-97219636D01*
X46946456Y-97224551D01*
X46930614Y-97236433D01*
X46920525Y-97253471D01*
X46917724Y-97273073D01*
X46922639Y-97292255D01*
X46927799Y-97300761D01*
X47178067Y-97634451D01*
X46756218Y-97803190D01*
X46747387Y-97807773D01*
X46733216Y-97821603D01*
X46725416Y-97839803D01*
X46725175Y-97859603D01*
X46499619Y-97859603D01*
X46499619Y-96994081D01*
X48017179Y-96994081D01*
X48017179Y-98415640D01*
G37*
G36*
X54360929Y-88519390D02*
G01*
X52843369Y-88519390D01*
X52843369Y-87963353D01*
X53068925Y-87963353D01*
X53076278Y-87981740D01*
X53090109Y-87995911D01*
X53108309Y-88003710D01*
X53128108Y-88003952D01*
X53137665Y-88001181D01*
X53551400Y-87835686D01*
X53551400Y-88244060D01*
X53552375Y-88253962D01*
X53559953Y-88272256D01*
X53573954Y-88286257D01*
X53592249Y-88293835D01*
X53612051Y-88293835D01*
X53630346Y-88286257D01*
X53644347Y-88272256D01*
X53651925Y-88253962D01*
X53652900Y-88244060D01*
X53652900Y-87835687D01*
X54066634Y-88001181D01*
X54076190Y-88003952D01*
X54095990Y-88003710D01*
X54114189Y-87995911D01*
X54128019Y-87981740D01*
X54135374Y-87963353D01*
X54135133Y-87943553D01*
X54127333Y-87925353D01*
X54113162Y-87911523D01*
X54104330Y-87906940D01*
X53682482Y-87738201D01*
X53932750Y-87404511D01*
X53937910Y-87396005D01*
X53942825Y-87376823D01*
X53940024Y-87357221D01*
X53929935Y-87340183D01*
X53914093Y-87328301D01*
X53894912Y-87323386D01*
X53875310Y-87326187D01*
X53858271Y-87336276D01*
X53851550Y-87343611D01*
X53602149Y-87676144D01*
X53352749Y-87343611D01*
X53346028Y-87336276D01*
X53328989Y-87326187D01*
X53309387Y-87323386D01*
X53290206Y-87328301D01*
X53274364Y-87340183D01*
X53264275Y-87357221D01*
X53261474Y-87376823D01*
X53266389Y-87396005D01*
X53271549Y-87404511D01*
X53521817Y-87738201D01*
X53099968Y-87906940D01*
X53091137Y-87911523D01*
X53076966Y-87925353D01*
X53069166Y-87943553D01*
X53068925Y-87963353D01*
X52843369Y-87963353D01*
X52843369Y-87097831D01*
X54360929Y-87097831D01*
X54360929Y-88519390D01*
G37*
G36*
X50300929Y-108920890D02*
G01*
X48783369Y-108920890D01*
X48783369Y-108364853D01*
X49008925Y-108364853D01*
X49016278Y-108383240D01*
X49030109Y-108397411D01*
X49048309Y-108405210D01*
X49068108Y-108405452D01*
X49077665Y-108402681D01*
X49491400Y-108237186D01*
X49491400Y-108645560D01*
X49492375Y-108655462D01*
X49499953Y-108673756D01*
X49513954Y-108687757D01*
X49532249Y-108695335D01*
X49552051Y-108695335D01*
X49570346Y-108687757D01*
X49584347Y-108673756D01*
X49591925Y-108655462D01*
X49592900Y-108645560D01*
X49592900Y-108237187D01*
X50006634Y-108402681D01*
X50016190Y-108405452D01*
X50035990Y-108405210D01*
X50054189Y-108397411D01*
X50068019Y-108383240D01*
X50075374Y-108364853D01*
X50075133Y-108345053D01*
X50067333Y-108326853D01*
X50053162Y-108313023D01*
X50044330Y-108308440D01*
X49622482Y-108139701D01*
X49872750Y-107806011D01*
X49877910Y-107797505D01*
X49882825Y-107778323D01*
X49880024Y-107758721D01*
X49869935Y-107741683D01*
X49854093Y-107729801D01*
X49834912Y-107724886D01*
X49815310Y-107727687D01*
X49798271Y-107737776D01*
X49791550Y-107745111D01*
X49542149Y-108077644D01*
X49292749Y-107745111D01*
X49286028Y-107737776D01*
X49268989Y-107727687D01*
X49249387Y-107724886D01*
X49230206Y-107729801D01*
X49214364Y-107741683D01*
X49204275Y-107758721D01*
X49201474Y-107778323D01*
X49206389Y-107797505D01*
X49211549Y-107806011D01*
X49461817Y-108139701D01*
X49039968Y-108308440D01*
X49031137Y-108313023D01*
X49016966Y-108326853D01*
X49009166Y-108345053D01*
X49008925Y-108364853D01*
X48783369Y-108364853D01*
X48783369Y-107499331D01*
X50300929Y-107499331D01*
X50300929Y-108920890D01*
G37*
G36*
X79228429Y-102983140D02*
G01*
X77710869Y-102983140D01*
X77710869Y-102427103D01*
X77936425Y-102427103D01*
X77943778Y-102445490D01*
X77957609Y-102459661D01*
X77975809Y-102467460D01*
X77995608Y-102467702D01*
X78005165Y-102464931D01*
X78418900Y-102299436D01*
X78418900Y-102707810D01*
X78419875Y-102717712D01*
X78427453Y-102736006D01*
X78441454Y-102750007D01*
X78459749Y-102757585D01*
X78479551Y-102757585D01*
X78497846Y-102750007D01*
X78511847Y-102736006D01*
X78519425Y-102717712D01*
X78520400Y-102707810D01*
X78520400Y-102299437D01*
X78934134Y-102464931D01*
X78943690Y-102467702D01*
X78963490Y-102467460D01*
X78981689Y-102459661D01*
X78995519Y-102445490D01*
X79002874Y-102427103D01*
X79002633Y-102407303D01*
X78994833Y-102389103D01*
X78980662Y-102375273D01*
X78971830Y-102370690D01*
X78549982Y-102201951D01*
X78800250Y-101868261D01*
X78805410Y-101859755D01*
X78810325Y-101840573D01*
X78807524Y-101820971D01*
X78797435Y-101803933D01*
X78781593Y-101792051D01*
X78762412Y-101787136D01*
X78742810Y-101789937D01*
X78725771Y-101800026D01*
X78719050Y-101807361D01*
X78469649Y-102139894D01*
X78220249Y-101807361D01*
X78213528Y-101800026D01*
X78196489Y-101789937D01*
X78176887Y-101787136D01*
X78157706Y-101792051D01*
X78141864Y-101803933D01*
X78131775Y-101820971D01*
X78128974Y-101840573D01*
X78133889Y-101859755D01*
X78139049Y-101868261D01*
X78389317Y-102201951D01*
X77967468Y-102370690D01*
X77958637Y-102375273D01*
X77944466Y-102389103D01*
X77936666Y-102407303D01*
X77936425Y-102427103D01*
X77710869Y-102427103D01*
X77710869Y-101561581D01*
X79228429Y-101561581D01*
X79228429Y-102983140D01*
G37*
G36*
X81004679Y-88265640D02*
G01*
X79487119Y-88265640D01*
X79487119Y-87709603D01*
X79712675Y-87709603D01*
X79720028Y-87727990D01*
X79733859Y-87742161D01*
X79752059Y-87749960D01*
X79771858Y-87750202D01*
X79781415Y-87747431D01*
X80195150Y-87581936D01*
X80195150Y-87990310D01*
X80196125Y-88000212D01*
X80203703Y-88018506D01*
X80217704Y-88032507D01*
X80235999Y-88040085D01*
X80255801Y-88040085D01*
X80274096Y-88032507D01*
X80288097Y-88018506D01*
X80295675Y-88000212D01*
X80296650Y-87990310D01*
X80296650Y-87581937D01*
X80710384Y-87747431D01*
X80719940Y-87750202D01*
X80739740Y-87749960D01*
X80757939Y-87742161D01*
X80771769Y-87727990D01*
X80779124Y-87709603D01*
X80778883Y-87689803D01*
X80771083Y-87671603D01*
X80756912Y-87657773D01*
X80748080Y-87653190D01*
X80326232Y-87484451D01*
X80576500Y-87150761D01*
X80581660Y-87142255D01*
X80586575Y-87123073D01*
X80583774Y-87103471D01*
X80573685Y-87086433D01*
X80557843Y-87074551D01*
X80538662Y-87069636D01*
X80519060Y-87072437D01*
X80502021Y-87082526D01*
X80495300Y-87089861D01*
X80245899Y-87422394D01*
X79996499Y-87089861D01*
X79989778Y-87082526D01*
X79972739Y-87072437D01*
X79953137Y-87069636D01*
X79933956Y-87074551D01*
X79918114Y-87086433D01*
X79908025Y-87103471D01*
X79905224Y-87123073D01*
X79910139Y-87142255D01*
X79915299Y-87150761D01*
X80165567Y-87484451D01*
X79743718Y-87653190D01*
X79734887Y-87657773D01*
X79720716Y-87671603D01*
X79712916Y-87689803D01*
X79712675Y-87709603D01*
X79487119Y-87709603D01*
X79487119Y-86844081D01*
X81004679Y-86844081D01*
X81004679Y-88265640D01*
G37*
G36*
X51965529Y-27353568D02*
G01*
X50447969Y-27353568D01*
X50447969Y-26488046D01*
X50673525Y-26488046D01*
X50673766Y-26507846D01*
X50681566Y-26526046D01*
X50695737Y-26539876D01*
X50704568Y-26544459D01*
X51126416Y-26713197D01*
X50876149Y-27046888D01*
X50870989Y-27055394D01*
X50866074Y-27074576D01*
X50868875Y-27094178D01*
X50878964Y-27111216D01*
X50894806Y-27123098D01*
X50913987Y-27128013D01*
X50933589Y-27125212D01*
X50950628Y-27115123D01*
X50957349Y-27107788D01*
X51206749Y-26775254D01*
X51456150Y-27107788D01*
X51462871Y-27115124D01*
X51479910Y-27125212D01*
X51499512Y-27128013D01*
X51518694Y-27123098D01*
X51534536Y-27111216D01*
X51544624Y-27094178D01*
X51547425Y-27074577D01*
X51542510Y-27055394D01*
X51537350Y-27046888D01*
X51287081Y-26713197D01*
X51708930Y-26544459D01*
X51717762Y-26539876D01*
X51731933Y-26526046D01*
X51739733Y-26507846D01*
X51739974Y-26488046D01*
X51732619Y-26469659D01*
X51718789Y-26455488D01*
X51700590Y-26447689D01*
X51680790Y-26447447D01*
X51671234Y-26450218D01*
X51257499Y-26615712D01*
X51257499Y-26207339D01*
X51256524Y-26197437D01*
X51248946Y-26179143D01*
X51234945Y-26165142D01*
X51216650Y-26157564D01*
X51196848Y-26157564D01*
X51178553Y-26165142D01*
X51164552Y-26179143D01*
X51156974Y-26197437D01*
X51155999Y-26207339D01*
X51155999Y-26615712D01*
X50742265Y-26450218D01*
X50732708Y-26447447D01*
X50712909Y-26447689D01*
X50694709Y-26455488D01*
X50680878Y-26469659D01*
X50673525Y-26488046D01*
X50447969Y-26488046D01*
X50447969Y-25932009D01*
X51965529Y-25932009D01*
X51965529Y-27353568D01*
G37*
G36*
X50189279Y-42071068D02*
G01*
X48671719Y-42071068D01*
X48671719Y-41205546D01*
X48897275Y-41205546D01*
X48897516Y-41225346D01*
X48905316Y-41243546D01*
X48919487Y-41257376D01*
X48928318Y-41261959D01*
X49350166Y-41430697D01*
X49099899Y-41764388D01*
X49094739Y-41772894D01*
X49089824Y-41792076D01*
X49092625Y-41811678D01*
X49102714Y-41828716D01*
X49118556Y-41840598D01*
X49137737Y-41845513D01*
X49157339Y-41842712D01*
X49174378Y-41832623D01*
X49181099Y-41825288D01*
X49430499Y-41492754D01*
X49679900Y-41825288D01*
X49686621Y-41832624D01*
X49703660Y-41842712D01*
X49723262Y-41845513D01*
X49742444Y-41840598D01*
X49758286Y-41828716D01*
X49768374Y-41811678D01*
X49771175Y-41792077D01*
X49766260Y-41772894D01*
X49761100Y-41764388D01*
X49510831Y-41430697D01*
X49932680Y-41261959D01*
X49941512Y-41257376D01*
X49955683Y-41243546D01*
X49963483Y-41225346D01*
X49963724Y-41205546D01*
X49956369Y-41187159D01*
X49942539Y-41172988D01*
X49924340Y-41165189D01*
X49904540Y-41164947D01*
X49894984Y-41167718D01*
X49481249Y-41333212D01*
X49481249Y-40924839D01*
X49480274Y-40914937D01*
X49472696Y-40896643D01*
X49458695Y-40882642D01*
X49440400Y-40875064D01*
X49420598Y-40875064D01*
X49402303Y-40882642D01*
X49388302Y-40896643D01*
X49380724Y-40914937D01*
X49379749Y-40924839D01*
X49379749Y-41333212D01*
X48966015Y-41167718D01*
X48956458Y-41164947D01*
X48936659Y-41165189D01*
X48918459Y-41172988D01*
X48904628Y-41187159D01*
X48897275Y-41205546D01*
X48671719Y-41205546D01*
X48671719Y-40649509D01*
X50189279Y-40649509D01*
X50189279Y-42071068D01*
G37*
G36*
X76833029Y-41817318D02*
G01*
X75315469Y-41817318D01*
X75315469Y-40951796D01*
X75541025Y-40951796D01*
X75541266Y-40971596D01*
X75549066Y-40989796D01*
X75563237Y-41003626D01*
X75572068Y-41008209D01*
X75993916Y-41176947D01*
X75743649Y-41510638D01*
X75738489Y-41519144D01*
X75733574Y-41538326D01*
X75736375Y-41557928D01*
X75746464Y-41574966D01*
X75762306Y-41586848D01*
X75781487Y-41591763D01*
X75801089Y-41588962D01*
X75818128Y-41578873D01*
X75824849Y-41571538D01*
X76074249Y-41239004D01*
X76323650Y-41571538D01*
X76330371Y-41578874D01*
X76347410Y-41588962D01*
X76367012Y-41591763D01*
X76386194Y-41586848D01*
X76402036Y-41574966D01*
X76412124Y-41557928D01*
X76414925Y-41538327D01*
X76410010Y-41519144D01*
X76404850Y-41510638D01*
X76154581Y-41176947D01*
X76576430Y-41008209D01*
X76585262Y-41003626D01*
X76599433Y-40989796D01*
X76607233Y-40971596D01*
X76607474Y-40951796D01*
X76600119Y-40933409D01*
X76586289Y-40919238D01*
X76568090Y-40911439D01*
X76548290Y-40911197D01*
X76538734Y-40913968D01*
X76124999Y-41079462D01*
X76124999Y-40671089D01*
X76124024Y-40661187D01*
X76116446Y-40642893D01*
X76102445Y-40628892D01*
X76084150Y-40621314D01*
X76064348Y-40621314D01*
X76046053Y-40628892D01*
X76032052Y-40642893D01*
X76024474Y-40661187D01*
X76023499Y-40671089D01*
X76023499Y-41079462D01*
X75609765Y-40913968D01*
X75600208Y-40911197D01*
X75580409Y-40911439D01*
X75562209Y-40919238D01*
X75548378Y-40933409D01*
X75541025Y-40951796D01*
X75315469Y-40951796D01*
X75315469Y-40395759D01*
X76833029Y-40395759D01*
X76833029Y-41817318D01*
G37*
G36*
X80893029Y-21415818D02*
G01*
X79375469Y-21415818D01*
X79375469Y-20550296D01*
X79601025Y-20550296D01*
X79601266Y-20570096D01*
X79609066Y-20588296D01*
X79623237Y-20602126D01*
X79632068Y-20606709D01*
X80053916Y-20775447D01*
X79803649Y-21109138D01*
X79798489Y-21117644D01*
X79793574Y-21136826D01*
X79796375Y-21156428D01*
X79806464Y-21173466D01*
X79822306Y-21185348D01*
X79841487Y-21190263D01*
X79861089Y-21187462D01*
X79878128Y-21177373D01*
X79884849Y-21170038D01*
X80134249Y-20837504D01*
X80383650Y-21170038D01*
X80390371Y-21177374D01*
X80407410Y-21187462D01*
X80427012Y-21190263D01*
X80446194Y-21185348D01*
X80462036Y-21173466D01*
X80472124Y-21156428D01*
X80474925Y-21136827D01*
X80470010Y-21117644D01*
X80464850Y-21109138D01*
X80214581Y-20775447D01*
X80636430Y-20606709D01*
X80645262Y-20602126D01*
X80659433Y-20588296D01*
X80667233Y-20570096D01*
X80667474Y-20550296D01*
X80660119Y-20531909D01*
X80646289Y-20517738D01*
X80628090Y-20509939D01*
X80608290Y-20509697D01*
X80598734Y-20512468D01*
X80184999Y-20677962D01*
X80184999Y-20269589D01*
X80184024Y-20259687D01*
X80176446Y-20241393D01*
X80162445Y-20227392D01*
X80144150Y-20219814D01*
X80124348Y-20219814D01*
X80106053Y-20227392D01*
X80092052Y-20241393D01*
X80084474Y-20259687D01*
X80083499Y-20269589D01*
X80083499Y-20677962D01*
X79669765Y-20512468D01*
X79660208Y-20509697D01*
X79640409Y-20509939D01*
X79622209Y-20517738D01*
X79608378Y-20531909D01*
X79601025Y-20550296D01*
X79375469Y-20550296D01*
X79375469Y-19994259D01*
X80893029Y-19994259D01*
X80893029Y-21415818D01*
G37*
G36*
X83176779Y-31921068D02*
G01*
X81659219Y-31921068D01*
X81659219Y-31055546D01*
X81884775Y-31055546D01*
X81885016Y-31075346D01*
X81892816Y-31093546D01*
X81906987Y-31107376D01*
X81915818Y-31111959D01*
X82337666Y-31280697D01*
X82087399Y-31614388D01*
X82082239Y-31622894D01*
X82077324Y-31642076D01*
X82080125Y-31661678D01*
X82090214Y-31678716D01*
X82106056Y-31690598D01*
X82125237Y-31695513D01*
X82144839Y-31692712D01*
X82161878Y-31682623D01*
X82168599Y-31675288D01*
X82417999Y-31342754D01*
X82667400Y-31675288D01*
X82674121Y-31682624D01*
X82691160Y-31692712D01*
X82710762Y-31695513D01*
X82729944Y-31690598D01*
X82745786Y-31678716D01*
X82755874Y-31661678D01*
X82758675Y-31642077D01*
X82753760Y-31622894D01*
X82748600Y-31614388D01*
X82498331Y-31280697D01*
X82920180Y-31111959D01*
X82929012Y-31107376D01*
X82943183Y-31093546D01*
X82950983Y-31075346D01*
X82951224Y-31055546D01*
X82943869Y-31037159D01*
X82930039Y-31022988D01*
X82911840Y-31015189D01*
X82892040Y-31014947D01*
X82882484Y-31017718D01*
X82468749Y-31183212D01*
X82468749Y-30774839D01*
X82467774Y-30764937D01*
X82460196Y-30746643D01*
X82446195Y-30732642D01*
X82427900Y-30725064D01*
X82408098Y-30725064D01*
X82389803Y-30732642D01*
X82375802Y-30746643D01*
X82368224Y-30764937D01*
X82367249Y-30774839D01*
X82367249Y-31183212D01*
X81953515Y-31017718D01*
X81943958Y-31014947D01*
X81924159Y-31015189D01*
X81905959Y-31022988D01*
X81892128Y-31037159D01*
X81884775Y-31055546D01*
X81659219Y-31055546D01*
X81659219Y-30499509D01*
X83176779Y-30499509D01*
X83176779Y-31921068D01*
G37*
D11*
X115202500Y-64452500D02*
G75*
G02*
X13702500Y-64452500I-50750000J0D01*
G01*
X13702500Y-64452500D02*
G75*
G02*
X115202500Y-64452500I50750000J0D01*
G01*
D12*
X108290736Y-49392507D02*
X109305736Y-49392507D01*
X108290736Y-49875839D02*
X109305736Y-49875839D01*
X109305736Y-49875839D02*
X109305736Y-50262506D01*
X109305736Y-50262506D02*
X109257402Y-50359172D01*
X109257402Y-50359172D02*
X109209069Y-50407506D01*
X109209069Y-50407506D02*
X109112403Y-50455839D01*
X109112403Y-50455839D02*
X108967403Y-50455839D01*
X108967403Y-50455839D02*
X108870736Y-50407506D01*
X108870736Y-50407506D02*
X108822403Y-50359172D01*
X108822403Y-50359172D02*
X108774070Y-50262506D01*
X108774070Y-50262506D02*
X108774070Y-49875839D01*
X108387403Y-50890839D02*
X108339070Y-50939173D01*
X108339070Y-50939173D02*
X108290736Y-50890839D01*
X108290736Y-50890839D02*
X108339070Y-50842506D01*
X108339070Y-50842506D02*
X108387403Y-50890839D01*
X108387403Y-50890839D02*
X108290736Y-50890839D01*
X108822403Y-51712505D02*
X108822403Y-51374172D01*
X108290736Y-51374172D02*
X109305736Y-51374172D01*
X109305736Y-51374172D02*
X109305736Y-51857505D01*
X108290736Y-52389172D02*
X108339070Y-52292506D01*
X108339070Y-52292506D02*
X108435737Y-52244172D01*
X108435737Y-52244172D02*
X109305736Y-52244172D01*
X108290736Y-52920839D02*
X108339070Y-52824173D01*
X108339070Y-52824173D02*
X108387403Y-52775840D01*
X108387403Y-52775840D02*
X108484070Y-52727506D01*
X108484070Y-52727506D02*
X108774070Y-52727506D01*
X108774070Y-52727506D02*
X108870736Y-52775840D01*
X108870736Y-52775840D02*
X108919069Y-52824173D01*
X108919069Y-52824173D02*
X108967403Y-52920839D01*
X108967403Y-52920839D02*
X108967403Y-53065839D01*
X108967403Y-53065839D02*
X108919069Y-53162506D01*
X108919069Y-53162506D02*
X108870736Y-53210839D01*
X108870736Y-53210839D02*
X108774070Y-53259172D01*
X108774070Y-53259172D02*
X108484070Y-53259172D01*
X108484070Y-53259172D02*
X108387403Y-53210839D01*
X108387403Y-53210839D02*
X108339070Y-53162506D01*
X108339070Y-53162506D02*
X108290736Y-53065839D01*
X108290736Y-53065839D02*
X108290736Y-52920839D01*
X108967403Y-53597506D02*
X108290736Y-53790840D01*
X108290736Y-53790840D02*
X108774070Y-53984173D01*
X108774070Y-53984173D02*
X108290736Y-54177506D01*
X108290736Y-54177506D02*
X108967403Y-54370839D01*
X108677403Y-54757506D02*
X108677403Y-55530840D01*
X108290736Y-55144173D02*
X109064069Y-55144173D01*
X108387403Y-56014173D02*
X108339070Y-56062506D01*
X108339070Y-56062506D02*
X108290736Y-56014173D01*
X108290736Y-56014173D02*
X108339070Y-55965839D01*
X108339070Y-55965839D02*
X108387403Y-56014173D01*
X108387403Y-56014173D02*
X108290736Y-56014173D01*
X108290736Y-57077505D02*
X108774070Y-56739172D01*
X108290736Y-56497506D02*
X109305736Y-56497506D01*
X109305736Y-56497506D02*
X109305736Y-56884172D01*
X109305736Y-56884172D02*
X109257402Y-56980838D01*
X109257402Y-56980838D02*
X109209069Y-57029172D01*
X109209069Y-57029172D02*
X109112403Y-57077505D01*
X109112403Y-57077505D02*
X108967403Y-57077505D01*
X108967403Y-57077505D02*
X108870736Y-57029172D01*
X108870736Y-57029172D02*
X108822403Y-56980838D01*
X108822403Y-56980838D02*
X108774070Y-56884172D01*
X108774070Y-56884172D02*
X108774070Y-56497506D01*
X108339070Y-57899172D02*
X108290736Y-57802505D01*
X108290736Y-57802505D02*
X108290736Y-57609172D01*
X108290736Y-57609172D02*
X108339070Y-57512506D01*
X108339070Y-57512506D02*
X108435737Y-57464172D01*
X108435737Y-57464172D02*
X108822403Y-57464172D01*
X108822403Y-57464172D02*
X108919069Y-57512506D01*
X108919069Y-57512506D02*
X108967403Y-57609172D01*
X108967403Y-57609172D02*
X108967403Y-57802505D01*
X108967403Y-57802505D02*
X108919069Y-57899172D01*
X108919069Y-57899172D02*
X108822403Y-57947505D01*
X108822403Y-57947505D02*
X108725736Y-57947505D01*
X108725736Y-57947505D02*
X108629070Y-57464172D01*
X108967403Y-58285839D02*
X108290736Y-58527506D01*
X108290736Y-58527506D02*
X108967403Y-58769172D01*
X109257402Y-60460839D02*
X109305736Y-60364172D01*
X109305736Y-60364172D02*
X109305736Y-60219173D01*
X109305736Y-60219173D02*
X109257402Y-60074173D01*
X109257402Y-60074173D02*
X109160736Y-59977506D01*
X109160736Y-59977506D02*
X109064069Y-59929173D01*
X109064069Y-59929173D02*
X108870736Y-59880840D01*
X108870736Y-59880840D02*
X108725736Y-59880840D01*
X108725736Y-59880840D02*
X108532403Y-59929173D01*
X108532403Y-59929173D02*
X108435737Y-59977506D01*
X108435737Y-59977506D02*
X108339070Y-60074173D01*
X108339070Y-60074173D02*
X108290736Y-60219173D01*
X108290736Y-60219173D02*
X108290736Y-60315839D01*
X108290736Y-60315839D02*
X108339070Y-60460839D01*
X108339070Y-60460839D02*
X108387403Y-60509172D01*
X108387403Y-60509172D02*
X108725736Y-60509172D01*
X108725736Y-60509172D02*
X108725736Y-60315839D01*
X108387403Y-60944173D02*
X108339070Y-60992506D01*
X108339070Y-60992506D02*
X108290736Y-60944173D01*
X108290736Y-60944173D02*
X108339070Y-60895840D01*
X108339070Y-60895840D02*
X108387403Y-60944173D01*
X108387403Y-60944173D02*
X108290736Y-60944173D01*
X109209069Y-61379172D02*
X109257402Y-61427506D01*
X109257402Y-61427506D02*
X109305736Y-61524172D01*
X109305736Y-61524172D02*
X109305736Y-61765839D01*
X109305736Y-61765839D02*
X109257402Y-61862505D01*
X109257402Y-61862505D02*
X109209069Y-61910838D01*
X109209069Y-61910838D02*
X109112403Y-61959172D01*
X109112403Y-61959172D02*
X109015736Y-61959172D01*
X109015736Y-61959172D02*
X108870736Y-61910838D01*
X108870736Y-61910838D02*
X108290736Y-61330839D01*
X108290736Y-61330839D02*
X108290736Y-61959172D01*
X109305736Y-62587506D02*
X109305736Y-62684172D01*
X109305736Y-62684172D02*
X109257402Y-62780839D01*
X109257402Y-62780839D02*
X109209069Y-62829172D01*
X109209069Y-62829172D02*
X109112403Y-62877505D01*
X109112403Y-62877505D02*
X108919069Y-62925838D01*
X108919069Y-62925838D02*
X108677403Y-62925838D01*
X108677403Y-62925838D02*
X108484070Y-62877505D01*
X108484070Y-62877505D02*
X108387403Y-62829172D01*
X108387403Y-62829172D02*
X108339070Y-62780839D01*
X108339070Y-62780839D02*
X108290736Y-62684172D01*
X108290736Y-62684172D02*
X108290736Y-62587506D01*
X108290736Y-62587506D02*
X108339070Y-62490839D01*
X108339070Y-62490839D02*
X108387403Y-62442506D01*
X108387403Y-62442506D02*
X108484070Y-62394172D01*
X108484070Y-62394172D02*
X108677403Y-62345839D01*
X108677403Y-62345839D02*
X108919069Y-62345839D01*
X108919069Y-62345839D02*
X109112403Y-62394172D01*
X109112403Y-62394172D02*
X109209069Y-62442506D01*
X109209069Y-62442506D02*
X109257402Y-62490839D01*
X109257402Y-62490839D02*
X109305736Y-62587506D01*
X109209069Y-63312506D02*
X109257402Y-63360839D01*
X109257402Y-63360839D02*
X109305736Y-63457506D01*
X109305736Y-63457506D02*
X109305736Y-63699172D01*
X109305736Y-63699172D02*
X109257402Y-63795839D01*
X109257402Y-63795839D02*
X109209069Y-63844172D01*
X109209069Y-63844172D02*
X109112403Y-63892505D01*
X109112403Y-63892505D02*
X109015736Y-63892505D01*
X109015736Y-63892505D02*
X108870736Y-63844172D01*
X108870736Y-63844172D02*
X108290736Y-63264173D01*
X108290736Y-63264173D02*
X108290736Y-63892505D01*
X109305736Y-64810839D02*
X109305736Y-64327506D01*
X109305736Y-64327506D02*
X108822403Y-64279173D01*
X108822403Y-64279173D02*
X108870736Y-64327506D01*
X108870736Y-64327506D02*
X108919069Y-64424172D01*
X108919069Y-64424172D02*
X108919069Y-64665839D01*
X108919069Y-64665839D02*
X108870736Y-64762505D01*
X108870736Y-64762505D02*
X108822403Y-64810839D01*
X108822403Y-64810839D02*
X108725736Y-64859172D01*
X108725736Y-64859172D02*
X108484070Y-64859172D01*
X108484070Y-64859172D02*
X108387403Y-64810839D01*
X108387403Y-64810839D02*
X108339070Y-64762505D01*
X108339070Y-64762505D02*
X108290736Y-64665839D01*
X108290736Y-64665839D02*
X108290736Y-64424172D01*
X108290736Y-64424172D02*
X108339070Y-64327506D01*
X108339070Y-64327506D02*
X108387403Y-64279173D01*
X108290736Y-65825839D02*
X108290736Y-65245839D01*
X108290736Y-65535839D02*
X109305736Y-65535839D01*
X109305736Y-65535839D02*
X109160736Y-65439172D01*
X109160736Y-65439172D02*
X109064069Y-65342506D01*
X109064069Y-65342506D02*
X109015736Y-65245839D01*
X109305736Y-66454172D02*
X109305736Y-66550839D01*
X109305736Y-66550839D02*
X109257402Y-66647506D01*
X109257402Y-66647506D02*
X109209069Y-66695839D01*
X109209069Y-66695839D02*
X109112403Y-66744172D01*
X109112403Y-66744172D02*
X108919069Y-66792505D01*
X108919069Y-66792505D02*
X108677403Y-66792505D01*
X108677403Y-66792505D02*
X108484070Y-66744172D01*
X108484070Y-66744172D02*
X108387403Y-66695839D01*
X108387403Y-66695839D02*
X108339070Y-66647506D01*
X108339070Y-66647506D02*
X108290736Y-66550839D01*
X108290736Y-66550839D02*
X108290736Y-66454172D01*
X108290736Y-66454172D02*
X108339070Y-66357506D01*
X108339070Y-66357506D02*
X108387403Y-66309173D01*
X108387403Y-66309173D02*
X108484070Y-66260839D01*
X108484070Y-66260839D02*
X108677403Y-66212506D01*
X108677403Y-66212506D02*
X108919069Y-66212506D01*
X108919069Y-66212506D02*
X109112403Y-66260839D01*
X109112403Y-66260839D02*
X109209069Y-66309173D01*
X109209069Y-66309173D02*
X109257402Y-66357506D01*
X109257402Y-66357506D02*
X109305736Y-66454172D01*
X109209069Y-67179173D02*
X109257402Y-67227506D01*
X109257402Y-67227506D02*
X109305736Y-67324173D01*
X109305736Y-67324173D02*
X109305736Y-67565839D01*
X109305736Y-67565839D02*
X109257402Y-67662506D01*
X109257402Y-67662506D02*
X109209069Y-67710839D01*
X109209069Y-67710839D02*
X109112403Y-67759172D01*
X109112403Y-67759172D02*
X109015736Y-67759172D01*
X109015736Y-67759172D02*
X108870736Y-67710839D01*
X108870736Y-67710839D02*
X108290736Y-67130839D01*
X108290736Y-67130839D02*
X108290736Y-67759172D01*
X108870736Y-68339173D02*
X108919069Y-68242506D01*
X108919069Y-68242506D02*
X108967403Y-68194173D01*
X108967403Y-68194173D02*
X109064069Y-68145839D01*
X109064069Y-68145839D02*
X109112403Y-68145839D01*
X109112403Y-68145839D02*
X109209069Y-68194173D01*
X109209069Y-68194173D02*
X109257402Y-68242506D01*
X109257402Y-68242506D02*
X109305736Y-68339173D01*
X109305736Y-68339173D02*
X109305736Y-68532506D01*
X109305736Y-68532506D02*
X109257402Y-68629172D01*
X109257402Y-68629172D02*
X109209069Y-68677506D01*
X109209069Y-68677506D02*
X109112403Y-68725839D01*
X109112403Y-68725839D02*
X109064069Y-68725839D01*
X109064069Y-68725839D02*
X108967403Y-68677506D01*
X108967403Y-68677506D02*
X108919069Y-68629172D01*
X108919069Y-68629172D02*
X108870736Y-68532506D01*
X108870736Y-68532506D02*
X108870736Y-68339173D01*
X108870736Y-68339173D02*
X108822403Y-68242506D01*
X108822403Y-68242506D02*
X108774070Y-68194173D01*
X108774070Y-68194173D02*
X108677403Y-68145839D01*
X108677403Y-68145839D02*
X108484070Y-68145839D01*
X108484070Y-68145839D02*
X108387403Y-68194173D01*
X108387403Y-68194173D02*
X108339070Y-68242506D01*
X108339070Y-68242506D02*
X108290736Y-68339173D01*
X108290736Y-68339173D02*
X108290736Y-68532506D01*
X108290736Y-68532506D02*
X108339070Y-68629172D01*
X108339070Y-68629172D02*
X108387403Y-68677506D01*
X108387403Y-68677506D02*
X108484070Y-68725839D01*
X108484070Y-68725839D02*
X108677403Y-68725839D01*
X108677403Y-68725839D02*
X108774070Y-68677506D01*
X108774070Y-68677506D02*
X108822403Y-68629172D01*
X108822403Y-68629172D02*
X108870736Y-68532506D01*
X108387403Y-69160839D02*
X108339070Y-69209173D01*
X108339070Y-69209173D02*
X108290736Y-69160839D01*
X108290736Y-69160839D02*
X108339070Y-69112506D01*
X108339070Y-69112506D02*
X108387403Y-69160839D01*
X108387403Y-69160839D02*
X108290736Y-69160839D01*
X108290736Y-70224172D02*
X108774070Y-69885839D01*
X108290736Y-69644172D02*
X109305736Y-69644172D01*
X109305736Y-69644172D02*
X109305736Y-70030838D01*
X109305736Y-70030838D02*
X109257402Y-70127505D01*
X109257402Y-70127505D02*
X109209069Y-70175838D01*
X109209069Y-70175838D02*
X109112403Y-70224172D01*
X109112403Y-70224172D02*
X108967403Y-70224172D01*
X108967403Y-70224172D02*
X108870736Y-70175838D01*
X108870736Y-70175838D02*
X108822403Y-70127505D01*
X108822403Y-70127505D02*
X108774070Y-70030838D01*
X108774070Y-70030838D02*
X108774070Y-69644172D01*
X108290736Y-71239172D02*
X108774070Y-70900839D01*
X108290736Y-70659172D02*
X109305736Y-70659172D01*
X109305736Y-70659172D02*
X109305736Y-71045838D01*
X109305736Y-71045838D02*
X109257402Y-71142505D01*
X109257402Y-71142505D02*
X109209069Y-71190838D01*
X109209069Y-71190838D02*
X109112403Y-71239172D01*
X109112403Y-71239172D02*
X108967403Y-71239172D01*
X108967403Y-71239172D02*
X108870736Y-71190838D01*
X108870736Y-71190838D02*
X108822403Y-71142505D01*
X108822403Y-71142505D02*
X108774070Y-71045838D01*
X108774070Y-71045838D02*
X108774070Y-70659172D01*
X108290736Y-71674172D02*
X109305736Y-71674172D01*
X109305736Y-71674172D02*
X109305736Y-72060838D01*
X109305736Y-72060838D02*
X109257402Y-72157505D01*
X109257402Y-72157505D02*
X109209069Y-72205838D01*
X109209069Y-72205838D02*
X109112403Y-72254172D01*
X109112403Y-72254172D02*
X108967403Y-72254172D01*
X108967403Y-72254172D02*
X108870736Y-72205838D01*
X108870736Y-72205838D02*
X108822403Y-72157505D01*
X108822403Y-72157505D02*
X108774070Y-72060838D01*
X108774070Y-72060838D02*
X108774070Y-71674172D01*
X108967403Y-73124172D02*
X108290736Y-73124172D01*
X108967403Y-72689172D02*
X108435737Y-72689172D01*
X108435737Y-72689172D02*
X108339070Y-72737506D01*
X108339070Y-72737506D02*
X108290736Y-72834172D01*
X108290736Y-72834172D02*
X108290736Y-72979172D01*
X108290736Y-72979172D02*
X108339070Y-73075838D01*
X108339070Y-73075838D02*
X108387403Y-73124172D01*
X108339070Y-74042505D02*
X108290736Y-73945839D01*
X108290736Y-73945839D02*
X108290736Y-73752506D01*
X108290736Y-73752506D02*
X108339070Y-73655839D01*
X108339070Y-73655839D02*
X108387403Y-73607506D01*
X108387403Y-73607506D02*
X108484070Y-73559172D01*
X108484070Y-73559172D02*
X108774070Y-73559172D01*
X108774070Y-73559172D02*
X108870736Y-73607506D01*
X108870736Y-73607506D02*
X108919069Y-73655839D01*
X108919069Y-73655839D02*
X108967403Y-73752506D01*
X108967403Y-73752506D02*
X108967403Y-73945839D01*
X108967403Y-73945839D02*
X108919069Y-74042505D01*
X108339070Y-74912505D02*
X108290736Y-74815839D01*
X108290736Y-74815839D02*
X108290736Y-74622506D01*
X108290736Y-74622506D02*
X108339070Y-74525839D01*
X108339070Y-74525839D02*
X108387403Y-74477506D01*
X108387403Y-74477506D02*
X108484070Y-74429173D01*
X108484070Y-74429173D02*
X108774070Y-74429173D01*
X108774070Y-74429173D02*
X108870736Y-74477506D01*
X108870736Y-74477506D02*
X108919069Y-74525839D01*
X108919069Y-74525839D02*
X108967403Y-74622506D01*
X108967403Y-74622506D02*
X108967403Y-74815839D01*
X108967403Y-74815839D02*
X108919069Y-74912505D01*
X108290736Y-75347506D02*
X108967403Y-75347506D01*
X109305736Y-75347506D02*
X109257402Y-75299173D01*
X109257402Y-75299173D02*
X109209069Y-75347506D01*
X109209069Y-75347506D02*
X109257402Y-75395839D01*
X109257402Y-75395839D02*
X109305736Y-75347506D01*
X109305736Y-75347506D02*
X109209069Y-75347506D01*
X108967403Y-75830839D02*
X108290736Y-75830839D01*
X108870736Y-75830839D02*
X108919069Y-75879172D01*
X108919069Y-75879172D02*
X108967403Y-75975839D01*
X108967403Y-75975839D02*
X108967403Y-76120838D01*
X108967403Y-76120838D02*
X108919069Y-76217505D01*
X108919069Y-76217505D02*
X108822403Y-76265838D01*
X108822403Y-76265838D02*
X108290736Y-76265838D01*
X108339070Y-77135838D02*
X108290736Y-77039172D01*
X108290736Y-77039172D02*
X108290736Y-76845839D01*
X108290736Y-76845839D02*
X108339070Y-76749172D01*
X108339070Y-76749172D02*
X108435737Y-76700839D01*
X108435737Y-76700839D02*
X108822403Y-76700839D01*
X108822403Y-76700839D02*
X108919069Y-76749172D01*
X108919069Y-76749172D02*
X108967403Y-76845839D01*
X108967403Y-76845839D02*
X108967403Y-77039172D01*
X108967403Y-77039172D02*
X108919069Y-77135838D01*
X108919069Y-77135838D02*
X108822403Y-77184172D01*
X108822403Y-77184172D02*
X108725736Y-77184172D01*
X108725736Y-77184172D02*
X108629070Y-76700839D01*
X108290736Y-77764172D02*
X108339070Y-77667506D01*
X108339070Y-77667506D02*
X108435737Y-77619172D01*
X108435737Y-77619172D02*
X109305736Y-77619172D01*
X108290736Y-78295839D02*
X108339070Y-78199173D01*
X108339070Y-78199173D02*
X108435737Y-78150840D01*
X108435737Y-78150840D02*
X109305736Y-78150840D01*
X108290736Y-78682507D02*
X108967403Y-78682507D01*
X109305736Y-78682507D02*
X109257402Y-78634173D01*
X109257402Y-78634173D02*
X109209069Y-78682507D01*
X109209069Y-78682507D02*
X109257402Y-78730840D01*
X109257402Y-78730840D02*
X109305736Y-78682507D01*
X109305736Y-78682507D02*
X109209069Y-78682507D01*
D10*
G36*
X57631018Y-78897539D02*
G01*
X56209459Y-78897539D01*
X56209459Y-78128859D01*
X56435014Y-78128859D01*
X56435014Y-78148661D01*
X56442592Y-78166956D01*
X56456593Y-78180957D01*
X56474887Y-78188535D01*
X56484789Y-78189510D01*
X56893162Y-78189510D01*
X56727668Y-78603244D01*
X56724897Y-78612801D01*
X56725139Y-78632600D01*
X56732938Y-78650800D01*
X56747109Y-78664630D01*
X56765496Y-78671984D01*
X56785296Y-78671743D01*
X56803496Y-78663943D01*
X56817326Y-78649772D01*
X56821909Y-78640941D01*
X56990647Y-78219092D01*
X57324338Y-78469360D01*
X57332844Y-78474520D01*
X57352026Y-78479435D01*
X57371628Y-78476634D01*
X57388666Y-78466545D01*
X57400548Y-78450703D01*
X57405463Y-78431522D01*
X57402662Y-78411920D01*
X57392573Y-78394881D01*
X57385238Y-78388160D01*
X57052704Y-78138759D01*
X57385238Y-77889359D01*
X57392574Y-77882638D01*
X57402662Y-77865599D01*
X57405463Y-77845997D01*
X57400548Y-77826815D01*
X57388666Y-77810973D01*
X57371628Y-77800885D01*
X57352027Y-77798084D01*
X57332844Y-77802999D01*
X57324338Y-77808159D01*
X56990647Y-78058427D01*
X56821909Y-77636578D01*
X56817326Y-77627747D01*
X56803496Y-77613576D01*
X56785296Y-77605776D01*
X56765496Y-77605535D01*
X56747109Y-77612888D01*
X56732938Y-77626719D01*
X56725139Y-77644919D01*
X56724897Y-77664718D01*
X56727668Y-77674275D01*
X56893162Y-78088010D01*
X56484789Y-78088010D01*
X56474887Y-78088985D01*
X56456593Y-78096563D01*
X56442592Y-78110564D01*
X56435014Y-78128859D01*
X56209459Y-78128859D01*
X56209459Y-77379979D01*
X57631018Y-77379979D01*
X57631018Y-78897539D01*
G37*
G36*
X72094768Y-54030039D02*
G01*
X70673209Y-54030039D01*
X70673209Y-53261359D01*
X70898764Y-53261359D01*
X70898764Y-53281161D01*
X70906342Y-53299456D01*
X70920343Y-53313457D01*
X70938637Y-53321035D01*
X70948539Y-53322010D01*
X71356912Y-53322010D01*
X71191418Y-53735744D01*
X71188647Y-53745301D01*
X71188889Y-53765100D01*
X71196688Y-53783300D01*
X71210859Y-53797130D01*
X71229246Y-53804484D01*
X71249046Y-53804243D01*
X71267246Y-53796443D01*
X71281076Y-53782272D01*
X71285659Y-53773441D01*
X71454397Y-53351592D01*
X71788088Y-53601860D01*
X71796594Y-53607020D01*
X71815776Y-53611935D01*
X71835378Y-53609134D01*
X71852416Y-53599045D01*
X71864298Y-53583203D01*
X71869213Y-53564022D01*
X71866412Y-53544420D01*
X71856323Y-53527381D01*
X71848988Y-53520660D01*
X71516454Y-53271259D01*
X71848988Y-53021859D01*
X71856324Y-53015138D01*
X71866412Y-52998099D01*
X71869213Y-52978497D01*
X71864298Y-52959315D01*
X71852416Y-52943473D01*
X71835378Y-52933385D01*
X71815777Y-52930584D01*
X71796594Y-52935499D01*
X71788088Y-52940659D01*
X71454397Y-53190927D01*
X71285659Y-52769078D01*
X71281076Y-52760247D01*
X71267246Y-52746076D01*
X71249046Y-52738276D01*
X71229246Y-52738035D01*
X71210859Y-52745388D01*
X71196688Y-52759219D01*
X71188889Y-52777419D01*
X71188647Y-52797218D01*
X71191418Y-52806775D01*
X71356912Y-53220510D01*
X70948539Y-53220510D01*
X70938637Y-53221485D01*
X70920343Y-53229063D01*
X70906342Y-53243064D01*
X70898764Y-53261359D01*
X70673209Y-53261359D01*
X70673209Y-52512479D01*
X72094768Y-52512479D01*
X72094768Y-54030039D01*
G37*
G36*
X72348518Y-80673789D02*
G01*
X70926959Y-80673789D01*
X70926959Y-79905109D01*
X71152514Y-79905109D01*
X71152514Y-79924911D01*
X71160092Y-79943206D01*
X71174093Y-79957207D01*
X71192387Y-79964785D01*
X71202289Y-79965760D01*
X71610662Y-79965760D01*
X71445168Y-80379494D01*
X71442397Y-80389051D01*
X71442639Y-80408850D01*
X71450438Y-80427050D01*
X71464609Y-80440880D01*
X71482996Y-80448234D01*
X71502796Y-80447993D01*
X71520996Y-80440193D01*
X71534826Y-80426022D01*
X71539409Y-80417191D01*
X71708147Y-79995342D01*
X72041838Y-80245610D01*
X72050344Y-80250770D01*
X72069526Y-80255685D01*
X72089128Y-80252884D01*
X72106166Y-80242795D01*
X72118048Y-80226953D01*
X72122963Y-80207772D01*
X72120162Y-80188170D01*
X72110073Y-80171131D01*
X72102738Y-80164410D01*
X71770204Y-79915009D01*
X72102738Y-79665609D01*
X72110074Y-79658888D01*
X72120162Y-79641849D01*
X72122963Y-79622247D01*
X72118048Y-79603065D01*
X72106166Y-79587223D01*
X72089128Y-79577135D01*
X72069527Y-79574334D01*
X72050344Y-79579249D01*
X72041838Y-79584409D01*
X71708147Y-79834677D01*
X71539409Y-79412828D01*
X71534826Y-79403997D01*
X71520996Y-79389826D01*
X71502796Y-79382026D01*
X71482996Y-79381785D01*
X71464609Y-79389138D01*
X71450438Y-79402969D01*
X71442639Y-79421169D01*
X71442397Y-79440968D01*
X71445168Y-79450525D01*
X71610662Y-79864260D01*
X71202289Y-79864260D01*
X71192387Y-79865235D01*
X71174093Y-79872813D01*
X71160092Y-79886814D01*
X71152514Y-79905109D01*
X70926959Y-79905109D01*
X70926959Y-79156229D01*
X72348518Y-79156229D01*
X72348518Y-80673789D01*
G37*
G36*
X62198518Y-47686289D02*
G01*
X60776959Y-47686289D01*
X60776959Y-46917609D01*
X61002514Y-46917609D01*
X61002514Y-46937411D01*
X61010092Y-46955706D01*
X61024093Y-46969707D01*
X61042387Y-46977285D01*
X61052289Y-46978260D01*
X61460662Y-46978260D01*
X61295168Y-47391994D01*
X61292397Y-47401551D01*
X61292639Y-47421350D01*
X61300438Y-47439550D01*
X61314609Y-47453380D01*
X61332996Y-47460734D01*
X61352796Y-47460493D01*
X61370996Y-47452693D01*
X61384826Y-47438522D01*
X61389409Y-47429691D01*
X61558147Y-47007842D01*
X61891838Y-47258110D01*
X61900344Y-47263270D01*
X61919526Y-47268185D01*
X61939128Y-47265384D01*
X61956166Y-47255295D01*
X61968048Y-47239453D01*
X61972963Y-47220272D01*
X61970162Y-47200670D01*
X61960073Y-47183631D01*
X61952738Y-47176910D01*
X61620204Y-46927509D01*
X61952738Y-46678109D01*
X61960074Y-46671388D01*
X61970162Y-46654349D01*
X61972963Y-46634747D01*
X61968048Y-46615565D01*
X61956166Y-46599723D01*
X61939128Y-46589635D01*
X61919527Y-46586834D01*
X61900344Y-46591749D01*
X61891838Y-46596909D01*
X61558147Y-46847177D01*
X61389409Y-46425328D01*
X61384826Y-46416497D01*
X61370996Y-46402326D01*
X61352796Y-46394526D01*
X61332996Y-46394285D01*
X61314609Y-46401638D01*
X61300438Y-46415469D01*
X61292639Y-46433669D01*
X61292397Y-46453468D01*
X61295168Y-46463025D01*
X61460662Y-46876760D01*
X61052289Y-46876760D01*
X61042387Y-46877735D01*
X61024093Y-46885313D01*
X61010092Y-46899314D01*
X61002514Y-46917609D01*
X60776959Y-46917609D01*
X60776959Y-46168729D01*
X62198518Y-46168729D01*
X62198518Y-47686289D01*
G37*
G36*
X51693268Y-49970039D02*
G01*
X50271709Y-49970039D01*
X50271709Y-49201359D01*
X50497264Y-49201359D01*
X50497264Y-49221161D01*
X50504842Y-49239456D01*
X50518843Y-49253457D01*
X50537137Y-49261035D01*
X50547039Y-49262010D01*
X50955412Y-49262010D01*
X50789918Y-49675744D01*
X50787147Y-49685301D01*
X50787389Y-49705100D01*
X50795188Y-49723300D01*
X50809359Y-49737130D01*
X50827746Y-49744484D01*
X50847546Y-49744243D01*
X50865746Y-49736443D01*
X50879576Y-49722272D01*
X50884159Y-49713441D01*
X51052897Y-49291592D01*
X51386588Y-49541860D01*
X51395094Y-49547020D01*
X51414276Y-49551935D01*
X51433878Y-49549134D01*
X51450916Y-49539045D01*
X51462798Y-49523203D01*
X51467713Y-49504022D01*
X51464912Y-49484420D01*
X51454823Y-49467381D01*
X51447488Y-49460660D01*
X51114954Y-49211259D01*
X51447488Y-48961859D01*
X51454824Y-48955138D01*
X51464912Y-48938099D01*
X51467713Y-48918497D01*
X51462798Y-48899315D01*
X51450916Y-48883473D01*
X51433878Y-48873385D01*
X51414277Y-48870584D01*
X51395094Y-48875499D01*
X51386588Y-48880659D01*
X51052897Y-49130927D01*
X50884159Y-48709078D01*
X50879576Y-48700247D01*
X50865746Y-48686076D01*
X50847546Y-48678276D01*
X50827746Y-48678035D01*
X50809359Y-48685388D01*
X50795188Y-48699219D01*
X50787389Y-48717419D01*
X50787147Y-48737218D01*
X50789918Y-48746775D01*
X50955412Y-49160510D01*
X50547039Y-49160510D01*
X50537137Y-49161485D01*
X50518843Y-49169063D01*
X50504842Y-49183064D01*
X50497264Y-49201359D01*
X50271709Y-49201359D01*
X50271709Y-48452479D01*
X51693268Y-48452479D01*
X51693268Y-49970039D01*
G37*
G36*
X29211018Y-78897539D02*
G01*
X27789459Y-78897539D01*
X27789459Y-78128859D01*
X28015014Y-78128859D01*
X28015014Y-78148661D01*
X28022592Y-78166956D01*
X28036593Y-78180957D01*
X28054887Y-78188535D01*
X28064789Y-78189510D01*
X28473162Y-78189510D01*
X28307668Y-78603244D01*
X28304897Y-78612801D01*
X28305139Y-78632600D01*
X28312938Y-78650800D01*
X28327109Y-78664630D01*
X28345496Y-78671984D01*
X28365296Y-78671743D01*
X28383496Y-78663943D01*
X28397326Y-78649772D01*
X28401909Y-78640941D01*
X28570647Y-78219092D01*
X28904338Y-78469360D01*
X28912844Y-78474520D01*
X28932026Y-78479435D01*
X28951628Y-78476634D01*
X28968666Y-78466545D01*
X28980548Y-78450703D01*
X28985463Y-78431522D01*
X28982662Y-78411920D01*
X28972573Y-78394881D01*
X28965238Y-78388160D01*
X28632704Y-78138759D01*
X28965238Y-77889359D01*
X28972574Y-77882638D01*
X28982662Y-77865599D01*
X28985463Y-77845997D01*
X28980548Y-77826815D01*
X28968666Y-77810973D01*
X28951628Y-77800885D01*
X28932027Y-77798084D01*
X28912844Y-77802999D01*
X28904338Y-77808159D01*
X28570647Y-78058427D01*
X28401909Y-77636578D01*
X28397326Y-77627747D01*
X28383496Y-77613576D01*
X28365296Y-77605776D01*
X28345496Y-77605535D01*
X28327109Y-77612888D01*
X28312938Y-77626719D01*
X28305139Y-77644919D01*
X28304897Y-77664718D01*
X28307668Y-77674275D01*
X28473162Y-78088010D01*
X28064789Y-78088010D01*
X28054887Y-78088985D01*
X28036593Y-78096563D01*
X28022592Y-78110564D01*
X28015014Y-78128859D01*
X27789459Y-78128859D01*
X27789459Y-77379979D01*
X29211018Y-77379979D01*
X29211018Y-78897539D01*
G37*
G36*
X43674768Y-54030039D02*
G01*
X42253209Y-54030039D01*
X42253209Y-53261359D01*
X42478764Y-53261359D01*
X42478764Y-53281161D01*
X42486342Y-53299456D01*
X42500343Y-53313457D01*
X42518637Y-53321035D01*
X42528539Y-53322010D01*
X42936912Y-53322010D01*
X42771418Y-53735744D01*
X42768647Y-53745301D01*
X42768889Y-53765100D01*
X42776688Y-53783300D01*
X42790859Y-53797130D01*
X42809246Y-53804484D01*
X42829046Y-53804243D01*
X42847246Y-53796443D01*
X42861076Y-53782272D01*
X42865659Y-53773441D01*
X43034397Y-53351592D01*
X43368088Y-53601860D01*
X43376594Y-53607020D01*
X43395776Y-53611935D01*
X43415378Y-53609134D01*
X43432416Y-53599045D01*
X43444298Y-53583203D01*
X43449213Y-53564022D01*
X43446412Y-53544420D01*
X43436323Y-53527381D01*
X43428988Y-53520660D01*
X43096454Y-53271259D01*
X43428988Y-53021859D01*
X43436324Y-53015138D01*
X43446412Y-52998099D01*
X43449213Y-52978497D01*
X43444298Y-52959315D01*
X43432416Y-52943473D01*
X43415378Y-52933385D01*
X43395777Y-52930584D01*
X43376594Y-52935499D01*
X43368088Y-52940659D01*
X43034397Y-53190927D01*
X42865659Y-52769078D01*
X42861076Y-52760247D01*
X42847246Y-52746076D01*
X42829046Y-52738276D01*
X42809246Y-52738035D01*
X42790859Y-52745388D01*
X42776688Y-52759219D01*
X42768889Y-52777419D01*
X42768647Y-52797218D01*
X42771418Y-52806775D01*
X42936912Y-53220510D01*
X42528539Y-53220510D01*
X42518637Y-53221485D01*
X42500343Y-53229063D01*
X42486342Y-53243064D01*
X42478764Y-53261359D01*
X42253209Y-53261359D01*
X42253209Y-52512479D01*
X43674768Y-52512479D01*
X43674768Y-54030039D01*
G37*
G36*
X43928518Y-80673789D02*
G01*
X42506959Y-80673789D01*
X42506959Y-79905109D01*
X42732514Y-79905109D01*
X42732514Y-79924911D01*
X42740092Y-79943206D01*
X42754093Y-79957207D01*
X42772387Y-79964785D01*
X42782289Y-79965760D01*
X43190662Y-79965760D01*
X43025168Y-80379494D01*
X43022397Y-80389051D01*
X43022639Y-80408850D01*
X43030438Y-80427050D01*
X43044609Y-80440880D01*
X43062996Y-80448234D01*
X43082796Y-80447993D01*
X43100996Y-80440193D01*
X43114826Y-80426022D01*
X43119409Y-80417191D01*
X43288147Y-79995342D01*
X43621838Y-80245610D01*
X43630344Y-80250770D01*
X43649526Y-80255685D01*
X43669128Y-80252884D01*
X43686166Y-80242795D01*
X43698048Y-80226953D01*
X43702963Y-80207772D01*
X43700162Y-80188170D01*
X43690073Y-80171131D01*
X43682738Y-80164410D01*
X43350204Y-79915009D01*
X43682738Y-79665609D01*
X43690074Y-79658888D01*
X43700162Y-79641849D01*
X43702963Y-79622247D01*
X43698048Y-79603065D01*
X43686166Y-79587223D01*
X43669128Y-79577135D01*
X43649527Y-79574334D01*
X43630344Y-79579249D01*
X43621838Y-79584409D01*
X43288147Y-79834677D01*
X43119409Y-79412828D01*
X43114826Y-79403997D01*
X43100996Y-79389826D01*
X43082796Y-79382026D01*
X43062996Y-79381785D01*
X43044609Y-79389138D01*
X43030438Y-79402969D01*
X43022639Y-79421169D01*
X43022397Y-79440968D01*
X43025168Y-79450525D01*
X43190662Y-79864260D01*
X42782289Y-79864260D01*
X42772387Y-79865235D01*
X42754093Y-79872813D01*
X42740092Y-79886814D01*
X42732514Y-79905109D01*
X42506959Y-79905109D01*
X42506959Y-79156229D01*
X43928518Y-79156229D01*
X43928518Y-80673789D01*
G37*
G36*
X33778518Y-47686289D02*
G01*
X32356959Y-47686289D01*
X32356959Y-46917609D01*
X32582514Y-46917609D01*
X32582514Y-46937411D01*
X32590092Y-46955706D01*
X32604093Y-46969707D01*
X32622387Y-46977285D01*
X32632289Y-46978260D01*
X33040662Y-46978260D01*
X32875168Y-47391994D01*
X32872397Y-47401551D01*
X32872639Y-47421350D01*
X32880438Y-47439550D01*
X32894609Y-47453380D01*
X32912996Y-47460734D01*
X32932796Y-47460493D01*
X32950996Y-47452693D01*
X32964826Y-47438522D01*
X32969409Y-47429691D01*
X33138147Y-47007842D01*
X33471838Y-47258110D01*
X33480344Y-47263270D01*
X33499526Y-47268185D01*
X33519128Y-47265384D01*
X33536166Y-47255295D01*
X33548048Y-47239453D01*
X33552963Y-47220272D01*
X33550162Y-47200670D01*
X33540073Y-47183631D01*
X33532738Y-47176910D01*
X33200204Y-46927509D01*
X33532738Y-46678109D01*
X33540074Y-46671388D01*
X33550162Y-46654349D01*
X33552963Y-46634747D01*
X33548048Y-46615565D01*
X33536166Y-46599723D01*
X33519128Y-46589635D01*
X33499527Y-46586834D01*
X33480344Y-46591749D01*
X33471838Y-46596909D01*
X33138147Y-46847177D01*
X32969409Y-46425328D01*
X32964826Y-46416497D01*
X32950996Y-46402326D01*
X32932796Y-46394526D01*
X32912996Y-46394285D01*
X32894609Y-46401638D01*
X32880438Y-46415469D01*
X32872639Y-46433669D01*
X32872397Y-46453468D01*
X32875168Y-46463025D01*
X33040662Y-46876760D01*
X32632289Y-46876760D01*
X32622387Y-46877735D01*
X32604093Y-46885313D01*
X32590092Y-46899314D01*
X32582514Y-46917609D01*
X32356959Y-46917609D01*
X32356959Y-46168729D01*
X33778518Y-46168729D01*
X33778518Y-47686289D01*
G37*
G36*
X23273268Y-49970039D02*
G01*
X21851709Y-49970039D01*
X21851709Y-49201359D01*
X22077264Y-49201359D01*
X22077264Y-49221161D01*
X22084842Y-49239456D01*
X22098843Y-49253457D01*
X22117137Y-49261035D01*
X22127039Y-49262010D01*
X22535412Y-49262010D01*
X22369918Y-49675744D01*
X22367147Y-49685301D01*
X22367389Y-49705100D01*
X22375188Y-49723300D01*
X22389359Y-49737130D01*
X22407746Y-49744484D01*
X22427546Y-49744243D01*
X22445746Y-49736443D01*
X22459576Y-49722272D01*
X22464159Y-49713441D01*
X22632897Y-49291592D01*
X22966588Y-49541860D01*
X22975094Y-49547020D01*
X22994276Y-49551935D01*
X23013878Y-49549134D01*
X23030916Y-49539045D01*
X23042798Y-49523203D01*
X23047713Y-49504022D01*
X23044912Y-49484420D01*
X23034823Y-49467381D01*
X23027488Y-49460660D01*
X22694954Y-49211259D01*
X23027488Y-48961859D01*
X23034824Y-48955138D01*
X23044912Y-48938099D01*
X23047713Y-48918497D01*
X23042798Y-48899315D01*
X23030916Y-48883473D01*
X23013878Y-48873385D01*
X22994277Y-48870584D01*
X22975094Y-48875499D01*
X22966588Y-48880659D01*
X22632897Y-49130927D01*
X22464159Y-48709078D01*
X22459576Y-48700247D01*
X22445746Y-48686076D01*
X22427546Y-48678276D01*
X22407746Y-48678035D01*
X22389359Y-48685388D01*
X22375188Y-48699219D01*
X22367389Y-48717419D01*
X22367147Y-48737218D01*
X22369918Y-48746775D01*
X22535412Y-49160510D01*
X22127039Y-49160510D01*
X22117137Y-49161485D01*
X22098843Y-49169063D01*
X22084842Y-49183064D01*
X22077264Y-49201359D01*
X21851709Y-49201359D01*
X21851709Y-48452479D01*
X23273268Y-48452479D01*
X23273268Y-49970039D01*
G37*
G36*
X80113268Y-49970039D02*
G01*
X78691709Y-49970039D01*
X78691709Y-49201359D01*
X78917264Y-49201359D01*
X78917264Y-49221161D01*
X78924842Y-49239456D01*
X78938843Y-49253457D01*
X78957137Y-49261035D01*
X78967039Y-49262010D01*
X79375412Y-49262010D01*
X79209918Y-49675744D01*
X79207147Y-49685301D01*
X79207389Y-49705100D01*
X79215188Y-49723300D01*
X79229359Y-49737130D01*
X79247746Y-49744484D01*
X79267546Y-49744243D01*
X79285746Y-49736443D01*
X79299576Y-49722272D01*
X79304159Y-49713441D01*
X79472897Y-49291592D01*
X79806588Y-49541860D01*
X79815094Y-49547020D01*
X79834276Y-49551935D01*
X79853878Y-49549134D01*
X79870916Y-49539045D01*
X79882798Y-49523203D01*
X79887713Y-49504022D01*
X79884912Y-49484420D01*
X79874823Y-49467381D01*
X79867488Y-49460660D01*
X79534954Y-49211259D01*
X79867488Y-48961859D01*
X79874824Y-48955138D01*
X79884912Y-48938099D01*
X79887713Y-48918497D01*
X79882798Y-48899315D01*
X79870916Y-48883473D01*
X79853878Y-48873385D01*
X79834277Y-48870584D01*
X79815094Y-48875499D01*
X79806588Y-48880659D01*
X79472897Y-49130927D01*
X79304159Y-48709078D01*
X79299576Y-48700247D01*
X79285746Y-48686076D01*
X79267546Y-48678276D01*
X79247746Y-48678035D01*
X79229359Y-48685388D01*
X79215188Y-48699219D01*
X79207389Y-48717419D01*
X79207147Y-48737218D01*
X79209918Y-48746775D01*
X79375412Y-49160510D01*
X78967039Y-49160510D01*
X78957137Y-49161485D01*
X78938843Y-49169063D01*
X78924842Y-49183064D01*
X78917264Y-49201359D01*
X78691709Y-49201359D01*
X78691709Y-48452479D01*
X80113268Y-48452479D01*
X80113268Y-49970039D01*
G37*
G36*
X90618518Y-47686289D02*
G01*
X89196959Y-47686289D01*
X89196959Y-46917609D01*
X89422514Y-46917609D01*
X89422514Y-46937411D01*
X89430092Y-46955706D01*
X89444093Y-46969707D01*
X89462387Y-46977285D01*
X89472289Y-46978260D01*
X89880662Y-46978260D01*
X89715168Y-47391994D01*
X89712397Y-47401551D01*
X89712639Y-47421350D01*
X89720438Y-47439550D01*
X89734609Y-47453380D01*
X89752996Y-47460734D01*
X89772796Y-47460493D01*
X89790996Y-47452693D01*
X89804826Y-47438522D01*
X89809409Y-47429691D01*
X89978147Y-47007842D01*
X90311838Y-47258110D01*
X90320344Y-47263270D01*
X90339526Y-47268185D01*
X90359128Y-47265384D01*
X90376166Y-47255295D01*
X90388048Y-47239453D01*
X90392963Y-47220272D01*
X90390162Y-47200670D01*
X90380073Y-47183631D01*
X90372738Y-47176910D01*
X90040204Y-46927509D01*
X90372738Y-46678109D01*
X90380074Y-46671388D01*
X90390162Y-46654349D01*
X90392963Y-46634747D01*
X90388048Y-46615565D01*
X90376166Y-46599723D01*
X90359128Y-46589635D01*
X90339527Y-46586834D01*
X90320344Y-46591749D01*
X90311838Y-46596909D01*
X89978147Y-46847177D01*
X89809409Y-46425328D01*
X89804826Y-46416497D01*
X89790996Y-46402326D01*
X89772796Y-46394526D01*
X89752996Y-46394285D01*
X89734609Y-46401638D01*
X89720438Y-46415469D01*
X89712639Y-46433669D01*
X89712397Y-46453468D01*
X89715168Y-46463025D01*
X89880662Y-46876760D01*
X89472289Y-46876760D01*
X89462387Y-46877735D01*
X89444093Y-46885313D01*
X89430092Y-46899314D01*
X89422514Y-46917609D01*
X89196959Y-46917609D01*
X89196959Y-46168729D01*
X90618518Y-46168729D01*
X90618518Y-47686289D01*
G37*
G36*
X100768518Y-80673789D02*
G01*
X99346959Y-80673789D01*
X99346959Y-79905109D01*
X99572514Y-79905109D01*
X99572514Y-79924911D01*
X99580092Y-79943206D01*
X99594093Y-79957207D01*
X99612387Y-79964785D01*
X99622289Y-79965760D01*
X100030662Y-79965760D01*
X99865168Y-80379494D01*
X99862397Y-80389051D01*
X99862639Y-80408850D01*
X99870438Y-80427050D01*
X99884609Y-80440880D01*
X99902996Y-80448234D01*
X99922796Y-80447993D01*
X99940996Y-80440193D01*
X99954826Y-80426022D01*
X99959409Y-80417191D01*
X100128147Y-79995342D01*
X100461838Y-80245610D01*
X100470344Y-80250770D01*
X100489526Y-80255685D01*
X100509128Y-80252884D01*
X100526166Y-80242795D01*
X100538048Y-80226953D01*
X100542963Y-80207772D01*
X100540162Y-80188170D01*
X100530073Y-80171131D01*
X100522738Y-80164410D01*
X100190204Y-79915009D01*
X100522738Y-79665609D01*
X100530074Y-79658888D01*
X100540162Y-79641849D01*
X100542963Y-79622247D01*
X100538048Y-79603065D01*
X100526166Y-79587223D01*
X100509128Y-79577135D01*
X100489527Y-79574334D01*
X100470344Y-79579249D01*
X100461838Y-79584409D01*
X100128147Y-79834677D01*
X99959409Y-79412828D01*
X99954826Y-79403997D01*
X99940996Y-79389826D01*
X99922796Y-79382026D01*
X99902996Y-79381785D01*
X99884609Y-79389138D01*
X99870438Y-79402969D01*
X99862639Y-79421169D01*
X99862397Y-79440968D01*
X99865168Y-79450525D01*
X100030662Y-79864260D01*
X99622289Y-79864260D01*
X99612387Y-79865235D01*
X99594093Y-79872813D01*
X99580092Y-79886814D01*
X99572514Y-79905109D01*
X99346959Y-79905109D01*
X99346959Y-79156229D01*
X100768518Y-79156229D01*
X100768518Y-80673789D01*
G37*
G36*
X100514768Y-54030039D02*
G01*
X99093209Y-54030039D01*
X99093209Y-53261359D01*
X99318764Y-53261359D01*
X99318764Y-53281161D01*
X99326342Y-53299456D01*
X99340343Y-53313457D01*
X99358637Y-53321035D01*
X99368539Y-53322010D01*
X99776912Y-53322010D01*
X99611418Y-53735744D01*
X99608647Y-53745301D01*
X99608889Y-53765100D01*
X99616688Y-53783300D01*
X99630859Y-53797130D01*
X99649246Y-53804484D01*
X99669046Y-53804243D01*
X99687246Y-53796443D01*
X99701076Y-53782272D01*
X99705659Y-53773441D01*
X99874397Y-53351592D01*
X100208088Y-53601860D01*
X100216594Y-53607020D01*
X100235776Y-53611935D01*
X100255378Y-53609134D01*
X100272416Y-53599045D01*
X100284298Y-53583203D01*
X100289213Y-53564022D01*
X100286412Y-53544420D01*
X100276323Y-53527381D01*
X100268988Y-53520660D01*
X99936454Y-53271259D01*
X100268988Y-53021859D01*
X100276324Y-53015138D01*
X100286412Y-52998099D01*
X100289213Y-52978497D01*
X100284298Y-52959315D01*
X100272416Y-52943473D01*
X100255378Y-52933385D01*
X100235777Y-52930584D01*
X100216594Y-52935499D01*
X100208088Y-52940659D01*
X99874397Y-53190927D01*
X99705659Y-52769078D01*
X99701076Y-52760247D01*
X99687246Y-52746076D01*
X99669046Y-52738276D01*
X99649246Y-52738035D01*
X99630859Y-52745388D01*
X99616688Y-52759219D01*
X99608889Y-52777419D01*
X99608647Y-52797218D01*
X99611418Y-52806775D01*
X99776912Y-53220510D01*
X99368539Y-53220510D01*
X99358637Y-53221485D01*
X99340343Y-53229063D01*
X99326342Y-53243064D01*
X99318764Y-53261359D01*
X99093209Y-53261359D01*
X99093209Y-52512479D01*
X100514768Y-52512479D01*
X100514768Y-54030039D01*
G37*
G36*
X86051018Y-78897539D02*
G01*
X84629459Y-78897539D01*
X84629459Y-78128859D01*
X84855014Y-78128859D01*
X84855014Y-78148661D01*
X84862592Y-78166956D01*
X84876593Y-78180957D01*
X84894887Y-78188535D01*
X84904789Y-78189510D01*
X85313162Y-78189510D01*
X85147668Y-78603244D01*
X85144897Y-78612801D01*
X85145139Y-78632600D01*
X85152938Y-78650800D01*
X85167109Y-78664630D01*
X85185496Y-78671984D01*
X85205296Y-78671743D01*
X85223496Y-78663943D01*
X85237326Y-78649772D01*
X85241909Y-78640941D01*
X85410647Y-78219092D01*
X85744338Y-78469360D01*
X85752844Y-78474520D01*
X85772026Y-78479435D01*
X85791628Y-78476634D01*
X85808666Y-78466545D01*
X85820548Y-78450703D01*
X85825463Y-78431522D01*
X85822662Y-78411920D01*
X85812573Y-78394881D01*
X85805238Y-78388160D01*
X85472704Y-78138759D01*
X85805238Y-77889359D01*
X85812574Y-77882638D01*
X85822662Y-77865599D01*
X85825463Y-77845997D01*
X85820548Y-77826815D01*
X85808666Y-77810973D01*
X85791628Y-77800885D01*
X85772027Y-77798084D01*
X85752844Y-77802999D01*
X85744338Y-77808159D01*
X85410647Y-78058427D01*
X85241909Y-77636578D01*
X85237326Y-77627747D01*
X85223496Y-77613576D01*
X85205296Y-77605776D01*
X85185496Y-77605535D01*
X85167109Y-77612888D01*
X85152938Y-77626719D01*
X85145139Y-77644919D01*
X85144897Y-77664718D01*
X85147668Y-77674275D01*
X85313162Y-78088010D01*
X84904789Y-78088010D01*
X84894887Y-78088985D01*
X84876593Y-78096563D01*
X84862592Y-78110564D01*
X84855014Y-78128859D01*
X84629459Y-78128859D01*
X84629459Y-77379979D01*
X86051018Y-77379979D01*
X86051018Y-78897539D01*
G37*
D13*
G36*
X95882255Y-91416342D02*
G01*
X95918800Y-91440973D01*
X95969662Y-91498245D01*
X95995324Y-91561957D01*
X95995225Y-91629684D01*
X95975612Y-91686344D01*
X95935387Y-91740468D01*
X95882412Y-91775499D01*
X95822165Y-91791625D01*
X95760125Y-91789039D01*
X95701772Y-91767930D01*
X95652585Y-91728488D01*
X95619232Y-91673950D01*
X95600532Y-91611520D01*
X95601567Y-91559553D01*
X95623353Y-91509361D01*
X95641428Y-91483413D01*
X95694867Y-91431310D01*
X95755682Y-91402325D01*
X95819578Y-91397117D01*
X95882255Y-91416342D01*
G37*
G36*
X95826957Y-92471212D02*
G01*
X95858531Y-92476974D01*
X95883324Y-92490951D01*
X95911328Y-92516719D01*
X95912704Y-92518094D01*
X95953929Y-92575098D01*
X95972873Y-92636991D01*
X95971567Y-92699221D01*
X95952040Y-92757242D01*
X95916326Y-92806500D01*
X95866452Y-92842446D01*
X95804450Y-92860530D01*
X95759819Y-92860678D01*
X95694754Y-92844063D01*
X95643512Y-92807212D01*
X95602108Y-92747214D01*
X95600636Y-92744362D01*
X95580463Y-92700566D01*
X95573200Y-92666917D01*
X95577431Y-92630926D01*
X95584705Y-92603677D01*
X95601561Y-92569816D01*
X95630381Y-92531521D01*
X95644509Y-92516625D01*
X95673140Y-92491009D01*
X95698467Y-92477044D01*
X95730558Y-92471234D01*
X95778610Y-92470085D01*
X95826957Y-92471212D01*
G37*
G36*
X95032338Y-91956431D02*
G01*
X95082320Y-91975329D01*
X95124020Y-92009246D01*
X95152950Y-92055690D01*
X95164628Y-92112170D01*
X95156610Y-92169747D01*
X95128790Y-92222969D01*
X95085818Y-92260156D01*
X95033624Y-92280534D01*
X94978132Y-92283328D01*
X94925269Y-92267763D01*
X94880965Y-92233064D01*
X94863732Y-92208040D01*
X94840598Y-92165863D01*
X94605513Y-92172662D01*
X94520659Y-92174358D01*
X94448374Y-92174311D01*
X94392608Y-92172613D01*
X94357313Y-92169354D01*
X94347703Y-92166742D01*
X94328289Y-92143007D01*
X94327741Y-92112463D01*
X94341720Y-92091857D01*
X94359992Y-92087138D01*
X94400408Y-92082164D01*
X94458337Y-92077331D01*
X94529147Y-92073032D01*
X94598811Y-92069989D01*
X94839162Y-92061329D01*
X94877548Y-92014759D01*
X94925466Y-91973655D01*
X94978558Y-91955043D01*
X95032338Y-91956431D01*
G37*
G36*
X92423524Y-92994465D02*
G01*
X92511283Y-93000414D01*
X92586290Y-93011920D01*
X92655491Y-93030376D01*
X92725830Y-93057172D01*
X92793173Y-93088263D01*
X92902507Y-93152933D01*
X92990919Y-93228705D01*
X93057820Y-93313171D01*
X93102620Y-93403924D01*
X93124735Y-93498555D01*
X93123574Y-93594659D01*
X93098552Y-93689827D01*
X93049080Y-93781651D01*
X92981772Y-93860808D01*
X92879426Y-93942715D01*
X92759976Y-94007513D01*
X92627291Y-94054754D01*
X92485237Y-94083991D01*
X92337681Y-94094780D01*
X92188493Y-94086672D01*
X92041538Y-94059223D01*
X91900683Y-94011984D01*
X91854150Y-93990987D01*
X91742614Y-93925871D01*
X91651792Y-93849267D01*
X91583098Y-93762975D01*
X91537941Y-93668795D01*
X91517739Y-93568530D01*
X91517309Y-93561593D01*
X91517880Y-93499432D01*
X91525046Y-93442022D01*
X91530977Y-93418615D01*
X91577292Y-93319630D01*
X91647738Y-93230156D01*
X91741028Y-93151256D01*
X91855871Y-93083996D01*
X91990982Y-93029441D01*
X92008509Y-93023795D01*
X92051505Y-93011316D01*
X92091853Y-93002620D01*
X92135911Y-92997062D01*
X92190038Y-92993999D01*
X92260592Y-92992787D01*
X92316070Y-92992684D01*
X92423524Y-92994465D01*
G37*
G36*
X95612337Y-89039039D02*
G01*
X95638565Y-89069671D01*
X95643617Y-89084097D01*
X95646024Y-89107107D01*
X95648020Y-89153042D01*
X95649540Y-89218042D01*
X95650519Y-89298250D01*
X95650894Y-89389807D01*
X95650599Y-89488853D01*
X95650545Y-89496900D01*
X95649855Y-89618554D01*
X95649360Y-89753253D01*
X95649077Y-89892177D01*
X95649019Y-90026504D01*
X95649201Y-90147412D01*
X95649393Y-90201572D01*
X95650858Y-90531248D01*
X95754652Y-90568762D01*
X95793830Y-90583007D01*
X95853944Y-90604975D01*
X95930795Y-90633127D01*
X96020186Y-90665922D01*
X96117918Y-90701823D01*
X96219794Y-90739289D01*
X96247531Y-90749497D01*
X96636616Y-90892718D01*
X97144844Y-90902537D01*
X97281193Y-90905244D01*
X97393162Y-90907831D01*
X97483152Y-90910657D01*
X97553563Y-90914082D01*
X97606798Y-90918464D01*
X97645257Y-90924159D01*
X97671341Y-90931529D01*
X97687450Y-90940930D01*
X97695987Y-90952721D01*
X97699352Y-90967261D01*
X97699946Y-90984908D01*
X97699946Y-90985414D01*
X97695643Y-90999855D01*
X97681097Y-91019011D01*
X97653850Y-91045067D01*
X97611447Y-91080215D01*
X97551431Y-91126646D01*
X97489010Y-91173440D01*
X97407424Y-91234160D01*
X97317878Y-91300942D01*
X97228458Y-91367746D01*
X97147248Y-91428537D01*
X97102941Y-91461779D01*
X96927806Y-91593343D01*
X96945331Y-91676807D01*
X96970868Y-91838497D01*
X96984057Y-92015573D01*
X96985016Y-92199710D01*
X96973865Y-92382588D01*
X96950723Y-92555884D01*
X96931348Y-92650887D01*
X96930113Y-92666023D01*
X96936075Y-92681512D01*
X96952408Y-92700652D01*
X96982283Y-92726744D01*
X97028873Y-92763083D01*
X97066616Y-92791511D01*
X97207812Y-92897318D01*
X97328407Y-92987957D01*
X97429358Y-93064163D01*
X97511620Y-93126668D01*
X97576152Y-93176201D01*
X97623909Y-93213496D01*
X97655846Y-93239285D01*
X97672921Y-93254299D01*
X97676179Y-93257986D01*
X97686248Y-93295984D01*
X97674895Y-93333989D01*
X97656788Y-93353246D01*
X97645963Y-93358727D01*
X97628973Y-93363176D01*
X97603220Y-93366699D01*
X97566108Y-93369397D01*
X97515037Y-93371371D01*
X97447411Y-93372727D01*
X97360631Y-93373564D01*
X97252100Y-93373985D01*
X97128271Y-93374095D01*
X96998906Y-93374159D01*
X96893413Y-93374446D01*
X96808876Y-93375102D01*
X96742378Y-93376269D01*
X96691007Y-93378090D01*
X96651846Y-93380710D01*
X96621981Y-93384273D01*
X96598498Y-93388921D01*
X96578480Y-93394799D01*
X96559013Y-93402051D01*
X96558712Y-93402171D01*
X96520971Y-93416692D01*
X96463161Y-93438382D01*
X96389578Y-93465671D01*
X96304521Y-93496994D01*
X96212286Y-93530785D01*
X96117175Y-93565479D01*
X96023482Y-93599509D01*
X95935508Y-93631309D01*
X95857548Y-93659313D01*
X95793902Y-93681954D01*
X95748868Y-93697669D01*
X95734359Y-93702541D01*
X95694159Y-93717160D01*
X95665527Y-93730397D01*
X95656862Y-93736818D01*
X95655488Y-93752079D01*
X95654233Y-93791492D01*
X95653122Y-93852425D01*
X95652179Y-93932244D01*
X95651430Y-94028319D01*
X95650899Y-94138015D01*
X95650612Y-94258701D01*
X95650594Y-94387743D01*
X95650605Y-94398592D01*
X95650499Y-94570348D01*
X95649779Y-94717764D01*
X95648451Y-94840428D01*
X95646523Y-94937931D01*
X95644006Y-95009865D01*
X95640905Y-95055821D01*
X95637393Y-95075105D01*
X95607758Y-95109963D01*
X95571382Y-95121057D01*
X95536122Y-95109096D01*
X95503538Y-95087746D01*
X95503538Y-94437075D01*
X95503407Y-94282828D01*
X95502983Y-94153527D01*
X95502217Y-94047334D01*
X95501062Y-93962409D01*
X95499469Y-93896915D01*
X95497393Y-93849013D01*
X95494783Y-93816864D01*
X95491593Y-93798630D01*
X95487775Y-93792473D01*
X95486798Y-93792573D01*
X95466419Y-93799545D01*
X95428428Y-93812129D01*
X95380706Y-93827718D01*
X95376308Y-93829145D01*
X95329042Y-93845315D01*
X95291866Y-93859586D01*
X95272155Y-93869110D01*
X95271411Y-93869707D01*
X95266558Y-93876154D01*
X95262618Y-93887532D01*
X95259477Y-93906512D01*
X95257022Y-93935766D01*
X95255141Y-93977965D01*
X95253722Y-94035780D01*
X95252653Y-94111885D01*
X95251818Y-94208949D01*
X95251108Y-94329645D01*
X95250984Y-94354155D01*
X95250247Y-94467897D01*
X95249185Y-94557789D01*
X95247631Y-94626763D01*
X95245420Y-94677753D01*
X95242384Y-94713694D01*
X95238357Y-94737518D01*
X95233174Y-94752159D01*
X95228031Y-94759286D01*
X95192566Y-94778619D01*
X95152532Y-94772176D01*
X95134534Y-94761383D01*
X95127249Y-94754969D01*
X95121524Y-94745643D01*
X95117211Y-94730488D01*
X95114168Y-94706587D01*
X95112250Y-94671020D01*
X95111311Y-94620870D01*
X95111207Y-94553219D01*
X95111794Y-94465149D01*
X95112925Y-94353741D01*
X95113176Y-94330888D01*
X95114314Y-94212703D01*
X95114767Y-94118814D01*
X95114453Y-94046738D01*
X95113290Y-93993994D01*
X95111194Y-93958096D01*
X95108084Y-93936564D01*
X95103877Y-93926914D01*
X95099699Y-93926069D01*
X95078852Y-93932888D01*
X95039914Y-93944875D01*
X94990505Y-93959692D01*
X94979381Y-93962983D01*
X94877095Y-93993167D01*
X94871815Y-94173855D01*
X94869251Y-94247977D01*
X94866154Y-94299911D01*
X94861814Y-94334254D01*
X94855517Y-94355605D01*
X94846554Y-94368559D01*
X94840963Y-94373242D01*
X94800006Y-94390653D01*
X94762199Y-94382292D01*
X94747806Y-94370896D01*
X94737895Y-94354953D01*
X94731500Y-94327645D01*
X94728001Y-94284127D01*
X94726785Y-94219560D01*
X94726760Y-94205719D01*
X94726153Y-94146319D01*
X94724510Y-94097453D01*
X94722097Y-94064942D01*
X94719820Y-94054647D01*
X94705574Y-94056453D01*
X94669674Y-94065433D01*
X94615945Y-94080500D01*
X94548214Y-94100571D01*
X94470306Y-94124559D01*
X94441920Y-94133496D01*
X94121370Y-94232177D01*
X93802309Y-94324915D01*
X93487375Y-94411099D01*
X93179203Y-94490116D01*
X92880429Y-94561352D01*
X92593690Y-94624197D01*
X92321620Y-94678038D01*
X92066858Y-94722262D01*
X91832039Y-94756258D01*
X91689837Y-94772735D01*
X91410330Y-94792819D01*
X91148611Y-94793878D01*
X90904860Y-94775963D01*
X90679256Y-94739126D01*
X90471976Y-94683417D01*
X90283203Y-94608889D01*
X90113113Y-94515591D01*
X89961885Y-94403577D01*
X89829697Y-94272897D01*
X89792745Y-94228768D01*
X89755715Y-94178876D01*
X89715710Y-94118982D01*
X89675600Y-94054126D01*
X89638254Y-93989349D01*
X89606541Y-93929692D01*
X89583329Y-93880195D01*
X89571488Y-93845899D01*
X89570560Y-93838374D01*
X89564834Y-93812490D01*
X89551640Y-93780310D01*
X89539286Y-93748531D01*
X89524532Y-93700490D01*
X89510419Y-93646152D01*
X89509436Y-93641949D01*
X89497898Y-93593646D01*
X89488425Y-93556659D01*
X89482753Y-93537707D01*
X89482218Y-93536661D01*
X89470683Y-93542337D01*
X89442079Y-93561346D01*
X89400630Y-93590764D01*
X89350553Y-93627666D01*
X89346970Y-93630352D01*
X89159024Y-93787067D01*
X88992805Y-93958316D01*
X88848892Y-94142849D01*
X88727864Y-94339418D01*
X88630302Y-94546773D01*
X88556785Y-94763664D01*
X88507891Y-94988844D01*
X88484200Y-95221063D01*
X88486292Y-95459070D01*
X88487913Y-95482756D01*
X88514729Y-95701854D01*
X88561836Y-95918172D01*
X88627616Y-96126307D01*
X88710450Y-96320855D01*
X88774730Y-96440986D01*
X88816331Y-96523094D01*
X88837927Y-96596253D01*
X88841039Y-96667458D01*
X88834192Y-96714466D01*
X88803946Y-96799744D01*
X88754069Y-96870568D01*
X88688671Y-96924897D01*
X88611859Y-96960686D01*
X88527740Y-96975893D01*
X88440420Y-96968477D01*
X88370962Y-96944854D01*
X88325950Y-96919711D01*
X88285957Y-96886911D01*
X88247952Y-96842600D01*
X88208905Y-96782924D01*
X88165786Y-96704028D01*
X88138047Y-96648617D01*
X88057619Y-96469578D01*
X87986724Y-96282254D01*
X87927624Y-96093779D01*
X87882578Y-95911284D01*
X87855965Y-95758378D01*
X87848485Y-95705851D01*
X87841660Y-95663990D01*
X87836618Y-95639518D01*
X87835441Y-95636234D01*
X87832104Y-95617861D01*
X87829276Y-95577539D01*
X87826998Y-95520103D01*
X87825313Y-95450387D01*
X87824260Y-95373225D01*
X87824049Y-95328572D01*
X87968776Y-95328572D01*
X87969064Y-95406658D01*
X87970033Y-95478842D01*
X87971676Y-95540412D01*
X87973989Y-95586651D01*
X87976965Y-95612842D01*
X87978438Y-95616757D01*
X87993713Y-95616751D01*
X88025970Y-95609862D01*
X88051111Y-95602751D01*
X88097124Y-95592012D01*
X88157934Y-95582271D01*
X88221564Y-95575393D01*
X88231288Y-95574679D01*
X88345126Y-95566945D01*
X88345414Y-95310914D01*
X88346109Y-95210171D01*
X88348264Y-95129627D01*
X88352372Y-95062712D01*
X88358926Y-95002859D01*
X88368416Y-94943498D01*
X88375818Y-94904923D01*
X88437336Y-94663773D01*
X88522389Y-94435333D01*
X88630762Y-94219923D01*
X88762242Y-94017864D01*
X88916614Y-93829475D01*
X89093663Y-93655079D01*
X89293178Y-93494996D01*
X89338013Y-93463155D01*
X89446980Y-93387392D01*
X89440058Y-93183201D01*
X89437441Y-93112280D01*
X89434789Y-93051495D01*
X89432343Y-93005564D01*
X89430340Y-92979203D01*
X89429543Y-92974783D01*
X89414636Y-92976804D01*
X89381774Y-92992490D01*
X89334488Y-93019514D01*
X89276311Y-93055545D01*
X89210774Y-93098257D01*
X89141409Y-93145324D01*
X89071748Y-93194414D01*
X89005323Y-93243203D01*
X88945665Y-93289363D01*
X88918150Y-93311836D01*
X88716126Y-93496695D01*
X88538105Y-93693390D01*
X88383895Y-93902274D01*
X88253301Y-94123697D01*
X88146129Y-94358008D01*
X88062187Y-94605562D01*
X88001279Y-94866706D01*
X87977736Y-95014703D01*
X87974538Y-95051551D01*
X87972050Y-95106077D01*
X87970263Y-95173566D01*
X87969174Y-95249303D01*
X87968776Y-95328572D01*
X87824049Y-95328572D01*
X87823884Y-95293449D01*
X87824225Y-95215892D01*
X87825323Y-95145392D01*
X87827222Y-95086777D01*
X87829964Y-95044885D01*
X87830320Y-95041489D01*
X87871166Y-94784733D01*
X87935628Y-94532058D01*
X88022345Y-94286971D01*
X88129950Y-94052977D01*
X88257080Y-93833584D01*
X88354920Y-93693281D01*
X88416118Y-93617189D01*
X88492490Y-93530396D01*
X88578236Y-93438862D01*
X88667559Y-93348549D01*
X88754661Y-93265419D01*
X88833742Y-93195430D01*
X88860484Y-93173522D01*
X88942598Y-93111225D01*
X89037937Y-93043902D01*
X89138612Y-92976772D01*
X89236738Y-92915055D01*
X89324424Y-92863970D01*
X89345449Y-92852591D01*
X89429543Y-92808015D01*
X89432346Y-92806529D01*
X89441186Y-92224283D01*
X89443168Y-92084919D01*
X89444995Y-91939499D01*
X89446617Y-91793371D01*
X89447981Y-91651885D01*
X89448685Y-91564250D01*
X89582899Y-91564250D01*
X89655768Y-91556729D01*
X89731355Y-91553351D01*
X89790126Y-91562699D01*
X89839977Y-91587174D01*
X89886470Y-91626820D01*
X89928776Y-91679289D01*
X89946196Y-91726628D01*
X89938461Y-91767699D01*
X89924511Y-91786100D01*
X89899069Y-91803675D01*
X89872829Y-91802129D01*
X89840970Y-91780006D01*
X89813821Y-91752666D01*
X89773901Y-91715696D01*
X89735589Y-91696464D01*
X89708463Y-91690802D01*
X89674038Y-91687925D01*
X89652055Y-91694578D01*
X89632296Y-91715971D01*
X89618030Y-91736879D01*
X89598703Y-91769758D01*
X89588629Y-91800632D01*
X89585586Y-91839811D01*
X89586651Y-91882448D01*
X89590650Y-91974555D01*
X90406360Y-91978007D01*
X90589775Y-91978941D01*
X90747637Y-91980097D01*
X90881174Y-91981503D01*
X90991617Y-91983186D01*
X91080195Y-91985176D01*
X91148140Y-91987499D01*
X91196680Y-91990185D01*
X91227047Y-91993259D01*
X91240470Y-91996751D01*
X91240740Y-91996956D01*
X91253242Y-92021234D01*
X91255380Y-92053465D01*
X91253773Y-92068668D01*
X91250872Y-92081672D01*
X91244737Y-92092625D01*
X91233426Y-92101676D01*
X91215000Y-92108970D01*
X91187515Y-92114657D01*
X91149032Y-92118884D01*
X91097609Y-92121798D01*
X91031306Y-92123546D01*
X90948182Y-92124277D01*
X90846294Y-92124137D01*
X90723703Y-92123276D01*
X90578467Y-92121839D01*
X90408646Y-92119975D01*
X90384169Y-92119704D01*
X89583953Y-92110837D01*
X89583953Y-92207422D01*
X89588589Y-92283816D01*
X89603580Y-92338691D01*
X89630544Y-92375845D01*
X89664638Y-92396561D01*
X89697660Y-92406485D01*
X89727085Y-92402625D01*
X89752564Y-92391854D01*
X89787492Y-92368407D01*
X89812098Y-92340059D01*
X89813903Y-92336517D01*
X89839278Y-92304972D01*
X89872923Y-92291734D01*
X89906805Y-92296683D01*
X89932892Y-92319695D01*
X89940636Y-92338464D01*
X89939382Y-92384490D01*
X89916870Y-92434664D01*
X89876447Y-92482558D01*
X89857004Y-92498888D01*
X89829648Y-92517923D01*
X89803790Y-92529323D01*
X89771259Y-92535012D01*
X89723881Y-92536916D01*
X89694948Y-92537049D01*
X89582969Y-92537049D01*
X89586810Y-92644191D01*
X89590650Y-92751332D01*
X89649843Y-92755562D01*
X89694187Y-92756476D01*
X89732106Y-92753568D01*
X89739998Y-92752021D01*
X89782513Y-92731149D01*
X89826042Y-92693920D01*
X89861927Y-92648952D01*
X89879253Y-92613388D01*
X89894908Y-92576488D01*
X89913140Y-92549778D01*
X89916113Y-92547094D01*
X89927541Y-92542960D01*
X89951705Y-92539507D01*
X89990455Y-92536688D01*
X90045645Y-92534454D01*
X90119126Y-92532757D01*
X90212750Y-92531549D01*
X90328371Y-92530782D01*
X90467839Y-92530408D01*
X90561202Y-92530353D01*
X90708980Y-92530444D01*
X90832278Y-92530767D01*
X90933398Y-92531394D01*
X91014647Y-92532401D01*
X91078326Y-92533858D01*
X91126742Y-92535843D01*
X91162198Y-92538425D01*
X91186997Y-92541680D01*
X91203444Y-92545681D01*
X91213844Y-92550501D01*
X91214886Y-92551201D01*
X91237979Y-92579959D01*
X91244870Y-92615831D01*
X91235206Y-92648520D01*
X91218746Y-92663809D01*
X91198034Y-92667523D01*
X91151283Y-92670686D01*
X91079233Y-92673281D01*
X90982624Y-92675292D01*
X90862196Y-92676701D01*
X90718691Y-92677493D01*
X90596887Y-92677673D01*
X90455145Y-92677692D01*
X90337835Y-92677825D01*
X90242604Y-92678180D01*
X90167098Y-92678868D01*
X90108965Y-92680000D01*
X90065850Y-92681684D01*
X90035402Y-92684030D01*
X90015266Y-92687149D01*
X90003089Y-92691151D01*
X89996519Y-92696145D01*
X89993200Y-92702242D01*
X89991961Y-92705938D01*
X89970039Y-92745711D01*
X89931250Y-92790434D01*
X89882743Y-92833198D01*
X89831667Y-92867088D01*
X89818325Y-92873838D01*
X89747943Y-92897708D01*
X89668867Y-92905215D01*
X89667658Y-92905219D01*
X89583953Y-92905349D01*
X89583953Y-93105271D01*
X89588042Y-93273173D01*
X89601147Y-93421271D01*
X89624521Y-93555394D01*
X89659422Y-93681374D01*
X89707104Y-93805040D01*
X89757128Y-93909804D01*
X89846559Y-94061503D01*
X89949655Y-94194271D01*
X90067674Y-94308824D01*
X90201876Y-94405885D01*
X90353517Y-94486171D01*
X90523854Y-94550403D01*
X90714145Y-94599298D01*
X90925650Y-94633579D01*
X91043760Y-94645810D01*
X91197994Y-94652842D01*
X91374931Y-94649703D01*
X91572616Y-94636673D01*
X91789093Y-94614034D01*
X92022404Y-94582069D01*
X92270594Y-94541061D01*
X92531707Y-94491290D01*
X92803784Y-94433040D01*
X93084870Y-94366594D01*
X93226208Y-94330895D01*
X93375816Y-94291378D01*
X93545731Y-94244856D01*
X93730851Y-94192802D01*
X93926074Y-94136686D01*
X94126296Y-94077980D01*
X94326417Y-94018154D01*
X94521334Y-93958679D01*
X94576092Y-93941726D01*
X94726760Y-93894923D01*
X94726760Y-93608032D01*
X94726760Y-93321141D01*
X94759586Y-93299632D01*
X94800137Y-93285461D01*
X94835915Y-93295312D01*
X94860728Y-93327387D01*
X94861454Y-93329238D01*
X94865547Y-93353078D01*
X94869086Y-93398666D01*
X94871840Y-93460962D01*
X94873577Y-93534932D01*
X94874080Y-93603546D01*
X94874169Y-93689145D01*
X94874717Y-93751467D01*
X94876147Y-93794018D01*
X94878877Y-93820308D01*
X94883333Y-93833843D01*
X94889933Y-93838131D01*
X94899101Y-93836682D01*
X94901995Y-93835786D01*
X94928610Y-93827091D01*
X94971234Y-93812919D01*
X95019181Y-93796825D01*
X95108453Y-93766725D01*
X95112125Y-93543722D01*
X95113618Y-93461607D01*
X95115372Y-93402128D01*
X95117981Y-93361134D01*
X95122043Y-93334476D01*
X95128153Y-93318007D01*
X95136904Y-93307577D01*
X95147067Y-93300227D01*
X95187204Y-93287568D01*
X95225569Y-93300514D01*
X95245303Y-93319694D01*
X95253240Y-93344129D01*
X95258631Y-93394083D01*
X95261512Y-93470005D01*
X95262043Y-93524762D01*
X95262936Y-93591503D01*
X95265088Y-93647457D01*
X95268209Y-93687788D01*
X95272002Y-93707661D01*
X95273261Y-93708913D01*
X95290040Y-93704595D01*
X95325334Y-93693095D01*
X95372561Y-93676590D01*
X95390293Y-93670179D01*
X95440536Y-93651135D01*
X95474825Y-93633583D01*
X95495907Y-93612213D01*
X95506529Y-93581717D01*
X95509440Y-93536787D01*
X95507386Y-93472112D01*
X95506129Y-93446372D01*
X95503677Y-93388382D01*
X95504006Y-93351026D01*
X95508192Y-93328207D01*
X95517314Y-93313829D01*
X95531582Y-93302400D01*
X95567799Y-93283267D01*
X95596962Y-93286048D01*
X95624073Y-93307131D01*
X95637222Y-93324102D01*
X95645291Y-93347104D01*
X95649435Y-93382498D01*
X95650812Y-93436642D01*
X95650858Y-93454451D01*
X95651952Y-93507531D01*
X95654881Y-93548685D01*
X95659119Y-93571936D01*
X95661493Y-93574986D01*
X95678225Y-93570487D01*
X95716262Y-93557904D01*
X95771847Y-93538606D01*
X95841227Y-93513962D01*
X95920641Y-93485341D01*
X96006336Y-93454113D01*
X96094554Y-93421647D01*
X96181538Y-93389314D01*
X96263534Y-93358480D01*
X96336783Y-93330516D01*
X96397530Y-93306792D01*
X96400851Y-93305471D01*
X96581653Y-93233471D01*
X96990132Y-93226775D01*
X97398609Y-93220079D01*
X97094131Y-92992402D01*
X97011315Y-92929725D01*
X96937414Y-92872329D01*
X96874978Y-92822302D01*
X96826558Y-92781728D01*
X96794708Y-92752690D01*
X96781974Y-92737278D01*
X96781959Y-92737227D01*
X96781517Y-92713153D01*
X96786392Y-92669838D01*
X96795665Y-92614087D01*
X96804602Y-92569818D01*
X96814865Y-92519409D01*
X96822556Y-92472351D01*
X96828033Y-92423454D01*
X96831653Y-92367529D01*
X96833770Y-92299389D01*
X96834743Y-92213844D01*
X96834937Y-92128571D01*
X96834614Y-92024772D01*
X96833417Y-91942610D01*
X96830994Y-91876939D01*
X96827000Y-91822615D01*
X96821086Y-91774495D01*
X96812907Y-91727435D01*
X96805372Y-91691106D01*
X96793760Y-91632240D01*
X96785956Y-91581746D01*
X96782856Y-91546196D01*
X96783930Y-91533811D01*
X96797180Y-91518974D01*
X96828519Y-91491709D01*
X96874118Y-91454984D01*
X96930147Y-91411767D01*
X96992778Y-91365027D01*
X97058179Y-91317730D01*
X97105670Y-91284423D01*
X97126844Y-91268959D01*
X97164132Y-91240916D01*
X97212480Y-91204125D01*
X97266831Y-91162415D01*
X97273080Y-91157599D01*
X97412002Y-91050456D01*
X97003524Y-91043329D01*
X96595046Y-91036201D01*
X96414244Y-90964418D01*
X96345164Y-90937577D01*
X96257934Y-90904578D01*
X96159697Y-90868073D01*
X96057597Y-90830712D01*
X95958779Y-90795146D01*
X95942150Y-90789232D01*
X95650858Y-90685829D01*
X95650858Y-90750956D01*
X95643643Y-90806072D01*
X95623811Y-90844819D01*
X95594088Y-90863604D01*
X95566469Y-90862290D01*
X95534902Y-90846611D01*
X95515396Y-90818964D01*
X95505714Y-90774331D01*
X95503538Y-90720971D01*
X95503538Y-90630979D01*
X95383004Y-90590554D01*
X95262470Y-90550128D01*
X95262470Y-90675314D01*
X95261591Y-90732793D01*
X95259238Y-90781688D01*
X95255836Y-90814668D01*
X95253947Y-90822711D01*
X95230976Y-90849629D01*
X95194961Y-90861236D01*
X95156464Y-90854878D01*
X95146824Y-90849612D01*
X95133561Y-90839621D01*
X95124632Y-90826910D01*
X95119182Y-90806478D01*
X95116356Y-90773328D01*
X95115298Y-90722460D01*
X95115150Y-90664519D01*
X95115150Y-90500179D01*
X95003862Y-90463936D01*
X94952820Y-90447638D01*
X94911787Y-90435140D01*
X94887170Y-90428368D01*
X94883328Y-90427695D01*
X94879979Y-90440281D01*
X94877172Y-90474822D01*
X94875146Y-90526486D01*
X94874145Y-90590443D01*
X94874080Y-90612213D01*
X94873415Y-90691725D01*
X94871134Y-90748885D01*
X94866810Y-90788096D01*
X94860011Y-90813764D01*
X94853232Y-90826496D01*
X94824724Y-90848699D01*
X94787663Y-90856337D01*
X94753674Y-90848152D01*
X94742128Y-90838552D01*
X94736186Y-90818062D01*
X94731089Y-90773667D01*
X94727054Y-90708240D01*
X94724298Y-90624655D01*
X94723746Y-90596005D01*
X94720064Y-90371169D01*
X94535197Y-90313477D01*
X94350330Y-90255785D01*
X94247254Y-90329783D01*
X94092922Y-90426494D01*
X93936257Y-90496871D01*
X93777709Y-90540822D01*
X93617733Y-90558250D01*
X93456777Y-90549066D01*
X93322440Y-90521075D01*
X93163422Y-90463345D01*
X93014966Y-90382087D01*
X92879245Y-90279208D01*
X92758430Y-90156620D01*
X92654695Y-90016229D01*
X92570329Y-89860204D01*
X92532525Y-89776828D01*
X92340592Y-89740602D01*
X92255273Y-89725086D01*
X92162231Y-89709177D01*
X92065225Y-89693414D01*
X91968010Y-89678338D01*
X91874346Y-89664488D01*
X91787989Y-89652404D01*
X91712696Y-89642627D01*
X91652226Y-89635697D01*
X91610337Y-89632153D01*
X91590784Y-89632537D01*
X91590288Y-89632759D01*
X91583188Y-89648100D01*
X91575665Y-89680946D01*
X91572436Y-89701451D01*
X91544677Y-89842226D01*
X91499579Y-89993046D01*
X91440199Y-90146603D01*
X91369600Y-90295581D01*
X91290838Y-90432670D01*
X91229076Y-90522190D01*
X91105207Y-90667967D01*
X90971733Y-90790319D01*
X90830103Y-90888901D01*
X90681765Y-90963364D01*
X90528168Y-91013362D01*
X90370763Y-91038545D01*
X90210996Y-91038567D01*
X90050320Y-91013079D01*
X89890181Y-90961734D01*
X89732029Y-90884183D01*
X89728706Y-90882251D01*
X89680862Y-90855669D01*
X89642449Y-90836818D01*
X89618612Y-90828087D01*
X89613424Y-90828753D01*
X89607605Y-90855767D01*
X89601196Y-90901748D01*
X89594994Y-90958915D01*
X89589798Y-91019488D01*
X89586410Y-91075683D01*
X89585651Y-91099215D01*
X89583953Y-91188152D01*
X89681643Y-91193085D01*
X89775520Y-91206180D01*
X89854219Y-91236878D01*
X89922067Y-91287896D01*
X89983388Y-91361950D01*
X90005824Y-91396607D01*
X90011269Y-91401896D01*
X90022131Y-91406364D01*
X90040730Y-91410129D01*
X90069385Y-91413303D01*
X90110414Y-91416002D01*
X90166135Y-91418343D01*
X90238870Y-91420439D01*
X90330935Y-91422407D01*
X90444649Y-91424361D01*
X90582332Y-91426416D01*
X90615193Y-91426881D01*
X90757591Y-91428941D01*
X90875617Y-91430838D01*
X90971683Y-91432700D01*
X91048200Y-91434659D01*
X91107578Y-91436842D01*
X91152231Y-91439380D01*
X91184570Y-91442401D01*
X91207006Y-91446034D01*
X91221951Y-91450408D01*
X91231816Y-91455653D01*
X91237293Y-91460200D01*
X91254966Y-91484328D01*
X91253555Y-91512372D01*
X91250367Y-91522261D01*
X91237315Y-91559380D01*
X90601480Y-91563093D01*
X90472594Y-91563695D01*
X90351232Y-91563971D01*
X90240157Y-91563935D01*
X90142137Y-91563603D01*
X90059937Y-91562987D01*
X89996322Y-91562104D01*
X89954059Y-91560966D01*
X89936113Y-91559641D01*
X89908687Y-91539738D01*
X89893377Y-91504657D01*
X89863401Y-91437613D01*
X89816948Y-91383858D01*
X89759159Y-91346876D01*
X89695171Y-91330152D01*
X89641663Y-91334001D01*
X89590650Y-91346029D01*
X89586774Y-91455140D01*
X89582899Y-91564250D01*
X89448685Y-91564250D01*
X89449037Y-91520389D01*
X89449734Y-91404230D01*
X89450021Y-91308756D01*
X89450026Y-91297355D01*
X89451389Y-91143195D01*
X89455855Y-91011042D01*
X89463986Y-90896237D01*
X89476346Y-90794124D01*
X89493498Y-90700044D01*
X89516006Y-90609338D01*
X89544299Y-90517746D01*
X89620419Y-90328441D01*
X89715550Y-90157935D01*
X89829531Y-90006319D01*
X89962205Y-89873684D01*
X90113410Y-89760120D01*
X90282989Y-89665718D01*
X90470783Y-89590571D01*
X90676630Y-89534768D01*
X90900372Y-89498399D01*
X91141851Y-89481558D01*
X91357677Y-89482546D01*
X91508116Y-89489695D01*
X91610337Y-89497142D01*
X91659043Y-89500690D01*
X91812661Y-89515948D01*
X91971173Y-89535883D01*
X92136779Y-89560910D01*
X92311684Y-89591446D01*
X92498089Y-89627904D01*
X92698196Y-89670701D01*
X92914207Y-89720252D01*
X93148326Y-89776972D01*
X93402754Y-89841277D01*
X93679693Y-89913581D01*
X93769180Y-89937344D01*
X93842524Y-89957516D01*
X93936793Y-89984424D01*
X94047385Y-90016698D01*
X94169695Y-90052968D01*
X94299120Y-90091864D01*
X94431056Y-90132016D01*
X94560899Y-90172054D01*
X94622967Y-90191405D01*
X94726760Y-90223895D01*
X94726760Y-90012023D01*
X94727189Y-89929047D01*
X94728720Y-89868816D01*
X94731716Y-89827296D01*
X94736542Y-89800456D01*
X94743562Y-89784265D01*
X94747806Y-89779104D01*
X94783265Y-89759771D01*
X94823311Y-89766223D01*
X94841387Y-89777062D01*
X94850435Y-89785534D01*
X94857497Y-89798256D01*
X94862845Y-89818401D01*
X94866748Y-89849141D01*
X94869474Y-89893649D01*
X94871294Y-89955099D01*
X94872476Y-90036662D01*
X94873290Y-90141513D01*
X94873364Y-90153731D01*
X94874080Y-90274853D01*
X94985368Y-90311096D01*
X95036591Y-90327411D01*
X95077989Y-90339915D01*
X95103074Y-90346676D01*
X95107098Y-90347338D01*
X95109410Y-90334451D01*
X95111313Y-90297807D01*
X95112766Y-90240431D01*
X95113730Y-90165351D01*
X95114163Y-90075591D01*
X95114025Y-89974179D01*
X95113395Y-89877222D01*
X95112346Y-89752553D01*
X95111711Y-89651950D01*
X95111611Y-89572694D01*
X95112171Y-89512068D01*
X95113513Y-89467354D01*
X95115763Y-89435832D01*
X95119042Y-89414785D01*
X95123476Y-89401493D01*
X95129186Y-89393241D01*
X95135636Y-89387790D01*
X95169024Y-89376195D01*
X95206669Y-89379685D01*
X95235498Y-89396600D01*
X95238693Y-89400864D01*
X95241417Y-89418060D01*
X95243878Y-89458270D01*
X95245969Y-89517722D01*
X95247580Y-89592646D01*
X95248605Y-89679269D01*
X95248933Y-89758058D01*
X95249367Y-89861398D01*
X95250440Y-89965227D01*
X95252043Y-90063584D01*
X95254069Y-90150502D01*
X95256409Y-90220020D01*
X95257850Y-90249721D01*
X95266502Y-90399869D01*
X95385021Y-90439617D01*
X95503538Y-90479366D01*
X95503538Y-89770810D01*
X95503538Y-89062254D01*
X95535212Y-89041500D01*
X95575284Y-89028626D01*
X95612337Y-89039039D01*
G37*
D14*
X64005900Y-101713150D03*
X62483400Y-101713150D03*
D15*
X58930900Y-101459400D03*
D14*
X60960900Y-101713150D03*
D15*
X48792877Y-89751781D03*
D14*
X67050900Y-101713150D03*
X71618400Y-101713150D03*
X59438400Y-101713150D03*
X70095900Y-101713150D03*
X49034650Y-88771900D03*
X65528400Y-101713150D03*
X68573400Y-101713150D03*
X67193000Y-27202000D03*
X65670500Y-27202000D03*
D15*
X70745500Y-27455750D03*
D14*
X59580500Y-27202000D03*
X70238000Y-27202000D03*
X62625500Y-27202000D03*
X68715500Y-27202000D03*
X58058000Y-27202000D03*
D15*
X80883523Y-39163369D03*
D14*
X80641750Y-40143250D03*
X64148000Y-27202000D03*
X61103000Y-27202000D03*
D15*
X57479450Y-62152510D03*
D14*
X57733200Y-58600010D03*
D15*
X57479450Y-63675010D03*
X57479450Y-71287510D03*
X57479450Y-60630010D03*
X57479450Y-69765010D03*
X57479450Y-59107510D03*
X57479450Y-66720010D03*
X70420700Y-48703760D03*
X57479450Y-68242510D03*
D14*
X69440819Y-48461987D03*
D15*
X57479450Y-65197510D03*
X29059450Y-62152510D03*
D14*
X29313200Y-58600010D03*
D15*
X29059450Y-63675010D03*
X29059450Y-71287510D03*
X29059450Y-60630010D03*
X29059450Y-69765010D03*
X29059450Y-59107510D03*
X29059450Y-66720010D03*
X42000700Y-48703760D03*
X29059450Y-68242510D03*
D14*
X41020819Y-48461987D03*
D15*
X29059450Y-65197510D03*
X85899450Y-65197510D03*
D14*
X97860819Y-48461987D03*
D15*
X85899450Y-68242510D03*
X98840700Y-48703760D03*
X85899450Y-66720010D03*
X85899450Y-59107510D03*
X85899450Y-69765010D03*
X85899450Y-60630010D03*
X85899450Y-71287510D03*
X85899450Y-63675010D03*
D14*
X86153200Y-58600010D03*
D15*
X85899450Y-62152510D03*
D16*
X0Y0D02*
X128905000Y0D01*
X128905000Y-128905000D01*
X0Y-128905000D01*
X0Y0D01*
M02*
