%TF.GenerationSoftware,KiCad,Pcbnew,9.0.5*%
%TF.CreationDate,2025-10-28T13:08:04-07:00*%
%TF.ProjectId,ImmunoprecipitationDevice_RevF,496d6d75-6e6f-4707-9265-636970697461,rev?*%
%TF.SameCoordinates,Original*%
%TF.FileFunction,Legend,Top*%
%TF.FilePolarity,Positive*%
%FSLAX46Y46*%
G04 Gerber Fmt 4.6, Leading zero omitted, Abs format (unit mm)*
G04 Created by KiCad (PCBNEW 9.0.5) date 2025-10-28 13:08:04*
%MOMM*%
%LPD*%
G01*
G04 APERTURE LIST*
%ADD10C,0.100000*%
%ADD11C,1.000000*%
%ADD12C,0.250000*%
%ADD13C,0.000000*%
%ADD14R,0.150000X0.700000*%
%ADD15R,0.700000X0.150000*%
%ADD16C,0.150000*%
G04 APERTURE END LIST*
D10*
G36*
X47049328Y-83747566D02*
G01*
X45648777Y-83747566D01*
X45648777Y-82990245D01*
X45870999Y-82990245D01*
X45870999Y-83009755D01*
X45878465Y-83027779D01*
X45892259Y-83041573D01*
X45910283Y-83049039D01*
X45920038Y-83050000D01*
X46322376Y-83050000D01*
X46159328Y-83457620D01*
X46156598Y-83467035D01*
X46156836Y-83486542D01*
X46164520Y-83504473D01*
X46178482Y-83518099D01*
X46196597Y-83525344D01*
X46216104Y-83525106D01*
X46234035Y-83517422D01*
X46247661Y-83503460D01*
X46252176Y-83494760D01*
X46418421Y-83079145D01*
X46747180Y-83325714D01*
X46755561Y-83330798D01*
X46774459Y-83335640D01*
X46793771Y-83332881D01*
X46810558Y-83322941D01*
X46822264Y-83307333D01*
X46827106Y-83288435D01*
X46824347Y-83269123D01*
X46814407Y-83252336D01*
X46807180Y-83245714D01*
X46479561Y-82999999D01*
X46807180Y-82754285D01*
X46814408Y-82747663D01*
X46824347Y-82730876D01*
X46827106Y-82711564D01*
X46822264Y-82692665D01*
X46810558Y-82677057D01*
X46793771Y-82667118D01*
X46774460Y-82664359D01*
X46755561Y-82669201D01*
X46747180Y-82674285D01*
X46418421Y-82920854D01*
X46252176Y-82505239D01*
X46247661Y-82496539D01*
X46234035Y-82482577D01*
X46216104Y-82474893D01*
X46196597Y-82474655D01*
X46178482Y-82481900D01*
X46164520Y-82495526D01*
X46156836Y-82513457D01*
X46156598Y-82532964D01*
X46159328Y-82542379D01*
X46322376Y-82950000D01*
X45920038Y-82950000D01*
X45910283Y-82950961D01*
X45892259Y-82958427D01*
X45878465Y-82972221D01*
X45870999Y-82990245D01*
X45648777Y-82990245D01*
X45648777Y-82252433D01*
X47049328Y-82252433D01*
X47049328Y-83747566D01*
G37*
G36*
X47049328Y-44747566D02*
G01*
X45648777Y-44747566D01*
X45648777Y-43990245D01*
X45870999Y-43990245D01*
X45870999Y-44009755D01*
X45878465Y-44027779D01*
X45892259Y-44041573D01*
X45910283Y-44049039D01*
X45920038Y-44050000D01*
X46322376Y-44050000D01*
X46159328Y-44457620D01*
X46156598Y-44467035D01*
X46156836Y-44486542D01*
X46164520Y-44504473D01*
X46178482Y-44518099D01*
X46196597Y-44525344D01*
X46216104Y-44525106D01*
X46234035Y-44517422D01*
X46247661Y-44503460D01*
X46252176Y-44494760D01*
X46418421Y-44079145D01*
X46747180Y-44325714D01*
X46755561Y-44330798D01*
X46774459Y-44335640D01*
X46793771Y-44332881D01*
X46810558Y-44322941D01*
X46822264Y-44307333D01*
X46827106Y-44288435D01*
X46824347Y-44269123D01*
X46814407Y-44252336D01*
X46807180Y-44245714D01*
X46479561Y-43999999D01*
X46807180Y-43754285D01*
X46814408Y-43747663D01*
X46824347Y-43730876D01*
X46827106Y-43711564D01*
X46822264Y-43692665D01*
X46810558Y-43677057D01*
X46793771Y-43667118D01*
X46774460Y-43664359D01*
X46755561Y-43669201D01*
X46747180Y-43674285D01*
X46418421Y-43920854D01*
X46252176Y-43505239D01*
X46247661Y-43496539D01*
X46234035Y-43482577D01*
X46216104Y-43474893D01*
X46196597Y-43474655D01*
X46178482Y-43481900D01*
X46164520Y-43495526D01*
X46156836Y-43513457D01*
X46156598Y-43532964D01*
X46159328Y-43542379D01*
X46322376Y-43950000D01*
X45920038Y-43950000D01*
X45910283Y-43950961D01*
X45892259Y-43958427D01*
X45878465Y-43972221D01*
X45870999Y-43990245D01*
X45648777Y-43990245D01*
X45648777Y-43252433D01*
X47049328Y-43252433D01*
X47049328Y-44747566D01*
G37*
G36*
X75049328Y-44747566D02*
G01*
X73648777Y-44747566D01*
X73648777Y-43990245D01*
X73870999Y-43990245D01*
X73870999Y-44009755D01*
X73878465Y-44027779D01*
X73892259Y-44041573D01*
X73910283Y-44049039D01*
X73920038Y-44050000D01*
X74322376Y-44050000D01*
X74159328Y-44457620D01*
X74156598Y-44467035D01*
X74156836Y-44486542D01*
X74164520Y-44504473D01*
X74178482Y-44518099D01*
X74196597Y-44525344D01*
X74216104Y-44525106D01*
X74234035Y-44517422D01*
X74247661Y-44503460D01*
X74252176Y-44494760D01*
X74418421Y-44079145D01*
X74747180Y-44325714D01*
X74755561Y-44330798D01*
X74774459Y-44335640D01*
X74793771Y-44332881D01*
X74810558Y-44322941D01*
X74822264Y-44307333D01*
X74827106Y-44288435D01*
X74824347Y-44269123D01*
X74814407Y-44252336D01*
X74807180Y-44245714D01*
X74479561Y-43999999D01*
X74807180Y-43754285D01*
X74814408Y-43747663D01*
X74824347Y-43730876D01*
X74827106Y-43711564D01*
X74822264Y-43692665D01*
X74810558Y-43677057D01*
X74793771Y-43667118D01*
X74774460Y-43664359D01*
X74755561Y-43669201D01*
X74747180Y-43674285D01*
X74418421Y-43920854D01*
X74252176Y-43505239D01*
X74247661Y-43496539D01*
X74234035Y-43482577D01*
X74216104Y-43474893D01*
X74196597Y-43474655D01*
X74178482Y-43481900D01*
X74164520Y-43495526D01*
X74156836Y-43513457D01*
X74156598Y-43532964D01*
X74159328Y-43542379D01*
X74322376Y-43950000D01*
X73920038Y-43950000D01*
X73910283Y-43950961D01*
X73892259Y-43958427D01*
X73878465Y-43972221D01*
X73870999Y-43990245D01*
X73648777Y-43990245D01*
X73648777Y-43252433D01*
X75049328Y-43252433D01*
X75049328Y-44747566D01*
G37*
G36*
X75049328Y-83747566D02*
G01*
X73648777Y-83747566D01*
X73648777Y-82990245D01*
X73870999Y-82990245D01*
X73870999Y-83009755D01*
X73878465Y-83027779D01*
X73892259Y-83041573D01*
X73910283Y-83049039D01*
X73920038Y-83050000D01*
X74322376Y-83050000D01*
X74159328Y-83457620D01*
X74156598Y-83467035D01*
X74156836Y-83486542D01*
X74164520Y-83504473D01*
X74178482Y-83518099D01*
X74196597Y-83525344D01*
X74216104Y-83525106D01*
X74234035Y-83517422D01*
X74247661Y-83503460D01*
X74252176Y-83494760D01*
X74418421Y-83079145D01*
X74747180Y-83325714D01*
X74755561Y-83330798D01*
X74774459Y-83335640D01*
X74793771Y-83332881D01*
X74810558Y-83322941D01*
X74822264Y-83307333D01*
X74827106Y-83288435D01*
X74824347Y-83269123D01*
X74814407Y-83252336D01*
X74807180Y-83245714D01*
X74479561Y-82999999D01*
X74807180Y-82754285D01*
X74814408Y-82747663D01*
X74824347Y-82730876D01*
X74827106Y-82711564D01*
X74822264Y-82692665D01*
X74810558Y-82677057D01*
X74793771Y-82667118D01*
X74774460Y-82664359D01*
X74755561Y-82669201D01*
X74747180Y-82674285D01*
X74418421Y-82920854D01*
X74252176Y-82505239D01*
X74247661Y-82496539D01*
X74234035Y-82482577D01*
X74216104Y-82474893D01*
X74196597Y-82474655D01*
X74178482Y-82481900D01*
X74164520Y-82495526D01*
X74156836Y-82513457D01*
X74156598Y-82532964D01*
X74159328Y-82542379D01*
X74322376Y-82950000D01*
X73920038Y-82950000D01*
X73910283Y-82950961D01*
X73892259Y-82958427D01*
X73878465Y-82972221D01*
X73870999Y-82990245D01*
X73648777Y-82990245D01*
X73648777Y-82252433D01*
X75049328Y-82252433D01*
X75049328Y-83747566D01*
G37*
G36*
X47307566Y-96961222D02*
G01*
X45812433Y-96961222D01*
X45812433Y-96413402D01*
X46034655Y-96413402D01*
X46041900Y-96431517D01*
X46055526Y-96445479D01*
X46073457Y-96453163D01*
X46092964Y-96453401D01*
X46102379Y-96450671D01*
X46510000Y-96287622D01*
X46510000Y-96689961D01*
X46510961Y-96699716D01*
X46518427Y-96717740D01*
X46532221Y-96731534D01*
X46550245Y-96739000D01*
X46569755Y-96739000D01*
X46587779Y-96731534D01*
X46601573Y-96717740D01*
X46609039Y-96699716D01*
X46610000Y-96689961D01*
X46610000Y-96287623D01*
X47017620Y-96450671D01*
X47027034Y-96453401D01*
X47046542Y-96453163D01*
X47064472Y-96445479D01*
X47078098Y-96431517D01*
X47085344Y-96413402D01*
X47085106Y-96393895D01*
X47077422Y-96375964D01*
X47063460Y-96362338D01*
X47054759Y-96357823D01*
X46639145Y-96191577D01*
X46885714Y-95862819D01*
X46890798Y-95854438D01*
X46895640Y-95835540D01*
X46892881Y-95816228D01*
X46882941Y-95799441D01*
X46867333Y-95787735D01*
X46848435Y-95782893D01*
X46829123Y-95785652D01*
X46812336Y-95795592D01*
X46805714Y-95802819D01*
X46559999Y-96130437D01*
X46314285Y-95802819D01*
X46307663Y-95795592D01*
X46290876Y-95785652D01*
X46271564Y-95782893D01*
X46252666Y-95787735D01*
X46237058Y-95799441D01*
X46227118Y-95816228D01*
X46224359Y-95835540D01*
X46229201Y-95854438D01*
X46234285Y-95862819D01*
X46480854Y-96191577D01*
X46065239Y-96357823D01*
X46056539Y-96362338D01*
X46042577Y-96375964D01*
X46034893Y-96393895D01*
X46034655Y-96413402D01*
X45812433Y-96413402D01*
X45812433Y-95560671D01*
X47307566Y-95560671D01*
X47307566Y-96961222D01*
G37*
G36*
X53557566Y-87211222D02*
G01*
X52062433Y-87211222D01*
X52062433Y-86663402D01*
X52284655Y-86663402D01*
X52291900Y-86681517D01*
X52305526Y-86695479D01*
X52323457Y-86703163D01*
X52342964Y-86703401D01*
X52352379Y-86700671D01*
X52760000Y-86537622D01*
X52760000Y-86939961D01*
X52760961Y-86949716D01*
X52768427Y-86967740D01*
X52782221Y-86981534D01*
X52800245Y-86989000D01*
X52819755Y-86989000D01*
X52837779Y-86981534D01*
X52851573Y-86967740D01*
X52859039Y-86949716D01*
X52860000Y-86939961D01*
X52860000Y-86537623D01*
X53267620Y-86700671D01*
X53277034Y-86703401D01*
X53296542Y-86703163D01*
X53314472Y-86695479D01*
X53328098Y-86681517D01*
X53335344Y-86663402D01*
X53335106Y-86643895D01*
X53327422Y-86625964D01*
X53313460Y-86612338D01*
X53304759Y-86607823D01*
X52889145Y-86441577D01*
X53135714Y-86112819D01*
X53140798Y-86104438D01*
X53145640Y-86085540D01*
X53142881Y-86066228D01*
X53132941Y-86049441D01*
X53117333Y-86037735D01*
X53098435Y-86032893D01*
X53079123Y-86035652D01*
X53062336Y-86045592D01*
X53055714Y-86052819D01*
X52809999Y-86380437D01*
X52564285Y-86052819D01*
X52557663Y-86045592D01*
X52540876Y-86035652D01*
X52521564Y-86032893D01*
X52502666Y-86037735D01*
X52487058Y-86049441D01*
X52477118Y-86066228D01*
X52474359Y-86085540D01*
X52479201Y-86104438D01*
X52484285Y-86112819D01*
X52730854Y-86441577D01*
X52315239Y-86607823D01*
X52306539Y-86612338D01*
X52292577Y-86625964D01*
X52284893Y-86643895D01*
X52284655Y-86663402D01*
X52062433Y-86663402D01*
X52062433Y-85810671D01*
X53557566Y-85810671D01*
X53557566Y-87211222D01*
G37*
G36*
X49557566Y-107311222D02*
G01*
X48062433Y-107311222D01*
X48062433Y-106763402D01*
X48284655Y-106763402D01*
X48291900Y-106781517D01*
X48305526Y-106795479D01*
X48323457Y-106803163D01*
X48342964Y-106803401D01*
X48352379Y-106800671D01*
X48760000Y-106637622D01*
X48760000Y-107039961D01*
X48760961Y-107049716D01*
X48768427Y-107067740D01*
X48782221Y-107081534D01*
X48800245Y-107089000D01*
X48819755Y-107089000D01*
X48837779Y-107081534D01*
X48851573Y-107067740D01*
X48859039Y-107049716D01*
X48860000Y-107039961D01*
X48860000Y-106637623D01*
X49267620Y-106800671D01*
X49277034Y-106803401D01*
X49296542Y-106803163D01*
X49314472Y-106795479D01*
X49328098Y-106781517D01*
X49335344Y-106763402D01*
X49335106Y-106743895D01*
X49327422Y-106725964D01*
X49313460Y-106712338D01*
X49304759Y-106707823D01*
X48889145Y-106541577D01*
X49135714Y-106212819D01*
X49140798Y-106204438D01*
X49145640Y-106185540D01*
X49142881Y-106166228D01*
X49132941Y-106149441D01*
X49117333Y-106137735D01*
X49098435Y-106132893D01*
X49079123Y-106135652D01*
X49062336Y-106145592D01*
X49055714Y-106152819D01*
X48809999Y-106480437D01*
X48564285Y-106152819D01*
X48557663Y-106145592D01*
X48540876Y-106135652D01*
X48521564Y-106132893D01*
X48502666Y-106137735D01*
X48487058Y-106149441D01*
X48477118Y-106166228D01*
X48474359Y-106185540D01*
X48479201Y-106204438D01*
X48484285Y-106212819D01*
X48730854Y-106541577D01*
X48315239Y-106707823D01*
X48306539Y-106712338D01*
X48292577Y-106725964D01*
X48284893Y-106743895D01*
X48284655Y-106763402D01*
X48062433Y-106763402D01*
X48062433Y-105910671D01*
X49557566Y-105910671D01*
X49557566Y-107311222D01*
G37*
G36*
X78057566Y-101461222D02*
G01*
X76562433Y-101461222D01*
X76562433Y-100913402D01*
X76784655Y-100913402D01*
X76791900Y-100931517D01*
X76805526Y-100945479D01*
X76823457Y-100953163D01*
X76842964Y-100953401D01*
X76852379Y-100950671D01*
X77260000Y-100787622D01*
X77260000Y-101189961D01*
X77260961Y-101199716D01*
X77268427Y-101217740D01*
X77282221Y-101231534D01*
X77300245Y-101239000D01*
X77319755Y-101239000D01*
X77337779Y-101231534D01*
X77351573Y-101217740D01*
X77359039Y-101199716D01*
X77360000Y-101189961D01*
X77360000Y-100787623D01*
X77767620Y-100950671D01*
X77777034Y-100953401D01*
X77796542Y-100953163D01*
X77814472Y-100945479D01*
X77828098Y-100931517D01*
X77835344Y-100913402D01*
X77835106Y-100893895D01*
X77827422Y-100875964D01*
X77813460Y-100862338D01*
X77804759Y-100857823D01*
X77389145Y-100691577D01*
X77635714Y-100362819D01*
X77640798Y-100354438D01*
X77645640Y-100335540D01*
X77642881Y-100316228D01*
X77632941Y-100299441D01*
X77617333Y-100287735D01*
X77598435Y-100282893D01*
X77579123Y-100285652D01*
X77562336Y-100295592D01*
X77555714Y-100302819D01*
X77309999Y-100630437D01*
X77064285Y-100302819D01*
X77057663Y-100295592D01*
X77040876Y-100285652D01*
X77021564Y-100282893D01*
X77002666Y-100287735D01*
X76987058Y-100299441D01*
X76977118Y-100316228D01*
X76974359Y-100335540D01*
X76979201Y-100354438D01*
X76984285Y-100362819D01*
X77230854Y-100691577D01*
X76815239Y-100857823D01*
X76806539Y-100862338D01*
X76792577Y-100875964D01*
X76784893Y-100893895D01*
X76784655Y-100913402D01*
X76562433Y-100913402D01*
X76562433Y-100060671D01*
X78057566Y-100060671D01*
X78057566Y-101461222D01*
G37*
G36*
X79807566Y-86961222D02*
G01*
X78312433Y-86961222D01*
X78312433Y-86413402D01*
X78534655Y-86413402D01*
X78541900Y-86431517D01*
X78555526Y-86445479D01*
X78573457Y-86453163D01*
X78592964Y-86453401D01*
X78602379Y-86450671D01*
X79010000Y-86287622D01*
X79010000Y-86689961D01*
X79010961Y-86699716D01*
X79018427Y-86717740D01*
X79032221Y-86731534D01*
X79050245Y-86739000D01*
X79069755Y-86739000D01*
X79087779Y-86731534D01*
X79101573Y-86717740D01*
X79109039Y-86699716D01*
X79110000Y-86689961D01*
X79110000Y-86287623D01*
X79517620Y-86450671D01*
X79527034Y-86453401D01*
X79546542Y-86453163D01*
X79564472Y-86445479D01*
X79578098Y-86431517D01*
X79585344Y-86413402D01*
X79585106Y-86393895D01*
X79577422Y-86375964D01*
X79563460Y-86362338D01*
X79554759Y-86357823D01*
X79139145Y-86191577D01*
X79385714Y-85862819D01*
X79390798Y-85854438D01*
X79395640Y-85835540D01*
X79392881Y-85816228D01*
X79382941Y-85799441D01*
X79367333Y-85787735D01*
X79348435Y-85782893D01*
X79329123Y-85785652D01*
X79312336Y-85795592D01*
X79305714Y-85802819D01*
X79059999Y-86130437D01*
X78814285Y-85802819D01*
X78807663Y-85795592D01*
X78790876Y-85785652D01*
X78771564Y-85782893D01*
X78752666Y-85787735D01*
X78737058Y-85799441D01*
X78727118Y-85816228D01*
X78724359Y-85835540D01*
X78729201Y-85854438D01*
X78734285Y-85862819D01*
X78980854Y-86191577D01*
X78565239Y-86357823D01*
X78556539Y-86362338D01*
X78542577Y-86375964D01*
X78534893Y-86393895D01*
X78534655Y-86413402D01*
X78312433Y-86413402D01*
X78312433Y-85560671D01*
X79807566Y-85560671D01*
X79807566Y-86961222D01*
G37*
G36*
X51197566Y-26949328D02*
G01*
X49702433Y-26949328D01*
X49702433Y-26096597D01*
X49924655Y-26096597D01*
X49924893Y-26116104D01*
X49932577Y-26134035D01*
X49946539Y-26147661D01*
X49955239Y-26152176D01*
X50370853Y-26318421D01*
X50124285Y-26647180D01*
X50119201Y-26655561D01*
X50114359Y-26674459D01*
X50117118Y-26693771D01*
X50127058Y-26710558D01*
X50142666Y-26722264D01*
X50161564Y-26727106D01*
X50180876Y-26724347D01*
X50197663Y-26714407D01*
X50204285Y-26707180D01*
X50449999Y-26379561D01*
X50695714Y-26707180D01*
X50702336Y-26714408D01*
X50719123Y-26724347D01*
X50738435Y-26727106D01*
X50757334Y-26722264D01*
X50772942Y-26710558D01*
X50782881Y-26693771D01*
X50785640Y-26674460D01*
X50780798Y-26655561D01*
X50775714Y-26647180D01*
X50529144Y-26318421D01*
X50944759Y-26152176D01*
X50953460Y-26147661D01*
X50967422Y-26134035D01*
X50975106Y-26116104D01*
X50975344Y-26096597D01*
X50968098Y-26078482D01*
X50954472Y-26064520D01*
X50936542Y-26056836D01*
X50917034Y-26056598D01*
X50907620Y-26059328D01*
X50499999Y-26222376D01*
X50499999Y-25820038D01*
X50499038Y-25810283D01*
X50491572Y-25792259D01*
X50477778Y-25778465D01*
X50459754Y-25770999D01*
X50440244Y-25770999D01*
X50422220Y-25778465D01*
X50408426Y-25792259D01*
X50400960Y-25810283D01*
X50399999Y-25820038D01*
X50399999Y-26222376D01*
X49992379Y-26059328D01*
X49982964Y-26056598D01*
X49963457Y-26056836D01*
X49945526Y-26064520D01*
X49931900Y-26078482D01*
X49924655Y-26096597D01*
X49702433Y-26096597D01*
X49702433Y-25548777D01*
X51197566Y-25548777D01*
X51197566Y-26949328D01*
G37*
G36*
X49447566Y-41449328D02*
G01*
X47952433Y-41449328D01*
X47952433Y-40596597D01*
X48174655Y-40596597D01*
X48174893Y-40616104D01*
X48182577Y-40634035D01*
X48196539Y-40647661D01*
X48205239Y-40652176D01*
X48620853Y-40818421D01*
X48374285Y-41147180D01*
X48369201Y-41155561D01*
X48364359Y-41174459D01*
X48367118Y-41193771D01*
X48377058Y-41210558D01*
X48392666Y-41222264D01*
X48411564Y-41227106D01*
X48430876Y-41224347D01*
X48447663Y-41214407D01*
X48454285Y-41207180D01*
X48699999Y-40879561D01*
X48945714Y-41207180D01*
X48952336Y-41214408D01*
X48969123Y-41224347D01*
X48988435Y-41227106D01*
X49007334Y-41222264D01*
X49022942Y-41210558D01*
X49032881Y-41193771D01*
X49035640Y-41174460D01*
X49030798Y-41155561D01*
X49025714Y-41147180D01*
X48779144Y-40818421D01*
X49194759Y-40652176D01*
X49203460Y-40647661D01*
X49217422Y-40634035D01*
X49225106Y-40616104D01*
X49225344Y-40596597D01*
X49218098Y-40578482D01*
X49204472Y-40564520D01*
X49186542Y-40556836D01*
X49167034Y-40556598D01*
X49157620Y-40559328D01*
X48749999Y-40722376D01*
X48749999Y-40320038D01*
X48749038Y-40310283D01*
X48741572Y-40292259D01*
X48727778Y-40278465D01*
X48709754Y-40270999D01*
X48690244Y-40270999D01*
X48672220Y-40278465D01*
X48658426Y-40292259D01*
X48650960Y-40310283D01*
X48649999Y-40320038D01*
X48649999Y-40722376D01*
X48242379Y-40559328D01*
X48232964Y-40556598D01*
X48213457Y-40556836D01*
X48195526Y-40564520D01*
X48181900Y-40578482D01*
X48174655Y-40596597D01*
X47952433Y-40596597D01*
X47952433Y-40048777D01*
X49447566Y-40048777D01*
X49447566Y-41449328D01*
G37*
G36*
X75697566Y-41199328D02*
G01*
X74202433Y-41199328D01*
X74202433Y-40346597D01*
X74424655Y-40346597D01*
X74424893Y-40366104D01*
X74432577Y-40384035D01*
X74446539Y-40397661D01*
X74455239Y-40402176D01*
X74870853Y-40568421D01*
X74624285Y-40897180D01*
X74619201Y-40905561D01*
X74614359Y-40924459D01*
X74617118Y-40943771D01*
X74627058Y-40960558D01*
X74642666Y-40972264D01*
X74661564Y-40977106D01*
X74680876Y-40974347D01*
X74697663Y-40964407D01*
X74704285Y-40957180D01*
X74949999Y-40629561D01*
X75195714Y-40957180D01*
X75202336Y-40964408D01*
X75219123Y-40974347D01*
X75238435Y-40977106D01*
X75257334Y-40972264D01*
X75272942Y-40960558D01*
X75282881Y-40943771D01*
X75285640Y-40924460D01*
X75280798Y-40905561D01*
X75275714Y-40897180D01*
X75029144Y-40568421D01*
X75444759Y-40402176D01*
X75453460Y-40397661D01*
X75467422Y-40384035D01*
X75475106Y-40366104D01*
X75475344Y-40346597D01*
X75468098Y-40328482D01*
X75454472Y-40314520D01*
X75436542Y-40306836D01*
X75417034Y-40306598D01*
X75407620Y-40309328D01*
X74999999Y-40472376D01*
X74999999Y-40070038D01*
X74999038Y-40060283D01*
X74991572Y-40042259D01*
X74977778Y-40028465D01*
X74959754Y-40020999D01*
X74940244Y-40020999D01*
X74922220Y-40028465D01*
X74908426Y-40042259D01*
X74900960Y-40060283D01*
X74899999Y-40070038D01*
X74899999Y-40472376D01*
X74492379Y-40309328D01*
X74482964Y-40306598D01*
X74463457Y-40306836D01*
X74445526Y-40314520D01*
X74431900Y-40328482D01*
X74424655Y-40346597D01*
X74202433Y-40346597D01*
X74202433Y-39798777D01*
X75697566Y-39798777D01*
X75697566Y-41199328D01*
G37*
G36*
X79697566Y-21099328D02*
G01*
X78202433Y-21099328D01*
X78202433Y-20246597D01*
X78424655Y-20246597D01*
X78424893Y-20266104D01*
X78432577Y-20284035D01*
X78446539Y-20297661D01*
X78455239Y-20302176D01*
X78870853Y-20468421D01*
X78624285Y-20797180D01*
X78619201Y-20805561D01*
X78614359Y-20824459D01*
X78617118Y-20843771D01*
X78627058Y-20860558D01*
X78642666Y-20872264D01*
X78661564Y-20877106D01*
X78680876Y-20874347D01*
X78697663Y-20864407D01*
X78704285Y-20857180D01*
X78949999Y-20529561D01*
X79195714Y-20857180D01*
X79202336Y-20864408D01*
X79219123Y-20874347D01*
X79238435Y-20877106D01*
X79257334Y-20872264D01*
X79272942Y-20860558D01*
X79282881Y-20843771D01*
X79285640Y-20824460D01*
X79280798Y-20805561D01*
X79275714Y-20797180D01*
X79029144Y-20468421D01*
X79444759Y-20302176D01*
X79453460Y-20297661D01*
X79467422Y-20284035D01*
X79475106Y-20266104D01*
X79475344Y-20246597D01*
X79468098Y-20228482D01*
X79454472Y-20214520D01*
X79436542Y-20206836D01*
X79417034Y-20206598D01*
X79407620Y-20209328D01*
X78999999Y-20372376D01*
X78999999Y-19970038D01*
X78999038Y-19960283D01*
X78991572Y-19942259D01*
X78977778Y-19928465D01*
X78959754Y-19920999D01*
X78940244Y-19920999D01*
X78922220Y-19928465D01*
X78908426Y-19942259D01*
X78900960Y-19960283D01*
X78899999Y-19970038D01*
X78899999Y-20372376D01*
X78492379Y-20209328D01*
X78482964Y-20206598D01*
X78463457Y-20206836D01*
X78445526Y-20214520D01*
X78431900Y-20228482D01*
X78424655Y-20246597D01*
X78202433Y-20246597D01*
X78202433Y-19698777D01*
X79697566Y-19698777D01*
X79697566Y-21099328D01*
G37*
G36*
X81947566Y-31449328D02*
G01*
X80452433Y-31449328D01*
X80452433Y-30596597D01*
X80674655Y-30596597D01*
X80674893Y-30616104D01*
X80682577Y-30634035D01*
X80696539Y-30647661D01*
X80705239Y-30652176D01*
X81120853Y-30818421D01*
X80874285Y-31147180D01*
X80869201Y-31155561D01*
X80864359Y-31174459D01*
X80867118Y-31193771D01*
X80877058Y-31210558D01*
X80892666Y-31222264D01*
X80911564Y-31227106D01*
X80930876Y-31224347D01*
X80947663Y-31214407D01*
X80954285Y-31207180D01*
X81199999Y-30879561D01*
X81445714Y-31207180D01*
X81452336Y-31214408D01*
X81469123Y-31224347D01*
X81488435Y-31227106D01*
X81507334Y-31222264D01*
X81522942Y-31210558D01*
X81532881Y-31193771D01*
X81535640Y-31174460D01*
X81530798Y-31155561D01*
X81525714Y-31147180D01*
X81279144Y-30818421D01*
X81694759Y-30652176D01*
X81703460Y-30647661D01*
X81717422Y-30634035D01*
X81725106Y-30616104D01*
X81725344Y-30596597D01*
X81718098Y-30578482D01*
X81704472Y-30564520D01*
X81686542Y-30556836D01*
X81667034Y-30556598D01*
X81657620Y-30559328D01*
X81249999Y-30722376D01*
X81249999Y-30320038D01*
X81249038Y-30310283D01*
X81241572Y-30292259D01*
X81227778Y-30278465D01*
X81209754Y-30270999D01*
X81190244Y-30270999D01*
X81172220Y-30278465D01*
X81158426Y-30292259D01*
X81150960Y-30310283D01*
X81149999Y-30320038D01*
X81149999Y-30722376D01*
X80742379Y-30559328D01*
X80732964Y-30556598D01*
X80713457Y-30556836D01*
X80695526Y-30564520D01*
X80681900Y-30578482D01*
X80674655Y-30596597D01*
X80452433Y-30596597D01*
X80452433Y-30048777D01*
X81947566Y-30048777D01*
X81947566Y-31449328D01*
G37*
D11*
X113500000Y-63500000D02*
G75*
G02*
X13500000Y-63500000I-50000000J0D01*
G01*
X13500000Y-63500000D02*
G75*
G02*
X113500000Y-63500000I50000000J0D01*
G01*
D12*
X106690380Y-48662568D02*
X107690380Y-48662568D01*
X106690380Y-49138758D02*
X107690380Y-49138758D01*
X107690380Y-49138758D02*
X107690380Y-49519710D01*
X107690380Y-49519710D02*
X107642761Y-49614948D01*
X107642761Y-49614948D02*
X107595142Y-49662567D01*
X107595142Y-49662567D02*
X107499904Y-49710186D01*
X107499904Y-49710186D02*
X107357047Y-49710186D01*
X107357047Y-49710186D02*
X107261809Y-49662567D01*
X107261809Y-49662567D02*
X107214190Y-49614948D01*
X107214190Y-49614948D02*
X107166571Y-49519710D01*
X107166571Y-49519710D02*
X107166571Y-49138758D01*
X106785619Y-50138758D02*
X106738000Y-50186377D01*
X106738000Y-50186377D02*
X106690380Y-50138758D01*
X106690380Y-50138758D02*
X106738000Y-50091139D01*
X106738000Y-50091139D02*
X106785619Y-50138758D01*
X106785619Y-50138758D02*
X106690380Y-50138758D01*
X107214190Y-50948281D02*
X107214190Y-50614948D01*
X106690380Y-50614948D02*
X107690380Y-50614948D01*
X107690380Y-50614948D02*
X107690380Y-51091138D01*
X106690380Y-51614948D02*
X106738000Y-51519710D01*
X106738000Y-51519710D02*
X106833238Y-51472091D01*
X106833238Y-51472091D02*
X107690380Y-51472091D01*
X106690380Y-52138758D02*
X106738000Y-52043520D01*
X106738000Y-52043520D02*
X106785619Y-51995901D01*
X106785619Y-51995901D02*
X106880857Y-51948282D01*
X106880857Y-51948282D02*
X107166571Y-51948282D01*
X107166571Y-51948282D02*
X107261809Y-51995901D01*
X107261809Y-51995901D02*
X107309428Y-52043520D01*
X107309428Y-52043520D02*
X107357047Y-52138758D01*
X107357047Y-52138758D02*
X107357047Y-52281615D01*
X107357047Y-52281615D02*
X107309428Y-52376853D01*
X107309428Y-52376853D02*
X107261809Y-52424472D01*
X107261809Y-52424472D02*
X107166571Y-52472091D01*
X107166571Y-52472091D02*
X106880857Y-52472091D01*
X106880857Y-52472091D02*
X106785619Y-52424472D01*
X106785619Y-52424472D02*
X106738000Y-52376853D01*
X106738000Y-52376853D02*
X106690380Y-52281615D01*
X106690380Y-52281615D02*
X106690380Y-52138758D01*
X107357047Y-52805425D02*
X106690380Y-52995901D01*
X106690380Y-52995901D02*
X107166571Y-53186377D01*
X107166571Y-53186377D02*
X106690380Y-53376853D01*
X106690380Y-53376853D02*
X107357047Y-53567329D01*
X107071333Y-53948282D02*
X107071333Y-54710187D01*
X106690380Y-54329234D02*
X107452285Y-54329234D01*
X106785619Y-55186377D02*
X106738000Y-55233996D01*
X106738000Y-55233996D02*
X106690380Y-55186377D01*
X106690380Y-55186377D02*
X106738000Y-55138758D01*
X106738000Y-55138758D02*
X106785619Y-55186377D01*
X106785619Y-55186377D02*
X106690380Y-55186377D01*
X106690380Y-56233995D02*
X107166571Y-55900662D01*
X106690380Y-55662567D02*
X107690380Y-55662567D01*
X107690380Y-55662567D02*
X107690380Y-56043519D01*
X107690380Y-56043519D02*
X107642761Y-56138757D01*
X107642761Y-56138757D02*
X107595142Y-56186376D01*
X107595142Y-56186376D02*
X107499904Y-56233995D01*
X107499904Y-56233995D02*
X107357047Y-56233995D01*
X107357047Y-56233995D02*
X107261809Y-56186376D01*
X107261809Y-56186376D02*
X107214190Y-56138757D01*
X107214190Y-56138757D02*
X107166571Y-56043519D01*
X107166571Y-56043519D02*
X107166571Y-55662567D01*
X106738000Y-57043519D02*
X106690380Y-56948281D01*
X106690380Y-56948281D02*
X106690380Y-56757805D01*
X106690380Y-56757805D02*
X106738000Y-56662567D01*
X106738000Y-56662567D02*
X106833238Y-56614948D01*
X106833238Y-56614948D02*
X107214190Y-56614948D01*
X107214190Y-56614948D02*
X107309428Y-56662567D01*
X107309428Y-56662567D02*
X107357047Y-56757805D01*
X107357047Y-56757805D02*
X107357047Y-56948281D01*
X107357047Y-56948281D02*
X107309428Y-57043519D01*
X107309428Y-57043519D02*
X107214190Y-57091138D01*
X107214190Y-57091138D02*
X107118952Y-57091138D01*
X107118952Y-57091138D02*
X107023714Y-56614948D01*
X107357047Y-57424472D02*
X106690380Y-57662567D01*
X106690380Y-57662567D02*
X107357047Y-57900662D01*
X107642761Y-59567329D02*
X107690380Y-59472091D01*
X107690380Y-59472091D02*
X107690380Y-59329234D01*
X107690380Y-59329234D02*
X107642761Y-59186377D01*
X107642761Y-59186377D02*
X107547523Y-59091139D01*
X107547523Y-59091139D02*
X107452285Y-59043520D01*
X107452285Y-59043520D02*
X107261809Y-58995901D01*
X107261809Y-58995901D02*
X107118952Y-58995901D01*
X107118952Y-58995901D02*
X106928476Y-59043520D01*
X106928476Y-59043520D02*
X106833238Y-59091139D01*
X106833238Y-59091139D02*
X106738000Y-59186377D01*
X106738000Y-59186377D02*
X106690380Y-59329234D01*
X106690380Y-59329234D02*
X106690380Y-59424472D01*
X106690380Y-59424472D02*
X106738000Y-59567329D01*
X106738000Y-59567329D02*
X106785619Y-59614948D01*
X106785619Y-59614948D02*
X107118952Y-59614948D01*
X107118952Y-59614948D02*
X107118952Y-59424472D01*
X106785619Y-60043520D02*
X106738000Y-60091139D01*
X106738000Y-60091139D02*
X106690380Y-60043520D01*
X106690380Y-60043520D02*
X106738000Y-59995901D01*
X106738000Y-59995901D02*
X106785619Y-60043520D01*
X106785619Y-60043520D02*
X106690380Y-60043520D01*
X107595142Y-60472091D02*
X107642761Y-60519710D01*
X107642761Y-60519710D02*
X107690380Y-60614948D01*
X107690380Y-60614948D02*
X107690380Y-60853043D01*
X107690380Y-60853043D02*
X107642761Y-60948281D01*
X107642761Y-60948281D02*
X107595142Y-60995900D01*
X107595142Y-60995900D02*
X107499904Y-61043519D01*
X107499904Y-61043519D02*
X107404666Y-61043519D01*
X107404666Y-61043519D02*
X107261809Y-60995900D01*
X107261809Y-60995900D02*
X106690380Y-60424472D01*
X106690380Y-60424472D02*
X106690380Y-61043519D01*
X107690380Y-61662567D02*
X107690380Y-61757805D01*
X107690380Y-61757805D02*
X107642761Y-61853043D01*
X107642761Y-61853043D02*
X107595142Y-61900662D01*
X107595142Y-61900662D02*
X107499904Y-61948281D01*
X107499904Y-61948281D02*
X107309428Y-61995900D01*
X107309428Y-61995900D02*
X107071333Y-61995900D01*
X107071333Y-61995900D02*
X106880857Y-61948281D01*
X106880857Y-61948281D02*
X106785619Y-61900662D01*
X106785619Y-61900662D02*
X106738000Y-61853043D01*
X106738000Y-61853043D02*
X106690380Y-61757805D01*
X106690380Y-61757805D02*
X106690380Y-61662567D01*
X106690380Y-61662567D02*
X106738000Y-61567329D01*
X106738000Y-61567329D02*
X106785619Y-61519710D01*
X106785619Y-61519710D02*
X106880857Y-61472091D01*
X106880857Y-61472091D02*
X107071333Y-61424472D01*
X107071333Y-61424472D02*
X107309428Y-61424472D01*
X107309428Y-61424472D02*
X107499904Y-61472091D01*
X107499904Y-61472091D02*
X107595142Y-61519710D01*
X107595142Y-61519710D02*
X107642761Y-61567329D01*
X107642761Y-61567329D02*
X107690380Y-61662567D01*
X107595142Y-62376853D02*
X107642761Y-62424472D01*
X107642761Y-62424472D02*
X107690380Y-62519710D01*
X107690380Y-62519710D02*
X107690380Y-62757805D01*
X107690380Y-62757805D02*
X107642761Y-62853043D01*
X107642761Y-62853043D02*
X107595142Y-62900662D01*
X107595142Y-62900662D02*
X107499904Y-62948281D01*
X107499904Y-62948281D02*
X107404666Y-62948281D01*
X107404666Y-62948281D02*
X107261809Y-62900662D01*
X107261809Y-62900662D02*
X106690380Y-62329234D01*
X106690380Y-62329234D02*
X106690380Y-62948281D01*
X107690380Y-63853043D02*
X107690380Y-63376853D01*
X107690380Y-63376853D02*
X107214190Y-63329234D01*
X107214190Y-63329234D02*
X107261809Y-63376853D01*
X107261809Y-63376853D02*
X107309428Y-63472091D01*
X107309428Y-63472091D02*
X107309428Y-63710186D01*
X107309428Y-63710186D02*
X107261809Y-63805424D01*
X107261809Y-63805424D02*
X107214190Y-63853043D01*
X107214190Y-63853043D02*
X107118952Y-63900662D01*
X107118952Y-63900662D02*
X106880857Y-63900662D01*
X106880857Y-63900662D02*
X106785619Y-63853043D01*
X106785619Y-63853043D02*
X106738000Y-63805424D01*
X106738000Y-63805424D02*
X106690380Y-63710186D01*
X106690380Y-63710186D02*
X106690380Y-63472091D01*
X106690380Y-63472091D02*
X106738000Y-63376853D01*
X106738000Y-63376853D02*
X106785619Y-63329234D01*
X106690380Y-64853043D02*
X106690380Y-64281615D01*
X106690380Y-64567329D02*
X107690380Y-64567329D01*
X107690380Y-64567329D02*
X107547523Y-64472091D01*
X107547523Y-64472091D02*
X107452285Y-64376853D01*
X107452285Y-64376853D02*
X107404666Y-64281615D01*
X107690380Y-65472091D02*
X107690380Y-65567329D01*
X107690380Y-65567329D02*
X107642761Y-65662567D01*
X107642761Y-65662567D02*
X107595142Y-65710186D01*
X107595142Y-65710186D02*
X107499904Y-65757805D01*
X107499904Y-65757805D02*
X107309428Y-65805424D01*
X107309428Y-65805424D02*
X107071333Y-65805424D01*
X107071333Y-65805424D02*
X106880857Y-65757805D01*
X106880857Y-65757805D02*
X106785619Y-65710186D01*
X106785619Y-65710186D02*
X106738000Y-65662567D01*
X106738000Y-65662567D02*
X106690380Y-65567329D01*
X106690380Y-65567329D02*
X106690380Y-65472091D01*
X106690380Y-65472091D02*
X106738000Y-65376853D01*
X106738000Y-65376853D02*
X106785619Y-65329234D01*
X106785619Y-65329234D02*
X106880857Y-65281615D01*
X106880857Y-65281615D02*
X107071333Y-65233996D01*
X107071333Y-65233996D02*
X107309428Y-65233996D01*
X107309428Y-65233996D02*
X107499904Y-65281615D01*
X107499904Y-65281615D02*
X107595142Y-65329234D01*
X107595142Y-65329234D02*
X107642761Y-65376853D01*
X107642761Y-65376853D02*
X107690380Y-65472091D01*
X107595142Y-66186377D02*
X107642761Y-66233996D01*
X107642761Y-66233996D02*
X107690380Y-66329234D01*
X107690380Y-66329234D02*
X107690380Y-66567329D01*
X107690380Y-66567329D02*
X107642761Y-66662567D01*
X107642761Y-66662567D02*
X107595142Y-66710186D01*
X107595142Y-66710186D02*
X107499904Y-66757805D01*
X107499904Y-66757805D02*
X107404666Y-66757805D01*
X107404666Y-66757805D02*
X107261809Y-66710186D01*
X107261809Y-66710186D02*
X106690380Y-66138758D01*
X106690380Y-66138758D02*
X106690380Y-66757805D01*
X107261809Y-67329234D02*
X107309428Y-67233996D01*
X107309428Y-67233996D02*
X107357047Y-67186377D01*
X107357047Y-67186377D02*
X107452285Y-67138758D01*
X107452285Y-67138758D02*
X107499904Y-67138758D01*
X107499904Y-67138758D02*
X107595142Y-67186377D01*
X107595142Y-67186377D02*
X107642761Y-67233996D01*
X107642761Y-67233996D02*
X107690380Y-67329234D01*
X107690380Y-67329234D02*
X107690380Y-67519710D01*
X107690380Y-67519710D02*
X107642761Y-67614948D01*
X107642761Y-67614948D02*
X107595142Y-67662567D01*
X107595142Y-67662567D02*
X107499904Y-67710186D01*
X107499904Y-67710186D02*
X107452285Y-67710186D01*
X107452285Y-67710186D02*
X107357047Y-67662567D01*
X107357047Y-67662567D02*
X107309428Y-67614948D01*
X107309428Y-67614948D02*
X107261809Y-67519710D01*
X107261809Y-67519710D02*
X107261809Y-67329234D01*
X107261809Y-67329234D02*
X107214190Y-67233996D01*
X107214190Y-67233996D02*
X107166571Y-67186377D01*
X107166571Y-67186377D02*
X107071333Y-67138758D01*
X107071333Y-67138758D02*
X106880857Y-67138758D01*
X106880857Y-67138758D02*
X106785619Y-67186377D01*
X106785619Y-67186377D02*
X106738000Y-67233996D01*
X106738000Y-67233996D02*
X106690380Y-67329234D01*
X106690380Y-67329234D02*
X106690380Y-67519710D01*
X106690380Y-67519710D02*
X106738000Y-67614948D01*
X106738000Y-67614948D02*
X106785619Y-67662567D01*
X106785619Y-67662567D02*
X106880857Y-67710186D01*
X106880857Y-67710186D02*
X107071333Y-67710186D01*
X107071333Y-67710186D02*
X107166571Y-67662567D01*
X107166571Y-67662567D02*
X107214190Y-67614948D01*
X107214190Y-67614948D02*
X107261809Y-67519710D01*
X106785619Y-68138758D02*
X106738000Y-68186377D01*
X106738000Y-68186377D02*
X106690380Y-68138758D01*
X106690380Y-68138758D02*
X106738000Y-68091139D01*
X106738000Y-68091139D02*
X106785619Y-68138758D01*
X106785619Y-68138758D02*
X106690380Y-68138758D01*
X106690380Y-69186376D02*
X107166571Y-68853043D01*
X106690380Y-68614948D02*
X107690380Y-68614948D01*
X107690380Y-68614948D02*
X107690380Y-68995900D01*
X107690380Y-68995900D02*
X107642761Y-69091138D01*
X107642761Y-69091138D02*
X107595142Y-69138757D01*
X107595142Y-69138757D02*
X107499904Y-69186376D01*
X107499904Y-69186376D02*
X107357047Y-69186376D01*
X107357047Y-69186376D02*
X107261809Y-69138757D01*
X107261809Y-69138757D02*
X107214190Y-69091138D01*
X107214190Y-69091138D02*
X107166571Y-68995900D01*
X107166571Y-68995900D02*
X107166571Y-68614948D01*
X106690380Y-70186376D02*
X107166571Y-69853043D01*
X106690380Y-69614948D02*
X107690380Y-69614948D01*
X107690380Y-69614948D02*
X107690380Y-69995900D01*
X107690380Y-69995900D02*
X107642761Y-70091138D01*
X107642761Y-70091138D02*
X107595142Y-70138757D01*
X107595142Y-70138757D02*
X107499904Y-70186376D01*
X107499904Y-70186376D02*
X107357047Y-70186376D01*
X107357047Y-70186376D02*
X107261809Y-70138757D01*
X107261809Y-70138757D02*
X107214190Y-70091138D01*
X107214190Y-70091138D02*
X107166571Y-69995900D01*
X107166571Y-69995900D02*
X107166571Y-69614948D01*
X106690380Y-70614948D02*
X107690380Y-70614948D01*
X107690380Y-70614948D02*
X107690380Y-70995900D01*
X107690380Y-70995900D02*
X107642761Y-71091138D01*
X107642761Y-71091138D02*
X107595142Y-71138757D01*
X107595142Y-71138757D02*
X107499904Y-71186376D01*
X107499904Y-71186376D02*
X107357047Y-71186376D01*
X107357047Y-71186376D02*
X107261809Y-71138757D01*
X107261809Y-71138757D02*
X107214190Y-71091138D01*
X107214190Y-71091138D02*
X107166571Y-70995900D01*
X107166571Y-70995900D02*
X107166571Y-70614948D01*
X107357047Y-72043519D02*
X106690380Y-72043519D01*
X107357047Y-71614948D02*
X106833238Y-71614948D01*
X106833238Y-71614948D02*
X106738000Y-71662567D01*
X106738000Y-71662567D02*
X106690380Y-71757805D01*
X106690380Y-71757805D02*
X106690380Y-71900662D01*
X106690380Y-71900662D02*
X106738000Y-71995900D01*
X106738000Y-71995900D02*
X106785619Y-72043519D01*
X106738000Y-72948281D02*
X106690380Y-72853043D01*
X106690380Y-72853043D02*
X106690380Y-72662567D01*
X106690380Y-72662567D02*
X106738000Y-72567329D01*
X106738000Y-72567329D02*
X106785619Y-72519710D01*
X106785619Y-72519710D02*
X106880857Y-72472091D01*
X106880857Y-72472091D02*
X107166571Y-72472091D01*
X107166571Y-72472091D02*
X107261809Y-72519710D01*
X107261809Y-72519710D02*
X107309428Y-72567329D01*
X107309428Y-72567329D02*
X107357047Y-72662567D01*
X107357047Y-72662567D02*
X107357047Y-72853043D01*
X107357047Y-72853043D02*
X107309428Y-72948281D01*
X106738000Y-73805424D02*
X106690380Y-73710186D01*
X106690380Y-73710186D02*
X106690380Y-73519710D01*
X106690380Y-73519710D02*
X106738000Y-73424472D01*
X106738000Y-73424472D02*
X106785619Y-73376853D01*
X106785619Y-73376853D02*
X106880857Y-73329234D01*
X106880857Y-73329234D02*
X107166571Y-73329234D01*
X107166571Y-73329234D02*
X107261809Y-73376853D01*
X107261809Y-73376853D02*
X107309428Y-73424472D01*
X107309428Y-73424472D02*
X107357047Y-73519710D01*
X107357047Y-73519710D02*
X107357047Y-73710186D01*
X107357047Y-73710186D02*
X107309428Y-73805424D01*
X106690380Y-74233996D02*
X107357047Y-74233996D01*
X107690380Y-74233996D02*
X107642761Y-74186377D01*
X107642761Y-74186377D02*
X107595142Y-74233996D01*
X107595142Y-74233996D02*
X107642761Y-74281615D01*
X107642761Y-74281615D02*
X107690380Y-74233996D01*
X107690380Y-74233996D02*
X107595142Y-74233996D01*
X107357047Y-74710186D02*
X106690380Y-74710186D01*
X107261809Y-74710186D02*
X107309428Y-74757805D01*
X107309428Y-74757805D02*
X107357047Y-74853043D01*
X107357047Y-74853043D02*
X107357047Y-74995900D01*
X107357047Y-74995900D02*
X107309428Y-75091138D01*
X107309428Y-75091138D02*
X107214190Y-75138757D01*
X107214190Y-75138757D02*
X106690380Y-75138757D01*
X106738000Y-75995900D02*
X106690380Y-75900662D01*
X106690380Y-75900662D02*
X106690380Y-75710186D01*
X106690380Y-75710186D02*
X106738000Y-75614948D01*
X106738000Y-75614948D02*
X106833238Y-75567329D01*
X106833238Y-75567329D02*
X107214190Y-75567329D01*
X107214190Y-75567329D02*
X107309428Y-75614948D01*
X107309428Y-75614948D02*
X107357047Y-75710186D01*
X107357047Y-75710186D02*
X107357047Y-75900662D01*
X107357047Y-75900662D02*
X107309428Y-75995900D01*
X107309428Y-75995900D02*
X107214190Y-76043519D01*
X107214190Y-76043519D02*
X107118952Y-76043519D01*
X107118952Y-76043519D02*
X107023714Y-75567329D01*
X106690380Y-76614948D02*
X106738000Y-76519710D01*
X106738000Y-76519710D02*
X106833238Y-76472091D01*
X106833238Y-76472091D02*
X107690380Y-76472091D01*
X106690380Y-77138758D02*
X106738000Y-77043520D01*
X106738000Y-77043520D02*
X106833238Y-76995901D01*
X106833238Y-76995901D02*
X107690380Y-76995901D01*
X106690380Y-77519711D02*
X107357047Y-77519711D01*
X107690380Y-77519711D02*
X107642761Y-77472092D01*
X107642761Y-77472092D02*
X107595142Y-77519711D01*
X107595142Y-77519711D02*
X107642761Y-77567330D01*
X107642761Y-77567330D02*
X107690380Y-77519711D01*
X107690380Y-77519711D02*
X107595142Y-77519711D01*
D10*
G36*
X56779328Y-77731566D02*
G01*
X55378777Y-77731566D01*
X55378777Y-76974245D01*
X55600999Y-76974245D01*
X55600999Y-76993755D01*
X55608465Y-77011779D01*
X55622259Y-77025573D01*
X55640283Y-77033039D01*
X55650038Y-77034000D01*
X56052376Y-77034000D01*
X55889328Y-77441620D01*
X55886598Y-77451035D01*
X55886836Y-77470542D01*
X55894520Y-77488473D01*
X55908482Y-77502099D01*
X55926597Y-77509344D01*
X55946104Y-77509106D01*
X55964035Y-77501422D01*
X55977661Y-77487460D01*
X55982176Y-77478760D01*
X56148421Y-77063145D01*
X56477180Y-77309714D01*
X56485561Y-77314798D01*
X56504459Y-77319640D01*
X56523771Y-77316881D01*
X56540558Y-77306941D01*
X56552264Y-77291333D01*
X56557106Y-77272435D01*
X56554347Y-77253123D01*
X56544407Y-77236336D01*
X56537180Y-77229714D01*
X56209561Y-76983999D01*
X56537180Y-76738285D01*
X56544408Y-76731663D01*
X56554347Y-76714876D01*
X56557106Y-76695564D01*
X56552264Y-76676665D01*
X56540558Y-76661057D01*
X56523771Y-76651118D01*
X56504460Y-76648359D01*
X56485561Y-76653201D01*
X56477180Y-76658285D01*
X56148421Y-76904854D01*
X55982176Y-76489239D01*
X55977661Y-76480539D01*
X55964035Y-76466577D01*
X55946104Y-76458893D01*
X55926597Y-76458655D01*
X55908482Y-76465900D01*
X55894520Y-76479526D01*
X55886836Y-76497457D01*
X55886598Y-76516964D01*
X55889328Y-76526379D01*
X56052376Y-76934000D01*
X55650038Y-76934000D01*
X55640283Y-76934961D01*
X55622259Y-76942427D01*
X55608465Y-76956221D01*
X55600999Y-76974245D01*
X55378777Y-76974245D01*
X55378777Y-76236433D01*
X56779328Y-76236433D01*
X56779328Y-77731566D01*
G37*
G36*
X71029328Y-53231566D02*
G01*
X69628777Y-53231566D01*
X69628777Y-52474245D01*
X69850999Y-52474245D01*
X69850999Y-52493755D01*
X69858465Y-52511779D01*
X69872259Y-52525573D01*
X69890283Y-52533039D01*
X69900038Y-52534000D01*
X70302376Y-52534000D01*
X70139328Y-52941620D01*
X70136598Y-52951035D01*
X70136836Y-52970542D01*
X70144520Y-52988473D01*
X70158482Y-53002099D01*
X70176597Y-53009344D01*
X70196104Y-53009106D01*
X70214035Y-53001422D01*
X70227661Y-52987460D01*
X70232176Y-52978760D01*
X70398421Y-52563145D01*
X70727180Y-52809714D01*
X70735561Y-52814798D01*
X70754459Y-52819640D01*
X70773771Y-52816881D01*
X70790558Y-52806941D01*
X70802264Y-52791333D01*
X70807106Y-52772435D01*
X70804347Y-52753123D01*
X70794407Y-52736336D01*
X70787180Y-52729714D01*
X70459561Y-52483999D01*
X70787180Y-52238285D01*
X70794408Y-52231663D01*
X70804347Y-52214876D01*
X70807106Y-52195564D01*
X70802264Y-52176665D01*
X70790558Y-52161057D01*
X70773771Y-52151118D01*
X70754460Y-52148359D01*
X70735561Y-52153201D01*
X70727180Y-52158285D01*
X70398421Y-52404854D01*
X70232176Y-51989239D01*
X70227661Y-51980539D01*
X70214035Y-51966577D01*
X70196104Y-51958893D01*
X70176597Y-51958655D01*
X70158482Y-51965900D01*
X70144520Y-51979526D01*
X70136836Y-51997457D01*
X70136598Y-52016964D01*
X70139328Y-52026379D01*
X70302376Y-52434000D01*
X69900038Y-52434000D01*
X69890283Y-52434961D01*
X69872259Y-52442427D01*
X69858465Y-52456221D01*
X69850999Y-52474245D01*
X69628777Y-52474245D01*
X69628777Y-51736433D01*
X71029328Y-51736433D01*
X71029328Y-53231566D01*
G37*
G36*
X71279328Y-79481566D02*
G01*
X69878777Y-79481566D01*
X69878777Y-78724245D01*
X70100999Y-78724245D01*
X70100999Y-78743755D01*
X70108465Y-78761779D01*
X70122259Y-78775573D01*
X70140283Y-78783039D01*
X70150038Y-78784000D01*
X70552376Y-78784000D01*
X70389328Y-79191620D01*
X70386598Y-79201035D01*
X70386836Y-79220542D01*
X70394520Y-79238473D01*
X70408482Y-79252099D01*
X70426597Y-79259344D01*
X70446104Y-79259106D01*
X70464035Y-79251422D01*
X70477661Y-79237460D01*
X70482176Y-79228760D01*
X70648421Y-78813145D01*
X70977180Y-79059714D01*
X70985561Y-79064798D01*
X71004459Y-79069640D01*
X71023771Y-79066881D01*
X71040558Y-79056941D01*
X71052264Y-79041333D01*
X71057106Y-79022435D01*
X71054347Y-79003123D01*
X71044407Y-78986336D01*
X71037180Y-78979714D01*
X70709561Y-78733999D01*
X71037180Y-78488285D01*
X71044408Y-78481663D01*
X71054347Y-78464876D01*
X71057106Y-78445564D01*
X71052264Y-78426665D01*
X71040558Y-78411057D01*
X71023771Y-78401118D01*
X71004460Y-78398359D01*
X70985561Y-78403201D01*
X70977180Y-78408285D01*
X70648421Y-78654854D01*
X70482176Y-78239239D01*
X70477661Y-78230539D01*
X70464035Y-78216577D01*
X70446104Y-78208893D01*
X70426597Y-78208655D01*
X70408482Y-78215900D01*
X70394520Y-78229526D01*
X70386836Y-78247457D01*
X70386598Y-78266964D01*
X70389328Y-78276379D01*
X70552376Y-78684000D01*
X70150038Y-78684000D01*
X70140283Y-78684961D01*
X70122259Y-78692427D01*
X70108465Y-78706221D01*
X70100999Y-78724245D01*
X69878777Y-78724245D01*
X69878777Y-77986433D01*
X71279328Y-77986433D01*
X71279328Y-79481566D01*
G37*
G36*
X61279328Y-46981566D02*
G01*
X59878777Y-46981566D01*
X59878777Y-46224245D01*
X60100999Y-46224245D01*
X60100999Y-46243755D01*
X60108465Y-46261779D01*
X60122259Y-46275573D01*
X60140283Y-46283039D01*
X60150038Y-46284000D01*
X60552376Y-46284000D01*
X60389328Y-46691620D01*
X60386598Y-46701035D01*
X60386836Y-46720542D01*
X60394520Y-46738473D01*
X60408482Y-46752099D01*
X60426597Y-46759344D01*
X60446104Y-46759106D01*
X60464035Y-46751422D01*
X60477661Y-46737460D01*
X60482176Y-46728760D01*
X60648421Y-46313145D01*
X60977180Y-46559714D01*
X60985561Y-46564798D01*
X61004459Y-46569640D01*
X61023771Y-46566881D01*
X61040558Y-46556941D01*
X61052264Y-46541333D01*
X61057106Y-46522435D01*
X61054347Y-46503123D01*
X61044407Y-46486336D01*
X61037180Y-46479714D01*
X60709561Y-46233999D01*
X61037180Y-45988285D01*
X61044408Y-45981663D01*
X61054347Y-45964876D01*
X61057106Y-45945564D01*
X61052264Y-45926665D01*
X61040558Y-45911057D01*
X61023771Y-45901118D01*
X61004460Y-45898359D01*
X60985561Y-45903201D01*
X60977180Y-45908285D01*
X60648421Y-46154854D01*
X60482176Y-45739239D01*
X60477661Y-45730539D01*
X60464035Y-45716577D01*
X60446104Y-45708893D01*
X60426597Y-45708655D01*
X60408482Y-45715900D01*
X60394520Y-45729526D01*
X60386836Y-45747457D01*
X60386598Y-45766964D01*
X60389328Y-45776379D01*
X60552376Y-46184000D01*
X60150038Y-46184000D01*
X60140283Y-46184961D01*
X60122259Y-46192427D01*
X60108465Y-46206221D01*
X60100999Y-46224245D01*
X59878777Y-46224245D01*
X59878777Y-45486433D01*
X61279328Y-45486433D01*
X61279328Y-46981566D01*
G37*
G36*
X50929328Y-49231566D02*
G01*
X49528777Y-49231566D01*
X49528777Y-48474245D01*
X49750999Y-48474245D01*
X49750999Y-48493755D01*
X49758465Y-48511779D01*
X49772259Y-48525573D01*
X49790283Y-48533039D01*
X49800038Y-48534000D01*
X50202376Y-48534000D01*
X50039328Y-48941620D01*
X50036598Y-48951035D01*
X50036836Y-48970542D01*
X50044520Y-48988473D01*
X50058482Y-49002099D01*
X50076597Y-49009344D01*
X50096104Y-49009106D01*
X50114035Y-49001422D01*
X50127661Y-48987460D01*
X50132176Y-48978760D01*
X50298421Y-48563145D01*
X50627180Y-48809714D01*
X50635561Y-48814798D01*
X50654459Y-48819640D01*
X50673771Y-48816881D01*
X50690558Y-48806941D01*
X50702264Y-48791333D01*
X50707106Y-48772435D01*
X50704347Y-48753123D01*
X50694407Y-48736336D01*
X50687180Y-48729714D01*
X50359561Y-48483999D01*
X50687180Y-48238285D01*
X50694408Y-48231663D01*
X50704347Y-48214876D01*
X50707106Y-48195564D01*
X50702264Y-48176665D01*
X50690558Y-48161057D01*
X50673771Y-48151118D01*
X50654460Y-48148359D01*
X50635561Y-48153201D01*
X50627180Y-48158285D01*
X50298421Y-48404854D01*
X50132176Y-47989239D01*
X50127661Y-47980539D01*
X50114035Y-47966577D01*
X50096104Y-47958893D01*
X50076597Y-47958655D01*
X50058482Y-47965900D01*
X50044520Y-47979526D01*
X50036836Y-47997457D01*
X50036598Y-48016964D01*
X50039328Y-48026379D01*
X50202376Y-48434000D01*
X49800038Y-48434000D01*
X49790283Y-48434961D01*
X49772259Y-48442427D01*
X49758465Y-48456221D01*
X49750999Y-48474245D01*
X49528777Y-48474245D01*
X49528777Y-47736433D01*
X50929328Y-47736433D01*
X50929328Y-49231566D01*
G37*
G36*
X28779328Y-77731566D02*
G01*
X27378777Y-77731566D01*
X27378777Y-76974245D01*
X27600999Y-76974245D01*
X27600999Y-76993755D01*
X27608465Y-77011779D01*
X27622259Y-77025573D01*
X27640283Y-77033039D01*
X27650038Y-77034000D01*
X28052376Y-77034000D01*
X27889328Y-77441620D01*
X27886598Y-77451035D01*
X27886836Y-77470542D01*
X27894520Y-77488473D01*
X27908482Y-77502099D01*
X27926597Y-77509344D01*
X27946104Y-77509106D01*
X27964035Y-77501422D01*
X27977661Y-77487460D01*
X27982176Y-77478760D01*
X28148421Y-77063145D01*
X28477180Y-77309714D01*
X28485561Y-77314798D01*
X28504459Y-77319640D01*
X28523771Y-77316881D01*
X28540558Y-77306941D01*
X28552264Y-77291333D01*
X28557106Y-77272435D01*
X28554347Y-77253123D01*
X28544407Y-77236336D01*
X28537180Y-77229714D01*
X28209561Y-76983999D01*
X28537180Y-76738285D01*
X28544408Y-76731663D01*
X28554347Y-76714876D01*
X28557106Y-76695564D01*
X28552264Y-76676665D01*
X28540558Y-76661057D01*
X28523771Y-76651118D01*
X28504460Y-76648359D01*
X28485561Y-76653201D01*
X28477180Y-76658285D01*
X28148421Y-76904854D01*
X27982176Y-76489239D01*
X27977661Y-76480539D01*
X27964035Y-76466577D01*
X27946104Y-76458893D01*
X27926597Y-76458655D01*
X27908482Y-76465900D01*
X27894520Y-76479526D01*
X27886836Y-76497457D01*
X27886598Y-76516964D01*
X27889328Y-76526379D01*
X28052376Y-76934000D01*
X27650038Y-76934000D01*
X27640283Y-76934961D01*
X27622259Y-76942427D01*
X27608465Y-76956221D01*
X27600999Y-76974245D01*
X27378777Y-76974245D01*
X27378777Y-76236433D01*
X28779328Y-76236433D01*
X28779328Y-77731566D01*
G37*
G36*
X43029328Y-53231566D02*
G01*
X41628777Y-53231566D01*
X41628777Y-52474245D01*
X41850999Y-52474245D01*
X41850999Y-52493755D01*
X41858465Y-52511779D01*
X41872259Y-52525573D01*
X41890283Y-52533039D01*
X41900038Y-52534000D01*
X42302376Y-52534000D01*
X42139328Y-52941620D01*
X42136598Y-52951035D01*
X42136836Y-52970542D01*
X42144520Y-52988473D01*
X42158482Y-53002099D01*
X42176597Y-53009344D01*
X42196104Y-53009106D01*
X42214035Y-53001422D01*
X42227661Y-52987460D01*
X42232176Y-52978760D01*
X42398421Y-52563145D01*
X42727180Y-52809714D01*
X42735561Y-52814798D01*
X42754459Y-52819640D01*
X42773771Y-52816881D01*
X42790558Y-52806941D01*
X42802264Y-52791333D01*
X42807106Y-52772435D01*
X42804347Y-52753123D01*
X42794407Y-52736336D01*
X42787180Y-52729714D01*
X42459561Y-52483999D01*
X42787180Y-52238285D01*
X42794408Y-52231663D01*
X42804347Y-52214876D01*
X42807106Y-52195564D01*
X42802264Y-52176665D01*
X42790558Y-52161057D01*
X42773771Y-52151118D01*
X42754460Y-52148359D01*
X42735561Y-52153201D01*
X42727180Y-52158285D01*
X42398421Y-52404854D01*
X42232176Y-51989239D01*
X42227661Y-51980539D01*
X42214035Y-51966577D01*
X42196104Y-51958893D01*
X42176597Y-51958655D01*
X42158482Y-51965900D01*
X42144520Y-51979526D01*
X42136836Y-51997457D01*
X42136598Y-52016964D01*
X42139328Y-52026379D01*
X42302376Y-52434000D01*
X41900038Y-52434000D01*
X41890283Y-52434961D01*
X41872259Y-52442427D01*
X41858465Y-52456221D01*
X41850999Y-52474245D01*
X41628777Y-52474245D01*
X41628777Y-51736433D01*
X43029328Y-51736433D01*
X43029328Y-53231566D01*
G37*
G36*
X43279328Y-79481566D02*
G01*
X41878777Y-79481566D01*
X41878777Y-78724245D01*
X42100999Y-78724245D01*
X42100999Y-78743755D01*
X42108465Y-78761779D01*
X42122259Y-78775573D01*
X42140283Y-78783039D01*
X42150038Y-78784000D01*
X42552376Y-78784000D01*
X42389328Y-79191620D01*
X42386598Y-79201035D01*
X42386836Y-79220542D01*
X42394520Y-79238473D01*
X42408482Y-79252099D01*
X42426597Y-79259344D01*
X42446104Y-79259106D01*
X42464035Y-79251422D01*
X42477661Y-79237460D01*
X42482176Y-79228760D01*
X42648421Y-78813145D01*
X42977180Y-79059714D01*
X42985561Y-79064798D01*
X43004459Y-79069640D01*
X43023771Y-79066881D01*
X43040558Y-79056941D01*
X43052264Y-79041333D01*
X43057106Y-79022435D01*
X43054347Y-79003123D01*
X43044407Y-78986336D01*
X43037180Y-78979714D01*
X42709561Y-78733999D01*
X43037180Y-78488285D01*
X43044408Y-78481663D01*
X43054347Y-78464876D01*
X43057106Y-78445564D01*
X43052264Y-78426665D01*
X43040558Y-78411057D01*
X43023771Y-78401118D01*
X43004460Y-78398359D01*
X42985561Y-78403201D01*
X42977180Y-78408285D01*
X42648421Y-78654854D01*
X42482176Y-78239239D01*
X42477661Y-78230539D01*
X42464035Y-78216577D01*
X42446104Y-78208893D01*
X42426597Y-78208655D01*
X42408482Y-78215900D01*
X42394520Y-78229526D01*
X42386836Y-78247457D01*
X42386598Y-78266964D01*
X42389328Y-78276379D01*
X42552376Y-78684000D01*
X42150038Y-78684000D01*
X42140283Y-78684961D01*
X42122259Y-78692427D01*
X42108465Y-78706221D01*
X42100999Y-78724245D01*
X41878777Y-78724245D01*
X41878777Y-77986433D01*
X43279328Y-77986433D01*
X43279328Y-79481566D01*
G37*
G36*
X33279328Y-46981566D02*
G01*
X31878777Y-46981566D01*
X31878777Y-46224245D01*
X32100999Y-46224245D01*
X32100999Y-46243755D01*
X32108465Y-46261779D01*
X32122259Y-46275573D01*
X32140283Y-46283039D01*
X32150038Y-46284000D01*
X32552376Y-46284000D01*
X32389328Y-46691620D01*
X32386598Y-46701035D01*
X32386836Y-46720542D01*
X32394520Y-46738473D01*
X32408482Y-46752099D01*
X32426597Y-46759344D01*
X32446104Y-46759106D01*
X32464035Y-46751422D01*
X32477661Y-46737460D01*
X32482176Y-46728760D01*
X32648421Y-46313145D01*
X32977180Y-46559714D01*
X32985561Y-46564798D01*
X33004459Y-46569640D01*
X33023771Y-46566881D01*
X33040558Y-46556941D01*
X33052264Y-46541333D01*
X33057106Y-46522435D01*
X33054347Y-46503123D01*
X33044407Y-46486336D01*
X33037180Y-46479714D01*
X32709561Y-46233999D01*
X33037180Y-45988285D01*
X33044408Y-45981663D01*
X33054347Y-45964876D01*
X33057106Y-45945564D01*
X33052264Y-45926665D01*
X33040558Y-45911057D01*
X33023771Y-45901118D01*
X33004460Y-45898359D01*
X32985561Y-45903201D01*
X32977180Y-45908285D01*
X32648421Y-46154854D01*
X32482176Y-45739239D01*
X32477661Y-45730539D01*
X32464035Y-45716577D01*
X32446104Y-45708893D01*
X32426597Y-45708655D01*
X32408482Y-45715900D01*
X32394520Y-45729526D01*
X32386836Y-45747457D01*
X32386598Y-45766964D01*
X32389328Y-45776379D01*
X32552376Y-46184000D01*
X32150038Y-46184000D01*
X32140283Y-46184961D01*
X32122259Y-46192427D01*
X32108465Y-46206221D01*
X32100999Y-46224245D01*
X31878777Y-46224245D01*
X31878777Y-45486433D01*
X33279328Y-45486433D01*
X33279328Y-46981566D01*
G37*
G36*
X22929328Y-49231566D02*
G01*
X21528777Y-49231566D01*
X21528777Y-48474245D01*
X21750999Y-48474245D01*
X21750999Y-48493755D01*
X21758465Y-48511779D01*
X21772259Y-48525573D01*
X21790283Y-48533039D01*
X21800038Y-48534000D01*
X22202376Y-48534000D01*
X22039328Y-48941620D01*
X22036598Y-48951035D01*
X22036836Y-48970542D01*
X22044520Y-48988473D01*
X22058482Y-49002099D01*
X22076597Y-49009344D01*
X22096104Y-49009106D01*
X22114035Y-49001422D01*
X22127661Y-48987460D01*
X22132176Y-48978760D01*
X22298421Y-48563145D01*
X22627180Y-48809714D01*
X22635561Y-48814798D01*
X22654459Y-48819640D01*
X22673771Y-48816881D01*
X22690558Y-48806941D01*
X22702264Y-48791333D01*
X22707106Y-48772435D01*
X22704347Y-48753123D01*
X22694407Y-48736336D01*
X22687180Y-48729714D01*
X22359561Y-48483999D01*
X22687180Y-48238285D01*
X22694408Y-48231663D01*
X22704347Y-48214876D01*
X22707106Y-48195564D01*
X22702264Y-48176665D01*
X22690558Y-48161057D01*
X22673771Y-48151118D01*
X22654460Y-48148359D01*
X22635561Y-48153201D01*
X22627180Y-48158285D01*
X22298421Y-48404854D01*
X22132176Y-47989239D01*
X22127661Y-47980539D01*
X22114035Y-47966577D01*
X22096104Y-47958893D01*
X22076597Y-47958655D01*
X22058482Y-47965900D01*
X22044520Y-47979526D01*
X22036836Y-47997457D01*
X22036598Y-48016964D01*
X22039328Y-48026379D01*
X22202376Y-48434000D01*
X21800038Y-48434000D01*
X21790283Y-48434961D01*
X21772259Y-48442427D01*
X21758465Y-48456221D01*
X21750999Y-48474245D01*
X21528777Y-48474245D01*
X21528777Y-47736433D01*
X22929328Y-47736433D01*
X22929328Y-49231566D01*
G37*
G36*
X78929328Y-49231566D02*
G01*
X77528777Y-49231566D01*
X77528777Y-48474245D01*
X77750999Y-48474245D01*
X77750999Y-48493755D01*
X77758465Y-48511779D01*
X77772259Y-48525573D01*
X77790283Y-48533039D01*
X77800038Y-48534000D01*
X78202376Y-48534000D01*
X78039328Y-48941620D01*
X78036598Y-48951035D01*
X78036836Y-48970542D01*
X78044520Y-48988473D01*
X78058482Y-49002099D01*
X78076597Y-49009344D01*
X78096104Y-49009106D01*
X78114035Y-49001422D01*
X78127661Y-48987460D01*
X78132176Y-48978760D01*
X78298421Y-48563145D01*
X78627180Y-48809714D01*
X78635561Y-48814798D01*
X78654459Y-48819640D01*
X78673771Y-48816881D01*
X78690558Y-48806941D01*
X78702264Y-48791333D01*
X78707106Y-48772435D01*
X78704347Y-48753123D01*
X78694407Y-48736336D01*
X78687180Y-48729714D01*
X78359561Y-48483999D01*
X78687180Y-48238285D01*
X78694408Y-48231663D01*
X78704347Y-48214876D01*
X78707106Y-48195564D01*
X78702264Y-48176665D01*
X78690558Y-48161057D01*
X78673771Y-48151118D01*
X78654460Y-48148359D01*
X78635561Y-48153201D01*
X78627180Y-48158285D01*
X78298421Y-48404854D01*
X78132176Y-47989239D01*
X78127661Y-47980539D01*
X78114035Y-47966577D01*
X78096104Y-47958893D01*
X78076597Y-47958655D01*
X78058482Y-47965900D01*
X78044520Y-47979526D01*
X78036836Y-47997457D01*
X78036598Y-48016964D01*
X78039328Y-48026379D01*
X78202376Y-48434000D01*
X77800038Y-48434000D01*
X77790283Y-48434961D01*
X77772259Y-48442427D01*
X77758465Y-48456221D01*
X77750999Y-48474245D01*
X77528777Y-48474245D01*
X77528777Y-47736433D01*
X78929328Y-47736433D01*
X78929328Y-49231566D01*
G37*
G36*
X89279328Y-46981566D02*
G01*
X87878777Y-46981566D01*
X87878777Y-46224245D01*
X88100999Y-46224245D01*
X88100999Y-46243755D01*
X88108465Y-46261779D01*
X88122259Y-46275573D01*
X88140283Y-46283039D01*
X88150038Y-46284000D01*
X88552376Y-46284000D01*
X88389328Y-46691620D01*
X88386598Y-46701035D01*
X88386836Y-46720542D01*
X88394520Y-46738473D01*
X88408482Y-46752099D01*
X88426597Y-46759344D01*
X88446104Y-46759106D01*
X88464035Y-46751422D01*
X88477661Y-46737460D01*
X88482176Y-46728760D01*
X88648421Y-46313145D01*
X88977180Y-46559714D01*
X88985561Y-46564798D01*
X89004459Y-46569640D01*
X89023771Y-46566881D01*
X89040558Y-46556941D01*
X89052264Y-46541333D01*
X89057106Y-46522435D01*
X89054347Y-46503123D01*
X89044407Y-46486336D01*
X89037180Y-46479714D01*
X88709561Y-46233999D01*
X89037180Y-45988285D01*
X89044408Y-45981663D01*
X89054347Y-45964876D01*
X89057106Y-45945564D01*
X89052264Y-45926665D01*
X89040558Y-45911057D01*
X89023771Y-45901118D01*
X89004460Y-45898359D01*
X88985561Y-45903201D01*
X88977180Y-45908285D01*
X88648421Y-46154854D01*
X88482176Y-45739239D01*
X88477661Y-45730539D01*
X88464035Y-45716577D01*
X88446104Y-45708893D01*
X88426597Y-45708655D01*
X88408482Y-45715900D01*
X88394520Y-45729526D01*
X88386836Y-45747457D01*
X88386598Y-45766964D01*
X88389328Y-45776379D01*
X88552376Y-46184000D01*
X88150038Y-46184000D01*
X88140283Y-46184961D01*
X88122259Y-46192427D01*
X88108465Y-46206221D01*
X88100999Y-46224245D01*
X87878777Y-46224245D01*
X87878777Y-45486433D01*
X89279328Y-45486433D01*
X89279328Y-46981566D01*
G37*
G36*
X99279328Y-79481566D02*
G01*
X97878777Y-79481566D01*
X97878777Y-78724245D01*
X98100999Y-78724245D01*
X98100999Y-78743755D01*
X98108465Y-78761779D01*
X98122259Y-78775573D01*
X98140283Y-78783039D01*
X98150038Y-78784000D01*
X98552376Y-78784000D01*
X98389328Y-79191620D01*
X98386598Y-79201035D01*
X98386836Y-79220542D01*
X98394520Y-79238473D01*
X98408482Y-79252099D01*
X98426597Y-79259344D01*
X98446104Y-79259106D01*
X98464035Y-79251422D01*
X98477661Y-79237460D01*
X98482176Y-79228760D01*
X98648421Y-78813145D01*
X98977180Y-79059714D01*
X98985561Y-79064798D01*
X99004459Y-79069640D01*
X99023771Y-79066881D01*
X99040558Y-79056941D01*
X99052264Y-79041333D01*
X99057106Y-79022435D01*
X99054347Y-79003123D01*
X99044407Y-78986336D01*
X99037180Y-78979714D01*
X98709561Y-78733999D01*
X99037180Y-78488285D01*
X99044408Y-78481663D01*
X99054347Y-78464876D01*
X99057106Y-78445564D01*
X99052264Y-78426665D01*
X99040558Y-78411057D01*
X99023771Y-78401118D01*
X99004460Y-78398359D01*
X98985561Y-78403201D01*
X98977180Y-78408285D01*
X98648421Y-78654854D01*
X98482176Y-78239239D01*
X98477661Y-78230539D01*
X98464035Y-78216577D01*
X98446104Y-78208893D01*
X98426597Y-78208655D01*
X98408482Y-78215900D01*
X98394520Y-78229526D01*
X98386836Y-78247457D01*
X98386598Y-78266964D01*
X98389328Y-78276379D01*
X98552376Y-78684000D01*
X98150038Y-78684000D01*
X98140283Y-78684961D01*
X98122259Y-78692427D01*
X98108465Y-78706221D01*
X98100999Y-78724245D01*
X97878777Y-78724245D01*
X97878777Y-77986433D01*
X99279328Y-77986433D01*
X99279328Y-79481566D01*
G37*
G36*
X99029328Y-53231566D02*
G01*
X97628777Y-53231566D01*
X97628777Y-52474245D01*
X97850999Y-52474245D01*
X97850999Y-52493755D01*
X97858465Y-52511779D01*
X97872259Y-52525573D01*
X97890283Y-52533039D01*
X97900038Y-52534000D01*
X98302376Y-52534000D01*
X98139328Y-52941620D01*
X98136598Y-52951035D01*
X98136836Y-52970542D01*
X98144520Y-52988473D01*
X98158482Y-53002099D01*
X98176597Y-53009344D01*
X98196104Y-53009106D01*
X98214035Y-53001422D01*
X98227661Y-52987460D01*
X98232176Y-52978760D01*
X98398421Y-52563145D01*
X98727180Y-52809714D01*
X98735561Y-52814798D01*
X98754459Y-52819640D01*
X98773771Y-52816881D01*
X98790558Y-52806941D01*
X98802264Y-52791333D01*
X98807106Y-52772435D01*
X98804347Y-52753123D01*
X98794407Y-52736336D01*
X98787180Y-52729714D01*
X98459561Y-52483999D01*
X98787180Y-52238285D01*
X98794408Y-52231663D01*
X98804347Y-52214876D01*
X98807106Y-52195564D01*
X98802264Y-52176665D01*
X98790558Y-52161057D01*
X98773771Y-52151118D01*
X98754460Y-52148359D01*
X98735561Y-52153201D01*
X98727180Y-52158285D01*
X98398421Y-52404854D01*
X98232176Y-51989239D01*
X98227661Y-51980539D01*
X98214035Y-51966577D01*
X98196104Y-51958893D01*
X98176597Y-51958655D01*
X98158482Y-51965900D01*
X98144520Y-51979526D01*
X98136836Y-51997457D01*
X98136598Y-52016964D01*
X98139328Y-52026379D01*
X98302376Y-52434000D01*
X97900038Y-52434000D01*
X97890283Y-52434961D01*
X97872259Y-52442427D01*
X97858465Y-52456221D01*
X97850999Y-52474245D01*
X97628777Y-52474245D01*
X97628777Y-51736433D01*
X99029328Y-51736433D01*
X99029328Y-53231566D01*
G37*
G36*
X84779328Y-77731566D02*
G01*
X83378777Y-77731566D01*
X83378777Y-76974245D01*
X83600999Y-76974245D01*
X83600999Y-76993755D01*
X83608465Y-77011779D01*
X83622259Y-77025573D01*
X83640283Y-77033039D01*
X83650038Y-77034000D01*
X84052376Y-77034000D01*
X83889328Y-77441620D01*
X83886598Y-77451035D01*
X83886836Y-77470542D01*
X83894520Y-77488473D01*
X83908482Y-77502099D01*
X83926597Y-77509344D01*
X83946104Y-77509106D01*
X83964035Y-77501422D01*
X83977661Y-77487460D01*
X83982176Y-77478760D01*
X84148421Y-77063145D01*
X84477180Y-77309714D01*
X84485561Y-77314798D01*
X84504459Y-77319640D01*
X84523771Y-77316881D01*
X84540558Y-77306941D01*
X84552264Y-77291333D01*
X84557106Y-77272435D01*
X84554347Y-77253123D01*
X84544407Y-77236336D01*
X84537180Y-77229714D01*
X84209561Y-76983999D01*
X84537180Y-76738285D01*
X84544408Y-76731663D01*
X84554347Y-76714876D01*
X84557106Y-76695564D01*
X84552264Y-76676665D01*
X84540558Y-76661057D01*
X84523771Y-76651118D01*
X84504460Y-76648359D01*
X84485561Y-76653201D01*
X84477180Y-76658285D01*
X84148421Y-76904854D01*
X83982176Y-76489239D01*
X83977661Y-76480539D01*
X83964035Y-76466577D01*
X83946104Y-76458893D01*
X83926597Y-76458655D01*
X83908482Y-76465900D01*
X83894520Y-76479526D01*
X83886836Y-76497457D01*
X83886598Y-76516964D01*
X83889328Y-76526379D01*
X84052376Y-76934000D01*
X83650038Y-76934000D01*
X83640283Y-76934961D01*
X83622259Y-76942427D01*
X83608465Y-76956221D01*
X83600999Y-76974245D01*
X83378777Y-76974245D01*
X83378777Y-76236433D01*
X84779328Y-76236433D01*
X84779328Y-77731566D01*
G37*
D13*
G36*
X94465276Y-90065362D02*
G01*
X94501281Y-90089629D01*
X94551391Y-90146054D01*
X94576674Y-90208825D01*
X94576576Y-90275551D01*
X94557253Y-90331373D01*
X94517623Y-90384698D01*
X94465431Y-90419211D01*
X94406074Y-90435099D01*
X94344951Y-90432551D01*
X94287460Y-90411754D01*
X94239000Y-90372895D01*
X94206140Y-90319163D01*
X94187716Y-90257655D01*
X94188736Y-90206456D01*
X94210200Y-90157006D01*
X94228008Y-90131441D01*
X94280657Y-90080108D01*
X94340573Y-90051552D01*
X94403525Y-90046421D01*
X94465276Y-90065362D01*
G37*
G36*
X94410795Y-91104642D02*
G01*
X94441902Y-91110319D01*
X94466329Y-91124090D01*
X94493919Y-91149477D01*
X94495275Y-91150832D01*
X94535891Y-91206993D01*
X94554555Y-91267971D01*
X94553268Y-91329282D01*
X94534030Y-91386445D01*
X94498843Y-91434975D01*
X94449706Y-91470390D01*
X94388621Y-91488207D01*
X94344649Y-91488353D01*
X94280546Y-91471983D01*
X94230061Y-91435677D01*
X94189269Y-91376566D01*
X94187819Y-91373756D01*
X94167944Y-91330607D01*
X94160788Y-91297455D01*
X94164957Y-91261996D01*
X94172123Y-91235150D01*
X94188730Y-91201789D01*
X94217124Y-91164060D01*
X94231043Y-91149384D01*
X94259251Y-91124147D01*
X94284204Y-91110388D01*
X94315821Y-91104664D01*
X94363163Y-91103532D01*
X94410795Y-91104642D01*
G37*
G36*
X93627919Y-90597469D02*
G01*
X93677163Y-90616088D01*
X93718246Y-90649503D01*
X93746749Y-90695261D01*
X93758254Y-90750906D01*
X93750355Y-90807633D01*
X93722946Y-90860068D01*
X93680609Y-90896705D01*
X93629186Y-90916782D01*
X93574514Y-90919535D01*
X93522433Y-90904200D01*
X93478783Y-90870014D01*
X93461805Y-90845360D01*
X93439013Y-90803806D01*
X93207402Y-90810504D01*
X93123802Y-90812175D01*
X93052585Y-90812129D01*
X92997643Y-90810456D01*
X92962870Y-90807245D01*
X92953402Y-90804672D01*
X92934275Y-90781288D01*
X92933735Y-90751195D01*
X92947507Y-90730894D01*
X92965509Y-90726244D01*
X93005328Y-90721344D01*
X93062401Y-90716582D01*
X93132165Y-90712347D01*
X93200799Y-90709349D01*
X93437598Y-90700817D01*
X93475417Y-90654935D01*
X93522627Y-90614438D01*
X93574934Y-90596101D01*
X93627919Y-90597469D01*
G37*
G36*
X91057659Y-91620163D02*
G01*
X91144121Y-91626024D01*
X91218020Y-91637360D01*
X91286198Y-91655543D01*
X91355498Y-91681943D01*
X91421845Y-91712574D01*
X91529564Y-91776289D01*
X91616669Y-91850941D01*
X91682581Y-91934159D01*
X91726719Y-92023570D01*
X91748507Y-92116803D01*
X91747364Y-92211487D01*
X91722711Y-92305248D01*
X91673970Y-92395715D01*
X91607657Y-92473702D01*
X91506824Y-92554399D01*
X91389139Y-92618239D01*
X91258415Y-92664782D01*
X91118460Y-92693587D01*
X90973085Y-92704217D01*
X90826101Y-92696229D01*
X90681318Y-92669185D01*
X90542545Y-92622644D01*
X90496700Y-92601958D01*
X90386812Y-92537804D01*
X90297332Y-92462332D01*
X90229653Y-92377315D01*
X90185164Y-92284527D01*
X90165260Y-92185744D01*
X90164836Y-92178909D01*
X90165399Y-92117667D01*
X90172459Y-92061105D01*
X90178302Y-92038044D01*
X90223933Y-91940522D01*
X90293338Y-91852370D01*
X90385249Y-91774636D01*
X90498395Y-91708370D01*
X90631509Y-91654622D01*
X90648777Y-91649059D01*
X90691138Y-91636765D01*
X90730890Y-91628197D01*
X90774297Y-91622721D01*
X90827624Y-91619703D01*
X90897135Y-91618509D01*
X90951793Y-91618408D01*
X91057659Y-91620163D01*
G37*
G36*
X94199347Y-87723191D02*
G01*
X94225187Y-87753370D01*
X94230165Y-87767583D01*
X94232536Y-87790253D01*
X94234502Y-87835509D01*
X94236000Y-87899549D01*
X94236965Y-87978571D01*
X94237334Y-88068775D01*
X94237043Y-88166358D01*
X94236990Y-88174286D01*
X94236310Y-88294142D01*
X94235823Y-88426850D01*
X94235544Y-88563721D01*
X94235487Y-88696063D01*
X94235666Y-88815184D01*
X94235855Y-88868544D01*
X94237299Y-89193348D01*
X94339559Y-89230307D01*
X94378158Y-89244342D01*
X94437383Y-89265985D01*
X94513099Y-89293721D01*
X94601168Y-89326032D01*
X94697456Y-89361402D01*
X94797827Y-89398314D01*
X94825154Y-89408371D01*
X95208489Y-89549476D01*
X95709206Y-89559150D01*
X95843540Y-89561817D01*
X95953854Y-89564366D01*
X96042514Y-89567150D01*
X96111885Y-89570524D01*
X96164333Y-89574841D01*
X96202224Y-89580452D01*
X96227922Y-89587713D01*
X96243793Y-89596975D01*
X96252204Y-89608592D01*
X96255519Y-89622917D01*
X96256104Y-89640303D01*
X96256104Y-89640802D01*
X96251865Y-89655030D01*
X96237534Y-89673902D01*
X96210690Y-89699573D01*
X96168913Y-89734202D01*
X96109784Y-89779947D01*
X96048286Y-89826049D01*
X95967905Y-89885872D01*
X95879683Y-89951667D01*
X95791584Y-90017484D01*
X95711574Y-90077376D01*
X95667922Y-90110127D01*
X95495375Y-90239747D01*
X95512641Y-90321977D01*
X95537801Y-90481278D01*
X95550795Y-90655737D01*
X95551740Y-90837153D01*
X95540754Y-91017328D01*
X95517954Y-91188063D01*
X95498865Y-91281662D01*
X95497648Y-91296574D01*
X95503522Y-91311834D01*
X95519614Y-91330692D01*
X95549047Y-91356398D01*
X95594949Y-91392200D01*
X95632134Y-91420208D01*
X95771243Y-91524451D01*
X95890056Y-91613751D01*
X95989515Y-91688831D01*
X96070562Y-91750412D01*
X96134140Y-91799213D01*
X96181191Y-91835957D01*
X96212656Y-91861365D01*
X96229479Y-91876157D01*
X96232689Y-91879789D01*
X96242609Y-91917226D01*
X96231424Y-91954669D01*
X96213584Y-91973641D01*
X96202919Y-91979041D01*
X96186180Y-91983425D01*
X96160808Y-91986896D01*
X96124244Y-91989554D01*
X96073928Y-91991499D01*
X96007301Y-91992834D01*
X95921804Y-91993659D01*
X95814877Y-91994074D01*
X95692878Y-91994182D01*
X95565425Y-91994245D01*
X95461491Y-91994528D01*
X95378203Y-91995174D01*
X95312688Y-91996324D01*
X95262076Y-91998118D01*
X95223494Y-92000700D01*
X95194070Y-92004210D01*
X95170934Y-92008789D01*
X95151212Y-92014580D01*
X95132033Y-92021725D01*
X95131736Y-92021843D01*
X95094553Y-92036150D01*
X95037597Y-92057519D01*
X94965101Y-92084405D01*
X94881301Y-92115265D01*
X94790430Y-92148557D01*
X94696724Y-92182738D01*
X94604416Y-92216265D01*
X94517742Y-92247595D01*
X94440934Y-92275185D01*
X94378229Y-92297492D01*
X94333860Y-92312974D01*
X94319566Y-92317774D01*
X94279960Y-92332177D01*
X94251751Y-92345219D01*
X94243214Y-92351545D01*
X94241860Y-92366580D01*
X94240624Y-92405411D01*
X94239529Y-92465443D01*
X94238600Y-92544083D01*
X94237862Y-92638738D01*
X94237339Y-92746813D01*
X94237056Y-92865715D01*
X94237038Y-92992850D01*
X94237049Y-93003539D01*
X94236945Y-93172757D01*
X94236235Y-93317994D01*
X94234927Y-93438845D01*
X94233028Y-93534907D01*
X94230548Y-93605778D01*
X94227493Y-93651055D01*
X94224033Y-93670054D01*
X94194835Y-93704397D01*
X94158997Y-93715327D01*
X94124258Y-93703543D01*
X94092156Y-93682508D01*
X94092156Y-93041453D01*
X94092027Y-92889486D01*
X94091609Y-92762096D01*
X94090854Y-92657472D01*
X94089716Y-92573802D01*
X94088147Y-92509276D01*
X94086101Y-92462082D01*
X94083530Y-92430408D01*
X94080387Y-92412443D01*
X94076626Y-92406377D01*
X94075663Y-92406476D01*
X94055585Y-92413345D01*
X94018156Y-92425743D01*
X93971139Y-92441101D01*
X93966806Y-92442507D01*
X93920238Y-92458438D01*
X93883612Y-92472499D01*
X93864192Y-92481882D01*
X93863459Y-92482470D01*
X93858678Y-92488822D01*
X93854796Y-92500032D01*
X93851701Y-92518731D01*
X93849283Y-92547553D01*
X93847430Y-92589128D01*
X93846032Y-92646089D01*
X93844978Y-92721069D01*
X93844156Y-92816699D01*
X93843456Y-92935611D01*
X93843334Y-92959759D01*
X93842608Y-93071820D01*
X93841562Y-93160383D01*
X93840031Y-93228338D01*
X93837852Y-93278574D01*
X93834861Y-93313984D01*
X93830894Y-93337456D01*
X93825787Y-93351881D01*
X93820720Y-93358902D01*
X93785779Y-93377950D01*
X93746337Y-93371602D01*
X93728605Y-93360968D01*
X93721428Y-93354649D01*
X93715787Y-93345461D01*
X93711538Y-93330530D01*
X93708540Y-93306982D01*
X93706650Y-93271941D01*
X93705725Y-93222532D01*
X93705623Y-93155881D01*
X93706201Y-93069112D01*
X93707315Y-92959351D01*
X93707563Y-92936835D01*
X93708684Y-92820397D01*
X93709130Y-92727896D01*
X93708821Y-92656885D01*
X93707675Y-92604920D01*
X93705610Y-92569553D01*
X93702546Y-92548339D01*
X93698401Y-92538832D01*
X93694285Y-92537999D01*
X93673746Y-92544717D01*
X93635383Y-92556527D01*
X93586704Y-92571125D01*
X93575745Y-92574367D01*
X93474970Y-92604105D01*
X93469768Y-92782123D01*
X93467242Y-92855150D01*
X93464191Y-92906316D01*
X93459915Y-92940152D01*
X93453711Y-92961187D01*
X93444881Y-92973950D01*
X93439372Y-92978564D01*
X93399021Y-92995717D01*
X93361772Y-92987480D01*
X93347592Y-92976252D01*
X93337828Y-92960545D01*
X93331527Y-92933640D01*
X93328080Y-92890766D01*
X93326882Y-92827153D01*
X93326857Y-92813516D01*
X93326259Y-92754994D01*
X93324640Y-92706850D01*
X93322263Y-92674820D01*
X93320020Y-92664677D01*
X93305984Y-92666456D01*
X93270615Y-92675303D01*
X93217680Y-92690148D01*
X93150950Y-92709922D01*
X93074193Y-92733556D01*
X93046227Y-92742361D01*
X92730414Y-92839583D01*
X92416068Y-92930951D01*
X92105788Y-93015861D01*
X91802170Y-93093710D01*
X91507812Y-93163894D01*
X91225310Y-93225810D01*
X90957261Y-93278855D01*
X90706264Y-93322426D01*
X90474915Y-93355919D01*
X90334815Y-93372153D01*
X90059438Y-93391940D01*
X89801587Y-93392983D01*
X89561438Y-93375333D01*
X89339168Y-93339040D01*
X89134952Y-93284155D01*
X88948968Y-93210728D01*
X88781392Y-93118809D01*
X88632399Y-93008450D01*
X88502165Y-92879701D01*
X88465759Y-92836225D01*
X88429276Y-92787070D01*
X88389862Y-92728061D01*
X88350345Y-92664164D01*
X88313551Y-92600344D01*
X88282306Y-92541568D01*
X88259437Y-92492803D01*
X88247771Y-92459014D01*
X88246857Y-92451600D01*
X88241216Y-92426099D01*
X88228217Y-92394394D01*
X88216045Y-92363085D01*
X88201509Y-92315754D01*
X88187605Y-92262219D01*
X88186636Y-92258078D01*
X88175269Y-92210489D01*
X88165936Y-92174048D01*
X88160348Y-92155376D01*
X88159821Y-92154346D01*
X88148456Y-92159938D01*
X88120275Y-92178666D01*
X88079438Y-92207649D01*
X88030101Y-92244006D01*
X88026571Y-92246652D01*
X87841403Y-92401051D01*
X87677640Y-92569769D01*
X87535854Y-92751575D01*
X87416615Y-92945239D01*
X87320495Y-93149530D01*
X87248064Y-93363216D01*
X87199893Y-93585068D01*
X87176552Y-93813855D01*
X87178613Y-94048345D01*
X87180210Y-94071681D01*
X87206630Y-94287541D01*
X87253040Y-94500662D01*
X87317848Y-94705721D01*
X87399458Y-94897394D01*
X87462788Y-95015750D01*
X87503774Y-95096644D01*
X87525051Y-95168722D01*
X87528117Y-95238875D01*
X87521371Y-95285188D01*
X87491572Y-95369206D01*
X87442433Y-95438983D01*
X87378001Y-95492509D01*
X87302324Y-95527769D01*
X87219448Y-95542752D01*
X87133419Y-95535445D01*
X87064987Y-95512171D01*
X87020640Y-95487400D01*
X86981238Y-95455085D01*
X86943795Y-95411429D01*
X86905325Y-95352634D01*
X86862843Y-95274904D01*
X86835514Y-95220312D01*
X86756275Y-95043919D01*
X86686428Y-94859364D01*
X86628201Y-94673674D01*
X86583821Y-94493876D01*
X86557601Y-94343230D01*
X86550232Y-94291479D01*
X86543507Y-94250236D01*
X86538540Y-94226126D01*
X86537380Y-94222891D01*
X86534093Y-94204789D01*
X86531306Y-94165063D01*
X86529062Y-94108476D01*
X86527402Y-94039790D01*
X86526365Y-93963768D01*
X86526157Y-93919775D01*
X86668745Y-93919775D01*
X86669029Y-93996707D01*
X86669983Y-94067825D01*
X86671602Y-94128485D01*
X86673881Y-94174040D01*
X86676813Y-94199844D01*
X86678264Y-94203701D01*
X86693313Y-94203696D01*
X86725094Y-94196908D01*
X86749863Y-94189902D01*
X86795196Y-94179322D01*
X86855107Y-94169725D01*
X86917797Y-94162949D01*
X86927377Y-94162245D01*
X87039533Y-94154626D01*
X87039817Y-93902378D01*
X87040501Y-93803124D01*
X87042625Y-93723770D01*
X87046672Y-93657844D01*
X87053129Y-93598876D01*
X87062479Y-93540392D01*
X87069771Y-93502387D01*
X87130380Y-93264801D01*
X87214176Y-93039737D01*
X87320948Y-92827510D01*
X87450485Y-92628437D01*
X87602575Y-92442833D01*
X87777008Y-92271014D01*
X87973574Y-92113297D01*
X88017747Y-92081926D01*
X88125103Y-92007283D01*
X88118284Y-91806109D01*
X88115705Y-91736236D01*
X88113093Y-91676350D01*
X88110683Y-91631098D01*
X88108709Y-91605126D01*
X88107924Y-91600771D01*
X88093237Y-91602763D01*
X88060861Y-91618217D01*
X88014274Y-91644841D01*
X87956957Y-91680340D01*
X87892388Y-91722421D01*
X87824048Y-91768792D01*
X87755417Y-91817157D01*
X87689973Y-91865225D01*
X87631197Y-91910702D01*
X87604089Y-91932843D01*
X87405050Y-92114970D01*
X87229660Y-92308759D01*
X87077729Y-92514556D01*
X86949065Y-92732706D01*
X86843477Y-92963555D01*
X86760775Y-93207450D01*
X86700767Y-93464735D01*
X86677572Y-93610545D01*
X86674422Y-93646848D01*
X86671970Y-93700568D01*
X86670210Y-93767060D01*
X86669137Y-93841678D01*
X86668745Y-93919775D01*
X86526157Y-93919775D01*
X86525994Y-93885171D01*
X86526330Y-93808761D01*
X86527412Y-93739302D01*
X86529283Y-93681554D01*
X86531984Y-93640281D01*
X86532335Y-93636935D01*
X86572577Y-93383973D01*
X86636087Y-93135033D01*
X86721522Y-92893567D01*
X86827537Y-92663032D01*
X86952788Y-92446881D01*
X87049182Y-92308651D01*
X87109476Y-92233684D01*
X87184719Y-92148173D01*
X87269198Y-92057992D01*
X87357201Y-91969014D01*
X87443016Y-91887112D01*
X87520928Y-91818158D01*
X87547275Y-91796573D01*
X87628175Y-91735197D01*
X87722105Y-91668869D01*
X87821293Y-91602731D01*
X87917968Y-91541926D01*
X88004359Y-91491596D01*
X88025073Y-91480385D01*
X88107924Y-91436468D01*
X88110686Y-91435004D01*
X88119395Y-90861363D01*
X88121348Y-90724058D01*
X88123148Y-90580787D01*
X88124746Y-90436819D01*
X88126090Y-90297424D01*
X88126783Y-90211084D01*
X88259014Y-90211084D01*
X88330806Y-90203674D01*
X88405276Y-90200346D01*
X88463178Y-90209556D01*
X88512293Y-90233669D01*
X88558099Y-90272729D01*
X88599779Y-90324423D01*
X88616942Y-90371062D01*
X88609321Y-90411526D01*
X88595577Y-90429655D01*
X88570511Y-90446970D01*
X88544659Y-90445447D01*
X88513271Y-90423651D01*
X88486523Y-90396715D01*
X88447193Y-90360292D01*
X88409447Y-90341344D01*
X88382722Y-90335766D01*
X88348806Y-90332931D01*
X88327148Y-90339486D01*
X88307681Y-90360563D01*
X88293626Y-90381162D01*
X88274584Y-90413555D01*
X88264659Y-90443972D01*
X88261661Y-90482572D01*
X88262710Y-90524579D01*
X88266650Y-90615325D01*
X89070305Y-90618726D01*
X89251010Y-90619646D01*
X89406539Y-90620785D01*
X89538102Y-90622170D01*
X89646913Y-90623829D01*
X89734182Y-90625789D01*
X89801123Y-90628078D01*
X89848946Y-90630724D01*
X89878864Y-90633753D01*
X89892089Y-90637193D01*
X89892355Y-90637395D01*
X89904672Y-90661314D01*
X89906778Y-90693069D01*
X89905195Y-90708047D01*
X89902337Y-90720859D01*
X89896293Y-90731650D01*
X89885149Y-90740567D01*
X89866995Y-90747754D01*
X89839916Y-90753357D01*
X89802002Y-90757521D01*
X89751339Y-90760392D01*
X89686016Y-90762114D01*
X89604120Y-90762834D01*
X89503738Y-90762697D01*
X89382959Y-90761848D01*
X89239869Y-90760433D01*
X89072558Y-90758596D01*
X89048442Y-90758329D01*
X88260052Y-90749593D01*
X88260052Y-90844751D01*
X88264620Y-90920016D01*
X88279389Y-90974080D01*
X88305955Y-91010685D01*
X88339545Y-91031095D01*
X88372079Y-91040872D01*
X88401069Y-91037069D01*
X88426171Y-91026457D01*
X88460583Y-91003357D01*
X88484826Y-90975428D01*
X88486604Y-90971938D01*
X88511604Y-90940859D01*
X88544752Y-90927817D01*
X88578133Y-90932693D01*
X88603834Y-90955365D01*
X88611464Y-90973856D01*
X88610229Y-91019202D01*
X88588049Y-91068634D01*
X88548224Y-91115821D01*
X88529068Y-91131909D01*
X88502116Y-91150663D01*
X88476640Y-91161895D01*
X88444590Y-91167500D01*
X88397912Y-91169375D01*
X88369407Y-91169506D01*
X88259083Y-91169506D01*
X88262867Y-91275065D01*
X88266650Y-91380623D01*
X88324968Y-91384790D01*
X88368657Y-91385691D01*
X88406016Y-91382826D01*
X88413791Y-91381301D01*
X88455678Y-91360738D01*
X88498564Y-91324059D01*
X88533918Y-91279756D01*
X88550988Y-91244717D01*
X88566412Y-91208363D01*
X88584374Y-91182047D01*
X88587303Y-91179403D01*
X88598563Y-91175330D01*
X88622369Y-91171928D01*
X88660547Y-91169151D01*
X88714921Y-91166950D01*
X88787316Y-91165278D01*
X88879557Y-91164088D01*
X88993469Y-91163332D01*
X89130876Y-91162964D01*
X89222859Y-91162909D01*
X89368453Y-91162999D01*
X89489929Y-91163317D01*
X89589555Y-91163935D01*
X89669603Y-91164927D01*
X89732341Y-91166363D01*
X89780041Y-91168318D01*
X89814973Y-91170862D01*
X89839406Y-91174069D01*
X89855610Y-91178011D01*
X89865856Y-91182760D01*
X89866883Y-91183449D01*
X89889634Y-91211782D01*
X89896424Y-91247124D01*
X89886902Y-91279330D01*
X89870686Y-91294393D01*
X89850280Y-91298052D01*
X89804220Y-91301168D01*
X89733234Y-91303725D01*
X89638053Y-91305706D01*
X89519405Y-91307095D01*
X89378021Y-91307875D01*
X89258017Y-91308052D01*
X89118369Y-91308071D01*
X89002793Y-91308202D01*
X88908969Y-91308552D01*
X88834579Y-91309230D01*
X88777305Y-91310345D01*
X88734828Y-91312004D01*
X88704830Y-91314315D01*
X88684991Y-91317388D01*
X88672994Y-91321331D01*
X88666521Y-91326251D01*
X88663251Y-91332258D01*
X88662031Y-91335900D01*
X88640433Y-91375085D01*
X88602217Y-91419147D01*
X88554427Y-91461279D01*
X88504105Y-91494668D01*
X88490961Y-91501318D01*
X88421619Y-91524835D01*
X88343711Y-91532232D01*
X88342520Y-91532235D01*
X88260052Y-91532364D01*
X88260052Y-91729331D01*
X88264081Y-91894752D01*
X88276992Y-92040661D01*
X88300021Y-92172802D01*
X88334406Y-92296920D01*
X88381383Y-92418759D01*
X88430668Y-92521974D01*
X88518777Y-92671432D01*
X88620350Y-92802237D01*
X88736625Y-92915098D01*
X88868843Y-93010724D01*
X89018243Y-93089824D01*
X89186063Y-93153106D01*
X89373542Y-93201279D01*
X89581921Y-93235053D01*
X89698286Y-93247103D01*
X89850240Y-93254032D01*
X90024563Y-93250939D01*
X90219326Y-93238101D01*
X90432604Y-93215797D01*
X90662467Y-93184304D01*
X90906989Y-93143902D01*
X91164243Y-93094867D01*
X91432300Y-93037478D01*
X91709232Y-92972014D01*
X91848481Y-92936842D01*
X91995878Y-92897909D01*
X92163282Y-92852075D01*
X92345666Y-92800790D01*
X92538004Y-92745503D01*
X92735267Y-92687665D01*
X92932431Y-92628723D01*
X93124467Y-92570127D01*
X93178416Y-92553425D01*
X93326857Y-92507313D01*
X93326857Y-92224662D01*
X93326857Y-91942011D01*
X93359198Y-91920820D01*
X93399150Y-91906858D01*
X93434399Y-91916564D01*
X93458845Y-91948165D01*
X93459561Y-91949988D01*
X93463593Y-91973476D01*
X93467080Y-92018390D01*
X93469793Y-92079766D01*
X93471504Y-92152642D01*
X93472000Y-92220242D01*
X93472088Y-92304576D01*
X93472628Y-92365977D01*
X93474036Y-92407900D01*
X93476726Y-92433801D01*
X93481116Y-92447136D01*
X93487619Y-92451361D01*
X93496651Y-92449933D01*
X93499502Y-92449050D01*
X93525724Y-92440484D01*
X93567718Y-92426521D01*
X93614957Y-92410665D01*
X93702909Y-92381010D01*
X93706527Y-92161302D01*
X93707998Y-92080401D01*
X93709726Y-92021801D01*
X93712297Y-91981413D01*
X93716299Y-91955149D01*
X93722318Y-91938923D01*
X93730940Y-91928647D01*
X93740953Y-91921406D01*
X93780497Y-91908934D01*
X93818295Y-91921689D01*
X93837737Y-91940585D01*
X93845557Y-91964659D01*
X93850868Y-92013875D01*
X93853706Y-92088675D01*
X93854230Y-92142623D01*
X93855109Y-92208377D01*
X93857230Y-92263504D01*
X93860304Y-92303239D01*
X93864041Y-92322819D01*
X93865282Y-92324052D01*
X93881813Y-92319798D01*
X93916585Y-92308468D01*
X93963114Y-92292207D01*
X93980584Y-92285891D01*
X94030085Y-92267128D01*
X94063867Y-92249835D01*
X94084637Y-92228781D01*
X94095102Y-92198736D01*
X94097970Y-92154470D01*
X94095947Y-92090751D01*
X94094708Y-92065391D01*
X94092293Y-92008258D01*
X94092617Y-91971454D01*
X94096741Y-91948972D01*
X94105728Y-91934807D01*
X94119785Y-91923547D01*
X94155467Y-91904697D01*
X94184199Y-91907436D01*
X94210909Y-91928208D01*
X94223864Y-91944928D01*
X94231814Y-91967590D01*
X94235897Y-92002461D01*
X94237253Y-92055805D01*
X94237299Y-92073351D01*
X94238376Y-92125646D01*
X94241262Y-92166192D01*
X94245437Y-92189100D01*
X94247776Y-92192104D01*
X94264261Y-92187672D01*
X94301736Y-92175275D01*
X94356500Y-92156262D01*
X94424854Y-92131982D01*
X94503095Y-92103784D01*
X94587523Y-92073018D01*
X94674437Y-92041032D01*
X94760136Y-92009176D01*
X94840920Y-91978798D01*
X94913087Y-91951247D01*
X94972936Y-91927874D01*
X94976208Y-91926572D01*
X95154338Y-91855636D01*
X95556780Y-91849039D01*
X95959221Y-91842442D01*
X95659242Y-91618130D01*
X95577650Y-91556379D01*
X95504841Y-91499832D01*
X95443328Y-91450544D01*
X95395624Y-91410569D01*
X95364244Y-91381961D01*
X95351699Y-91366776D01*
X95351684Y-91366726D01*
X95351248Y-91343008D01*
X95356051Y-91300333D01*
X95365187Y-91245406D01*
X95373992Y-91201791D01*
X95384103Y-91152127D01*
X95391681Y-91105765D01*
X95397077Y-91057590D01*
X95400643Y-91002492D01*
X95402729Y-90935359D01*
X95403688Y-90851078D01*
X95403879Y-90767065D01*
X95403561Y-90664800D01*
X95402381Y-90583852D01*
X95399994Y-90519152D01*
X95396059Y-90465631D01*
X95390233Y-90418222D01*
X95382174Y-90371857D01*
X95374751Y-90336065D01*
X95363310Y-90278069D01*
X95355622Y-90228321D01*
X95352567Y-90193297D01*
X95353626Y-90181095D01*
X95366680Y-90166477D01*
X95397556Y-90139615D01*
X95442481Y-90103433D01*
X95497682Y-90060854D01*
X95559387Y-90014805D01*
X95623822Y-89968207D01*
X95670611Y-89935392D01*
X95691472Y-89920157D01*
X95728209Y-89892528D01*
X95775842Y-89856281D01*
X95829390Y-89815187D01*
X95835547Y-89810442D01*
X95972416Y-89704883D01*
X95569974Y-89697861D01*
X95167533Y-89690838D01*
X94989403Y-89620116D01*
X94921344Y-89593672D01*
X94835403Y-89561161D01*
X94738618Y-89525195D01*
X94638027Y-89488386D01*
X94540669Y-89453346D01*
X94524286Y-89447519D01*
X94237299Y-89345644D01*
X94237299Y-89409809D01*
X94230190Y-89464110D01*
X94210651Y-89502285D01*
X94181367Y-89520792D01*
X94154157Y-89519498D01*
X94123056Y-89504050D01*
X94103838Y-89476812D01*
X94094300Y-89432838D01*
X94092156Y-89380267D01*
X94092156Y-89291605D01*
X93973403Y-89251777D01*
X93854650Y-89211949D01*
X93854650Y-89335285D01*
X93853784Y-89391914D01*
X93851466Y-89440087D01*
X93848114Y-89472579D01*
X93846253Y-89480503D01*
X93823622Y-89507024D01*
X93788139Y-89518459D01*
X93750211Y-89512195D01*
X93740713Y-89507007D01*
X93727646Y-89497164D01*
X93718849Y-89484640D01*
X93713480Y-89464510D01*
X93710696Y-89431850D01*
X93709653Y-89381734D01*
X93709507Y-89324649D01*
X93709507Y-89162738D01*
X93599864Y-89127031D01*
X93549576Y-89110973D01*
X93509150Y-89098660D01*
X93484897Y-89091988D01*
X93481111Y-89091325D01*
X93477812Y-89103725D01*
X93475046Y-89137756D01*
X93473050Y-89188656D01*
X93472064Y-89251668D01*
X93472000Y-89273116D01*
X93471345Y-89351453D01*
X93469098Y-89407768D01*
X93464837Y-89446400D01*
X93458139Y-89471689D01*
X93451460Y-89484233D01*
X93423373Y-89506107D01*
X93386860Y-89513633D01*
X93353373Y-89505568D01*
X93341998Y-89496110D01*
X93336144Y-89475923D01*
X93331122Y-89432184D01*
X93327147Y-89367724D01*
X93324432Y-89285374D01*
X93323888Y-89257148D01*
X93320260Y-89035634D01*
X93138125Y-88978795D01*
X92955990Y-88921956D01*
X92854437Y-88994860D01*
X92702386Y-89090142D01*
X92548036Y-89159479D01*
X92391832Y-89202780D01*
X92234220Y-89219951D01*
X92075642Y-89210902D01*
X91943291Y-89183325D01*
X91786623Y-89126448D01*
X91640361Y-89046391D01*
X91506645Y-88945033D01*
X91387616Y-88824256D01*
X91285414Y-88685940D01*
X91202295Y-88532221D01*
X91165049Y-88450077D01*
X90975953Y-88414386D01*
X90891895Y-88399100D01*
X90800228Y-88383426D01*
X90704655Y-88367896D01*
X90608877Y-88353042D01*
X90516597Y-88339397D01*
X90431516Y-88327492D01*
X90357336Y-88317859D01*
X90297760Y-88311032D01*
X90256490Y-88307540D01*
X90237226Y-88307918D01*
X90236737Y-88308137D01*
X90229742Y-88323251D01*
X90222330Y-88355612D01*
X90219149Y-88375814D01*
X90191800Y-88514508D01*
X90147368Y-88663100D01*
X90088866Y-88814387D01*
X90019310Y-88961164D01*
X89941712Y-89096227D01*
X89880863Y-89184424D01*
X89758825Y-89328046D01*
X89627323Y-89448590D01*
X89487786Y-89545715D01*
X89341640Y-89619078D01*
X89190313Y-89668337D01*
X89035234Y-89693148D01*
X88877829Y-89693169D01*
X88719527Y-89668058D01*
X88561755Y-89617472D01*
X88405940Y-89541067D01*
X88402666Y-89539164D01*
X88355529Y-89512974D01*
X88317684Y-89494402D01*
X88294199Y-89485800D01*
X88289088Y-89486456D01*
X88283355Y-89513071D01*
X88277040Y-89558372D01*
X88270930Y-89614695D01*
X88265811Y-89674372D01*
X88262473Y-89729737D01*
X88261725Y-89752921D01*
X88260052Y-89840544D01*
X88356299Y-89845404D01*
X88448788Y-89858305D01*
X88526324Y-89888550D01*
X88593169Y-89938814D01*
X88653584Y-90011773D01*
X88675689Y-90045918D01*
X88681053Y-90051129D01*
X88691755Y-90055531D01*
X88710079Y-90059240D01*
X88738310Y-90062367D01*
X88778733Y-90065027D01*
X88833631Y-90067333D01*
X88905291Y-90069398D01*
X88995995Y-90071337D01*
X89108029Y-90073262D01*
X89243677Y-90075287D01*
X89276052Y-90075745D01*
X89416346Y-90077774D01*
X89532628Y-90079643D01*
X89627274Y-90081478D01*
X89702660Y-90083408D01*
X89761161Y-90085559D01*
X89805154Y-90088059D01*
X89837015Y-90091035D01*
X89859119Y-90094615D01*
X89873843Y-90098924D01*
X89883563Y-90104092D01*
X89888959Y-90108571D01*
X89906370Y-90132343D01*
X89904980Y-90159972D01*
X89901839Y-90169715D01*
X89888980Y-90206286D01*
X89262542Y-90209944D01*
X89135561Y-90210537D01*
X89015992Y-90210809D01*
X88906559Y-90210773D01*
X88809987Y-90210446D01*
X88729002Y-90209839D01*
X88666327Y-90208969D01*
X88624689Y-90207848D01*
X88607008Y-90206543D01*
X88579987Y-90186934D01*
X88564903Y-90152371D01*
X88535370Y-90086318D01*
X88489604Y-90033358D01*
X88432669Y-89996922D01*
X88369627Y-89980445D01*
X88316909Y-89984237D01*
X88266650Y-89996088D01*
X88262832Y-90103586D01*
X88259014Y-90211084D01*
X88126783Y-90211084D01*
X88127130Y-90167871D01*
X88127817Y-90053429D01*
X88128100Y-89959366D01*
X88128104Y-89948133D01*
X88129447Y-89796251D01*
X88133847Y-89666051D01*
X88141858Y-89552943D01*
X88154035Y-89452339D01*
X88170934Y-89359649D01*
X88193109Y-89270284D01*
X88220984Y-89180045D01*
X88295979Y-88993538D01*
X88389704Y-88825552D01*
X88502001Y-88676176D01*
X88632714Y-88545501D01*
X88781685Y-88433616D01*
X88948758Y-88340609D01*
X89133776Y-88266572D01*
X89336581Y-88211594D01*
X89557017Y-88175763D01*
X89794927Y-88159170D01*
X90007564Y-88160144D01*
X90155779Y-88167187D01*
X90256490Y-88174524D01*
X90304476Y-88178020D01*
X90455824Y-88193052D01*
X90611993Y-88212693D01*
X90775152Y-88237350D01*
X90947472Y-88267434D01*
X91131122Y-88303354D01*
X91328272Y-88345518D01*
X91541091Y-88394337D01*
X91771750Y-88450219D01*
X92022418Y-88513573D01*
X92295264Y-88584809D01*
X92383429Y-88608221D01*
X92455689Y-88628095D01*
X92548565Y-88654605D01*
X92657522Y-88686402D01*
X92778025Y-88722136D01*
X92905537Y-88760457D01*
X93035523Y-88800016D01*
X93163447Y-88839462D01*
X93224598Y-88858527D01*
X93326857Y-88890537D01*
X93326857Y-88681796D01*
X93327280Y-88600046D01*
X93328788Y-88540705D01*
X93331740Y-88499799D01*
X93336495Y-88473356D01*
X93343411Y-88457404D01*
X93347592Y-88452319D01*
X93382527Y-88433272D01*
X93421981Y-88439629D01*
X93439790Y-88450307D01*
X93448704Y-88458654D01*
X93455662Y-88471188D01*
X93460931Y-88491035D01*
X93464776Y-88521321D01*
X93467462Y-88565171D01*
X93469255Y-88625713D01*
X93470420Y-88706071D01*
X93471222Y-88809372D01*
X93471295Y-88821410D01*
X93472000Y-88940742D01*
X93581643Y-88976449D01*
X93632109Y-88992523D01*
X93672896Y-89004842D01*
X93697610Y-89011503D01*
X93701574Y-89012156D01*
X93703852Y-88999459D01*
X93705727Y-88963357D01*
X93707159Y-88906829D01*
X93708108Y-88832858D01*
X93708535Y-88744425D01*
X93708399Y-88644511D01*
X93707778Y-88548987D01*
X93706745Y-88426161D01*
X93706119Y-88327044D01*
X93706021Y-88248960D01*
X93706572Y-88189230D01*
X93707895Y-88145176D01*
X93710111Y-88114120D01*
X93713342Y-88093384D01*
X93717710Y-88080289D01*
X93723336Y-88072159D01*
X93729691Y-88066788D01*
X93762585Y-88055365D01*
X93799674Y-88058803D01*
X93828077Y-88075468D01*
X93831225Y-88079669D01*
X93833908Y-88096611D01*
X93836333Y-88136227D01*
X93838393Y-88194800D01*
X93839980Y-88268617D01*
X93840990Y-88353960D01*
X93841313Y-88431584D01*
X93841741Y-88533397D01*
X93842798Y-88635692D01*
X93844377Y-88732595D01*
X93846373Y-88818229D01*
X93848679Y-88886719D01*
X93850099Y-88915981D01*
X93858623Y-89063910D01*
X93975390Y-89103071D01*
X94092156Y-89142233D01*
X94092156Y-88444148D01*
X94092156Y-87746063D01*
X94123362Y-87725616D01*
X94162841Y-87712932D01*
X94199347Y-87723191D01*
G37*
D14*
X63060000Y-100210000D03*
X61560000Y-100210000D03*
D15*
X58060000Y-99960000D03*
D14*
X60060000Y-100210000D03*
D15*
X48071800Y-88425400D03*
D14*
X66060000Y-100210000D03*
X70560000Y-100210000D03*
X58560000Y-100210000D03*
X69060000Y-100210000D03*
X48310000Y-87460000D03*
X64560000Y-100210000D03*
X67560000Y-100210000D03*
X66200000Y-26800000D03*
X64700000Y-26800000D03*
D15*
X69700000Y-27050000D03*
D14*
X58700000Y-26800000D03*
X69200000Y-26800000D03*
X61700000Y-26800000D03*
X67700000Y-26800000D03*
X57200000Y-26800000D03*
D15*
X79688200Y-38584600D03*
D14*
X79450000Y-39550000D03*
X63200000Y-26800000D03*
X60200000Y-26800000D03*
D15*
X56630000Y-61234000D03*
D14*
X56880000Y-57734000D03*
D15*
X56630000Y-62734000D03*
X56630000Y-70234000D03*
X56630000Y-59734000D03*
X56630000Y-68734000D03*
X56630000Y-58234000D03*
X56630000Y-65734000D03*
X69380000Y-47984000D03*
X56630000Y-67234000D03*
D14*
X68414600Y-47745800D03*
D15*
X56630000Y-64234000D03*
X28630000Y-61234000D03*
D14*
X28880000Y-57734000D03*
D15*
X28630000Y-62734000D03*
X28630000Y-70234000D03*
X28630000Y-59734000D03*
X28630000Y-68734000D03*
X28630000Y-58234000D03*
X28630000Y-65734000D03*
X41380000Y-47984000D03*
X28630000Y-67234000D03*
D14*
X40414600Y-47745800D03*
D15*
X28630000Y-64234000D03*
X84630000Y-64234000D03*
D14*
X96414600Y-47745800D03*
D15*
X84630000Y-67234000D03*
X97380000Y-47984000D03*
X84630000Y-65734000D03*
X84630000Y-58234000D03*
X84630000Y-68734000D03*
X84630000Y-59734000D03*
X84630000Y-70234000D03*
X84630000Y-62734000D03*
D14*
X84880000Y-57734000D03*
D15*
X84630000Y-61234000D03*
D16*
X0Y0D02*
X127000000Y0D01*
X127000000Y-127000000D01*
X0Y-127000000D01*
X0Y0D01*
M02*
