%TF.GenerationSoftware,KiCad,Pcbnew,9.0.5*%
%TF.CreationDate,2025-10-28T13:08:04-07:00*%
%TF.ProjectId,ImmunoprecipitationDevice_RevF,496d6d75-6e6f-4707-9265-636970697461,rev?*%
%TF.SameCoordinates,Original*%
%TF.FileFunction,Copper,L4,Bot*%
%TF.FilePolarity,Positive*%
%FSLAX46Y46*%
G04 Gerber Fmt 4.6, Leading zero omitted, Abs format (unit mm)*
G04 Created by KiCad (PCBNEW 9.0.5) date 2025-10-28 13:08:04*
%MOMM*%
%LPD*%
G01*
G04 APERTURE LIST*
G04 Aperture macros list*
%AMFreePoly0*
4,1,133,0.096316,0.566876,0.159180,0.552527,0.220043,0.531231,0.278138,0.503253,0.332736,0.468947,0.383149,0.428744,0.428744,0.383149,0.468947,0.332736,0.503253,0.278138,0.531231,0.220043,0.552527,0.159180,0.566876,0.096316,0.574095,0.032241,0.574095,-0.032241,0.566876,-0.096316,0.552527,-0.159180,0.531231,-0.220043,0.503253,-0.278138,0.468947,-0.332736,0.428744,-0.383149,
0.383149,-0.428744,0.332736,-0.468947,0.278138,-0.503253,0.220043,-0.531231,0.159180,-0.552527,0.096316,-0.566876,0.032241,-0.574095,-0.032241,-0.574095,-0.096316,-0.566876,-0.159180,-0.552527,-0.220043,-0.531231,-0.278138,-0.503253,-0.332736,-0.468947,-0.383149,-0.428744,-0.428744,-0.383149,-0.468087,-0.333814,-0.263104,-0.333814,-0.236624,-0.354133,-0.188376,-0.381989,-0.136905,-0.403309,
-0.083091,-0.417728,-0.050000,-0.422084,0.050000,-0.422084,0.083091,-0.417728,0.136905,-0.403309,0.188376,-0.381989,0.236624,-0.354133,0.263104,-0.333814,0.050000,-0.120710,0.050000,-0.422084,-0.050000,-0.422084,-0.050000,-0.120710,-0.263104,-0.333814,-0.468087,-0.333814,-0.468947,-0.332736,-0.503253,-0.278138,-0.531231,-0.220043,-0.552527,-0.159180,-0.566876,-0.096316,-0.572094,-0.050000,
-0.422085,-0.050000,-0.417728,-0.083091,-0.403309,-0.136905,-0.381989,-0.188376,-0.354133,-0.236624,-0.333814,-0.263104,-0.120710,-0.050000,0.120710,-0.050000,0.333814,-0.263104,0.354133,-0.236624,0.381989,-0.188376,0.403309,-0.136905,0.417728,-0.083091,0.422085,-0.050000,0.120710,-0.050000,-0.120710,-0.050000,-0.422085,-0.050000,-0.572094,-0.050000,-0.574095,-0.032241,-0.574095,0.032241,
-0.572094,0.050000,-0.422085,0.050000,-0.120710,0.050000,0.120710,0.050000,0.422085,0.050000,0.417728,0.083091,0.403309,0.136905,0.381989,0.188376,0.354133,0.236624,0.333814,0.263104,0.120710,0.050000,-0.120710,0.050000,-0.333814,0.263104,-0.354133,0.236624,-0.381989,0.188376,-0.403309,0.136905,-0.417728,0.083091,-0.422085,0.050000,-0.572094,0.050000,-0.566876,0.096316,
-0.552527,0.159180,-0.531231,0.220043,-0.503253,0.278138,-0.468947,0.332736,-0.468087,0.333814,-0.263104,0.333814,-0.050000,0.120710,0.050000,0.120710,0.263104,0.333814,0.236624,0.354133,0.188376,0.381989,0.136905,0.403309,0.083091,0.417728,0.050000,0.422084,0.050000,0.120710,-0.050000,0.120710,-0.050000,0.422084,-0.083091,0.417728,-0.136905,0.403309,-0.188376,0.381989,
-0.236624,0.354133,-0.263104,0.333814,-0.468087,0.333814,-0.428744,0.383149,-0.383149,0.428744,-0.332736,0.468947,-0.278138,0.503253,-0.220043,0.531231,-0.159180,0.552527,-0.096316,0.566876,-0.032241,0.574095,0.032241,0.574095,0.096316,0.566876,0.096316,0.566876,$1*%
G04 Aperture macros list end*
%ADD10C,0.150000*%
%TA.AperFunction,NonConductor*%
%ADD11C,0.150000*%
%TD*%
%ADD12C,0.250000*%
%ADD13C,0.100000*%
%TA.AperFunction,NonConductor*%
%ADD14C,0.100000*%
%TD*%
%ADD15C,0.140000*%
%TA.AperFunction,NonConductor*%
%ADD16C,0.140000*%
%TD*%
%TA.AperFunction,NonConductor*%
%ADD17C,0.250000*%
%TD*%
%TA.AperFunction,SMDPad,CuDef*%
%ADD18FreePoly0,270.000000*%
%TD*%
%TA.AperFunction,SMDPad,CuDef*%
%ADD19FreePoly0,0.000000*%
%TD*%
%TA.AperFunction,SMDPad,CuDef*%
%ADD20FreePoly0,90.000000*%
%TD*%
%TA.AperFunction,SMDPad,CuDef*%
%ADD21FreePoly0,180.000000*%
%TD*%
%TA.AperFunction,Conductor*%
%ADD22C,0.150000*%
%TD*%
G04 APERTURE END LIST*
D10*
D11*
X56309999Y-101803466D02*
X56309999Y-102503466D01*
X56406666Y-102697800D02*
X56213333Y-102697800D01*
D12*
G36*
X81790349Y-86771683D02*
G01*
X80529649Y-86771683D01*
X80529649Y-86129081D01*
X80654649Y-86129081D01*
X80654649Y-86153585D01*
X80659429Y-86177619D01*
X80668807Y-86200258D01*
X80682421Y-86220632D01*
X80699748Y-86237959D01*
X80720122Y-86251573D01*
X80742761Y-86260951D01*
X80766795Y-86265731D01*
X80779047Y-86266333D01*
X81034999Y-86266333D01*
X81034999Y-86522285D01*
X81035601Y-86534537D01*
X81040381Y-86558571D01*
X81049759Y-86581210D01*
X81063373Y-86601584D01*
X81080700Y-86618911D01*
X81101074Y-86632525D01*
X81123713Y-86641903D01*
X81147747Y-86646683D01*
X81172251Y-86646683D01*
X81196285Y-86641903D01*
X81218924Y-86632525D01*
X81239298Y-86618911D01*
X81256625Y-86601584D01*
X81270239Y-86581210D01*
X81279617Y-86558571D01*
X81284397Y-86534537D01*
X81284999Y-86522285D01*
X81284999Y-86266333D01*
X81540951Y-86266333D01*
X81553203Y-86265731D01*
X81577237Y-86260951D01*
X81599876Y-86251573D01*
X81620250Y-86237959D01*
X81637577Y-86220632D01*
X81651191Y-86200258D01*
X81660569Y-86177619D01*
X81665349Y-86153585D01*
X81665349Y-86129081D01*
X81660569Y-86105047D01*
X81651191Y-86082408D01*
X81637577Y-86062034D01*
X81620250Y-86044707D01*
X81599876Y-86031093D01*
X81577237Y-86021715D01*
X81553203Y-86016935D01*
X81540951Y-86016333D01*
X81284999Y-86016333D01*
X81284999Y-85760380D01*
X81284397Y-85748128D01*
X81279617Y-85724094D01*
X81270239Y-85701455D01*
X81256625Y-85681081D01*
X81239298Y-85663754D01*
X81218924Y-85650140D01*
X81196285Y-85640762D01*
X81172251Y-85635982D01*
X81147747Y-85635982D01*
X81123713Y-85640762D01*
X81101074Y-85650140D01*
X81080700Y-85663754D01*
X81063373Y-85681081D01*
X81049759Y-85701455D01*
X81040381Y-85724094D01*
X81035601Y-85748128D01*
X81034999Y-85760380D01*
X81034999Y-86016333D01*
X80779047Y-86016333D01*
X80766795Y-86016935D01*
X80742761Y-86021715D01*
X80720122Y-86031093D01*
X80699748Y-86044707D01*
X80682421Y-86062034D01*
X80668807Y-86082408D01*
X80659429Y-86105047D01*
X80654649Y-86129081D01*
X80529649Y-86129081D01*
X80529649Y-85510982D01*
X81790349Y-85510982D01*
X81790349Y-86771683D01*
G37*
D10*
D11*
X80710000Y-103503466D02*
X80576666Y-103503466D01*
X80576666Y-103503466D02*
X80510000Y-103470133D01*
X80510000Y-103470133D02*
X80443333Y-103403466D01*
X80443333Y-103403466D02*
X80410000Y-103270133D01*
X80410000Y-103270133D02*
X80410000Y-103036800D01*
X80410000Y-103036800D02*
X80443333Y-102903466D01*
X80443333Y-102903466D02*
X80510000Y-102836800D01*
X80510000Y-102836800D02*
X80576666Y-102803466D01*
X80576666Y-102803466D02*
X80710000Y-102803466D01*
X80710000Y-102803466D02*
X80776666Y-102836800D01*
X80776666Y-102836800D02*
X80843333Y-102903466D01*
X80843333Y-102903466D02*
X80876666Y-103036800D01*
X80876666Y-103036800D02*
X80876666Y-103270133D01*
X80876666Y-103270133D02*
X80843333Y-103403466D01*
X80843333Y-103403466D02*
X80776666Y-103470133D01*
X80776666Y-103470133D02*
X80710000Y-103503466D01*
X79743333Y-102803466D02*
X80143333Y-102803466D01*
X79943333Y-102803466D02*
X79943333Y-103503466D01*
X79943333Y-103503466D02*
X80010000Y-103403466D01*
X80010000Y-103403466D02*
X80076667Y-103336800D01*
X80076667Y-103336800D02*
X80143333Y-103303466D01*
X80940000Y-103697800D02*
X79680000Y-103697800D01*
D10*
D11*
X51959999Y-103170133D02*
X51726666Y-103170133D01*
X51626666Y-102803466D02*
X51959999Y-102803466D01*
X51959999Y-102803466D02*
X51959999Y-103503466D01*
X51959999Y-103503466D02*
X51626666Y-103503466D01*
X52056666Y-103697800D02*
X51563333Y-103697800D01*
D10*
D11*
X55210000Y-103503466D02*
X55076666Y-103503466D01*
X55076666Y-103503466D02*
X55010000Y-103470133D01*
X55010000Y-103470133D02*
X54943333Y-103403466D01*
X54943333Y-103403466D02*
X54910000Y-103270133D01*
X54910000Y-103270133D02*
X54910000Y-103036800D01*
X54910000Y-103036800D02*
X54943333Y-102903466D01*
X54943333Y-102903466D02*
X55010000Y-102836800D01*
X55010000Y-102836800D02*
X55076666Y-102803466D01*
X55076666Y-102803466D02*
X55210000Y-102803466D01*
X55210000Y-102803466D02*
X55276666Y-102836800D01*
X55276666Y-102836800D02*
X55343333Y-102903466D01*
X55343333Y-102903466D02*
X55376666Y-103036800D01*
X55376666Y-103036800D02*
X55376666Y-103270133D01*
X55376666Y-103270133D02*
X55343333Y-103403466D01*
X55343333Y-103403466D02*
X55276666Y-103470133D01*
X55276666Y-103470133D02*
X55210000Y-103503466D01*
X54676667Y-103503466D02*
X54243333Y-103503466D01*
X54243333Y-103503466D02*
X54476667Y-103236800D01*
X54476667Y-103236800D02*
X54376667Y-103236800D01*
X54376667Y-103236800D02*
X54310000Y-103203466D01*
X54310000Y-103203466D02*
X54276667Y-103170133D01*
X54276667Y-103170133D02*
X54243333Y-103103466D01*
X54243333Y-103103466D02*
X54243333Y-102936800D01*
X54243333Y-102936800D02*
X54276667Y-102870133D01*
X54276667Y-102870133D02*
X54310000Y-102836800D01*
X54310000Y-102836800D02*
X54376667Y-102803466D01*
X54376667Y-102803466D02*
X54576667Y-102803466D01*
X54576667Y-102803466D02*
X54643333Y-102836800D01*
X54643333Y-102836800D02*
X54676667Y-102870133D01*
X55440000Y-103697800D02*
X54180000Y-103697800D01*
D10*
D11*
X49210000Y-103503466D02*
X49076666Y-103503466D01*
X49076666Y-103503466D02*
X49010000Y-103470133D01*
X49010000Y-103470133D02*
X48943333Y-103403466D01*
X48943333Y-103403466D02*
X48910000Y-103270133D01*
X48910000Y-103270133D02*
X48910000Y-103036800D01*
X48910000Y-103036800D02*
X48943333Y-102903466D01*
X48943333Y-102903466D02*
X49010000Y-102836800D01*
X49010000Y-102836800D02*
X49076666Y-102803466D01*
X49076666Y-102803466D02*
X49210000Y-102803466D01*
X49210000Y-102803466D02*
X49276666Y-102836800D01*
X49276666Y-102836800D02*
X49343333Y-102903466D01*
X49343333Y-102903466D02*
X49376666Y-103036800D01*
X49376666Y-103036800D02*
X49376666Y-103270133D01*
X49376666Y-103270133D02*
X49343333Y-103403466D01*
X49343333Y-103403466D02*
X49276666Y-103470133D01*
X49276666Y-103470133D02*
X49210000Y-103503466D01*
X48643333Y-103436800D02*
X48610000Y-103470133D01*
X48610000Y-103470133D02*
X48543333Y-103503466D01*
X48543333Y-103503466D02*
X48376667Y-103503466D01*
X48376667Y-103503466D02*
X48310000Y-103470133D01*
X48310000Y-103470133D02*
X48276667Y-103436800D01*
X48276667Y-103436800D02*
X48243333Y-103370133D01*
X48243333Y-103370133D02*
X48243333Y-103303466D01*
X48243333Y-103303466D02*
X48276667Y-103203466D01*
X48276667Y-103203466D02*
X48676667Y-102803466D01*
X48676667Y-102803466D02*
X48243333Y-102803466D01*
X49440000Y-103697800D02*
X48180000Y-103697800D01*
D10*
D11*
X77826666Y-103003466D02*
X77493333Y-103003466D01*
X77893333Y-102803466D02*
X77660000Y-103503466D01*
X77660000Y-103503466D02*
X77426666Y-102803466D01*
X76826666Y-103470133D02*
X76893333Y-103503466D01*
X76893333Y-103503466D02*
X76993333Y-103503466D01*
X76993333Y-103503466D02*
X77093333Y-103470133D01*
X77093333Y-103470133D02*
X77160000Y-103403466D01*
X77160000Y-103403466D02*
X77193333Y-103336800D01*
X77193333Y-103336800D02*
X77226666Y-103203466D01*
X77226666Y-103203466D02*
X77226666Y-103103466D01*
X77226666Y-103103466D02*
X77193333Y-102970133D01*
X77193333Y-102970133D02*
X77160000Y-102903466D01*
X77160000Y-102903466D02*
X77093333Y-102836800D01*
X77093333Y-102836800D02*
X76993333Y-102803466D01*
X76993333Y-102803466D02*
X76926666Y-102803466D01*
X76926666Y-102803466D02*
X76826666Y-102836800D01*
X76826666Y-102836800D02*
X76793333Y-102870133D01*
X76793333Y-102870133D02*
X76793333Y-103103466D01*
X76793333Y-103103466D02*
X76926666Y-103103466D01*
X77890000Y-103697800D02*
X76730000Y-103697800D01*
D10*
D11*
X53543333Y-102503466D02*
X53076666Y-101803466D01*
X53076666Y-102503466D02*
X53543333Y-101803466D01*
X53573333Y-102697800D02*
X53046666Y-102697800D01*
D12*
G36*
X81690349Y-107271683D02*
G01*
X80429649Y-107271683D01*
X80429649Y-106629081D01*
X80554649Y-106629081D01*
X80554649Y-106653585D01*
X80559429Y-106677619D01*
X80568807Y-106700258D01*
X80582421Y-106720632D01*
X80599748Y-106737959D01*
X80620122Y-106751573D01*
X80642761Y-106760951D01*
X80666795Y-106765731D01*
X80679047Y-106766333D01*
X80934999Y-106766333D01*
X80934999Y-107022285D01*
X80935601Y-107034537D01*
X80940381Y-107058571D01*
X80949759Y-107081210D01*
X80963373Y-107101584D01*
X80980700Y-107118911D01*
X81001074Y-107132525D01*
X81023713Y-107141903D01*
X81047747Y-107146683D01*
X81072251Y-107146683D01*
X81096285Y-107141903D01*
X81118924Y-107132525D01*
X81139298Y-107118911D01*
X81156625Y-107101584D01*
X81170239Y-107081210D01*
X81179617Y-107058571D01*
X81184397Y-107034537D01*
X81184999Y-107022285D01*
X81184999Y-106766333D01*
X81440951Y-106766333D01*
X81453203Y-106765731D01*
X81477237Y-106760951D01*
X81499876Y-106751573D01*
X81520250Y-106737959D01*
X81537577Y-106720632D01*
X81551191Y-106700258D01*
X81560569Y-106677619D01*
X81565349Y-106653585D01*
X81565349Y-106629081D01*
X81560569Y-106605047D01*
X81551191Y-106582408D01*
X81537577Y-106562034D01*
X81520250Y-106544707D01*
X81499876Y-106531093D01*
X81477237Y-106521715D01*
X81453203Y-106516935D01*
X81440951Y-106516333D01*
X81184999Y-106516333D01*
X81184999Y-106260380D01*
X81184397Y-106248128D01*
X81179617Y-106224094D01*
X81170239Y-106201455D01*
X81156625Y-106181081D01*
X81139298Y-106163754D01*
X81118924Y-106150140D01*
X81096285Y-106140762D01*
X81072251Y-106135982D01*
X81047747Y-106135982D01*
X81023713Y-106140762D01*
X81001074Y-106150140D01*
X80980700Y-106163754D01*
X80963373Y-106181081D01*
X80949759Y-106201455D01*
X80940381Y-106224094D01*
X80935601Y-106248128D01*
X80934999Y-106260380D01*
X80934999Y-106516333D01*
X80679047Y-106516333D01*
X80666795Y-106516935D01*
X80642761Y-106521715D01*
X80620122Y-106531093D01*
X80599748Y-106544707D01*
X80582421Y-106562034D01*
X80568807Y-106582408D01*
X80559429Y-106605047D01*
X80554649Y-106629081D01*
X80429649Y-106629081D01*
X80429649Y-106010982D01*
X81690349Y-106010982D01*
X81690349Y-107271683D01*
G37*
G36*
X47190349Y-107271683D02*
G01*
X45929649Y-107271683D01*
X45929649Y-106629081D01*
X46054649Y-106629081D01*
X46054649Y-106653585D01*
X46059429Y-106677619D01*
X46068807Y-106700258D01*
X46082421Y-106720632D01*
X46099748Y-106737959D01*
X46120122Y-106751573D01*
X46142761Y-106760951D01*
X46166795Y-106765731D01*
X46179047Y-106766333D01*
X46434999Y-106766333D01*
X46434999Y-107022285D01*
X46435601Y-107034537D01*
X46440381Y-107058571D01*
X46449759Y-107081210D01*
X46463373Y-107101584D01*
X46480700Y-107118911D01*
X46501074Y-107132525D01*
X46523713Y-107141903D01*
X46547747Y-107146683D01*
X46572251Y-107146683D01*
X46596285Y-107141903D01*
X46618924Y-107132525D01*
X46639298Y-107118911D01*
X46656625Y-107101584D01*
X46670239Y-107081210D01*
X46679617Y-107058571D01*
X46684397Y-107034537D01*
X46684999Y-107022285D01*
X46684999Y-106766333D01*
X46940951Y-106766333D01*
X46953203Y-106765731D01*
X46977237Y-106760951D01*
X46999876Y-106751573D01*
X47020250Y-106737959D01*
X47037577Y-106720632D01*
X47051191Y-106700258D01*
X47060569Y-106677619D01*
X47065349Y-106653585D01*
X47065349Y-106629081D01*
X47060569Y-106605047D01*
X47051191Y-106582408D01*
X47037577Y-106562034D01*
X47020250Y-106544707D01*
X46999876Y-106531093D01*
X46977237Y-106521715D01*
X46953203Y-106516935D01*
X46940951Y-106516333D01*
X46684999Y-106516333D01*
X46684999Y-106260380D01*
X46684397Y-106248128D01*
X46679617Y-106224094D01*
X46670239Y-106201455D01*
X46656625Y-106181081D01*
X46639298Y-106163754D01*
X46618924Y-106150140D01*
X46596285Y-106140762D01*
X46572251Y-106135982D01*
X46547747Y-106135982D01*
X46523713Y-106140762D01*
X46501074Y-106150140D01*
X46480700Y-106163754D01*
X46463373Y-106181081D01*
X46449759Y-106201455D01*
X46440381Y-106224094D01*
X46435601Y-106248128D01*
X46434999Y-106260380D01*
X46434999Y-106516333D01*
X46179047Y-106516333D01*
X46166795Y-106516935D01*
X46142761Y-106521715D01*
X46120122Y-106531093D01*
X46099748Y-106544707D01*
X46082421Y-106562034D01*
X46068807Y-106582408D01*
X46059429Y-106605047D01*
X46054649Y-106629081D01*
X45929649Y-106629081D01*
X45929649Y-106010982D01*
X47190349Y-106010982D01*
X47190349Y-107271683D01*
G37*
G36*
X47190349Y-86771683D02*
G01*
X45929649Y-86771683D01*
X45929649Y-86129081D01*
X46054649Y-86129081D01*
X46054649Y-86153585D01*
X46059429Y-86177619D01*
X46068807Y-86200258D01*
X46082421Y-86220632D01*
X46099748Y-86237959D01*
X46120122Y-86251573D01*
X46142761Y-86260951D01*
X46166795Y-86265731D01*
X46179047Y-86266333D01*
X46434999Y-86266333D01*
X46434999Y-86522285D01*
X46435601Y-86534537D01*
X46440381Y-86558571D01*
X46449759Y-86581210D01*
X46463373Y-86601584D01*
X46480700Y-86618911D01*
X46501074Y-86632525D01*
X46523713Y-86641903D01*
X46547747Y-86646683D01*
X46572251Y-86646683D01*
X46596285Y-86641903D01*
X46618924Y-86632525D01*
X46639298Y-86618911D01*
X46656625Y-86601584D01*
X46670239Y-86581210D01*
X46679617Y-86558571D01*
X46684397Y-86534537D01*
X46684999Y-86522285D01*
X46684999Y-86266333D01*
X46940951Y-86266333D01*
X46953203Y-86265731D01*
X46977237Y-86260951D01*
X46999876Y-86251573D01*
X47020250Y-86237959D01*
X47037577Y-86220632D01*
X47051191Y-86200258D01*
X47060569Y-86177619D01*
X47065349Y-86153585D01*
X47065349Y-86129081D01*
X47060569Y-86105047D01*
X47051191Y-86082408D01*
X47037577Y-86062034D01*
X47020250Y-86044707D01*
X46999876Y-86031093D01*
X46977237Y-86021715D01*
X46953203Y-86016935D01*
X46940951Y-86016333D01*
X46684999Y-86016333D01*
X46684999Y-85760380D01*
X46684397Y-85748128D01*
X46679617Y-85724094D01*
X46670239Y-85701455D01*
X46656625Y-85681081D01*
X46639298Y-85663754D01*
X46618924Y-85650140D01*
X46596285Y-85640762D01*
X46572251Y-85635982D01*
X46547747Y-85635982D01*
X46523713Y-85640762D01*
X46501074Y-85650140D01*
X46480700Y-85663754D01*
X46463373Y-85681081D01*
X46449759Y-85701455D01*
X46440381Y-85724094D01*
X46435601Y-85748128D01*
X46434999Y-85760380D01*
X46434999Y-86016333D01*
X46179047Y-86016333D01*
X46166795Y-86016935D01*
X46142761Y-86021715D01*
X46120122Y-86031093D01*
X46099748Y-86044707D01*
X46082421Y-86062034D01*
X46068807Y-86082408D01*
X46059429Y-86105047D01*
X46054649Y-86129081D01*
X45929649Y-86129081D01*
X45929649Y-85510982D01*
X47190349Y-85510982D01*
X47190349Y-86771683D01*
G37*
D10*
D11*
X73110000Y-102503466D02*
X72943333Y-101803466D01*
X72943333Y-101803466D02*
X72810000Y-102303466D01*
X72810000Y-102303466D02*
X72676666Y-101803466D01*
X72676666Y-101803466D02*
X72510000Y-102503466D01*
X73140000Y-102697800D02*
X72480000Y-102697800D01*
D10*
D11*
X74260000Y-103170133D02*
X74160000Y-103136800D01*
X74160000Y-103136800D02*
X74126666Y-103103466D01*
X74126666Y-103103466D02*
X74093333Y-103036800D01*
X74093333Y-103036800D02*
X74093333Y-102936800D01*
X74093333Y-102936800D02*
X74126666Y-102870133D01*
X74126666Y-102870133D02*
X74160000Y-102836800D01*
X74160000Y-102836800D02*
X74226666Y-102803466D01*
X74226666Y-102803466D02*
X74493333Y-102803466D01*
X74493333Y-102803466D02*
X74493333Y-103503466D01*
X74493333Y-103503466D02*
X74260000Y-103503466D01*
X74260000Y-103503466D02*
X74193333Y-103470133D01*
X74193333Y-103470133D02*
X74160000Y-103436800D01*
X74160000Y-103436800D02*
X74126666Y-103370133D01*
X74126666Y-103370133D02*
X74126666Y-103303466D01*
X74126666Y-103303466D02*
X74160000Y-103236800D01*
X74160000Y-103236800D02*
X74193333Y-103203466D01*
X74193333Y-103203466D02*
X74260000Y-103170133D01*
X74260000Y-103170133D02*
X74493333Y-103170133D01*
X74590000Y-103697800D02*
X74030000Y-103697800D01*
D13*
D14*
X73776666Y-86108033D02*
X73809999Y-86074700D01*
X73809999Y-86074700D02*
X73909999Y-86041366D01*
X73909999Y-86041366D02*
X73976666Y-86041366D01*
X73976666Y-86041366D02*
X74076666Y-86074700D01*
X74076666Y-86074700D02*
X74143333Y-86141366D01*
X74143333Y-86141366D02*
X74176666Y-86208033D01*
X74176666Y-86208033D02*
X74209999Y-86341366D01*
X74209999Y-86341366D02*
X74209999Y-86441366D01*
X74209999Y-86441366D02*
X74176666Y-86574700D01*
X74176666Y-86574700D02*
X74143333Y-86641366D01*
X74143333Y-86641366D02*
X74076666Y-86708033D01*
X74076666Y-86708033D02*
X73976666Y-86741366D01*
X73976666Y-86741366D02*
X73909999Y-86741366D01*
X73909999Y-86741366D02*
X73809999Y-86708033D01*
X73809999Y-86708033D02*
X73776666Y-86674700D01*
X73143333Y-86741366D02*
X73476666Y-86741366D01*
X73476666Y-86741366D02*
X73509999Y-86408033D01*
X73509999Y-86408033D02*
X73476666Y-86441366D01*
X73476666Y-86441366D02*
X73409999Y-86474700D01*
X73409999Y-86474700D02*
X73243333Y-86474700D01*
X73243333Y-86474700D02*
X73176666Y-86441366D01*
X73176666Y-86441366D02*
X73143333Y-86408033D01*
X73143333Y-86408033D02*
X73109999Y-86341366D01*
X73109999Y-86341366D02*
X73109999Y-86174700D01*
X73109999Y-86174700D02*
X73143333Y-86108033D01*
X73143333Y-86108033D02*
X73176666Y-86074700D01*
X73176666Y-86074700D02*
X73243333Y-86041366D01*
X73243333Y-86041366D02*
X73409999Y-86041366D01*
X73409999Y-86041366D02*
X73476666Y-86074700D01*
X73476666Y-86074700D02*
X73509999Y-86108033D01*
D10*
D11*
X76009999Y-101836800D02*
X75909999Y-101803466D01*
X75909999Y-101803466D02*
X75743333Y-101803466D01*
X75743333Y-101803466D02*
X75676666Y-101836800D01*
X75676666Y-101836800D02*
X75643333Y-101870133D01*
X75643333Y-101870133D02*
X75609999Y-101936800D01*
X75609999Y-101936800D02*
X75609999Y-102003466D01*
X75609999Y-102003466D02*
X75643333Y-102070133D01*
X75643333Y-102070133D02*
X75676666Y-102103466D01*
X75676666Y-102103466D02*
X75743333Y-102136800D01*
X75743333Y-102136800D02*
X75876666Y-102170133D01*
X75876666Y-102170133D02*
X75943333Y-102203466D01*
X75943333Y-102203466D02*
X75976666Y-102236800D01*
X75976666Y-102236800D02*
X76009999Y-102303466D01*
X76009999Y-102303466D02*
X76009999Y-102370133D01*
X76009999Y-102370133D02*
X75976666Y-102436800D01*
X75976666Y-102436800D02*
X75943333Y-102470133D01*
X75943333Y-102470133D02*
X75876666Y-102503466D01*
X75876666Y-102503466D02*
X75709999Y-102503466D01*
X75709999Y-102503466D02*
X75609999Y-102470133D01*
X76073333Y-102697800D02*
X75546666Y-102697800D01*
D10*
D11*
X79326666Y-102003466D02*
X78993333Y-102003466D01*
X79393333Y-101803466D02*
X79160000Y-102503466D01*
X79160000Y-102503466D02*
X78926666Y-101803466D01*
X78460000Y-102170133D02*
X78360000Y-102136800D01*
X78360000Y-102136800D02*
X78326666Y-102103466D01*
X78326666Y-102103466D02*
X78293333Y-102036800D01*
X78293333Y-102036800D02*
X78293333Y-101936800D01*
X78293333Y-101936800D02*
X78326666Y-101870133D01*
X78326666Y-101870133D02*
X78360000Y-101836800D01*
X78360000Y-101836800D02*
X78426666Y-101803466D01*
X78426666Y-101803466D02*
X78693333Y-101803466D01*
X78693333Y-101803466D02*
X78693333Y-102503466D01*
X78693333Y-102503466D02*
X78460000Y-102503466D01*
X78460000Y-102503466D02*
X78393333Y-102470133D01*
X78393333Y-102470133D02*
X78360000Y-102436800D01*
X78360000Y-102436800D02*
X78326666Y-102370133D01*
X78326666Y-102370133D02*
X78326666Y-102303466D01*
X78326666Y-102303466D02*
X78360000Y-102236800D01*
X78360000Y-102236800D02*
X78393333Y-102203466D01*
X78393333Y-102203466D02*
X78460000Y-102170133D01*
X78460000Y-102170133D02*
X78693333Y-102170133D01*
X79390000Y-102697800D02*
X78230000Y-102697800D01*
D15*
D16*
X50309999Y-101802946D02*
X50309999Y-102502946D01*
X50376666Y-102402946D02*
X50243332Y-102402946D01*
X50243332Y-102402946D02*
X50143332Y-102369613D01*
X50143332Y-102369613D02*
X50076666Y-102302946D01*
X50076666Y-102302946D02*
X50043332Y-102236280D01*
X50043332Y-102236280D02*
X50043332Y-102102946D01*
X50043332Y-102102946D02*
X50076666Y-102036280D01*
X50076666Y-102036280D02*
X50143332Y-101969613D01*
X50143332Y-101969613D02*
X50243332Y-101936280D01*
X50243332Y-101936280D02*
X50376666Y-101936280D01*
X50376666Y-101936280D02*
X50476666Y-101969613D01*
X50476666Y-101969613D02*
X50543332Y-102036280D01*
X50543332Y-102036280D02*
X50576666Y-102102946D01*
X50576666Y-102102946D02*
X50576666Y-102236280D01*
X50576666Y-102236280D02*
X50543332Y-102302946D01*
X50543332Y-102302946D02*
X50476666Y-102369613D01*
X50476666Y-102369613D02*
X50376666Y-102402946D01*
X50606666Y-102697280D02*
X50013333Y-102697280D01*
D10*
D11*
X75800000Y-23839866D02*
X76033334Y-23839866D01*
X76133334Y-24206533D02*
X75800000Y-24206533D01*
X75800000Y-24206533D02*
X75800000Y-23506533D01*
X75800000Y-23506533D02*
X76133334Y-23506533D01*
X75703334Y-23312200D02*
X76196667Y-23312200D01*
D10*
D11*
X49933333Y-24006533D02*
X50266666Y-24006533D01*
X49866666Y-24206533D02*
X50100000Y-23506533D01*
X50100000Y-23506533D02*
X50333333Y-24206533D01*
X50933333Y-23539866D02*
X50866666Y-23506533D01*
X50866666Y-23506533D02*
X50766666Y-23506533D01*
X50766666Y-23506533D02*
X50666666Y-23539866D01*
X50666666Y-23539866D02*
X50600000Y-23606533D01*
X50600000Y-23606533D02*
X50566666Y-23673200D01*
X50566666Y-23673200D02*
X50533333Y-23806533D01*
X50533333Y-23806533D02*
X50533333Y-23906533D01*
X50533333Y-23906533D02*
X50566666Y-24039866D01*
X50566666Y-24039866D02*
X50600000Y-24106533D01*
X50600000Y-24106533D02*
X50666666Y-24173200D01*
X50666666Y-24173200D02*
X50766666Y-24206533D01*
X50766666Y-24206533D02*
X50833333Y-24206533D01*
X50833333Y-24206533D02*
X50933333Y-24173200D01*
X50933333Y-24173200D02*
X50966666Y-24139866D01*
X50966666Y-24139866D02*
X50966666Y-23906533D01*
X50966666Y-23906533D02*
X50833333Y-23906533D01*
X49870000Y-23312200D02*
X51030000Y-23312200D01*
D10*
D11*
X78550000Y-23506533D02*
X78683333Y-23506533D01*
X78683333Y-23506533D02*
X78750000Y-23539866D01*
X78750000Y-23539866D02*
X78816666Y-23606533D01*
X78816666Y-23606533D02*
X78850000Y-23739866D01*
X78850000Y-23739866D02*
X78850000Y-23973200D01*
X78850000Y-23973200D02*
X78816666Y-24106533D01*
X78816666Y-24106533D02*
X78750000Y-24173200D01*
X78750000Y-24173200D02*
X78683333Y-24206533D01*
X78683333Y-24206533D02*
X78550000Y-24206533D01*
X78550000Y-24206533D02*
X78483333Y-24173200D01*
X78483333Y-24173200D02*
X78416666Y-24106533D01*
X78416666Y-24106533D02*
X78383333Y-23973200D01*
X78383333Y-23973200D02*
X78383333Y-23739866D01*
X78383333Y-23739866D02*
X78416666Y-23606533D01*
X78416666Y-23606533D02*
X78483333Y-23539866D01*
X78483333Y-23539866D02*
X78550000Y-23506533D01*
X79116666Y-23573200D02*
X79149999Y-23539866D01*
X79149999Y-23539866D02*
X79216666Y-23506533D01*
X79216666Y-23506533D02*
X79383333Y-23506533D01*
X79383333Y-23506533D02*
X79449999Y-23539866D01*
X79449999Y-23539866D02*
X79483333Y-23573200D01*
X79483333Y-23573200D02*
X79516666Y-23639866D01*
X79516666Y-23639866D02*
X79516666Y-23706533D01*
X79516666Y-23706533D02*
X79483333Y-23806533D01*
X79483333Y-23806533D02*
X79083333Y-24206533D01*
X79083333Y-24206533D02*
X79516666Y-24206533D01*
X78320000Y-23312200D02*
X79580000Y-23312200D01*
D10*
D11*
X74216667Y-24506533D02*
X74683333Y-25206533D01*
X74683333Y-24506533D02*
X74216667Y-25206533D01*
X74186667Y-24312200D02*
X74713334Y-24312200D01*
D10*
D11*
X72550000Y-23506533D02*
X72683333Y-23506533D01*
X72683333Y-23506533D02*
X72750000Y-23539866D01*
X72750000Y-23539866D02*
X72816666Y-23606533D01*
X72816666Y-23606533D02*
X72850000Y-23739866D01*
X72850000Y-23739866D02*
X72850000Y-23973200D01*
X72850000Y-23973200D02*
X72816666Y-24106533D01*
X72816666Y-24106533D02*
X72750000Y-24173200D01*
X72750000Y-24173200D02*
X72683333Y-24206533D01*
X72683333Y-24206533D02*
X72550000Y-24206533D01*
X72550000Y-24206533D02*
X72483333Y-24173200D01*
X72483333Y-24173200D02*
X72416666Y-24106533D01*
X72416666Y-24106533D02*
X72383333Y-23973200D01*
X72383333Y-23973200D02*
X72383333Y-23739866D01*
X72383333Y-23739866D02*
X72416666Y-23606533D01*
X72416666Y-23606533D02*
X72483333Y-23539866D01*
X72483333Y-23539866D02*
X72550000Y-23506533D01*
X73083333Y-23506533D02*
X73516666Y-23506533D01*
X73516666Y-23506533D02*
X73283333Y-23773200D01*
X73283333Y-23773200D02*
X73383333Y-23773200D01*
X73383333Y-23773200D02*
X73449999Y-23806533D01*
X73449999Y-23806533D02*
X73483333Y-23839866D01*
X73483333Y-23839866D02*
X73516666Y-23906533D01*
X73516666Y-23906533D02*
X73516666Y-24073200D01*
X73516666Y-24073200D02*
X73483333Y-24139866D01*
X73483333Y-24139866D02*
X73449999Y-24173200D01*
X73449999Y-24173200D02*
X73383333Y-24206533D01*
X73383333Y-24206533D02*
X73183333Y-24206533D01*
X73183333Y-24206533D02*
X73116666Y-24173200D01*
X73116666Y-24173200D02*
X73083333Y-24139866D01*
X72320000Y-23312200D02*
X73580000Y-23312200D01*
D15*
D16*
X77450000Y-25207053D02*
X77450000Y-24507053D01*
X77383334Y-24607053D02*
X77516667Y-24607053D01*
X77516667Y-24607053D02*
X77616667Y-24640386D01*
X77616667Y-24640386D02*
X77683334Y-24707053D01*
X77683334Y-24707053D02*
X77716667Y-24773720D01*
X77716667Y-24773720D02*
X77716667Y-24907053D01*
X77716667Y-24907053D02*
X77683334Y-24973720D01*
X77683334Y-24973720D02*
X77616667Y-25040386D01*
X77616667Y-25040386D02*
X77516667Y-25073720D01*
X77516667Y-25073720D02*
X77383334Y-25073720D01*
X77383334Y-25073720D02*
X77283334Y-25040386D01*
X77283334Y-25040386D02*
X77216667Y-24973720D01*
X77216667Y-24973720D02*
X77183334Y-24907053D01*
X77183334Y-24907053D02*
X77183334Y-24773720D01*
X77183334Y-24773720D02*
X77216667Y-24707053D01*
X77216667Y-24707053D02*
X77283334Y-24640386D01*
X77283334Y-24640386D02*
X77383334Y-24607053D01*
X77153334Y-24312720D02*
X77746667Y-24312720D01*
D10*
D11*
X54650000Y-24506533D02*
X54816666Y-25206533D01*
X54816666Y-25206533D02*
X54950000Y-24706533D01*
X54950000Y-24706533D02*
X55083333Y-25206533D01*
X55083333Y-25206533D02*
X55250000Y-24506533D01*
X54620000Y-24312200D02*
X55280000Y-24312200D01*
D10*
D11*
X48433333Y-25006533D02*
X48766666Y-25006533D01*
X48366666Y-25206533D02*
X48600000Y-24506533D01*
X48600000Y-24506533D02*
X48833333Y-25206533D01*
X49300000Y-24839866D02*
X49400000Y-24873200D01*
X49400000Y-24873200D02*
X49433333Y-24906533D01*
X49433333Y-24906533D02*
X49466666Y-24973200D01*
X49466666Y-24973200D02*
X49466666Y-25073200D01*
X49466666Y-25073200D02*
X49433333Y-25139866D01*
X49433333Y-25139866D02*
X49400000Y-25173200D01*
X49400000Y-25173200D02*
X49333333Y-25206533D01*
X49333333Y-25206533D02*
X49066666Y-25206533D01*
X49066666Y-25206533D02*
X49066666Y-24506533D01*
X49066666Y-24506533D02*
X49300000Y-24506533D01*
X49300000Y-24506533D02*
X49366666Y-24539866D01*
X49366666Y-24539866D02*
X49400000Y-24573200D01*
X49400000Y-24573200D02*
X49433333Y-24639866D01*
X49433333Y-24639866D02*
X49433333Y-24706533D01*
X49433333Y-24706533D02*
X49400000Y-24773200D01*
X49400000Y-24773200D02*
X49366666Y-24806533D01*
X49366666Y-24806533D02*
X49300000Y-24839866D01*
X49300000Y-24839866D02*
X49066666Y-24839866D01*
X48370000Y-24312200D02*
X49530000Y-24312200D01*
D10*
D11*
X53500000Y-23839866D02*
X53600000Y-23873200D01*
X53600000Y-23873200D02*
X53633333Y-23906533D01*
X53633333Y-23906533D02*
X53666666Y-23973200D01*
X53666666Y-23973200D02*
X53666666Y-24073200D01*
X53666666Y-24073200D02*
X53633333Y-24139866D01*
X53633333Y-24139866D02*
X53600000Y-24173200D01*
X53600000Y-24173200D02*
X53533333Y-24206533D01*
X53533333Y-24206533D02*
X53266666Y-24206533D01*
X53266666Y-24206533D02*
X53266666Y-23506533D01*
X53266666Y-23506533D02*
X53500000Y-23506533D01*
X53500000Y-23506533D02*
X53566666Y-23539866D01*
X53566666Y-23539866D02*
X53600000Y-23573200D01*
X53600000Y-23573200D02*
X53633333Y-23639866D01*
X53633333Y-23639866D02*
X53633333Y-23706533D01*
X53633333Y-23706533D02*
X53600000Y-23773200D01*
X53600000Y-23773200D02*
X53566666Y-23806533D01*
X53566666Y-23806533D02*
X53500000Y-23839866D01*
X53500000Y-23839866D02*
X53266666Y-23839866D01*
X53170000Y-23312200D02*
X53730000Y-23312200D01*
D12*
G36*
X47330351Y-20999017D02*
G01*
X46069650Y-20999017D01*
X46069650Y-20356414D01*
X46194650Y-20356414D01*
X46194650Y-20380918D01*
X46199430Y-20404952D01*
X46208808Y-20427591D01*
X46222422Y-20447965D01*
X46239749Y-20465292D01*
X46260123Y-20478906D01*
X46282762Y-20488284D01*
X46306796Y-20493064D01*
X46319048Y-20493666D01*
X46575000Y-20493666D01*
X46575000Y-20749619D01*
X46575602Y-20761871D01*
X46580382Y-20785905D01*
X46589760Y-20808544D01*
X46603374Y-20828918D01*
X46620701Y-20846245D01*
X46641075Y-20859859D01*
X46663714Y-20869237D01*
X46687748Y-20874017D01*
X46712252Y-20874017D01*
X46736286Y-20869237D01*
X46758925Y-20859859D01*
X46779299Y-20846245D01*
X46796626Y-20828918D01*
X46810240Y-20808544D01*
X46819618Y-20785905D01*
X46824398Y-20761871D01*
X46825000Y-20749619D01*
X46825000Y-20493666D01*
X47080953Y-20493666D01*
X47093205Y-20493064D01*
X47117239Y-20488284D01*
X47139878Y-20478906D01*
X47160252Y-20465292D01*
X47177579Y-20447965D01*
X47191193Y-20427591D01*
X47200571Y-20404952D01*
X47205351Y-20380918D01*
X47205351Y-20356414D01*
X47200571Y-20332380D01*
X47191193Y-20309741D01*
X47177579Y-20289367D01*
X47160252Y-20272040D01*
X47139878Y-20258426D01*
X47117239Y-20249048D01*
X47093205Y-20244268D01*
X47080953Y-20243666D01*
X46825000Y-20243666D01*
X46825000Y-19987714D01*
X46824398Y-19975462D01*
X46819618Y-19951428D01*
X46810240Y-19928789D01*
X46796626Y-19908415D01*
X46779299Y-19891088D01*
X46758925Y-19877474D01*
X46736286Y-19868096D01*
X46712252Y-19863316D01*
X46687748Y-19863316D01*
X46663714Y-19868096D01*
X46641075Y-19877474D01*
X46620701Y-19891088D01*
X46603374Y-19908415D01*
X46589760Y-19928789D01*
X46580382Y-19951428D01*
X46575602Y-19975462D01*
X46575000Y-19987714D01*
X46575000Y-20243666D01*
X46319048Y-20243666D01*
X46306796Y-20244268D01*
X46282762Y-20249048D01*
X46260123Y-20258426D01*
X46239749Y-20272040D01*
X46222422Y-20289367D01*
X46208808Y-20309741D01*
X46199430Y-20332380D01*
X46194650Y-20356414D01*
X46069650Y-20356414D01*
X46069650Y-19738316D01*
X47330351Y-19738316D01*
X47330351Y-20999017D01*
G37*
G36*
X81830351Y-41499017D02*
G01*
X80569650Y-41499017D01*
X80569650Y-40856414D01*
X80694650Y-40856414D01*
X80694650Y-40880918D01*
X80699430Y-40904952D01*
X80708808Y-40927591D01*
X80722422Y-40947965D01*
X80739749Y-40965292D01*
X80760123Y-40978906D01*
X80782762Y-40988284D01*
X80806796Y-40993064D01*
X80819048Y-40993666D01*
X81075000Y-40993666D01*
X81075000Y-41249619D01*
X81075602Y-41261871D01*
X81080382Y-41285905D01*
X81089760Y-41308544D01*
X81103374Y-41328918D01*
X81120701Y-41346245D01*
X81141075Y-41359859D01*
X81163714Y-41369237D01*
X81187748Y-41374017D01*
X81212252Y-41374017D01*
X81236286Y-41369237D01*
X81258925Y-41359859D01*
X81279299Y-41346245D01*
X81296626Y-41328918D01*
X81310240Y-41308544D01*
X81319618Y-41285905D01*
X81324398Y-41261871D01*
X81325000Y-41249619D01*
X81325000Y-40993666D01*
X81580953Y-40993666D01*
X81593205Y-40993064D01*
X81617239Y-40988284D01*
X81639878Y-40978906D01*
X81660252Y-40965292D01*
X81677579Y-40947965D01*
X81691193Y-40927591D01*
X81700571Y-40904952D01*
X81705351Y-40880918D01*
X81705351Y-40856414D01*
X81700571Y-40832380D01*
X81691193Y-40809741D01*
X81677579Y-40789367D01*
X81660252Y-40772040D01*
X81639878Y-40758426D01*
X81617239Y-40749048D01*
X81593205Y-40744268D01*
X81580953Y-40743666D01*
X81325000Y-40743666D01*
X81325000Y-40487714D01*
X81324398Y-40475462D01*
X81319618Y-40451428D01*
X81310240Y-40428789D01*
X81296626Y-40408415D01*
X81279299Y-40391088D01*
X81258925Y-40377474D01*
X81236286Y-40368096D01*
X81212252Y-40363316D01*
X81187748Y-40363316D01*
X81163714Y-40368096D01*
X81141075Y-40377474D01*
X81120701Y-40391088D01*
X81103374Y-40408415D01*
X81089760Y-40428789D01*
X81080382Y-40451428D01*
X81075602Y-40475462D01*
X81075000Y-40487714D01*
X81075000Y-40743666D01*
X80819048Y-40743666D01*
X80806796Y-40744268D01*
X80782762Y-40749048D01*
X80760123Y-40758426D01*
X80739749Y-40772040D01*
X80722422Y-40789367D01*
X80708808Y-40809741D01*
X80699430Y-40832380D01*
X80694650Y-40856414D01*
X80569650Y-40856414D01*
X80569650Y-40238316D01*
X81830351Y-40238316D01*
X81830351Y-41499017D01*
G37*
D13*
D14*
X53983333Y-40901966D02*
X53950000Y-40935300D01*
X53950000Y-40935300D02*
X53850000Y-40968633D01*
X53850000Y-40968633D02*
X53783333Y-40968633D01*
X53783333Y-40968633D02*
X53683333Y-40935300D01*
X53683333Y-40935300D02*
X53616667Y-40868633D01*
X53616667Y-40868633D02*
X53583333Y-40801966D01*
X53583333Y-40801966D02*
X53550000Y-40668633D01*
X53550000Y-40668633D02*
X53550000Y-40568633D01*
X53550000Y-40568633D02*
X53583333Y-40435300D01*
X53583333Y-40435300D02*
X53616667Y-40368633D01*
X53616667Y-40368633D02*
X53683333Y-40301966D01*
X53683333Y-40301966D02*
X53783333Y-40268633D01*
X53783333Y-40268633D02*
X53850000Y-40268633D01*
X53850000Y-40268633D02*
X53950000Y-40301966D01*
X53950000Y-40301966D02*
X53983333Y-40335300D01*
X54650000Y-40968633D02*
X54250000Y-40968633D01*
X54450000Y-40968633D02*
X54450000Y-40268633D01*
X54450000Y-40268633D02*
X54383333Y-40368633D01*
X54383333Y-40368633D02*
X54316667Y-40435300D01*
X54316667Y-40435300D02*
X54250000Y-40468633D01*
D10*
D11*
X51750000Y-25173200D02*
X51850000Y-25206533D01*
X51850000Y-25206533D02*
X52016667Y-25206533D01*
X52016667Y-25206533D02*
X52083333Y-25173200D01*
X52083333Y-25173200D02*
X52116667Y-25139866D01*
X52116667Y-25139866D02*
X52150000Y-25073200D01*
X52150000Y-25073200D02*
X52150000Y-25006533D01*
X52150000Y-25006533D02*
X52116667Y-24939866D01*
X52116667Y-24939866D02*
X52083333Y-24906533D01*
X52083333Y-24906533D02*
X52016667Y-24873200D01*
X52016667Y-24873200D02*
X51883333Y-24839866D01*
X51883333Y-24839866D02*
X51816667Y-24806533D01*
X51816667Y-24806533D02*
X51783333Y-24773200D01*
X51783333Y-24773200D02*
X51750000Y-24706533D01*
X51750000Y-24706533D02*
X51750000Y-24639866D01*
X51750000Y-24639866D02*
X51783333Y-24573200D01*
X51783333Y-24573200D02*
X51816667Y-24539866D01*
X51816667Y-24539866D02*
X51883333Y-24506533D01*
X51883333Y-24506533D02*
X52050000Y-24506533D01*
X52050000Y-24506533D02*
X52150000Y-24539866D01*
X51686667Y-24312200D02*
X52213334Y-24312200D01*
D12*
G36*
X81830351Y-20999017D02*
G01*
X80569650Y-20999017D01*
X80569650Y-20356414D01*
X80694650Y-20356414D01*
X80694650Y-20380918D01*
X80699430Y-20404952D01*
X80708808Y-20427591D01*
X80722422Y-20447965D01*
X80739749Y-20465292D01*
X80760123Y-20478906D01*
X80782762Y-20488284D01*
X80806796Y-20493064D01*
X80819048Y-20493666D01*
X81075000Y-20493666D01*
X81075000Y-20749619D01*
X81075602Y-20761871D01*
X81080382Y-20785905D01*
X81089760Y-20808544D01*
X81103374Y-20828918D01*
X81120701Y-20846245D01*
X81141075Y-20859859D01*
X81163714Y-20869237D01*
X81187748Y-20874017D01*
X81212252Y-20874017D01*
X81236286Y-20869237D01*
X81258925Y-20859859D01*
X81279299Y-20846245D01*
X81296626Y-20828918D01*
X81310240Y-20808544D01*
X81319618Y-20785905D01*
X81324398Y-20761871D01*
X81325000Y-20749619D01*
X81325000Y-20493666D01*
X81580953Y-20493666D01*
X81593205Y-20493064D01*
X81617239Y-20488284D01*
X81639878Y-20478906D01*
X81660252Y-20465292D01*
X81677579Y-20447965D01*
X81691193Y-20427591D01*
X81700571Y-20404952D01*
X81705351Y-20380918D01*
X81705351Y-20356414D01*
X81700571Y-20332380D01*
X81691193Y-20309741D01*
X81677579Y-20289367D01*
X81660252Y-20272040D01*
X81639878Y-20258426D01*
X81617239Y-20249048D01*
X81593205Y-20244268D01*
X81580953Y-20243666D01*
X81325000Y-20243666D01*
X81325000Y-19987714D01*
X81324398Y-19975462D01*
X81319618Y-19951428D01*
X81310240Y-19928789D01*
X81296626Y-19908415D01*
X81279299Y-19891088D01*
X81258925Y-19877474D01*
X81236286Y-19868096D01*
X81212252Y-19863316D01*
X81187748Y-19863316D01*
X81163714Y-19868096D01*
X81141075Y-19877474D01*
X81120701Y-19891088D01*
X81103374Y-19908415D01*
X81089760Y-19928789D01*
X81080382Y-19951428D01*
X81075602Y-19975462D01*
X81075000Y-19987714D01*
X81075000Y-20243666D01*
X80819048Y-20243666D01*
X80806796Y-20244268D01*
X80782762Y-20249048D01*
X80760123Y-20258426D01*
X80739749Y-20272040D01*
X80722422Y-20289367D01*
X80708808Y-20309741D01*
X80699430Y-20332380D01*
X80694650Y-20356414D01*
X80569650Y-20356414D01*
X80569650Y-19738316D01*
X81830351Y-19738316D01*
X81830351Y-20999017D01*
G37*
G36*
X47230351Y-41499017D02*
G01*
X45969650Y-41499017D01*
X45969650Y-40856414D01*
X46094650Y-40856414D01*
X46094650Y-40880918D01*
X46099430Y-40904952D01*
X46108808Y-40927591D01*
X46122422Y-40947965D01*
X46139749Y-40965292D01*
X46160123Y-40978906D01*
X46182762Y-40988284D01*
X46206796Y-40993064D01*
X46219048Y-40993666D01*
X46475000Y-40993666D01*
X46475000Y-41249619D01*
X46475602Y-41261871D01*
X46480382Y-41285905D01*
X46489760Y-41308544D01*
X46503374Y-41328918D01*
X46520701Y-41346245D01*
X46541075Y-41359859D01*
X46563714Y-41369237D01*
X46587748Y-41374017D01*
X46612252Y-41374017D01*
X46636286Y-41369237D01*
X46658925Y-41359859D01*
X46679299Y-41346245D01*
X46696626Y-41328918D01*
X46710240Y-41308544D01*
X46719618Y-41285905D01*
X46724398Y-41261871D01*
X46725000Y-41249619D01*
X46725000Y-40993666D01*
X46980953Y-40993666D01*
X46993205Y-40993064D01*
X47017239Y-40988284D01*
X47039878Y-40978906D01*
X47060252Y-40965292D01*
X47077579Y-40947965D01*
X47091193Y-40927591D01*
X47100571Y-40904952D01*
X47105351Y-40880918D01*
X47105351Y-40856414D01*
X47100571Y-40832380D01*
X47091193Y-40809741D01*
X47077579Y-40789367D01*
X47060252Y-40772040D01*
X47039878Y-40758426D01*
X47017239Y-40749048D01*
X46993205Y-40744268D01*
X46980953Y-40743666D01*
X46725000Y-40743666D01*
X46725000Y-40487714D01*
X46724398Y-40475462D01*
X46719618Y-40451428D01*
X46710240Y-40428789D01*
X46696626Y-40408415D01*
X46679299Y-40391088D01*
X46658925Y-40377474D01*
X46636286Y-40368096D01*
X46612252Y-40363316D01*
X46587748Y-40363316D01*
X46563714Y-40368096D01*
X46541075Y-40377474D01*
X46520701Y-40391088D01*
X46503374Y-40408415D01*
X46489760Y-40428789D01*
X46480382Y-40451428D01*
X46475602Y-40475462D01*
X46475000Y-40487714D01*
X46475000Y-40743666D01*
X46219048Y-40743666D01*
X46206796Y-40744268D01*
X46182762Y-40749048D01*
X46160123Y-40758426D01*
X46139749Y-40772040D01*
X46122422Y-40789367D01*
X46108808Y-40809741D01*
X46099430Y-40832380D01*
X46094650Y-40856414D01*
X45969650Y-40856414D01*
X45969650Y-40238316D01*
X47230351Y-40238316D01*
X47230351Y-41499017D01*
G37*
D10*
D11*
X47050000Y-23506533D02*
X47183333Y-23506533D01*
X47183333Y-23506533D02*
X47250000Y-23539866D01*
X47250000Y-23539866D02*
X47316666Y-23606533D01*
X47316666Y-23606533D02*
X47350000Y-23739866D01*
X47350000Y-23739866D02*
X47350000Y-23973200D01*
X47350000Y-23973200D02*
X47316666Y-24106533D01*
X47316666Y-24106533D02*
X47250000Y-24173200D01*
X47250000Y-24173200D02*
X47183333Y-24206533D01*
X47183333Y-24206533D02*
X47050000Y-24206533D01*
X47050000Y-24206533D02*
X46983333Y-24173200D01*
X46983333Y-24173200D02*
X46916666Y-24106533D01*
X46916666Y-24106533D02*
X46883333Y-23973200D01*
X46883333Y-23973200D02*
X46883333Y-23739866D01*
X46883333Y-23739866D02*
X46916666Y-23606533D01*
X46916666Y-23606533D02*
X46983333Y-23539866D01*
X46983333Y-23539866D02*
X47050000Y-23506533D01*
X48016666Y-24206533D02*
X47616666Y-24206533D01*
X47816666Y-24206533D02*
X47816666Y-23506533D01*
X47816666Y-23506533D02*
X47749999Y-23606533D01*
X47749999Y-23606533D02*
X47683333Y-23673200D01*
X47683333Y-23673200D02*
X47616666Y-23706533D01*
X46820000Y-23312200D02*
X48080000Y-23312200D01*
D10*
D11*
X71450000Y-25206533D02*
X71450000Y-24506533D01*
X71353334Y-24312200D02*
X71546667Y-24312200D01*
D10*
D11*
X53836533Y-77500666D02*
X53836533Y-77167333D01*
X54036533Y-77567333D02*
X53336533Y-77334000D01*
X53336533Y-77334000D02*
X54036533Y-77100666D01*
X53369866Y-76500666D02*
X53336533Y-76567333D01*
X53336533Y-76567333D02*
X53336533Y-76667333D01*
X53336533Y-76667333D02*
X53369866Y-76767333D01*
X53369866Y-76767333D02*
X53436533Y-76834000D01*
X53436533Y-76834000D02*
X53503200Y-76867333D01*
X53503200Y-76867333D02*
X53636533Y-76900666D01*
X53636533Y-76900666D02*
X53736533Y-76900666D01*
X53736533Y-76900666D02*
X53869866Y-76867333D01*
X53869866Y-76867333D02*
X53936533Y-76834000D01*
X53936533Y-76834000D02*
X54003200Y-76767333D01*
X54003200Y-76767333D02*
X54036533Y-76667333D01*
X54036533Y-76667333D02*
X54036533Y-76600666D01*
X54036533Y-76600666D02*
X54003200Y-76500666D01*
X54003200Y-76500666D02*
X53969866Y-76467333D01*
X53969866Y-76467333D02*
X53736533Y-76467333D01*
X53736533Y-76467333D02*
X53736533Y-76600666D01*
X53142200Y-77564000D02*
X53142200Y-76404000D01*
D10*
D11*
X53669866Y-51633999D02*
X53669866Y-51400666D01*
X54036533Y-51300666D02*
X54036533Y-51633999D01*
X54036533Y-51633999D02*
X53336533Y-51633999D01*
X53336533Y-51633999D02*
X53336533Y-51300666D01*
X53142200Y-51730666D02*
X53142200Y-51237333D01*
D10*
D11*
X53336533Y-48884000D02*
X53336533Y-48750666D01*
X53336533Y-48750666D02*
X53369866Y-48684000D01*
X53369866Y-48684000D02*
X53436533Y-48617333D01*
X53436533Y-48617333D02*
X53569866Y-48584000D01*
X53569866Y-48584000D02*
X53803200Y-48584000D01*
X53803200Y-48584000D02*
X53936533Y-48617333D01*
X53936533Y-48617333D02*
X54003200Y-48684000D01*
X54003200Y-48684000D02*
X54036533Y-48750666D01*
X54036533Y-48750666D02*
X54036533Y-48884000D01*
X54036533Y-48884000D02*
X54003200Y-48950666D01*
X54003200Y-48950666D02*
X53936533Y-49017333D01*
X53936533Y-49017333D02*
X53803200Y-49050666D01*
X53803200Y-49050666D02*
X53569866Y-49050666D01*
X53569866Y-49050666D02*
X53436533Y-49017333D01*
X53436533Y-49017333D02*
X53369866Y-48950666D01*
X53369866Y-48950666D02*
X53336533Y-48884000D01*
X53403200Y-48317333D02*
X53369866Y-48284000D01*
X53369866Y-48284000D02*
X53336533Y-48217333D01*
X53336533Y-48217333D02*
X53336533Y-48050667D01*
X53336533Y-48050667D02*
X53369866Y-47984000D01*
X53369866Y-47984000D02*
X53403200Y-47950667D01*
X53403200Y-47950667D02*
X53469866Y-47917333D01*
X53469866Y-47917333D02*
X53536533Y-47917333D01*
X53536533Y-47917333D02*
X53636533Y-47950667D01*
X53636533Y-47950667D02*
X54036533Y-48350667D01*
X54036533Y-48350667D02*
X54036533Y-47917333D01*
X53142200Y-49114000D02*
X53142200Y-47854000D01*
D10*
D11*
X53336533Y-80384000D02*
X53336533Y-80250666D01*
X53336533Y-80250666D02*
X53369866Y-80184000D01*
X53369866Y-80184000D02*
X53436533Y-80117333D01*
X53436533Y-80117333D02*
X53569866Y-80084000D01*
X53569866Y-80084000D02*
X53803200Y-80084000D01*
X53803200Y-80084000D02*
X53936533Y-80117333D01*
X53936533Y-80117333D02*
X54003200Y-80184000D01*
X54003200Y-80184000D02*
X54036533Y-80250666D01*
X54036533Y-80250666D02*
X54036533Y-80384000D01*
X54036533Y-80384000D02*
X54003200Y-80450666D01*
X54003200Y-80450666D02*
X53936533Y-80517333D01*
X53936533Y-80517333D02*
X53803200Y-80550666D01*
X53803200Y-80550666D02*
X53569866Y-80550666D01*
X53569866Y-80550666D02*
X53436533Y-80517333D01*
X53436533Y-80517333D02*
X53369866Y-80450666D01*
X53369866Y-80450666D02*
X53336533Y-80384000D01*
X54036533Y-79417333D02*
X54036533Y-79817333D01*
X54036533Y-79617333D02*
X53336533Y-79617333D01*
X53336533Y-79617333D02*
X53436533Y-79684000D01*
X53436533Y-79684000D02*
X53503200Y-79750667D01*
X53503200Y-79750667D02*
X53536533Y-79817333D01*
X53142200Y-80614000D02*
X53142200Y-79354000D01*
D10*
D11*
X54336533Y-53217333D02*
X55036533Y-52750666D01*
X54336533Y-52750666D02*
X55036533Y-53217333D01*
X54142200Y-53247333D02*
X54142200Y-52720666D01*
D10*
D11*
X53336533Y-54884000D02*
X53336533Y-54750666D01*
X53336533Y-54750666D02*
X53369866Y-54684000D01*
X53369866Y-54684000D02*
X53436533Y-54617333D01*
X53436533Y-54617333D02*
X53569866Y-54584000D01*
X53569866Y-54584000D02*
X53803200Y-54584000D01*
X53803200Y-54584000D02*
X53936533Y-54617333D01*
X53936533Y-54617333D02*
X54003200Y-54684000D01*
X54003200Y-54684000D02*
X54036533Y-54750666D01*
X54036533Y-54750666D02*
X54036533Y-54884000D01*
X54036533Y-54884000D02*
X54003200Y-54950666D01*
X54003200Y-54950666D02*
X53936533Y-55017333D01*
X53936533Y-55017333D02*
X53803200Y-55050666D01*
X53803200Y-55050666D02*
X53569866Y-55050666D01*
X53569866Y-55050666D02*
X53436533Y-55017333D01*
X53436533Y-55017333D02*
X53369866Y-54950666D01*
X53369866Y-54950666D02*
X53336533Y-54884000D01*
X53336533Y-54350667D02*
X53336533Y-53917333D01*
X53336533Y-53917333D02*
X53603200Y-54150667D01*
X53603200Y-54150667D02*
X53603200Y-54050667D01*
X53603200Y-54050667D02*
X53636533Y-53984000D01*
X53636533Y-53984000D02*
X53669866Y-53950667D01*
X53669866Y-53950667D02*
X53736533Y-53917333D01*
X53736533Y-53917333D02*
X53903200Y-53917333D01*
X53903200Y-53917333D02*
X53969866Y-53950667D01*
X53969866Y-53950667D02*
X54003200Y-53984000D01*
X54003200Y-53984000D02*
X54036533Y-54050667D01*
X54036533Y-54050667D02*
X54036533Y-54250667D01*
X54036533Y-54250667D02*
X54003200Y-54317333D01*
X54003200Y-54317333D02*
X53969866Y-54350667D01*
X53142200Y-55114000D02*
X53142200Y-53854000D01*
D15*
D16*
X55037053Y-49983999D02*
X54337053Y-49983999D01*
X54437053Y-50050666D02*
X54437053Y-49917332D01*
X54437053Y-49917332D02*
X54470386Y-49817332D01*
X54470386Y-49817332D02*
X54537053Y-49750666D01*
X54537053Y-49750666D02*
X54603720Y-49717332D01*
X54603720Y-49717332D02*
X54737053Y-49717332D01*
X54737053Y-49717332D02*
X54803720Y-49750666D01*
X54803720Y-49750666D02*
X54870386Y-49817332D01*
X54870386Y-49817332D02*
X54903720Y-49917332D01*
X54903720Y-49917332D02*
X54903720Y-50050666D01*
X54903720Y-50050666D02*
X54870386Y-50150666D01*
X54870386Y-50150666D02*
X54803720Y-50217332D01*
X54803720Y-50217332D02*
X54737053Y-50250666D01*
X54737053Y-50250666D02*
X54603720Y-50250666D01*
X54603720Y-50250666D02*
X54537053Y-50217332D01*
X54537053Y-50217332D02*
X54470386Y-50150666D01*
X54470386Y-50150666D02*
X54437053Y-50050666D01*
X54142720Y-50280666D02*
X54142720Y-49687333D01*
D10*
D11*
X54336533Y-72784000D02*
X55036533Y-72617333D01*
X55036533Y-72617333D02*
X54536533Y-72484000D01*
X54536533Y-72484000D02*
X55036533Y-72350666D01*
X55036533Y-72350666D02*
X54336533Y-72184000D01*
X54142200Y-72814000D02*
X54142200Y-72154000D01*
D10*
D11*
X54836533Y-79000666D02*
X54836533Y-78667333D01*
X55036533Y-79067333D02*
X54336533Y-78834000D01*
X54336533Y-78834000D02*
X55036533Y-78600666D01*
X54669866Y-78134000D02*
X54703200Y-78034000D01*
X54703200Y-78034000D02*
X54736533Y-78000666D01*
X54736533Y-78000666D02*
X54803200Y-77967333D01*
X54803200Y-77967333D02*
X54903200Y-77967333D01*
X54903200Y-77967333D02*
X54969866Y-78000666D01*
X54969866Y-78000666D02*
X55003200Y-78034000D01*
X55003200Y-78034000D02*
X55036533Y-78100666D01*
X55036533Y-78100666D02*
X55036533Y-78367333D01*
X55036533Y-78367333D02*
X54336533Y-78367333D01*
X54336533Y-78367333D02*
X54336533Y-78134000D01*
X54336533Y-78134000D02*
X54369866Y-78067333D01*
X54369866Y-78067333D02*
X54403200Y-78034000D01*
X54403200Y-78034000D02*
X54469866Y-78000666D01*
X54469866Y-78000666D02*
X54536533Y-78000666D01*
X54536533Y-78000666D02*
X54603200Y-78034000D01*
X54603200Y-78034000D02*
X54636533Y-78067333D01*
X54636533Y-78067333D02*
X54669866Y-78134000D01*
X54669866Y-78134000D02*
X54669866Y-78367333D01*
X54142200Y-79064000D02*
X54142200Y-77904000D01*
D13*
D14*
X70731966Y-73450666D02*
X70765300Y-73483999D01*
X70765300Y-73483999D02*
X70798633Y-73583999D01*
X70798633Y-73583999D02*
X70798633Y-73650666D01*
X70798633Y-73650666D02*
X70765300Y-73750666D01*
X70765300Y-73750666D02*
X70698633Y-73817333D01*
X70698633Y-73817333D02*
X70631966Y-73850666D01*
X70631966Y-73850666D02*
X70498633Y-73883999D01*
X70498633Y-73883999D02*
X70398633Y-73883999D01*
X70398633Y-73883999D02*
X70265300Y-73850666D01*
X70265300Y-73850666D02*
X70198633Y-73817333D01*
X70198633Y-73817333D02*
X70131966Y-73750666D01*
X70131966Y-73750666D02*
X70098633Y-73650666D01*
X70098633Y-73650666D02*
X70098633Y-73583999D01*
X70098633Y-73583999D02*
X70131966Y-73483999D01*
X70131966Y-73483999D02*
X70165300Y-73450666D01*
X70098633Y-73217333D02*
X70098633Y-72783999D01*
X70098633Y-72783999D02*
X70365300Y-73017333D01*
X70365300Y-73017333D02*
X70365300Y-72917333D01*
X70365300Y-72917333D02*
X70398633Y-72850666D01*
X70398633Y-72850666D02*
X70431966Y-72817333D01*
X70431966Y-72817333D02*
X70498633Y-72783999D01*
X70498633Y-72783999D02*
X70665300Y-72783999D01*
X70665300Y-72783999D02*
X70731966Y-72817333D01*
X70731966Y-72817333D02*
X70765300Y-72850666D01*
X70765300Y-72850666D02*
X70798633Y-72917333D01*
X70798633Y-72917333D02*
X70798633Y-73117333D01*
X70798633Y-73117333D02*
X70765300Y-73183999D01*
X70765300Y-73183999D02*
X70731966Y-73217333D01*
D10*
D11*
X53669866Y-73934000D02*
X53703200Y-73834000D01*
X53703200Y-73834000D02*
X53736533Y-73800666D01*
X53736533Y-73800666D02*
X53803200Y-73767333D01*
X53803200Y-73767333D02*
X53903200Y-73767333D01*
X53903200Y-73767333D02*
X53969866Y-73800666D01*
X53969866Y-73800666D02*
X54003200Y-73834000D01*
X54003200Y-73834000D02*
X54036533Y-73900666D01*
X54036533Y-73900666D02*
X54036533Y-74167333D01*
X54036533Y-74167333D02*
X53336533Y-74167333D01*
X53336533Y-74167333D02*
X53336533Y-73934000D01*
X53336533Y-73934000D02*
X53369866Y-73867333D01*
X53369866Y-73867333D02*
X53403200Y-73834000D01*
X53403200Y-73834000D02*
X53469866Y-73800666D01*
X53469866Y-73800666D02*
X53536533Y-73800666D01*
X53536533Y-73800666D02*
X53603200Y-73834000D01*
X53603200Y-73834000D02*
X53636533Y-73867333D01*
X53636533Y-73867333D02*
X53669866Y-73934000D01*
X53669866Y-73934000D02*
X53669866Y-74167333D01*
X53142200Y-74264000D02*
X53142200Y-73704000D01*
D10*
D11*
X55003200Y-75683999D02*
X55036533Y-75583999D01*
X55036533Y-75583999D02*
X55036533Y-75417333D01*
X55036533Y-75417333D02*
X55003200Y-75350666D01*
X55003200Y-75350666D02*
X54969866Y-75317333D01*
X54969866Y-75317333D02*
X54903200Y-75283999D01*
X54903200Y-75283999D02*
X54836533Y-75283999D01*
X54836533Y-75283999D02*
X54769866Y-75317333D01*
X54769866Y-75317333D02*
X54736533Y-75350666D01*
X54736533Y-75350666D02*
X54703200Y-75417333D01*
X54703200Y-75417333D02*
X54669866Y-75550666D01*
X54669866Y-75550666D02*
X54636533Y-75617333D01*
X54636533Y-75617333D02*
X54603200Y-75650666D01*
X54603200Y-75650666D02*
X54536533Y-75683999D01*
X54536533Y-75683999D02*
X54469866Y-75683999D01*
X54469866Y-75683999D02*
X54403200Y-75650666D01*
X54403200Y-75650666D02*
X54369866Y-75617333D01*
X54369866Y-75617333D02*
X54336533Y-75550666D01*
X54336533Y-75550666D02*
X54336533Y-75383999D01*
X54336533Y-75383999D02*
X54369866Y-75283999D01*
X54142200Y-75747333D02*
X54142200Y-75220666D01*
D10*
D11*
X55036533Y-55983999D02*
X54336533Y-55983999D01*
X54142200Y-56080666D02*
X54142200Y-55887333D01*
D10*
D11*
X25836533Y-77500666D02*
X25836533Y-77167333D01*
X26036533Y-77567333D02*
X25336533Y-77334000D01*
X25336533Y-77334000D02*
X26036533Y-77100666D01*
X25369866Y-76500666D02*
X25336533Y-76567333D01*
X25336533Y-76567333D02*
X25336533Y-76667333D01*
X25336533Y-76667333D02*
X25369866Y-76767333D01*
X25369866Y-76767333D02*
X25436533Y-76834000D01*
X25436533Y-76834000D02*
X25503200Y-76867333D01*
X25503200Y-76867333D02*
X25636533Y-76900666D01*
X25636533Y-76900666D02*
X25736533Y-76900666D01*
X25736533Y-76900666D02*
X25869866Y-76867333D01*
X25869866Y-76867333D02*
X25936533Y-76834000D01*
X25936533Y-76834000D02*
X26003200Y-76767333D01*
X26003200Y-76767333D02*
X26036533Y-76667333D01*
X26036533Y-76667333D02*
X26036533Y-76600666D01*
X26036533Y-76600666D02*
X26003200Y-76500666D01*
X26003200Y-76500666D02*
X25969866Y-76467333D01*
X25969866Y-76467333D02*
X25736533Y-76467333D01*
X25736533Y-76467333D02*
X25736533Y-76600666D01*
X25142200Y-77564000D02*
X25142200Y-76404000D01*
D10*
D11*
X25669866Y-51633999D02*
X25669866Y-51400666D01*
X26036533Y-51300666D02*
X26036533Y-51633999D01*
X26036533Y-51633999D02*
X25336533Y-51633999D01*
X25336533Y-51633999D02*
X25336533Y-51300666D01*
X25142200Y-51730666D02*
X25142200Y-51237333D01*
D10*
D11*
X25336533Y-48884000D02*
X25336533Y-48750666D01*
X25336533Y-48750666D02*
X25369866Y-48684000D01*
X25369866Y-48684000D02*
X25436533Y-48617333D01*
X25436533Y-48617333D02*
X25569866Y-48584000D01*
X25569866Y-48584000D02*
X25803200Y-48584000D01*
X25803200Y-48584000D02*
X25936533Y-48617333D01*
X25936533Y-48617333D02*
X26003200Y-48684000D01*
X26003200Y-48684000D02*
X26036533Y-48750666D01*
X26036533Y-48750666D02*
X26036533Y-48884000D01*
X26036533Y-48884000D02*
X26003200Y-48950666D01*
X26003200Y-48950666D02*
X25936533Y-49017333D01*
X25936533Y-49017333D02*
X25803200Y-49050666D01*
X25803200Y-49050666D02*
X25569866Y-49050666D01*
X25569866Y-49050666D02*
X25436533Y-49017333D01*
X25436533Y-49017333D02*
X25369866Y-48950666D01*
X25369866Y-48950666D02*
X25336533Y-48884000D01*
X25403200Y-48317333D02*
X25369866Y-48284000D01*
X25369866Y-48284000D02*
X25336533Y-48217333D01*
X25336533Y-48217333D02*
X25336533Y-48050667D01*
X25336533Y-48050667D02*
X25369866Y-47984000D01*
X25369866Y-47984000D02*
X25403200Y-47950667D01*
X25403200Y-47950667D02*
X25469866Y-47917333D01*
X25469866Y-47917333D02*
X25536533Y-47917333D01*
X25536533Y-47917333D02*
X25636533Y-47950667D01*
X25636533Y-47950667D02*
X26036533Y-48350667D01*
X26036533Y-48350667D02*
X26036533Y-47917333D01*
X25142200Y-49114000D02*
X25142200Y-47854000D01*
D10*
D11*
X25336533Y-80384000D02*
X25336533Y-80250666D01*
X25336533Y-80250666D02*
X25369866Y-80184000D01*
X25369866Y-80184000D02*
X25436533Y-80117333D01*
X25436533Y-80117333D02*
X25569866Y-80084000D01*
X25569866Y-80084000D02*
X25803200Y-80084000D01*
X25803200Y-80084000D02*
X25936533Y-80117333D01*
X25936533Y-80117333D02*
X26003200Y-80184000D01*
X26003200Y-80184000D02*
X26036533Y-80250666D01*
X26036533Y-80250666D02*
X26036533Y-80384000D01*
X26036533Y-80384000D02*
X26003200Y-80450666D01*
X26003200Y-80450666D02*
X25936533Y-80517333D01*
X25936533Y-80517333D02*
X25803200Y-80550666D01*
X25803200Y-80550666D02*
X25569866Y-80550666D01*
X25569866Y-80550666D02*
X25436533Y-80517333D01*
X25436533Y-80517333D02*
X25369866Y-80450666D01*
X25369866Y-80450666D02*
X25336533Y-80384000D01*
X26036533Y-79417333D02*
X26036533Y-79817333D01*
X26036533Y-79617333D02*
X25336533Y-79617333D01*
X25336533Y-79617333D02*
X25436533Y-79684000D01*
X25436533Y-79684000D02*
X25503200Y-79750667D01*
X25503200Y-79750667D02*
X25536533Y-79817333D01*
X25142200Y-80614000D02*
X25142200Y-79354000D01*
D10*
D11*
X26336533Y-53217333D02*
X27036533Y-52750666D01*
X26336533Y-52750666D02*
X27036533Y-53217333D01*
X26142200Y-53247333D02*
X26142200Y-52720666D01*
D10*
D11*
X25336533Y-54884000D02*
X25336533Y-54750666D01*
X25336533Y-54750666D02*
X25369866Y-54684000D01*
X25369866Y-54684000D02*
X25436533Y-54617333D01*
X25436533Y-54617333D02*
X25569866Y-54584000D01*
X25569866Y-54584000D02*
X25803200Y-54584000D01*
X25803200Y-54584000D02*
X25936533Y-54617333D01*
X25936533Y-54617333D02*
X26003200Y-54684000D01*
X26003200Y-54684000D02*
X26036533Y-54750666D01*
X26036533Y-54750666D02*
X26036533Y-54884000D01*
X26036533Y-54884000D02*
X26003200Y-54950666D01*
X26003200Y-54950666D02*
X25936533Y-55017333D01*
X25936533Y-55017333D02*
X25803200Y-55050666D01*
X25803200Y-55050666D02*
X25569866Y-55050666D01*
X25569866Y-55050666D02*
X25436533Y-55017333D01*
X25436533Y-55017333D02*
X25369866Y-54950666D01*
X25369866Y-54950666D02*
X25336533Y-54884000D01*
X25336533Y-54350667D02*
X25336533Y-53917333D01*
X25336533Y-53917333D02*
X25603200Y-54150667D01*
X25603200Y-54150667D02*
X25603200Y-54050667D01*
X25603200Y-54050667D02*
X25636533Y-53984000D01*
X25636533Y-53984000D02*
X25669866Y-53950667D01*
X25669866Y-53950667D02*
X25736533Y-53917333D01*
X25736533Y-53917333D02*
X25903200Y-53917333D01*
X25903200Y-53917333D02*
X25969866Y-53950667D01*
X25969866Y-53950667D02*
X26003200Y-53984000D01*
X26003200Y-53984000D02*
X26036533Y-54050667D01*
X26036533Y-54050667D02*
X26036533Y-54250667D01*
X26036533Y-54250667D02*
X26003200Y-54317333D01*
X26003200Y-54317333D02*
X25969866Y-54350667D01*
X25142200Y-55114000D02*
X25142200Y-53854000D01*
D15*
D16*
X27037053Y-49983999D02*
X26337053Y-49983999D01*
X26437053Y-50050666D02*
X26437053Y-49917332D01*
X26437053Y-49917332D02*
X26470386Y-49817332D01*
X26470386Y-49817332D02*
X26537053Y-49750666D01*
X26537053Y-49750666D02*
X26603720Y-49717332D01*
X26603720Y-49717332D02*
X26737053Y-49717332D01*
X26737053Y-49717332D02*
X26803720Y-49750666D01*
X26803720Y-49750666D02*
X26870386Y-49817332D01*
X26870386Y-49817332D02*
X26903720Y-49917332D01*
X26903720Y-49917332D02*
X26903720Y-50050666D01*
X26903720Y-50050666D02*
X26870386Y-50150666D01*
X26870386Y-50150666D02*
X26803720Y-50217332D01*
X26803720Y-50217332D02*
X26737053Y-50250666D01*
X26737053Y-50250666D02*
X26603720Y-50250666D01*
X26603720Y-50250666D02*
X26537053Y-50217332D01*
X26537053Y-50217332D02*
X26470386Y-50150666D01*
X26470386Y-50150666D02*
X26437053Y-50050666D01*
X26142720Y-50280666D02*
X26142720Y-49687333D01*
D10*
D11*
X26336533Y-72784000D02*
X27036533Y-72617333D01*
X27036533Y-72617333D02*
X26536533Y-72484000D01*
X26536533Y-72484000D02*
X27036533Y-72350666D01*
X27036533Y-72350666D02*
X26336533Y-72184000D01*
X26142200Y-72814000D02*
X26142200Y-72154000D01*
D10*
D11*
X26836533Y-79000666D02*
X26836533Y-78667333D01*
X27036533Y-79067333D02*
X26336533Y-78834000D01*
X26336533Y-78834000D02*
X27036533Y-78600666D01*
X26669866Y-78134000D02*
X26703200Y-78034000D01*
X26703200Y-78034000D02*
X26736533Y-78000666D01*
X26736533Y-78000666D02*
X26803200Y-77967333D01*
X26803200Y-77967333D02*
X26903200Y-77967333D01*
X26903200Y-77967333D02*
X26969866Y-78000666D01*
X26969866Y-78000666D02*
X27003200Y-78034000D01*
X27003200Y-78034000D02*
X27036533Y-78100666D01*
X27036533Y-78100666D02*
X27036533Y-78367333D01*
X27036533Y-78367333D02*
X26336533Y-78367333D01*
X26336533Y-78367333D02*
X26336533Y-78134000D01*
X26336533Y-78134000D02*
X26369866Y-78067333D01*
X26369866Y-78067333D02*
X26403200Y-78034000D01*
X26403200Y-78034000D02*
X26469866Y-78000666D01*
X26469866Y-78000666D02*
X26536533Y-78000666D01*
X26536533Y-78000666D02*
X26603200Y-78034000D01*
X26603200Y-78034000D02*
X26636533Y-78067333D01*
X26636533Y-78067333D02*
X26669866Y-78134000D01*
X26669866Y-78134000D02*
X26669866Y-78367333D01*
X26142200Y-79064000D02*
X26142200Y-77904000D01*
D13*
D14*
X42731966Y-73450666D02*
X42765300Y-73483999D01*
X42765300Y-73483999D02*
X42798633Y-73583999D01*
X42798633Y-73583999D02*
X42798633Y-73650666D01*
X42798633Y-73650666D02*
X42765300Y-73750666D01*
X42765300Y-73750666D02*
X42698633Y-73817333D01*
X42698633Y-73817333D02*
X42631966Y-73850666D01*
X42631966Y-73850666D02*
X42498633Y-73883999D01*
X42498633Y-73883999D02*
X42398633Y-73883999D01*
X42398633Y-73883999D02*
X42265300Y-73850666D01*
X42265300Y-73850666D02*
X42198633Y-73817333D01*
X42198633Y-73817333D02*
X42131966Y-73750666D01*
X42131966Y-73750666D02*
X42098633Y-73650666D01*
X42098633Y-73650666D02*
X42098633Y-73583999D01*
X42098633Y-73583999D02*
X42131966Y-73483999D01*
X42131966Y-73483999D02*
X42165300Y-73450666D01*
X42165300Y-73183999D02*
X42131966Y-73150666D01*
X42131966Y-73150666D02*
X42098633Y-73083999D01*
X42098633Y-73083999D02*
X42098633Y-72917333D01*
X42098633Y-72917333D02*
X42131966Y-72850666D01*
X42131966Y-72850666D02*
X42165300Y-72817333D01*
X42165300Y-72817333D02*
X42231966Y-72783999D01*
X42231966Y-72783999D02*
X42298633Y-72783999D01*
X42298633Y-72783999D02*
X42398633Y-72817333D01*
X42398633Y-72817333D02*
X42798633Y-73217333D01*
X42798633Y-73217333D02*
X42798633Y-72783999D01*
D10*
D11*
X25669866Y-73934000D02*
X25703200Y-73834000D01*
X25703200Y-73834000D02*
X25736533Y-73800666D01*
X25736533Y-73800666D02*
X25803200Y-73767333D01*
X25803200Y-73767333D02*
X25903200Y-73767333D01*
X25903200Y-73767333D02*
X25969866Y-73800666D01*
X25969866Y-73800666D02*
X26003200Y-73834000D01*
X26003200Y-73834000D02*
X26036533Y-73900666D01*
X26036533Y-73900666D02*
X26036533Y-74167333D01*
X26036533Y-74167333D02*
X25336533Y-74167333D01*
X25336533Y-74167333D02*
X25336533Y-73934000D01*
X25336533Y-73934000D02*
X25369866Y-73867333D01*
X25369866Y-73867333D02*
X25403200Y-73834000D01*
X25403200Y-73834000D02*
X25469866Y-73800666D01*
X25469866Y-73800666D02*
X25536533Y-73800666D01*
X25536533Y-73800666D02*
X25603200Y-73834000D01*
X25603200Y-73834000D02*
X25636533Y-73867333D01*
X25636533Y-73867333D02*
X25669866Y-73934000D01*
X25669866Y-73934000D02*
X25669866Y-74167333D01*
X25142200Y-74264000D02*
X25142200Y-73704000D01*
D10*
D11*
X27003200Y-75683999D02*
X27036533Y-75583999D01*
X27036533Y-75583999D02*
X27036533Y-75417333D01*
X27036533Y-75417333D02*
X27003200Y-75350666D01*
X27003200Y-75350666D02*
X26969866Y-75317333D01*
X26969866Y-75317333D02*
X26903200Y-75283999D01*
X26903200Y-75283999D02*
X26836533Y-75283999D01*
X26836533Y-75283999D02*
X26769866Y-75317333D01*
X26769866Y-75317333D02*
X26736533Y-75350666D01*
X26736533Y-75350666D02*
X26703200Y-75417333D01*
X26703200Y-75417333D02*
X26669866Y-75550666D01*
X26669866Y-75550666D02*
X26636533Y-75617333D01*
X26636533Y-75617333D02*
X26603200Y-75650666D01*
X26603200Y-75650666D02*
X26536533Y-75683999D01*
X26536533Y-75683999D02*
X26469866Y-75683999D01*
X26469866Y-75683999D02*
X26403200Y-75650666D01*
X26403200Y-75650666D02*
X26369866Y-75617333D01*
X26369866Y-75617333D02*
X26336533Y-75550666D01*
X26336533Y-75550666D02*
X26336533Y-75383999D01*
X26336533Y-75383999D02*
X26369866Y-75283999D01*
X26142200Y-75747333D02*
X26142200Y-75220666D01*
D10*
D11*
X27036533Y-55983999D02*
X26336533Y-55983999D01*
X26142200Y-56080666D02*
X26142200Y-55887333D01*
D10*
D11*
X83036533Y-55983999D02*
X82336533Y-55983999D01*
X82142200Y-56080666D02*
X82142200Y-55887333D01*
D10*
D11*
X83003200Y-75683999D02*
X83036533Y-75583999D01*
X83036533Y-75583999D02*
X83036533Y-75417333D01*
X83036533Y-75417333D02*
X83003200Y-75350666D01*
X83003200Y-75350666D02*
X82969866Y-75317333D01*
X82969866Y-75317333D02*
X82903200Y-75283999D01*
X82903200Y-75283999D02*
X82836533Y-75283999D01*
X82836533Y-75283999D02*
X82769866Y-75317333D01*
X82769866Y-75317333D02*
X82736533Y-75350666D01*
X82736533Y-75350666D02*
X82703200Y-75417333D01*
X82703200Y-75417333D02*
X82669866Y-75550666D01*
X82669866Y-75550666D02*
X82636533Y-75617333D01*
X82636533Y-75617333D02*
X82603200Y-75650666D01*
X82603200Y-75650666D02*
X82536533Y-75683999D01*
X82536533Y-75683999D02*
X82469866Y-75683999D01*
X82469866Y-75683999D02*
X82403200Y-75650666D01*
X82403200Y-75650666D02*
X82369866Y-75617333D01*
X82369866Y-75617333D02*
X82336533Y-75550666D01*
X82336533Y-75550666D02*
X82336533Y-75383999D01*
X82336533Y-75383999D02*
X82369866Y-75283999D01*
X82142200Y-75747333D02*
X82142200Y-75220666D01*
D10*
D11*
X81669866Y-73934000D02*
X81703200Y-73834000D01*
X81703200Y-73834000D02*
X81736533Y-73800666D01*
X81736533Y-73800666D02*
X81803200Y-73767333D01*
X81803200Y-73767333D02*
X81903200Y-73767333D01*
X81903200Y-73767333D02*
X81969866Y-73800666D01*
X81969866Y-73800666D02*
X82003200Y-73834000D01*
X82003200Y-73834000D02*
X82036533Y-73900666D01*
X82036533Y-73900666D02*
X82036533Y-74167333D01*
X82036533Y-74167333D02*
X81336533Y-74167333D01*
X81336533Y-74167333D02*
X81336533Y-73934000D01*
X81336533Y-73934000D02*
X81369866Y-73867333D01*
X81369866Y-73867333D02*
X81403200Y-73834000D01*
X81403200Y-73834000D02*
X81469866Y-73800666D01*
X81469866Y-73800666D02*
X81536533Y-73800666D01*
X81536533Y-73800666D02*
X81603200Y-73834000D01*
X81603200Y-73834000D02*
X81636533Y-73867333D01*
X81636533Y-73867333D02*
X81669866Y-73934000D01*
X81669866Y-73934000D02*
X81669866Y-74167333D01*
X81142200Y-74264000D02*
X81142200Y-73704000D01*
D13*
D14*
X98731966Y-73450666D02*
X98765300Y-73483999D01*
X98765300Y-73483999D02*
X98798633Y-73583999D01*
X98798633Y-73583999D02*
X98798633Y-73650666D01*
X98798633Y-73650666D02*
X98765300Y-73750666D01*
X98765300Y-73750666D02*
X98698633Y-73817333D01*
X98698633Y-73817333D02*
X98631966Y-73850666D01*
X98631966Y-73850666D02*
X98498633Y-73883999D01*
X98498633Y-73883999D02*
X98398633Y-73883999D01*
X98398633Y-73883999D02*
X98265300Y-73850666D01*
X98265300Y-73850666D02*
X98198633Y-73817333D01*
X98198633Y-73817333D02*
X98131966Y-73750666D01*
X98131966Y-73750666D02*
X98098633Y-73650666D01*
X98098633Y-73650666D02*
X98098633Y-73583999D01*
X98098633Y-73583999D02*
X98131966Y-73483999D01*
X98131966Y-73483999D02*
X98165300Y-73450666D01*
X98331966Y-72850666D02*
X98798633Y-72850666D01*
X98065300Y-73017333D02*
X98565300Y-73183999D01*
X98565300Y-73183999D02*
X98565300Y-72750666D01*
D10*
D11*
X82836533Y-79000666D02*
X82836533Y-78667333D01*
X83036533Y-79067333D02*
X82336533Y-78834000D01*
X82336533Y-78834000D02*
X83036533Y-78600666D01*
X82669866Y-78134000D02*
X82703200Y-78034000D01*
X82703200Y-78034000D02*
X82736533Y-78000666D01*
X82736533Y-78000666D02*
X82803200Y-77967333D01*
X82803200Y-77967333D02*
X82903200Y-77967333D01*
X82903200Y-77967333D02*
X82969866Y-78000666D01*
X82969866Y-78000666D02*
X83003200Y-78034000D01*
X83003200Y-78034000D02*
X83036533Y-78100666D01*
X83036533Y-78100666D02*
X83036533Y-78367333D01*
X83036533Y-78367333D02*
X82336533Y-78367333D01*
X82336533Y-78367333D02*
X82336533Y-78134000D01*
X82336533Y-78134000D02*
X82369866Y-78067333D01*
X82369866Y-78067333D02*
X82403200Y-78034000D01*
X82403200Y-78034000D02*
X82469866Y-78000666D01*
X82469866Y-78000666D02*
X82536533Y-78000666D01*
X82536533Y-78000666D02*
X82603200Y-78034000D01*
X82603200Y-78034000D02*
X82636533Y-78067333D01*
X82636533Y-78067333D02*
X82669866Y-78134000D01*
X82669866Y-78134000D02*
X82669866Y-78367333D01*
X82142200Y-79064000D02*
X82142200Y-77904000D01*
D10*
D11*
X82336533Y-72784000D02*
X83036533Y-72617333D01*
X83036533Y-72617333D02*
X82536533Y-72484000D01*
X82536533Y-72484000D02*
X83036533Y-72350666D01*
X83036533Y-72350666D02*
X82336533Y-72184000D01*
X82142200Y-72814000D02*
X82142200Y-72154000D01*
D15*
D16*
X83037053Y-49983999D02*
X82337053Y-49983999D01*
X82437053Y-50050666D02*
X82437053Y-49917332D01*
X82437053Y-49917332D02*
X82470386Y-49817332D01*
X82470386Y-49817332D02*
X82537053Y-49750666D01*
X82537053Y-49750666D02*
X82603720Y-49717332D01*
X82603720Y-49717332D02*
X82737053Y-49717332D01*
X82737053Y-49717332D02*
X82803720Y-49750666D01*
X82803720Y-49750666D02*
X82870386Y-49817332D01*
X82870386Y-49817332D02*
X82903720Y-49917332D01*
X82903720Y-49917332D02*
X82903720Y-50050666D01*
X82903720Y-50050666D02*
X82870386Y-50150666D01*
X82870386Y-50150666D02*
X82803720Y-50217332D01*
X82803720Y-50217332D02*
X82737053Y-50250666D01*
X82737053Y-50250666D02*
X82603720Y-50250666D01*
X82603720Y-50250666D02*
X82537053Y-50217332D01*
X82537053Y-50217332D02*
X82470386Y-50150666D01*
X82470386Y-50150666D02*
X82437053Y-50050666D01*
X82142720Y-50280666D02*
X82142720Y-49687333D01*
D10*
D11*
X81336533Y-54884000D02*
X81336533Y-54750666D01*
X81336533Y-54750666D02*
X81369866Y-54684000D01*
X81369866Y-54684000D02*
X81436533Y-54617333D01*
X81436533Y-54617333D02*
X81569866Y-54584000D01*
X81569866Y-54584000D02*
X81803200Y-54584000D01*
X81803200Y-54584000D02*
X81936533Y-54617333D01*
X81936533Y-54617333D02*
X82003200Y-54684000D01*
X82003200Y-54684000D02*
X82036533Y-54750666D01*
X82036533Y-54750666D02*
X82036533Y-54884000D01*
X82036533Y-54884000D02*
X82003200Y-54950666D01*
X82003200Y-54950666D02*
X81936533Y-55017333D01*
X81936533Y-55017333D02*
X81803200Y-55050666D01*
X81803200Y-55050666D02*
X81569866Y-55050666D01*
X81569866Y-55050666D02*
X81436533Y-55017333D01*
X81436533Y-55017333D02*
X81369866Y-54950666D01*
X81369866Y-54950666D02*
X81336533Y-54884000D01*
X81336533Y-54350667D02*
X81336533Y-53917333D01*
X81336533Y-53917333D02*
X81603200Y-54150667D01*
X81603200Y-54150667D02*
X81603200Y-54050667D01*
X81603200Y-54050667D02*
X81636533Y-53984000D01*
X81636533Y-53984000D02*
X81669866Y-53950667D01*
X81669866Y-53950667D02*
X81736533Y-53917333D01*
X81736533Y-53917333D02*
X81903200Y-53917333D01*
X81903200Y-53917333D02*
X81969866Y-53950667D01*
X81969866Y-53950667D02*
X82003200Y-53984000D01*
X82003200Y-53984000D02*
X82036533Y-54050667D01*
X82036533Y-54050667D02*
X82036533Y-54250667D01*
X82036533Y-54250667D02*
X82003200Y-54317333D01*
X82003200Y-54317333D02*
X81969866Y-54350667D01*
X81142200Y-55114000D02*
X81142200Y-53854000D01*
D10*
D11*
X82336533Y-53217333D02*
X83036533Y-52750666D01*
X82336533Y-52750666D02*
X83036533Y-53217333D01*
X82142200Y-53247333D02*
X82142200Y-52720666D01*
D10*
D11*
X81336533Y-80384000D02*
X81336533Y-80250666D01*
X81336533Y-80250666D02*
X81369866Y-80184000D01*
X81369866Y-80184000D02*
X81436533Y-80117333D01*
X81436533Y-80117333D02*
X81569866Y-80084000D01*
X81569866Y-80084000D02*
X81803200Y-80084000D01*
X81803200Y-80084000D02*
X81936533Y-80117333D01*
X81936533Y-80117333D02*
X82003200Y-80184000D01*
X82003200Y-80184000D02*
X82036533Y-80250666D01*
X82036533Y-80250666D02*
X82036533Y-80384000D01*
X82036533Y-80384000D02*
X82003200Y-80450666D01*
X82003200Y-80450666D02*
X81936533Y-80517333D01*
X81936533Y-80517333D02*
X81803200Y-80550666D01*
X81803200Y-80550666D02*
X81569866Y-80550666D01*
X81569866Y-80550666D02*
X81436533Y-80517333D01*
X81436533Y-80517333D02*
X81369866Y-80450666D01*
X81369866Y-80450666D02*
X81336533Y-80384000D01*
X82036533Y-79417333D02*
X82036533Y-79817333D01*
X82036533Y-79617333D02*
X81336533Y-79617333D01*
X81336533Y-79617333D02*
X81436533Y-79684000D01*
X81436533Y-79684000D02*
X81503200Y-79750667D01*
X81503200Y-79750667D02*
X81536533Y-79817333D01*
X81142200Y-80614000D02*
X81142200Y-79354000D01*
D10*
D11*
X81336533Y-48884000D02*
X81336533Y-48750666D01*
X81336533Y-48750666D02*
X81369866Y-48684000D01*
X81369866Y-48684000D02*
X81436533Y-48617333D01*
X81436533Y-48617333D02*
X81569866Y-48584000D01*
X81569866Y-48584000D02*
X81803200Y-48584000D01*
X81803200Y-48584000D02*
X81936533Y-48617333D01*
X81936533Y-48617333D02*
X82003200Y-48684000D01*
X82003200Y-48684000D02*
X82036533Y-48750666D01*
X82036533Y-48750666D02*
X82036533Y-48884000D01*
X82036533Y-48884000D02*
X82003200Y-48950666D01*
X82003200Y-48950666D02*
X81936533Y-49017333D01*
X81936533Y-49017333D02*
X81803200Y-49050666D01*
X81803200Y-49050666D02*
X81569866Y-49050666D01*
X81569866Y-49050666D02*
X81436533Y-49017333D01*
X81436533Y-49017333D02*
X81369866Y-48950666D01*
X81369866Y-48950666D02*
X81336533Y-48884000D01*
X81403200Y-48317333D02*
X81369866Y-48284000D01*
X81369866Y-48284000D02*
X81336533Y-48217333D01*
X81336533Y-48217333D02*
X81336533Y-48050667D01*
X81336533Y-48050667D02*
X81369866Y-47984000D01*
X81369866Y-47984000D02*
X81403200Y-47950667D01*
X81403200Y-47950667D02*
X81469866Y-47917333D01*
X81469866Y-47917333D02*
X81536533Y-47917333D01*
X81536533Y-47917333D02*
X81636533Y-47950667D01*
X81636533Y-47950667D02*
X82036533Y-48350667D01*
X82036533Y-48350667D02*
X82036533Y-47917333D01*
X81142200Y-49114000D02*
X81142200Y-47854000D01*
D10*
D11*
X81669866Y-51633999D02*
X81669866Y-51400666D01*
X82036533Y-51300666D02*
X82036533Y-51633999D01*
X82036533Y-51633999D02*
X81336533Y-51633999D01*
X81336533Y-51633999D02*
X81336533Y-51300666D01*
X81142200Y-51730666D02*
X81142200Y-51237333D01*
D10*
D11*
X81836533Y-77500666D02*
X81836533Y-77167333D01*
X82036533Y-77567333D02*
X81336533Y-77334000D01*
X81336533Y-77334000D02*
X82036533Y-77100666D01*
X81369866Y-76500666D02*
X81336533Y-76567333D01*
X81336533Y-76567333D02*
X81336533Y-76667333D01*
X81336533Y-76667333D02*
X81369866Y-76767333D01*
X81369866Y-76767333D02*
X81436533Y-76834000D01*
X81436533Y-76834000D02*
X81503200Y-76867333D01*
X81503200Y-76867333D02*
X81636533Y-76900666D01*
X81636533Y-76900666D02*
X81736533Y-76900666D01*
X81736533Y-76900666D02*
X81869866Y-76867333D01*
X81869866Y-76867333D02*
X81936533Y-76834000D01*
X81936533Y-76834000D02*
X82003200Y-76767333D01*
X82003200Y-76767333D02*
X82036533Y-76667333D01*
X82036533Y-76667333D02*
X82036533Y-76600666D01*
X82036533Y-76600666D02*
X82003200Y-76500666D01*
X82003200Y-76500666D02*
X81969866Y-76467333D01*
X81969866Y-76467333D02*
X81736533Y-76467333D01*
X81736533Y-76467333D02*
X81736533Y-76600666D01*
X81142200Y-77564000D02*
X81142200Y-76404000D01*
D12*
D17*
X103690380Y-48662568D02*
X104690380Y-48662568D01*
X103690380Y-49138758D02*
X104690380Y-49138758D01*
X104690380Y-49138758D02*
X104690380Y-49519710D01*
X104690380Y-49519710D02*
X104642761Y-49614948D01*
X104642761Y-49614948D02*
X104595142Y-49662567D01*
X104595142Y-49662567D02*
X104499904Y-49710186D01*
X104499904Y-49710186D02*
X104357047Y-49710186D01*
X104357047Y-49710186D02*
X104261809Y-49662567D01*
X104261809Y-49662567D02*
X104214190Y-49614948D01*
X104214190Y-49614948D02*
X104166571Y-49519710D01*
X104166571Y-49519710D02*
X104166571Y-49138758D01*
X103785619Y-50138758D02*
X103738000Y-50186377D01*
X103738000Y-50186377D02*
X103690380Y-50138758D01*
X103690380Y-50138758D02*
X103738000Y-50091139D01*
X103738000Y-50091139D02*
X103785619Y-50138758D01*
X103785619Y-50138758D02*
X103690380Y-50138758D01*
X103785619Y-51186376D02*
X103738000Y-51138757D01*
X103738000Y-51138757D02*
X103690380Y-50995900D01*
X103690380Y-50995900D02*
X103690380Y-50900662D01*
X103690380Y-50900662D02*
X103738000Y-50757805D01*
X103738000Y-50757805D02*
X103833238Y-50662567D01*
X103833238Y-50662567D02*
X103928476Y-50614948D01*
X103928476Y-50614948D02*
X104118952Y-50567329D01*
X104118952Y-50567329D02*
X104261809Y-50567329D01*
X104261809Y-50567329D02*
X104452285Y-50614948D01*
X104452285Y-50614948D02*
X104547523Y-50662567D01*
X104547523Y-50662567D02*
X104642761Y-50757805D01*
X104642761Y-50757805D02*
X104690380Y-50900662D01*
X104690380Y-50900662D02*
X104690380Y-50995900D01*
X104690380Y-50995900D02*
X104642761Y-51138757D01*
X104642761Y-51138757D02*
X104595142Y-51186376D01*
X104357047Y-51472091D02*
X104357047Y-51853043D01*
X104690380Y-51614948D02*
X103833238Y-51614948D01*
X103833238Y-51614948D02*
X103738000Y-51662567D01*
X103738000Y-51662567D02*
X103690380Y-51757805D01*
X103690380Y-51757805D02*
X103690380Y-51853043D01*
X103690380Y-52186377D02*
X104357047Y-52186377D01*
X104166571Y-52186377D02*
X104261809Y-52233996D01*
X104261809Y-52233996D02*
X104309428Y-52281615D01*
X104309428Y-52281615D02*
X104357047Y-52376853D01*
X104357047Y-52376853D02*
X104357047Y-52472091D01*
X103690380Y-52948282D02*
X103738000Y-52853044D01*
X103738000Y-52853044D02*
X103833238Y-52805425D01*
X103833238Y-52805425D02*
X104690380Y-52805425D01*
X104071333Y-53329235D02*
X104071333Y-54091140D01*
X103785619Y-54567330D02*
X103738000Y-54614949D01*
X103738000Y-54614949D02*
X103690380Y-54567330D01*
X103690380Y-54567330D02*
X103738000Y-54519711D01*
X103738000Y-54519711D02*
X103785619Y-54567330D01*
X103785619Y-54567330D02*
X103690380Y-54567330D01*
X103690380Y-55614948D02*
X104166571Y-55281615D01*
X103690380Y-55043520D02*
X104690380Y-55043520D01*
X104690380Y-55043520D02*
X104690380Y-55424472D01*
X104690380Y-55424472D02*
X104642761Y-55519710D01*
X104642761Y-55519710D02*
X104595142Y-55567329D01*
X104595142Y-55567329D02*
X104499904Y-55614948D01*
X104499904Y-55614948D02*
X104357047Y-55614948D01*
X104357047Y-55614948D02*
X104261809Y-55567329D01*
X104261809Y-55567329D02*
X104214190Y-55519710D01*
X104214190Y-55519710D02*
X104166571Y-55424472D01*
X104166571Y-55424472D02*
X104166571Y-55043520D01*
X103738000Y-56424472D02*
X103690380Y-56329234D01*
X103690380Y-56329234D02*
X103690380Y-56138758D01*
X103690380Y-56138758D02*
X103738000Y-56043520D01*
X103738000Y-56043520D02*
X103833238Y-55995901D01*
X103833238Y-55995901D02*
X104214190Y-55995901D01*
X104214190Y-55995901D02*
X104309428Y-56043520D01*
X104309428Y-56043520D02*
X104357047Y-56138758D01*
X104357047Y-56138758D02*
X104357047Y-56329234D01*
X104357047Y-56329234D02*
X104309428Y-56424472D01*
X104309428Y-56424472D02*
X104214190Y-56472091D01*
X104214190Y-56472091D02*
X104118952Y-56472091D01*
X104118952Y-56472091D02*
X104023714Y-55995901D01*
X104357047Y-56805425D02*
X103690380Y-57043520D01*
X103690380Y-57043520D02*
X104357047Y-57281615D01*
X104642761Y-58948282D02*
X104690380Y-58853044D01*
X104690380Y-58853044D02*
X104690380Y-58710187D01*
X104690380Y-58710187D02*
X104642761Y-58567330D01*
X104642761Y-58567330D02*
X104547523Y-58472092D01*
X104547523Y-58472092D02*
X104452285Y-58424473D01*
X104452285Y-58424473D02*
X104261809Y-58376854D01*
X104261809Y-58376854D02*
X104118952Y-58376854D01*
X104118952Y-58376854D02*
X103928476Y-58424473D01*
X103928476Y-58424473D02*
X103833238Y-58472092D01*
X103833238Y-58472092D02*
X103738000Y-58567330D01*
X103738000Y-58567330D02*
X103690380Y-58710187D01*
X103690380Y-58710187D02*
X103690380Y-58805425D01*
X103690380Y-58805425D02*
X103738000Y-58948282D01*
X103738000Y-58948282D02*
X103785619Y-58995901D01*
X103785619Y-58995901D02*
X104118952Y-58995901D01*
X104118952Y-58995901D02*
X104118952Y-58805425D01*
X103785619Y-59424473D02*
X103738000Y-59472092D01*
X103738000Y-59472092D02*
X103690380Y-59424473D01*
X103690380Y-59424473D02*
X103738000Y-59376854D01*
X103738000Y-59376854D02*
X103785619Y-59424473D01*
X103785619Y-59424473D02*
X103690380Y-59424473D01*
X104595142Y-59853044D02*
X104642761Y-59900663D01*
X104642761Y-59900663D02*
X104690380Y-59995901D01*
X104690380Y-59995901D02*
X104690380Y-60233996D01*
X104690380Y-60233996D02*
X104642761Y-60329234D01*
X104642761Y-60329234D02*
X104595142Y-60376853D01*
X104595142Y-60376853D02*
X104499904Y-60424472D01*
X104499904Y-60424472D02*
X104404666Y-60424472D01*
X104404666Y-60424472D02*
X104261809Y-60376853D01*
X104261809Y-60376853D02*
X103690380Y-59805425D01*
X103690380Y-59805425D02*
X103690380Y-60424472D01*
X104690380Y-61043520D02*
X104690380Y-61138758D01*
X104690380Y-61138758D02*
X104642761Y-61233996D01*
X104642761Y-61233996D02*
X104595142Y-61281615D01*
X104595142Y-61281615D02*
X104499904Y-61329234D01*
X104499904Y-61329234D02*
X104309428Y-61376853D01*
X104309428Y-61376853D02*
X104071333Y-61376853D01*
X104071333Y-61376853D02*
X103880857Y-61329234D01*
X103880857Y-61329234D02*
X103785619Y-61281615D01*
X103785619Y-61281615D02*
X103738000Y-61233996D01*
X103738000Y-61233996D02*
X103690380Y-61138758D01*
X103690380Y-61138758D02*
X103690380Y-61043520D01*
X103690380Y-61043520D02*
X103738000Y-60948282D01*
X103738000Y-60948282D02*
X103785619Y-60900663D01*
X103785619Y-60900663D02*
X103880857Y-60853044D01*
X103880857Y-60853044D02*
X104071333Y-60805425D01*
X104071333Y-60805425D02*
X104309428Y-60805425D01*
X104309428Y-60805425D02*
X104499904Y-60853044D01*
X104499904Y-60853044D02*
X104595142Y-60900663D01*
X104595142Y-60900663D02*
X104642761Y-60948282D01*
X104642761Y-60948282D02*
X104690380Y-61043520D01*
X104595142Y-61757806D02*
X104642761Y-61805425D01*
X104642761Y-61805425D02*
X104690380Y-61900663D01*
X104690380Y-61900663D02*
X104690380Y-62138758D01*
X104690380Y-62138758D02*
X104642761Y-62233996D01*
X104642761Y-62233996D02*
X104595142Y-62281615D01*
X104595142Y-62281615D02*
X104499904Y-62329234D01*
X104499904Y-62329234D02*
X104404666Y-62329234D01*
X104404666Y-62329234D02*
X104261809Y-62281615D01*
X104261809Y-62281615D02*
X103690380Y-61710187D01*
X103690380Y-61710187D02*
X103690380Y-62329234D01*
X104690380Y-63233996D02*
X104690380Y-62757806D01*
X104690380Y-62757806D02*
X104214190Y-62710187D01*
X104214190Y-62710187D02*
X104261809Y-62757806D01*
X104261809Y-62757806D02*
X104309428Y-62853044D01*
X104309428Y-62853044D02*
X104309428Y-63091139D01*
X104309428Y-63091139D02*
X104261809Y-63186377D01*
X104261809Y-63186377D02*
X104214190Y-63233996D01*
X104214190Y-63233996D02*
X104118952Y-63281615D01*
X104118952Y-63281615D02*
X103880857Y-63281615D01*
X103880857Y-63281615D02*
X103785619Y-63233996D01*
X103785619Y-63233996D02*
X103738000Y-63186377D01*
X103738000Y-63186377D02*
X103690380Y-63091139D01*
X103690380Y-63091139D02*
X103690380Y-62853044D01*
X103690380Y-62853044D02*
X103738000Y-62757806D01*
X103738000Y-62757806D02*
X103785619Y-62710187D01*
X103690380Y-64233996D02*
X103690380Y-63662568D01*
X103690380Y-63948282D02*
X104690380Y-63948282D01*
X104690380Y-63948282D02*
X104547523Y-63853044D01*
X104547523Y-63853044D02*
X104452285Y-63757806D01*
X104452285Y-63757806D02*
X104404666Y-63662568D01*
X104690380Y-64853044D02*
X104690380Y-64948282D01*
X104690380Y-64948282D02*
X104642761Y-65043520D01*
X104642761Y-65043520D02*
X104595142Y-65091139D01*
X104595142Y-65091139D02*
X104499904Y-65138758D01*
X104499904Y-65138758D02*
X104309428Y-65186377D01*
X104309428Y-65186377D02*
X104071333Y-65186377D01*
X104071333Y-65186377D02*
X103880857Y-65138758D01*
X103880857Y-65138758D02*
X103785619Y-65091139D01*
X103785619Y-65091139D02*
X103738000Y-65043520D01*
X103738000Y-65043520D02*
X103690380Y-64948282D01*
X103690380Y-64948282D02*
X103690380Y-64853044D01*
X103690380Y-64853044D02*
X103738000Y-64757806D01*
X103738000Y-64757806D02*
X103785619Y-64710187D01*
X103785619Y-64710187D02*
X103880857Y-64662568D01*
X103880857Y-64662568D02*
X104071333Y-64614949D01*
X104071333Y-64614949D02*
X104309428Y-64614949D01*
X104309428Y-64614949D02*
X104499904Y-64662568D01*
X104499904Y-64662568D02*
X104595142Y-64710187D01*
X104595142Y-64710187D02*
X104642761Y-64757806D01*
X104642761Y-64757806D02*
X104690380Y-64853044D01*
X104595142Y-65567330D02*
X104642761Y-65614949D01*
X104642761Y-65614949D02*
X104690380Y-65710187D01*
X104690380Y-65710187D02*
X104690380Y-65948282D01*
X104690380Y-65948282D02*
X104642761Y-66043520D01*
X104642761Y-66043520D02*
X104595142Y-66091139D01*
X104595142Y-66091139D02*
X104499904Y-66138758D01*
X104499904Y-66138758D02*
X104404666Y-66138758D01*
X104404666Y-66138758D02*
X104261809Y-66091139D01*
X104261809Y-66091139D02*
X103690380Y-65519711D01*
X103690380Y-65519711D02*
X103690380Y-66138758D01*
X104261809Y-66710187D02*
X104309428Y-66614949D01*
X104309428Y-66614949D02*
X104357047Y-66567330D01*
X104357047Y-66567330D02*
X104452285Y-66519711D01*
X104452285Y-66519711D02*
X104499904Y-66519711D01*
X104499904Y-66519711D02*
X104595142Y-66567330D01*
X104595142Y-66567330D02*
X104642761Y-66614949D01*
X104642761Y-66614949D02*
X104690380Y-66710187D01*
X104690380Y-66710187D02*
X104690380Y-66900663D01*
X104690380Y-66900663D02*
X104642761Y-66995901D01*
X104642761Y-66995901D02*
X104595142Y-67043520D01*
X104595142Y-67043520D02*
X104499904Y-67091139D01*
X104499904Y-67091139D02*
X104452285Y-67091139D01*
X104452285Y-67091139D02*
X104357047Y-67043520D01*
X104357047Y-67043520D02*
X104309428Y-66995901D01*
X104309428Y-66995901D02*
X104261809Y-66900663D01*
X104261809Y-66900663D02*
X104261809Y-66710187D01*
X104261809Y-66710187D02*
X104214190Y-66614949D01*
X104214190Y-66614949D02*
X104166571Y-66567330D01*
X104166571Y-66567330D02*
X104071333Y-66519711D01*
X104071333Y-66519711D02*
X103880857Y-66519711D01*
X103880857Y-66519711D02*
X103785619Y-66567330D01*
X103785619Y-66567330D02*
X103738000Y-66614949D01*
X103738000Y-66614949D02*
X103690380Y-66710187D01*
X103690380Y-66710187D02*
X103690380Y-66900663D01*
X103690380Y-66900663D02*
X103738000Y-66995901D01*
X103738000Y-66995901D02*
X103785619Y-67043520D01*
X103785619Y-67043520D02*
X103880857Y-67091139D01*
X103880857Y-67091139D02*
X104071333Y-67091139D01*
X104071333Y-67091139D02*
X104166571Y-67043520D01*
X104166571Y-67043520D02*
X104214190Y-66995901D01*
X104214190Y-66995901D02*
X104261809Y-66900663D01*
X103785619Y-67519711D02*
X103738000Y-67567330D01*
X103738000Y-67567330D02*
X103690380Y-67519711D01*
X103690380Y-67519711D02*
X103738000Y-67472092D01*
X103738000Y-67472092D02*
X103785619Y-67519711D01*
X103785619Y-67519711D02*
X103690380Y-67519711D01*
X103690380Y-68567329D02*
X104166571Y-68233996D01*
X103690380Y-67995901D02*
X104690380Y-67995901D01*
X104690380Y-67995901D02*
X104690380Y-68376853D01*
X104690380Y-68376853D02*
X104642761Y-68472091D01*
X104642761Y-68472091D02*
X104595142Y-68519710D01*
X104595142Y-68519710D02*
X104499904Y-68567329D01*
X104499904Y-68567329D02*
X104357047Y-68567329D01*
X104357047Y-68567329D02*
X104261809Y-68519710D01*
X104261809Y-68519710D02*
X104214190Y-68472091D01*
X104214190Y-68472091D02*
X104166571Y-68376853D01*
X104166571Y-68376853D02*
X104166571Y-67995901D01*
X103690380Y-69567329D02*
X104166571Y-69233996D01*
X103690380Y-68995901D02*
X104690380Y-68995901D01*
X104690380Y-68995901D02*
X104690380Y-69376853D01*
X104690380Y-69376853D02*
X104642761Y-69472091D01*
X104642761Y-69472091D02*
X104595142Y-69519710D01*
X104595142Y-69519710D02*
X104499904Y-69567329D01*
X104499904Y-69567329D02*
X104357047Y-69567329D01*
X104357047Y-69567329D02*
X104261809Y-69519710D01*
X104261809Y-69519710D02*
X104214190Y-69472091D01*
X104214190Y-69472091D02*
X104166571Y-69376853D01*
X104166571Y-69376853D02*
X104166571Y-68995901D01*
X103690380Y-69995901D02*
X104690380Y-69995901D01*
X104690380Y-69995901D02*
X104690380Y-70376853D01*
X104690380Y-70376853D02*
X104642761Y-70472091D01*
X104642761Y-70472091D02*
X104595142Y-70519710D01*
X104595142Y-70519710D02*
X104499904Y-70567329D01*
X104499904Y-70567329D02*
X104357047Y-70567329D01*
X104357047Y-70567329D02*
X104261809Y-70519710D01*
X104261809Y-70519710D02*
X104214190Y-70472091D01*
X104214190Y-70472091D02*
X104166571Y-70376853D01*
X104166571Y-70376853D02*
X104166571Y-69995901D01*
X104357047Y-71424472D02*
X103690380Y-71424472D01*
X104357047Y-70995901D02*
X103833238Y-70995901D01*
X103833238Y-70995901D02*
X103738000Y-71043520D01*
X103738000Y-71043520D02*
X103690380Y-71138758D01*
X103690380Y-71138758D02*
X103690380Y-71281615D01*
X103690380Y-71281615D02*
X103738000Y-71376853D01*
X103738000Y-71376853D02*
X103785619Y-71424472D01*
X103738000Y-72329234D02*
X103690380Y-72233996D01*
X103690380Y-72233996D02*
X103690380Y-72043520D01*
X103690380Y-72043520D02*
X103738000Y-71948282D01*
X103738000Y-71948282D02*
X103785619Y-71900663D01*
X103785619Y-71900663D02*
X103880857Y-71853044D01*
X103880857Y-71853044D02*
X104166571Y-71853044D01*
X104166571Y-71853044D02*
X104261809Y-71900663D01*
X104261809Y-71900663D02*
X104309428Y-71948282D01*
X104309428Y-71948282D02*
X104357047Y-72043520D01*
X104357047Y-72043520D02*
X104357047Y-72233996D01*
X104357047Y-72233996D02*
X104309428Y-72329234D01*
X103738000Y-73186377D02*
X103690380Y-73091139D01*
X103690380Y-73091139D02*
X103690380Y-72900663D01*
X103690380Y-72900663D02*
X103738000Y-72805425D01*
X103738000Y-72805425D02*
X103785619Y-72757806D01*
X103785619Y-72757806D02*
X103880857Y-72710187D01*
X103880857Y-72710187D02*
X104166571Y-72710187D01*
X104166571Y-72710187D02*
X104261809Y-72757806D01*
X104261809Y-72757806D02*
X104309428Y-72805425D01*
X104309428Y-72805425D02*
X104357047Y-72900663D01*
X104357047Y-72900663D02*
X104357047Y-73091139D01*
X104357047Y-73091139D02*
X104309428Y-73186377D01*
X103690380Y-73614949D02*
X104357047Y-73614949D01*
X104690380Y-73614949D02*
X104642761Y-73567330D01*
X104642761Y-73567330D02*
X104595142Y-73614949D01*
X104595142Y-73614949D02*
X104642761Y-73662568D01*
X104642761Y-73662568D02*
X104690380Y-73614949D01*
X104690380Y-73614949D02*
X104595142Y-73614949D01*
X104357047Y-74091139D02*
X103690380Y-74091139D01*
X104261809Y-74091139D02*
X104309428Y-74138758D01*
X104309428Y-74138758D02*
X104357047Y-74233996D01*
X104357047Y-74233996D02*
X104357047Y-74376853D01*
X104357047Y-74376853D02*
X104309428Y-74472091D01*
X104309428Y-74472091D02*
X104214190Y-74519710D01*
X104214190Y-74519710D02*
X103690380Y-74519710D01*
X103738000Y-75376853D02*
X103690380Y-75281615D01*
X103690380Y-75281615D02*
X103690380Y-75091139D01*
X103690380Y-75091139D02*
X103738000Y-74995901D01*
X103738000Y-74995901D02*
X103833238Y-74948282D01*
X103833238Y-74948282D02*
X104214190Y-74948282D01*
X104214190Y-74948282D02*
X104309428Y-74995901D01*
X104309428Y-74995901D02*
X104357047Y-75091139D01*
X104357047Y-75091139D02*
X104357047Y-75281615D01*
X104357047Y-75281615D02*
X104309428Y-75376853D01*
X104309428Y-75376853D02*
X104214190Y-75424472D01*
X104214190Y-75424472D02*
X104118952Y-75424472D01*
X104118952Y-75424472D02*
X104023714Y-74948282D01*
X103690380Y-75995901D02*
X103738000Y-75900663D01*
X103738000Y-75900663D02*
X103833238Y-75853044D01*
X103833238Y-75853044D02*
X104690380Y-75853044D01*
X103690380Y-76519711D02*
X103738000Y-76424473D01*
X103738000Y-76424473D02*
X103833238Y-76376854D01*
X103833238Y-76376854D02*
X104690380Y-76376854D01*
X103690380Y-76900664D02*
X104357047Y-76900664D01*
X104690380Y-76900664D02*
X104642761Y-76853045D01*
X104642761Y-76853045D02*
X104595142Y-76900664D01*
X104595142Y-76900664D02*
X104642761Y-76948283D01*
X104642761Y-76948283D02*
X104690380Y-76900664D01*
X104690380Y-76900664D02*
X104595142Y-76900664D01*
D12*
G36*
X71329017Y-46864349D02*
G01*
X70068316Y-46864349D01*
X70068316Y-46221747D01*
X70193316Y-46221747D01*
X70193316Y-46246251D01*
X70198096Y-46270285D01*
X70207474Y-46292924D01*
X70221088Y-46313298D01*
X70238415Y-46330625D01*
X70258789Y-46344239D01*
X70281428Y-46353617D01*
X70305462Y-46358397D01*
X70317714Y-46358999D01*
X70573666Y-46358999D01*
X70573666Y-46614951D01*
X70574268Y-46627203D01*
X70579048Y-46651237D01*
X70588426Y-46673876D01*
X70602040Y-46694250D01*
X70619367Y-46711577D01*
X70639741Y-46725191D01*
X70662380Y-46734569D01*
X70686414Y-46739349D01*
X70710918Y-46739349D01*
X70734952Y-46734569D01*
X70757591Y-46725191D01*
X70777965Y-46711577D01*
X70795292Y-46694250D01*
X70808906Y-46673876D01*
X70818284Y-46651237D01*
X70823064Y-46627203D01*
X70823666Y-46614951D01*
X70823666Y-46358999D01*
X71079619Y-46358999D01*
X71091871Y-46358397D01*
X71115905Y-46353617D01*
X71138544Y-46344239D01*
X71158918Y-46330625D01*
X71176245Y-46313298D01*
X71189859Y-46292924D01*
X71199237Y-46270285D01*
X71204017Y-46246251D01*
X71204017Y-46221747D01*
X71199237Y-46197713D01*
X71189859Y-46175074D01*
X71176245Y-46154700D01*
X71158918Y-46137373D01*
X71138544Y-46123759D01*
X71115905Y-46114381D01*
X71091871Y-46109601D01*
X71079619Y-46108999D01*
X70823666Y-46108999D01*
X70823666Y-45853047D01*
X70823064Y-45840795D01*
X70818284Y-45816761D01*
X70808906Y-45794122D01*
X70795292Y-45773748D01*
X70777965Y-45756421D01*
X70757591Y-45742807D01*
X70734952Y-45733429D01*
X70710918Y-45728649D01*
X70686414Y-45728649D01*
X70662380Y-45733429D01*
X70639741Y-45742807D01*
X70619367Y-45756421D01*
X70602040Y-45773748D01*
X70588426Y-45794122D01*
X70579048Y-45816761D01*
X70574268Y-45840795D01*
X70573666Y-45853047D01*
X70573666Y-46108999D01*
X70317714Y-46108999D01*
X70305462Y-46109601D01*
X70281428Y-46114381D01*
X70258789Y-46123759D01*
X70238415Y-46137373D01*
X70221088Y-46154700D01*
X70207474Y-46175074D01*
X70198096Y-46197713D01*
X70193316Y-46221747D01*
X70068316Y-46221747D01*
X70068316Y-45603649D01*
X71329017Y-45603649D01*
X71329017Y-46864349D01*
G37*
G36*
X50829017Y-81364349D02*
G01*
X49568316Y-81364349D01*
X49568316Y-80721747D01*
X49693316Y-80721747D01*
X49693316Y-80746251D01*
X49698096Y-80770285D01*
X49707474Y-80792924D01*
X49721088Y-80813298D01*
X49738415Y-80830625D01*
X49758789Y-80844239D01*
X49781428Y-80853617D01*
X49805462Y-80858397D01*
X49817714Y-80858999D01*
X50073666Y-80858999D01*
X50073666Y-81114951D01*
X50074268Y-81127203D01*
X50079048Y-81151237D01*
X50088426Y-81173876D01*
X50102040Y-81194250D01*
X50119367Y-81211577D01*
X50139741Y-81225191D01*
X50162380Y-81234569D01*
X50186414Y-81239349D01*
X50210918Y-81239349D01*
X50234952Y-81234569D01*
X50257591Y-81225191D01*
X50277965Y-81211577D01*
X50295292Y-81194250D01*
X50308906Y-81173876D01*
X50318284Y-81151237D01*
X50323064Y-81127203D01*
X50323666Y-81114951D01*
X50323666Y-80858999D01*
X50579619Y-80858999D01*
X50591871Y-80858397D01*
X50615905Y-80853617D01*
X50638544Y-80844239D01*
X50658918Y-80830625D01*
X50676245Y-80813298D01*
X50689859Y-80792924D01*
X50699237Y-80770285D01*
X50704017Y-80746251D01*
X50704017Y-80721747D01*
X50699237Y-80697713D01*
X50689859Y-80675074D01*
X50676245Y-80654700D01*
X50658918Y-80637373D01*
X50638544Y-80623759D01*
X50615905Y-80614381D01*
X50591871Y-80609601D01*
X50579619Y-80608999D01*
X50323666Y-80608999D01*
X50323666Y-80353047D01*
X50323064Y-80340795D01*
X50318284Y-80316761D01*
X50308906Y-80294122D01*
X50295292Y-80273748D01*
X50277965Y-80256421D01*
X50257591Y-80242807D01*
X50234952Y-80233429D01*
X50210918Y-80228649D01*
X50186414Y-80228649D01*
X50162380Y-80233429D01*
X50139741Y-80242807D01*
X50119367Y-80256421D01*
X50102040Y-80273748D01*
X50088426Y-80294122D01*
X50079048Y-80316761D01*
X50074268Y-80340795D01*
X50073666Y-80353047D01*
X50073666Y-80608999D01*
X49817714Y-80608999D01*
X49805462Y-80609601D01*
X49781428Y-80614381D01*
X49758789Y-80623759D01*
X49738415Y-80637373D01*
X49721088Y-80654700D01*
X49707474Y-80675074D01*
X49698096Y-80697713D01*
X49693316Y-80721747D01*
X49568316Y-80721747D01*
X49568316Y-80103649D01*
X50829017Y-80103649D01*
X50829017Y-81364349D01*
G37*
G36*
X50829017Y-46864349D02*
G01*
X49568316Y-46864349D01*
X49568316Y-46221747D01*
X49693316Y-46221747D01*
X49693316Y-46246251D01*
X49698096Y-46270285D01*
X49707474Y-46292924D01*
X49721088Y-46313298D01*
X49738415Y-46330625D01*
X49758789Y-46344239D01*
X49781428Y-46353617D01*
X49805462Y-46358397D01*
X49817714Y-46358999D01*
X50073666Y-46358999D01*
X50073666Y-46614951D01*
X50074268Y-46627203D01*
X50079048Y-46651237D01*
X50088426Y-46673876D01*
X50102040Y-46694250D01*
X50119367Y-46711577D01*
X50139741Y-46725191D01*
X50162380Y-46734569D01*
X50186414Y-46739349D01*
X50210918Y-46739349D01*
X50234952Y-46734569D01*
X50257591Y-46725191D01*
X50277965Y-46711577D01*
X50295292Y-46694250D01*
X50308906Y-46673876D01*
X50318284Y-46651237D01*
X50323064Y-46627203D01*
X50323666Y-46614951D01*
X50323666Y-46358999D01*
X50579619Y-46358999D01*
X50591871Y-46358397D01*
X50615905Y-46353617D01*
X50638544Y-46344239D01*
X50658918Y-46330625D01*
X50676245Y-46313298D01*
X50689859Y-46292924D01*
X50699237Y-46270285D01*
X50704017Y-46246251D01*
X50704017Y-46221747D01*
X50699237Y-46197713D01*
X50689859Y-46175074D01*
X50676245Y-46154700D01*
X50658918Y-46137373D01*
X50638544Y-46123759D01*
X50615905Y-46114381D01*
X50591871Y-46109601D01*
X50579619Y-46108999D01*
X50323666Y-46108999D01*
X50323666Y-45853047D01*
X50323064Y-45840795D01*
X50318284Y-45816761D01*
X50308906Y-45794122D01*
X50295292Y-45773748D01*
X50277965Y-45756421D01*
X50257591Y-45742807D01*
X50234952Y-45733429D01*
X50210918Y-45728649D01*
X50186414Y-45728649D01*
X50162380Y-45733429D01*
X50139741Y-45742807D01*
X50119367Y-45756421D01*
X50102040Y-45773748D01*
X50088426Y-45794122D01*
X50079048Y-45816761D01*
X50074268Y-45840795D01*
X50073666Y-45853047D01*
X50073666Y-46108999D01*
X49817714Y-46108999D01*
X49805462Y-46109601D01*
X49781428Y-46114381D01*
X49758789Y-46123759D01*
X49738415Y-46137373D01*
X49721088Y-46154700D01*
X49707474Y-46175074D01*
X49698096Y-46197713D01*
X49693316Y-46221747D01*
X49568316Y-46221747D01*
X49568316Y-45603649D01*
X50829017Y-45603649D01*
X50829017Y-46864349D01*
G37*
G36*
X71329017Y-81464349D02*
G01*
X70068316Y-81464349D01*
X70068316Y-80821747D01*
X70193316Y-80821747D01*
X70193316Y-80846251D01*
X70198096Y-80870285D01*
X70207474Y-80892924D01*
X70221088Y-80913298D01*
X70238415Y-80930625D01*
X70258789Y-80944239D01*
X70281428Y-80953617D01*
X70305462Y-80958397D01*
X70317714Y-80958999D01*
X70573666Y-80958999D01*
X70573666Y-81214951D01*
X70574268Y-81227203D01*
X70579048Y-81251237D01*
X70588426Y-81273876D01*
X70602040Y-81294250D01*
X70619367Y-81311577D01*
X70639741Y-81325191D01*
X70662380Y-81334569D01*
X70686414Y-81339349D01*
X70710918Y-81339349D01*
X70734952Y-81334569D01*
X70757591Y-81325191D01*
X70777965Y-81311577D01*
X70795292Y-81294250D01*
X70808906Y-81273876D01*
X70818284Y-81251237D01*
X70823064Y-81227203D01*
X70823666Y-81214951D01*
X70823666Y-80958999D01*
X71079619Y-80958999D01*
X71091871Y-80958397D01*
X71115905Y-80953617D01*
X71138544Y-80944239D01*
X71158918Y-80930625D01*
X71176245Y-80913298D01*
X71189859Y-80892924D01*
X71199237Y-80870285D01*
X71204017Y-80846251D01*
X71204017Y-80821747D01*
X71199237Y-80797713D01*
X71189859Y-80775074D01*
X71176245Y-80754700D01*
X71158918Y-80737373D01*
X71138544Y-80723759D01*
X71115905Y-80714381D01*
X71091871Y-80709601D01*
X71079619Y-80708999D01*
X70823666Y-80708999D01*
X70823666Y-80453047D01*
X70823064Y-80440795D01*
X70818284Y-80416761D01*
X70808906Y-80394122D01*
X70795292Y-80373748D01*
X70777965Y-80356421D01*
X70757591Y-80342807D01*
X70734952Y-80333429D01*
X70710918Y-80328649D01*
X70686414Y-80328649D01*
X70662380Y-80333429D01*
X70639741Y-80342807D01*
X70619367Y-80356421D01*
X70602040Y-80373748D01*
X70588426Y-80394122D01*
X70579048Y-80416761D01*
X70574268Y-80440795D01*
X70573666Y-80453047D01*
X70573666Y-80708999D01*
X70317714Y-80708999D01*
X70305462Y-80709601D01*
X70281428Y-80714381D01*
X70258789Y-80723759D01*
X70238415Y-80737373D01*
X70221088Y-80754700D01*
X70207474Y-80775074D01*
X70198096Y-80797713D01*
X70193316Y-80821747D01*
X70068316Y-80821747D01*
X70068316Y-80203649D01*
X71329017Y-80203649D01*
X71329017Y-81464349D01*
G37*
G36*
X43329017Y-46864349D02*
G01*
X42068316Y-46864349D01*
X42068316Y-46221747D01*
X42193316Y-46221747D01*
X42193316Y-46246251D01*
X42198096Y-46270285D01*
X42207474Y-46292924D01*
X42221088Y-46313298D01*
X42238415Y-46330625D01*
X42258789Y-46344239D01*
X42281428Y-46353617D01*
X42305462Y-46358397D01*
X42317714Y-46358999D01*
X42573666Y-46358999D01*
X42573666Y-46614951D01*
X42574268Y-46627203D01*
X42579048Y-46651237D01*
X42588426Y-46673876D01*
X42602040Y-46694250D01*
X42619367Y-46711577D01*
X42639741Y-46725191D01*
X42662380Y-46734569D01*
X42686414Y-46739349D01*
X42710918Y-46739349D01*
X42734952Y-46734569D01*
X42757591Y-46725191D01*
X42777965Y-46711577D01*
X42795292Y-46694250D01*
X42808906Y-46673876D01*
X42818284Y-46651237D01*
X42823064Y-46627203D01*
X42823666Y-46614951D01*
X42823666Y-46358999D01*
X43079619Y-46358999D01*
X43091871Y-46358397D01*
X43115905Y-46353617D01*
X43138544Y-46344239D01*
X43158918Y-46330625D01*
X43176245Y-46313298D01*
X43189859Y-46292924D01*
X43199237Y-46270285D01*
X43204017Y-46246251D01*
X43204017Y-46221747D01*
X43199237Y-46197713D01*
X43189859Y-46175074D01*
X43176245Y-46154700D01*
X43158918Y-46137373D01*
X43138544Y-46123759D01*
X43115905Y-46114381D01*
X43091871Y-46109601D01*
X43079619Y-46108999D01*
X42823666Y-46108999D01*
X42823666Y-45853047D01*
X42823064Y-45840795D01*
X42818284Y-45816761D01*
X42808906Y-45794122D01*
X42795292Y-45773748D01*
X42777965Y-45756421D01*
X42757591Y-45742807D01*
X42734952Y-45733429D01*
X42710918Y-45728649D01*
X42686414Y-45728649D01*
X42662380Y-45733429D01*
X42639741Y-45742807D01*
X42619367Y-45756421D01*
X42602040Y-45773748D01*
X42588426Y-45794122D01*
X42579048Y-45816761D01*
X42574268Y-45840795D01*
X42573666Y-45853047D01*
X42573666Y-46108999D01*
X42317714Y-46108999D01*
X42305462Y-46109601D01*
X42281428Y-46114381D01*
X42258789Y-46123759D01*
X42238415Y-46137373D01*
X42221088Y-46154700D01*
X42207474Y-46175074D01*
X42198096Y-46197713D01*
X42193316Y-46221747D01*
X42068316Y-46221747D01*
X42068316Y-45603649D01*
X43329017Y-45603649D01*
X43329017Y-46864349D01*
G37*
G36*
X22829017Y-81364349D02*
G01*
X21568316Y-81364349D01*
X21568316Y-80721747D01*
X21693316Y-80721747D01*
X21693316Y-80746251D01*
X21698096Y-80770285D01*
X21707474Y-80792924D01*
X21721088Y-80813298D01*
X21738415Y-80830625D01*
X21758789Y-80844239D01*
X21781428Y-80853617D01*
X21805462Y-80858397D01*
X21817714Y-80858999D01*
X22073666Y-80858999D01*
X22073666Y-81114951D01*
X22074268Y-81127203D01*
X22079048Y-81151237D01*
X22088426Y-81173876D01*
X22102040Y-81194250D01*
X22119367Y-81211577D01*
X22139741Y-81225191D01*
X22162380Y-81234569D01*
X22186414Y-81239349D01*
X22210918Y-81239349D01*
X22234952Y-81234569D01*
X22257591Y-81225191D01*
X22277965Y-81211577D01*
X22295292Y-81194250D01*
X22308906Y-81173876D01*
X22318284Y-81151237D01*
X22323064Y-81127203D01*
X22323666Y-81114951D01*
X22323666Y-80858999D01*
X22579619Y-80858999D01*
X22591871Y-80858397D01*
X22615905Y-80853617D01*
X22638544Y-80844239D01*
X22658918Y-80830625D01*
X22676245Y-80813298D01*
X22689859Y-80792924D01*
X22699237Y-80770285D01*
X22704017Y-80746251D01*
X22704017Y-80721747D01*
X22699237Y-80697713D01*
X22689859Y-80675074D01*
X22676245Y-80654700D01*
X22658918Y-80637373D01*
X22638544Y-80623759D01*
X22615905Y-80614381D01*
X22591871Y-80609601D01*
X22579619Y-80608999D01*
X22323666Y-80608999D01*
X22323666Y-80353047D01*
X22323064Y-80340795D01*
X22318284Y-80316761D01*
X22308906Y-80294122D01*
X22295292Y-80273748D01*
X22277965Y-80256421D01*
X22257591Y-80242807D01*
X22234952Y-80233429D01*
X22210918Y-80228649D01*
X22186414Y-80228649D01*
X22162380Y-80233429D01*
X22139741Y-80242807D01*
X22119367Y-80256421D01*
X22102040Y-80273748D01*
X22088426Y-80294122D01*
X22079048Y-80316761D01*
X22074268Y-80340795D01*
X22073666Y-80353047D01*
X22073666Y-80608999D01*
X21817714Y-80608999D01*
X21805462Y-80609601D01*
X21781428Y-80614381D01*
X21758789Y-80623759D01*
X21738415Y-80637373D01*
X21721088Y-80654700D01*
X21707474Y-80675074D01*
X21698096Y-80697713D01*
X21693316Y-80721747D01*
X21568316Y-80721747D01*
X21568316Y-80103649D01*
X22829017Y-80103649D01*
X22829017Y-81364349D01*
G37*
G36*
X22829017Y-46864349D02*
G01*
X21568316Y-46864349D01*
X21568316Y-46221747D01*
X21693316Y-46221747D01*
X21693316Y-46246251D01*
X21698096Y-46270285D01*
X21707474Y-46292924D01*
X21721088Y-46313298D01*
X21738415Y-46330625D01*
X21758789Y-46344239D01*
X21781428Y-46353617D01*
X21805462Y-46358397D01*
X21817714Y-46358999D01*
X22073666Y-46358999D01*
X22073666Y-46614951D01*
X22074268Y-46627203D01*
X22079048Y-46651237D01*
X22088426Y-46673876D01*
X22102040Y-46694250D01*
X22119367Y-46711577D01*
X22139741Y-46725191D01*
X22162380Y-46734569D01*
X22186414Y-46739349D01*
X22210918Y-46739349D01*
X22234952Y-46734569D01*
X22257591Y-46725191D01*
X22277965Y-46711577D01*
X22295292Y-46694250D01*
X22308906Y-46673876D01*
X22318284Y-46651237D01*
X22323064Y-46627203D01*
X22323666Y-46614951D01*
X22323666Y-46358999D01*
X22579619Y-46358999D01*
X22591871Y-46358397D01*
X22615905Y-46353617D01*
X22638544Y-46344239D01*
X22658918Y-46330625D01*
X22676245Y-46313298D01*
X22689859Y-46292924D01*
X22699237Y-46270285D01*
X22704017Y-46246251D01*
X22704017Y-46221747D01*
X22699237Y-46197713D01*
X22689859Y-46175074D01*
X22676245Y-46154700D01*
X22658918Y-46137373D01*
X22638544Y-46123759D01*
X22615905Y-46114381D01*
X22591871Y-46109601D01*
X22579619Y-46108999D01*
X22323666Y-46108999D01*
X22323666Y-45853047D01*
X22323064Y-45840795D01*
X22318284Y-45816761D01*
X22308906Y-45794122D01*
X22295292Y-45773748D01*
X22277965Y-45756421D01*
X22257591Y-45742807D01*
X22234952Y-45733429D01*
X22210918Y-45728649D01*
X22186414Y-45728649D01*
X22162380Y-45733429D01*
X22139741Y-45742807D01*
X22119367Y-45756421D01*
X22102040Y-45773748D01*
X22088426Y-45794122D01*
X22079048Y-45816761D01*
X22074268Y-45840795D01*
X22073666Y-45853047D01*
X22073666Y-46108999D01*
X21817714Y-46108999D01*
X21805462Y-46109601D01*
X21781428Y-46114381D01*
X21758789Y-46123759D01*
X21738415Y-46137373D01*
X21721088Y-46154700D01*
X21707474Y-46175074D01*
X21698096Y-46197713D01*
X21693316Y-46221747D01*
X21568316Y-46221747D01*
X21568316Y-45603649D01*
X22829017Y-45603649D01*
X22829017Y-46864349D01*
G37*
G36*
X43329017Y-81464349D02*
G01*
X42068316Y-81464349D01*
X42068316Y-80821747D01*
X42193316Y-80821747D01*
X42193316Y-80846251D01*
X42198096Y-80870285D01*
X42207474Y-80892924D01*
X42221088Y-80913298D01*
X42238415Y-80930625D01*
X42258789Y-80944239D01*
X42281428Y-80953617D01*
X42305462Y-80958397D01*
X42317714Y-80958999D01*
X42573666Y-80958999D01*
X42573666Y-81214951D01*
X42574268Y-81227203D01*
X42579048Y-81251237D01*
X42588426Y-81273876D01*
X42602040Y-81294250D01*
X42619367Y-81311577D01*
X42639741Y-81325191D01*
X42662380Y-81334569D01*
X42686414Y-81339349D01*
X42710918Y-81339349D01*
X42734952Y-81334569D01*
X42757591Y-81325191D01*
X42777965Y-81311577D01*
X42795292Y-81294250D01*
X42808906Y-81273876D01*
X42818284Y-81251237D01*
X42823064Y-81227203D01*
X42823666Y-81214951D01*
X42823666Y-80958999D01*
X43079619Y-80958999D01*
X43091871Y-80958397D01*
X43115905Y-80953617D01*
X43138544Y-80944239D01*
X43158918Y-80930625D01*
X43176245Y-80913298D01*
X43189859Y-80892924D01*
X43199237Y-80870285D01*
X43204017Y-80846251D01*
X43204017Y-80821747D01*
X43199237Y-80797713D01*
X43189859Y-80775074D01*
X43176245Y-80754700D01*
X43158918Y-80737373D01*
X43138544Y-80723759D01*
X43115905Y-80714381D01*
X43091871Y-80709601D01*
X43079619Y-80708999D01*
X42823666Y-80708999D01*
X42823666Y-80453047D01*
X42823064Y-80440795D01*
X42818284Y-80416761D01*
X42808906Y-80394122D01*
X42795292Y-80373748D01*
X42777965Y-80356421D01*
X42757591Y-80342807D01*
X42734952Y-80333429D01*
X42710918Y-80328649D01*
X42686414Y-80328649D01*
X42662380Y-80333429D01*
X42639741Y-80342807D01*
X42619367Y-80356421D01*
X42602040Y-80373748D01*
X42588426Y-80394122D01*
X42579048Y-80416761D01*
X42574268Y-80440795D01*
X42573666Y-80453047D01*
X42573666Y-80708999D01*
X42317714Y-80708999D01*
X42305462Y-80709601D01*
X42281428Y-80714381D01*
X42258789Y-80723759D01*
X42238415Y-80737373D01*
X42221088Y-80754700D01*
X42207474Y-80775074D01*
X42198096Y-80797713D01*
X42193316Y-80821747D01*
X42068316Y-80821747D01*
X42068316Y-80203649D01*
X43329017Y-80203649D01*
X43329017Y-81464349D01*
G37*
G36*
X99329017Y-81464349D02*
G01*
X98068316Y-81464349D01*
X98068316Y-80821747D01*
X98193316Y-80821747D01*
X98193316Y-80846251D01*
X98198096Y-80870285D01*
X98207474Y-80892924D01*
X98221088Y-80913298D01*
X98238415Y-80930625D01*
X98258789Y-80944239D01*
X98281428Y-80953617D01*
X98305462Y-80958397D01*
X98317714Y-80958999D01*
X98573666Y-80958999D01*
X98573666Y-81214951D01*
X98574268Y-81227203D01*
X98579048Y-81251237D01*
X98588426Y-81273876D01*
X98602040Y-81294250D01*
X98619367Y-81311577D01*
X98639741Y-81325191D01*
X98662380Y-81334569D01*
X98686414Y-81339349D01*
X98710918Y-81339349D01*
X98734952Y-81334569D01*
X98757591Y-81325191D01*
X98777965Y-81311577D01*
X98795292Y-81294250D01*
X98808906Y-81273876D01*
X98818284Y-81251237D01*
X98823064Y-81227203D01*
X98823666Y-81214951D01*
X98823666Y-80958999D01*
X99079619Y-80958999D01*
X99091871Y-80958397D01*
X99115905Y-80953617D01*
X99138544Y-80944239D01*
X99158918Y-80930625D01*
X99176245Y-80913298D01*
X99189859Y-80892924D01*
X99199237Y-80870285D01*
X99204017Y-80846251D01*
X99204017Y-80821747D01*
X99199237Y-80797713D01*
X99189859Y-80775074D01*
X99176245Y-80754700D01*
X99158918Y-80737373D01*
X99138544Y-80723759D01*
X99115905Y-80714381D01*
X99091871Y-80709601D01*
X99079619Y-80708999D01*
X98823666Y-80708999D01*
X98823666Y-80453047D01*
X98823064Y-80440795D01*
X98818284Y-80416761D01*
X98808906Y-80394122D01*
X98795292Y-80373748D01*
X98777965Y-80356421D01*
X98757591Y-80342807D01*
X98734952Y-80333429D01*
X98710918Y-80328649D01*
X98686414Y-80328649D01*
X98662380Y-80333429D01*
X98639741Y-80342807D01*
X98619367Y-80356421D01*
X98602040Y-80373748D01*
X98588426Y-80394122D01*
X98579048Y-80416761D01*
X98574268Y-80440795D01*
X98573666Y-80453047D01*
X98573666Y-80708999D01*
X98317714Y-80708999D01*
X98305462Y-80709601D01*
X98281428Y-80714381D01*
X98258789Y-80723759D01*
X98238415Y-80737373D01*
X98221088Y-80754700D01*
X98207474Y-80775074D01*
X98198096Y-80797713D01*
X98193316Y-80821747D01*
X98068316Y-80821747D01*
X98068316Y-80203649D01*
X99329017Y-80203649D01*
X99329017Y-81464349D01*
G37*
G36*
X78829017Y-46864349D02*
G01*
X77568316Y-46864349D01*
X77568316Y-46221747D01*
X77693316Y-46221747D01*
X77693316Y-46246251D01*
X77698096Y-46270285D01*
X77707474Y-46292924D01*
X77721088Y-46313298D01*
X77738415Y-46330625D01*
X77758789Y-46344239D01*
X77781428Y-46353617D01*
X77805462Y-46358397D01*
X77817714Y-46358999D01*
X78073666Y-46358999D01*
X78073666Y-46614951D01*
X78074268Y-46627203D01*
X78079048Y-46651237D01*
X78088426Y-46673876D01*
X78102040Y-46694250D01*
X78119367Y-46711577D01*
X78139741Y-46725191D01*
X78162380Y-46734569D01*
X78186414Y-46739349D01*
X78210918Y-46739349D01*
X78234952Y-46734569D01*
X78257591Y-46725191D01*
X78277965Y-46711577D01*
X78295292Y-46694250D01*
X78308906Y-46673876D01*
X78318284Y-46651237D01*
X78323064Y-46627203D01*
X78323666Y-46614951D01*
X78323666Y-46358999D01*
X78579619Y-46358999D01*
X78591871Y-46358397D01*
X78615905Y-46353617D01*
X78638544Y-46344239D01*
X78658918Y-46330625D01*
X78676245Y-46313298D01*
X78689859Y-46292924D01*
X78699237Y-46270285D01*
X78704017Y-46246251D01*
X78704017Y-46221747D01*
X78699237Y-46197713D01*
X78689859Y-46175074D01*
X78676245Y-46154700D01*
X78658918Y-46137373D01*
X78638544Y-46123759D01*
X78615905Y-46114381D01*
X78591871Y-46109601D01*
X78579619Y-46108999D01*
X78323666Y-46108999D01*
X78323666Y-45853047D01*
X78323064Y-45840795D01*
X78318284Y-45816761D01*
X78308906Y-45794122D01*
X78295292Y-45773748D01*
X78277965Y-45756421D01*
X78257591Y-45742807D01*
X78234952Y-45733429D01*
X78210918Y-45728649D01*
X78186414Y-45728649D01*
X78162380Y-45733429D01*
X78139741Y-45742807D01*
X78119367Y-45756421D01*
X78102040Y-45773748D01*
X78088426Y-45794122D01*
X78079048Y-45816761D01*
X78074268Y-45840795D01*
X78073666Y-45853047D01*
X78073666Y-46108999D01*
X77817714Y-46108999D01*
X77805462Y-46109601D01*
X77781428Y-46114381D01*
X77758789Y-46123759D01*
X77738415Y-46137373D01*
X77721088Y-46154700D01*
X77707474Y-46175074D01*
X77698096Y-46197713D01*
X77693316Y-46221747D01*
X77568316Y-46221747D01*
X77568316Y-45603649D01*
X78829017Y-45603649D01*
X78829017Y-46864349D01*
G37*
G36*
X78829017Y-81364349D02*
G01*
X77568316Y-81364349D01*
X77568316Y-80721747D01*
X77693316Y-80721747D01*
X77693316Y-80746251D01*
X77698096Y-80770285D01*
X77707474Y-80792924D01*
X77721088Y-80813298D01*
X77738415Y-80830625D01*
X77758789Y-80844239D01*
X77781428Y-80853617D01*
X77805462Y-80858397D01*
X77817714Y-80858999D01*
X78073666Y-80858999D01*
X78073666Y-81114951D01*
X78074268Y-81127203D01*
X78079048Y-81151237D01*
X78088426Y-81173876D01*
X78102040Y-81194250D01*
X78119367Y-81211577D01*
X78139741Y-81225191D01*
X78162380Y-81234569D01*
X78186414Y-81239349D01*
X78210918Y-81239349D01*
X78234952Y-81234569D01*
X78257591Y-81225191D01*
X78277965Y-81211577D01*
X78295292Y-81194250D01*
X78308906Y-81173876D01*
X78318284Y-81151237D01*
X78323064Y-81127203D01*
X78323666Y-81114951D01*
X78323666Y-80858999D01*
X78579619Y-80858999D01*
X78591871Y-80858397D01*
X78615905Y-80853617D01*
X78638544Y-80844239D01*
X78658918Y-80830625D01*
X78676245Y-80813298D01*
X78689859Y-80792924D01*
X78699237Y-80770285D01*
X78704017Y-80746251D01*
X78704017Y-80721747D01*
X78699237Y-80697713D01*
X78689859Y-80675074D01*
X78676245Y-80654700D01*
X78658918Y-80637373D01*
X78638544Y-80623759D01*
X78615905Y-80614381D01*
X78591871Y-80609601D01*
X78579619Y-80608999D01*
X78323666Y-80608999D01*
X78323666Y-80353047D01*
X78323064Y-80340795D01*
X78318284Y-80316761D01*
X78308906Y-80294122D01*
X78295292Y-80273748D01*
X78277965Y-80256421D01*
X78257591Y-80242807D01*
X78234952Y-80233429D01*
X78210918Y-80228649D01*
X78186414Y-80228649D01*
X78162380Y-80233429D01*
X78139741Y-80242807D01*
X78119367Y-80256421D01*
X78102040Y-80273748D01*
X78088426Y-80294122D01*
X78079048Y-80316761D01*
X78074268Y-80340795D01*
X78073666Y-80353047D01*
X78073666Y-80608999D01*
X77817714Y-80608999D01*
X77805462Y-80609601D01*
X77781428Y-80614381D01*
X77758789Y-80623759D01*
X77738415Y-80637373D01*
X77721088Y-80654700D01*
X77707474Y-80675074D01*
X77698096Y-80697713D01*
X77693316Y-80721747D01*
X77568316Y-80721747D01*
X77568316Y-80103649D01*
X78829017Y-80103649D01*
X78829017Y-81364349D01*
G37*
G36*
X99329017Y-46864349D02*
G01*
X98068316Y-46864349D01*
X98068316Y-46221747D01*
X98193316Y-46221747D01*
X98193316Y-46246251D01*
X98198096Y-46270285D01*
X98207474Y-46292924D01*
X98221088Y-46313298D01*
X98238415Y-46330625D01*
X98258789Y-46344239D01*
X98281428Y-46353617D01*
X98305462Y-46358397D01*
X98317714Y-46358999D01*
X98573666Y-46358999D01*
X98573666Y-46614951D01*
X98574268Y-46627203D01*
X98579048Y-46651237D01*
X98588426Y-46673876D01*
X98602040Y-46694250D01*
X98619367Y-46711577D01*
X98639741Y-46725191D01*
X98662380Y-46734569D01*
X98686414Y-46739349D01*
X98710918Y-46739349D01*
X98734952Y-46734569D01*
X98757591Y-46725191D01*
X98777965Y-46711577D01*
X98795292Y-46694250D01*
X98808906Y-46673876D01*
X98818284Y-46651237D01*
X98823064Y-46627203D01*
X98823666Y-46614951D01*
X98823666Y-46358999D01*
X99079619Y-46358999D01*
X99091871Y-46358397D01*
X99115905Y-46353617D01*
X99138544Y-46344239D01*
X99158918Y-46330625D01*
X99176245Y-46313298D01*
X99189859Y-46292924D01*
X99199237Y-46270285D01*
X99204017Y-46246251D01*
X99204017Y-46221747D01*
X99199237Y-46197713D01*
X99189859Y-46175074D01*
X99176245Y-46154700D01*
X99158918Y-46137373D01*
X99138544Y-46123759D01*
X99115905Y-46114381D01*
X99091871Y-46109601D01*
X99079619Y-46108999D01*
X98823666Y-46108999D01*
X98823666Y-45853047D01*
X98823064Y-45840795D01*
X98818284Y-45816761D01*
X98808906Y-45794122D01*
X98795292Y-45773748D01*
X98777965Y-45756421D01*
X98757591Y-45742807D01*
X98734952Y-45733429D01*
X98710918Y-45728649D01*
X98686414Y-45728649D01*
X98662380Y-45733429D01*
X98639741Y-45742807D01*
X98619367Y-45756421D01*
X98602040Y-45773748D01*
X98588426Y-45794122D01*
X98579048Y-45816761D01*
X98574268Y-45840795D01*
X98573666Y-45853047D01*
X98573666Y-46108999D01*
X98317714Y-46108999D01*
X98305462Y-46109601D01*
X98281428Y-46114381D01*
X98258789Y-46123759D01*
X98238415Y-46137373D01*
X98221088Y-46154700D01*
X98207474Y-46175074D01*
X98198096Y-46197713D01*
X98193316Y-46221747D01*
X98068316Y-46221747D01*
X98068316Y-45603649D01*
X99329017Y-45603649D01*
X99329017Y-46864349D01*
G37*
D18*
X51810000Y-104710000D03*
D19*
X54810000Y-104710000D03*
X56310000Y-103710000D03*
X77310000Y-104710000D03*
X53310000Y-103710000D03*
X72810000Y-103710000D03*
X50310000Y-103710000D03*
X75810000Y-103710000D03*
X80310000Y-104710000D03*
X74310000Y-104710000D03*
X78810000Y-103710000D03*
X48810000Y-104710000D03*
D20*
X75950000Y-22300000D03*
D21*
X72950000Y-22300000D03*
X71450000Y-23300000D03*
X54950000Y-23300000D03*
X47450000Y-22300000D03*
X77450000Y-23300000D03*
X51950000Y-23300000D03*
X48950000Y-23300000D03*
X74450000Y-23300000D03*
X53450000Y-22300000D03*
X50450000Y-22300000D03*
X78950000Y-22300000D03*
X52130000Y-51484000D03*
D18*
X53130000Y-78484000D03*
X52130000Y-79984000D03*
X53130000Y-49984000D03*
X53130000Y-72484000D03*
X53130000Y-75484000D03*
X52130000Y-73984000D03*
X53130000Y-52984000D03*
X52130000Y-76984000D03*
X52130000Y-54484000D03*
X53130000Y-55984000D03*
X52130000Y-48484000D03*
D21*
X24130000Y-51484000D03*
D18*
X25130000Y-78484000D03*
X24130000Y-79984000D03*
X25130000Y-49984000D03*
X25130000Y-72484000D03*
X25130000Y-75484000D03*
X24130000Y-73984000D03*
X25130000Y-52984000D03*
X24130000Y-76984000D03*
X24130000Y-54484000D03*
X25130000Y-55984000D03*
X24130000Y-48484000D03*
X80130000Y-48484000D03*
X81130000Y-55984000D03*
X80130000Y-54484000D03*
X80130000Y-76984000D03*
X81130000Y-52984000D03*
X80130000Y-73984000D03*
X81130000Y-75484000D03*
X81130000Y-72484000D03*
X81130000Y-49984000D03*
X80130000Y-79984000D03*
X81130000Y-78484000D03*
D21*
X80130000Y-51484000D03*
D22*
X74310000Y-104710000D02*
X74310000Y-106460000D01*
X47560000Y-88960000D02*
X48060000Y-88960000D01*
X72810000Y-103710000D02*
X71310000Y-103710000D01*
X48810000Y-104710000D02*
X47560000Y-104710000D01*
X71310000Y-100210000D02*
X70310000Y-100210000D01*
X65310000Y-107210000D02*
X65310000Y-100210000D01*
X59310000Y-100210000D02*
X58310000Y-100210000D01*
X77310000Y-104710000D02*
X77310000Y-106960000D01*
X53310000Y-106710000D02*
X60810000Y-106710000D01*
X69810000Y-100210000D02*
X68810000Y-100210000D01*
X80310000Y-104710000D02*
X81310000Y-104710000D01*
X49060000Y-87460000D02*
X48060000Y-87460000D01*
X60810000Y-106710000D02*
X60810000Y-100210000D01*
X75810000Y-103710000D02*
X75810000Y-106710000D01*
X50310000Y-107210000D02*
X63810000Y-107210000D01*
X62310000Y-106960000D02*
X62310000Y-100210000D01*
X63810000Y-100210000D02*
X62810000Y-100210000D01*
X58060000Y-103710000D02*
X58060000Y-99710000D01*
X56310000Y-103710000D02*
X58060000Y-103710000D01*
X81310000Y-87960000D02*
X49060000Y-87960000D01*
X69810000Y-106460000D02*
X69810000Y-100210000D01*
X66810000Y-100210000D02*
X65810000Y-100210000D01*
X77310000Y-106960000D02*
X66810000Y-106960000D01*
X71310000Y-103710000D02*
X71310000Y-100210000D01*
X59310000Y-106460000D02*
X59310000Y-100460000D01*
X65310000Y-100210000D02*
X64310000Y-100210000D01*
X62310000Y-100210000D02*
X61310000Y-100210000D01*
X47560000Y-104710000D02*
X47560000Y-88960000D01*
X74310000Y-106460000D02*
X69810000Y-106460000D01*
X49060000Y-87960000D02*
X49060000Y-87460000D01*
X54810000Y-106460000D02*
X59310000Y-106460000D01*
X78810000Y-107210000D02*
X65310000Y-107210000D01*
X81310000Y-104710000D02*
X81310000Y-87960000D01*
X53310000Y-103710000D02*
X53310000Y-106710000D01*
X60810000Y-100210000D02*
X59810000Y-100210000D01*
X66810000Y-106960000D02*
X66810000Y-100210000D01*
X75810000Y-106710000D02*
X68310000Y-106710000D01*
X51810000Y-104710000D02*
X51810000Y-106960000D01*
X78810000Y-103710000D02*
X78810000Y-107210000D01*
X59310000Y-100460000D02*
X59310000Y-100210000D01*
X50310000Y-103710000D02*
X50310000Y-107210000D01*
X54810000Y-104710000D02*
X54810000Y-106460000D01*
X51810000Y-106960000D02*
X62310000Y-106960000D01*
X63810000Y-107210000D02*
X63810000Y-100210000D01*
X68310000Y-106710000D02*
X68310000Y-100210000D01*
X48060000Y-88960000D02*
X48060000Y-88210000D01*
X68310000Y-100210000D02*
X67310000Y-100210000D01*
X50450000Y-20050000D02*
X60950000Y-20050000D01*
X65450000Y-26800000D02*
X66450000Y-26800000D01*
X60950000Y-26800000D02*
X61950000Y-26800000D01*
X51950000Y-20300000D02*
X59450000Y-20300000D01*
X69700000Y-23300000D02*
X69700000Y-27300000D01*
X78700000Y-39050000D02*
X78700000Y-39550000D01*
X46450000Y-39050000D02*
X78700000Y-39050000D01*
X60950000Y-20050000D02*
X60950000Y-26800000D01*
X63950000Y-26800000D02*
X64950000Y-26800000D01*
X72950000Y-20550000D02*
X68450000Y-20550000D01*
X48950000Y-19800000D02*
X62450000Y-19800000D01*
X66950000Y-26800000D02*
X67950000Y-26800000D01*
X71450000Y-23300000D02*
X69700000Y-23300000D01*
X46450000Y-22300000D02*
X46450000Y-39050000D01*
X62450000Y-26800000D02*
X63450000Y-26800000D01*
X80200000Y-22300000D02*
X80200000Y-38050000D01*
X68450000Y-20550000D02*
X68450000Y-26550000D01*
X53450000Y-20550000D02*
X57950000Y-20550000D01*
X57950000Y-20550000D02*
X57950000Y-26800000D01*
X74450000Y-23300000D02*
X74450000Y-20300000D01*
X56450000Y-23300000D02*
X56450000Y-26800000D01*
X53450000Y-22300000D02*
X53450000Y-20550000D01*
X78950000Y-22300000D02*
X80200000Y-22300000D01*
X57950000Y-26800000D02*
X58950000Y-26800000D01*
X56450000Y-26800000D02*
X57450000Y-26800000D01*
X47450000Y-22300000D02*
X46450000Y-22300000D01*
X78700000Y-39550000D02*
X79700000Y-39550000D01*
X66950000Y-20300000D02*
X66950000Y-26800000D01*
X62450000Y-19800000D02*
X62450000Y-26800000D01*
X51950000Y-23300000D02*
X51950000Y-20300000D01*
X74450000Y-20300000D02*
X66950000Y-20300000D01*
X68450000Y-26800000D02*
X69450000Y-26800000D01*
X50450000Y-22300000D02*
X50450000Y-20050000D01*
X65450000Y-20050000D02*
X65450000Y-26800000D01*
X80200000Y-38050000D02*
X79700000Y-38050000D01*
X77450000Y-19800000D02*
X63950000Y-19800000D01*
X54950000Y-23300000D02*
X56450000Y-23300000D01*
X59450000Y-26800000D02*
X60450000Y-26800000D01*
X79700000Y-38050000D02*
X79700000Y-38800000D01*
X75950000Y-22300000D02*
X75950000Y-20050000D01*
X77450000Y-23300000D02*
X77450000Y-19800000D01*
X48950000Y-23300000D02*
X48950000Y-19800000D01*
X75950000Y-20050000D02*
X65450000Y-20050000D01*
X72950000Y-22300000D02*
X72950000Y-20550000D01*
X63950000Y-19800000D02*
X63950000Y-26800000D01*
X68450000Y-26550000D02*
X68450000Y-26800000D01*
X59450000Y-20300000D02*
X59450000Y-26800000D01*
X49630000Y-78484000D02*
X49630000Y-64984000D01*
X50130000Y-75484000D02*
X50130000Y-67984000D01*
X50380000Y-58984000D02*
X56380000Y-58984000D01*
X68880000Y-80984000D02*
X68880000Y-48734000D01*
X56630000Y-61984000D02*
X56630000Y-60984000D01*
X56630000Y-63484000D02*
X56630000Y-62484000D01*
X52130000Y-47234000D02*
X67880000Y-47234000D01*
X49880000Y-76984000D02*
X49880000Y-66484000D01*
X56630000Y-66484000D02*
X56630000Y-65484000D01*
X50380000Y-69484000D02*
X56630000Y-69484000D01*
X56630000Y-64984000D02*
X56630000Y-63984000D01*
X53130000Y-57734000D02*
X57130000Y-57734000D01*
X50380000Y-73984000D02*
X50380000Y-69484000D01*
X56630000Y-60484000D02*
X56630000Y-59484000D01*
X53130000Y-55984000D02*
X53130000Y-57734000D01*
X53130000Y-70984000D02*
X56630000Y-70984000D01*
X50380000Y-54484000D02*
X50380000Y-58984000D01*
X68880000Y-48734000D02*
X69380000Y-48734000D01*
X52130000Y-80984000D02*
X68880000Y-80984000D01*
X49880000Y-66484000D02*
X56630000Y-66484000D01*
X53130000Y-52984000D02*
X50130000Y-52984000D01*
X56630000Y-58984000D02*
X56630000Y-57984000D01*
X52130000Y-73984000D02*
X50380000Y-73984000D01*
X52130000Y-48484000D02*
X52130000Y-47234000D01*
X53130000Y-72484000D02*
X53130000Y-70984000D01*
X50130000Y-60484000D02*
X56630000Y-60484000D01*
X53130000Y-49984000D02*
X49630000Y-49984000D01*
X56630000Y-69484000D02*
X56630000Y-68484000D01*
X56630000Y-67984000D02*
X56630000Y-66984000D01*
X50130000Y-52984000D02*
X50130000Y-60484000D01*
X49630000Y-49984000D02*
X49630000Y-63484000D01*
X56630000Y-70984000D02*
X56630000Y-69984000D01*
X52130000Y-79984000D02*
X52130000Y-80984000D01*
X67880000Y-47234000D02*
X67880000Y-47734000D01*
X52130000Y-76984000D02*
X49880000Y-76984000D01*
X53130000Y-78484000D02*
X49630000Y-78484000D01*
X67880000Y-47734000D02*
X68630000Y-47734000D01*
X49880000Y-51484000D02*
X49880000Y-61984000D01*
X69380000Y-48734000D02*
X69380000Y-47734000D01*
X49880000Y-61984000D02*
X56630000Y-61984000D01*
X49630000Y-63484000D02*
X56630000Y-63484000D01*
X52130000Y-51484000D02*
X49880000Y-51484000D01*
X56380000Y-58984000D02*
X56630000Y-58984000D01*
X50130000Y-67984000D02*
X56630000Y-67984000D01*
X52130000Y-54484000D02*
X50380000Y-54484000D01*
X49630000Y-64984000D02*
X56630000Y-64984000D01*
X53130000Y-75484000D02*
X50130000Y-75484000D01*
X21630000Y-78484000D02*
X21630000Y-64984000D01*
X22130000Y-75484000D02*
X22130000Y-67984000D01*
X22380000Y-58984000D02*
X28380000Y-58984000D01*
X40880000Y-80984000D02*
X40880000Y-48734000D01*
X28630000Y-61984000D02*
X28630000Y-60984000D01*
X28630000Y-63484000D02*
X28630000Y-62484000D01*
X24130000Y-47234000D02*
X39880000Y-47234000D01*
X21880000Y-76984000D02*
X21880000Y-66484000D01*
X28630000Y-66484000D02*
X28630000Y-65484000D01*
X22380000Y-69484000D02*
X28630000Y-69484000D01*
X28630000Y-64984000D02*
X28630000Y-63984000D01*
X25130000Y-57734000D02*
X29130000Y-57734000D01*
X22380000Y-73984000D02*
X22380000Y-69484000D01*
X28630000Y-60484000D02*
X28630000Y-59484000D01*
X25130000Y-55984000D02*
X25130000Y-57734000D01*
X25130000Y-70984000D02*
X28630000Y-70984000D01*
X22380000Y-54484000D02*
X22380000Y-58984000D01*
X40880000Y-48734000D02*
X41380000Y-48734000D01*
X24130000Y-80984000D02*
X40880000Y-80984000D01*
X21880000Y-66484000D02*
X28630000Y-66484000D01*
X25130000Y-52984000D02*
X22130000Y-52984000D01*
X28630000Y-58984000D02*
X28630000Y-57984000D01*
X24130000Y-73984000D02*
X22380000Y-73984000D01*
X24130000Y-48484000D02*
X24130000Y-47234000D01*
X25130000Y-72484000D02*
X25130000Y-70984000D01*
X22130000Y-60484000D02*
X28630000Y-60484000D01*
X25130000Y-49984000D02*
X21630000Y-49984000D01*
X28630000Y-69484000D02*
X28630000Y-68484000D01*
X28630000Y-67984000D02*
X28630000Y-66984000D01*
X22130000Y-52984000D02*
X22130000Y-60484000D01*
X21630000Y-49984000D02*
X21630000Y-63484000D01*
X28630000Y-70984000D02*
X28630000Y-69984000D01*
X24130000Y-79984000D02*
X24130000Y-80984000D01*
X39880000Y-47234000D02*
X39880000Y-47734000D01*
X24130000Y-76984000D02*
X21880000Y-76984000D01*
X25130000Y-78484000D02*
X21630000Y-78484000D01*
X39880000Y-47734000D02*
X40630000Y-47734000D01*
X21880000Y-51484000D02*
X21880000Y-61984000D01*
X41380000Y-48734000D02*
X41380000Y-47734000D01*
X21880000Y-61984000D02*
X28630000Y-61984000D01*
X21630000Y-63484000D02*
X28630000Y-63484000D01*
X24130000Y-51484000D02*
X21880000Y-51484000D01*
X28380000Y-58984000D02*
X28630000Y-58984000D01*
X22130000Y-67984000D02*
X28630000Y-67984000D01*
X24130000Y-54484000D02*
X22380000Y-54484000D01*
X21630000Y-64984000D02*
X28630000Y-64984000D01*
X25130000Y-75484000D02*
X22130000Y-75484000D01*
X81130000Y-75484000D02*
X78130000Y-75484000D01*
X77630000Y-64984000D02*
X84630000Y-64984000D01*
X80130000Y-54484000D02*
X78380000Y-54484000D01*
X78130000Y-67984000D02*
X84630000Y-67984000D01*
X84380000Y-58984000D02*
X84630000Y-58984000D01*
X80130000Y-51484000D02*
X77880000Y-51484000D01*
X77630000Y-63484000D02*
X84630000Y-63484000D01*
X77880000Y-61984000D02*
X84630000Y-61984000D01*
X97380000Y-48734000D02*
X97380000Y-47734000D01*
X77880000Y-51484000D02*
X77880000Y-61984000D01*
X95880000Y-47734000D02*
X96630000Y-47734000D01*
X81130000Y-78484000D02*
X77630000Y-78484000D01*
X80130000Y-76984000D02*
X77880000Y-76984000D01*
X95880000Y-47234000D02*
X95880000Y-47734000D01*
X80130000Y-79984000D02*
X80130000Y-80984000D01*
X84630000Y-70984000D02*
X84630000Y-69984000D01*
X77630000Y-49984000D02*
X77630000Y-63484000D01*
X78130000Y-52984000D02*
X78130000Y-60484000D01*
X84630000Y-67984000D02*
X84630000Y-66984000D01*
X84630000Y-69484000D02*
X84630000Y-68484000D01*
X81130000Y-49984000D02*
X77630000Y-49984000D01*
X78130000Y-60484000D02*
X84630000Y-60484000D01*
X81130000Y-72484000D02*
X81130000Y-70984000D01*
X80130000Y-48484000D02*
X80130000Y-47234000D01*
X80130000Y-73984000D02*
X78380000Y-73984000D01*
X84630000Y-58984000D02*
X84630000Y-57984000D01*
X81130000Y-52984000D02*
X78130000Y-52984000D01*
X77880000Y-66484000D02*
X84630000Y-66484000D01*
X80130000Y-80984000D02*
X96880000Y-80984000D01*
X96880000Y-48734000D02*
X97380000Y-48734000D01*
X78380000Y-54484000D02*
X78380000Y-58984000D01*
X81130000Y-70984000D02*
X84630000Y-70984000D01*
X81130000Y-55984000D02*
X81130000Y-57734000D01*
X84630000Y-60484000D02*
X84630000Y-59484000D01*
X78380000Y-73984000D02*
X78380000Y-69484000D01*
X81130000Y-57734000D02*
X85130000Y-57734000D01*
X84630000Y-64984000D02*
X84630000Y-63984000D01*
X78380000Y-69484000D02*
X84630000Y-69484000D01*
X84630000Y-66484000D02*
X84630000Y-65484000D01*
X77880000Y-76984000D02*
X77880000Y-66484000D01*
X80130000Y-47234000D02*
X95880000Y-47234000D01*
X84630000Y-63484000D02*
X84630000Y-62484000D01*
X84630000Y-61984000D02*
X84630000Y-60984000D01*
X96880000Y-80984000D02*
X96880000Y-48734000D01*
X78380000Y-58984000D02*
X84380000Y-58984000D01*
X78130000Y-75484000D02*
X78130000Y-67984000D01*
X77630000Y-78484000D02*
X77630000Y-64984000D01*
%TA.AperFunction,NonConductor*%
G36*
X126996632Y-3368D02*
G01*
X127000000Y-11500D01*
X127000000Y-126988500D01*
X126996632Y-126996632D01*
X126988500Y-127000000D01*
X11500Y-127000000D01*
X3368Y-126996632D01*
X0Y-126988500D01*
X0Y-63500000D01*
X12698495Y-63500000D01*
X12702474Y-64135846D01*
X12714411Y-64771592D01*
X12734301Y-65407021D01*
X12762148Y-66042313D01*
X12797942Y-66677159D01*
X12841680Y-67311511D01*
X12893356Y-67945272D01*
X12952949Y-68578252D01*
X13020470Y-69210515D01*
X13095899Y-69841884D01*
X13179224Y-70472257D01*
X13270417Y-71101439D01*
X13270425Y-71101494D01*
X13270428Y-71101510D01*
X13369502Y-71729587D01*
X13476430Y-72356375D01*
X13591195Y-72981775D01*
X13713778Y-73605690D01*
X13782896Y-73935602D01*
X13844168Y-74228063D01*
X13982318Y-74848666D01*
X14128239Y-75467550D01*
X14281874Y-76084476D01*
X14443267Y-76699617D01*
X14612297Y-77312511D01*
X14789012Y-77923336D01*
X14973337Y-78531830D01*
X15165302Y-79138092D01*
X15364791Y-79741759D01*
X15571854Y-80342976D01*
X15786400Y-80941484D01*
X16008447Y-81537333D01*
X16237924Y-82130329D01*
X16474789Y-82720364D01*
X16719035Y-83307429D01*
X16970622Y-83891417D01*
X17229499Y-84472212D01*
X17440160Y-84929359D01*
X17495592Y-85049649D01*
X17768911Y-85623751D01*
X18049393Y-86194388D01*
X18049411Y-86194424D01*
X18336997Y-86761473D01*
X18631658Y-87324878D01*
X18933381Y-87884614D01*
X19195121Y-88355955D01*
X19242068Y-88440496D01*
X19557689Y-88992474D01*
X19880194Y-89540458D01*
X19880214Y-89540491D01*
X20209513Y-90084332D01*
X20545651Y-90624100D01*
X20545653Y-90624103D01*
X20888502Y-91159594D01*
X21238027Y-91690752D01*
X21594172Y-92217494D01*
X21956882Y-92739737D01*
X22326100Y-93257400D01*
X22326124Y-93257433D01*
X22326142Y-93257458D01*
X22701764Y-93770397D01*
X23083804Y-94278630D01*
X23334708Y-94603854D01*
X23472218Y-94782096D01*
X23866879Y-95280633D01*
X24267749Y-95774191D01*
X24267776Y-95774223D01*
X24674771Y-96262701D01*
X25087849Y-96746047D01*
X25506931Y-97224170D01*
X25506957Y-97224199D01*
X25506979Y-97224224D01*
X25932047Y-97697102D01*
X26363000Y-98164623D01*
X26363002Y-98164625D01*
X26799748Y-98626691D01*
X27242325Y-99083338D01*
X27690464Y-99534290D01*
X28144292Y-99979676D01*
X28603658Y-100419348D01*
X29068493Y-100853236D01*
X29538618Y-101281179D01*
X29538669Y-101281224D01*
X29538672Y-101281227D01*
X30014201Y-101703327D01*
X30194896Y-101859720D01*
X30494921Y-102119396D01*
X30494976Y-102119442D01*
X30980921Y-102529507D01*
X31471961Y-102933458D01*
X31968018Y-103331232D01*
X32469014Y-103722765D01*
X32974872Y-104107998D01*
X33485508Y-104486866D01*
X34000877Y-104859336D01*
X34520814Y-105225288D01*
X34520817Y-105225290D01*
X35045320Y-105584725D01*
X35574280Y-105937567D01*
X36107615Y-106283760D01*
X36645241Y-106623252D01*
X37187074Y-106955987D01*
X37733030Y-107281916D01*
X38283021Y-107600985D01*
X38836963Y-107913146D01*
X39394769Y-108218349D01*
X39716523Y-108389199D01*
X39956314Y-108516528D01*
X39956351Y-108516547D01*
X40521622Y-108807693D01*
X41090492Y-109091741D01*
X41090517Y-109091753D01*
X41662865Y-109368644D01*
X42238697Y-109638378D01*
X42574498Y-109790579D01*
X42817806Y-109900859D01*
X43400178Y-110156083D01*
X43985699Y-110403997D01*
X44574277Y-110644564D01*
X45165819Y-110877745D01*
X45760234Y-111103504D01*
X46357428Y-111321806D01*
X46957308Y-111532616D01*
X47559779Y-111735902D01*
X48164747Y-111931631D01*
X48772117Y-112119774D01*
X49381795Y-112300299D01*
X49993684Y-112473180D01*
X50607689Y-112638389D01*
X51223714Y-112795900D01*
X51841662Y-112945688D01*
X52461437Y-113087731D01*
X53082940Y-113222005D01*
X53706076Y-113348490D01*
X54330746Y-113467166D01*
X54956852Y-113578014D01*
X55584296Y-113681018D01*
X56212981Y-113776160D01*
X56842807Y-113863426D01*
X57473676Y-113942803D01*
X58105489Y-114014277D01*
X58216443Y-114025424D01*
X58738112Y-114077835D01*
X58814687Y-114084561D01*
X59371551Y-114133475D01*
X60005602Y-114181181D01*
X60005635Y-114181183D01*
X60005674Y-114181186D01*
X60640128Y-114220943D01*
X60640129Y-114220943D01*
X60640164Y-114220944D01*
X60640200Y-114220947D01*
X61275247Y-114252767D01*
X61910642Y-114276637D01*
X62546285Y-114292552D01*
X63102461Y-114299513D01*
X63182070Y-114300510D01*
X63182078Y-114300510D01*
X63817930Y-114300510D01*
X63896311Y-114299528D01*
X64453715Y-114292552D01*
X65089358Y-114276637D01*
X65724753Y-114252767D01*
X66359800Y-114220947D01*
X66359835Y-114220944D01*
X66359871Y-114220943D01*
X66994324Y-114181186D01*
X66994352Y-114181183D01*
X66994398Y-114181181D01*
X67628449Y-114133475D01*
X68261853Y-114077838D01*
X68261854Y-114077837D01*
X68261887Y-114077835D01*
X68682050Y-114035622D01*
X68894511Y-114014277D01*
X69526324Y-113942803D01*
X70157193Y-113863426D01*
X70787019Y-113776160D01*
X71415704Y-113681018D01*
X72043148Y-113578014D01*
X72669254Y-113467166D01*
X73293924Y-113348490D01*
X73917060Y-113222005D01*
X74538563Y-113087731D01*
X75158338Y-112945688D01*
X75776286Y-112795900D01*
X76392311Y-112638389D01*
X77006316Y-112473180D01*
X77618205Y-112300299D01*
X78227883Y-112119774D01*
X78835253Y-111931631D01*
X79440221Y-111735902D01*
X80042692Y-111532616D01*
X80642572Y-111321806D01*
X81239766Y-111103504D01*
X81834181Y-110877745D01*
X82425723Y-110644564D01*
X83014301Y-110403997D01*
X83599822Y-110156083D01*
X84182194Y-109900859D01*
X84761326Y-109638367D01*
X85337128Y-109368647D01*
X85909508Y-109091741D01*
X86478378Y-108807693D01*
X87043649Y-108516547D01*
X87605231Y-108218349D01*
X88163037Y-107913146D01*
X88716979Y-107600985D01*
X89266970Y-107281916D01*
X89812926Y-106955987D01*
X90354759Y-106623252D01*
X90892385Y-106283760D01*
X91425720Y-105937567D01*
X91954680Y-105584725D01*
X92479183Y-105225290D01*
X92999146Y-104859319D01*
X93514488Y-104486869D01*
X94025128Y-104107998D01*
X94530986Y-103722765D01*
X95031982Y-103331232D01*
X95528039Y-102933458D01*
X96019079Y-102529507D01*
X96505024Y-102119442D01*
X96505079Y-102119396D01*
X96729479Y-101925173D01*
X96985799Y-101703327D01*
X97461328Y-101281227D01*
X97461330Y-101281224D01*
X97461382Y-101281179D01*
X97931506Y-100853236D01*
X97931537Y-100853208D01*
X98396352Y-100419338D01*
X98855700Y-99979684D01*
X99309510Y-99534316D01*
X99757710Y-99083302D01*
X100200230Y-98626714D01*
X100637000Y-98164623D01*
X101067953Y-97697102D01*
X101493021Y-97224224D01*
X101493042Y-97224199D01*
X101493069Y-97224170D01*
X101912150Y-96746047D01*
X102325228Y-96262701D01*
X102325235Y-96262693D01*
X102732251Y-95774191D01*
X103133121Y-95280633D01*
X103527782Y-94782096D01*
X103916173Y-94278659D01*
X104298232Y-93770401D01*
X104673900Y-93257400D01*
X105043118Y-92739737D01*
X105405828Y-92217494D01*
X105761973Y-91690752D01*
X106111498Y-91159594D01*
X106454347Y-90624103D01*
X106790467Y-90084363D01*
X107119806Y-89540458D01*
X107442311Y-88992474D01*
X107757932Y-88440496D01*
X108066620Y-87884611D01*
X108368327Y-87324906D01*
X108663004Y-86761469D01*
X108950607Y-86194388D01*
X109231089Y-85623751D01*
X109504408Y-85049649D01*
X109770519Y-84472171D01*
X110029382Y-83891408D01*
X110280956Y-83307450D01*
X110525201Y-82720389D01*
X110762080Y-82130317D01*
X110991555Y-81537326D01*
X111213590Y-80941510D01*
X111428150Y-80342962D01*
X111635202Y-79741775D01*
X111635208Y-79741759D01*
X111834697Y-79138092D01*
X111834713Y-79138043D01*
X112026653Y-78531862D01*
X112210990Y-77923326D01*
X112387697Y-77312531D01*
X112556745Y-76699572D01*
X112718108Y-76084545D01*
X112718109Y-76084537D01*
X112718126Y-76084476D01*
X112871760Y-75467550D01*
X113017681Y-74848666D01*
X113155831Y-74228063D01*
X113155840Y-74228022D01*
X113286222Y-73605690D01*
X113408805Y-72981775D01*
X113523570Y-72356375D01*
X113630498Y-71729587D01*
X113729572Y-71101510D01*
X113729574Y-71101494D01*
X113729583Y-71101439D01*
X113768079Y-70835828D01*
X113820778Y-70472243D01*
X113904101Y-69841883D01*
X113979528Y-69210529D01*
X114047047Y-68578281D01*
X114106647Y-67945238D01*
X114158320Y-67311498D01*
X114202057Y-66677161D01*
X114237851Y-66042326D01*
X114265696Y-65407093D01*
X114265696Y-65407080D01*
X114265699Y-65407021D01*
X114285588Y-64771592D01*
X114285589Y-64771561D01*
X114297526Y-64135831D01*
X114301505Y-63500000D01*
X114297526Y-62864169D01*
X114285589Y-62228439D01*
X114285588Y-62228407D01*
X114265699Y-61592979D01*
X114265696Y-61592907D01*
X114237851Y-60957674D01*
X114202057Y-60322839D01*
X114158320Y-59688502D01*
X114106647Y-59054762D01*
X114106645Y-59054745D01*
X114106641Y-59054691D01*
X114047050Y-58421747D01*
X113979529Y-57789484D01*
X113979528Y-57789471D01*
X113904101Y-57158117D01*
X113820778Y-56527757D01*
X113771714Y-56189248D01*
X113729583Y-55898561D01*
X113729572Y-55898490D01*
X113630498Y-55270413D01*
X113523570Y-54643625D01*
X113408805Y-54018225D01*
X113286222Y-53394310D01*
X113155840Y-52771978D01*
X113155837Y-52771968D01*
X113155825Y-52771907D01*
X113017681Y-52151333D01*
X112871760Y-51532449D01*
X112718126Y-50915524D01*
X112718108Y-50915455D01*
X112556745Y-50300428D01*
X112387697Y-49687469D01*
X112210990Y-49076674D01*
X112026653Y-48468138D01*
X111834713Y-47861957D01*
X111834709Y-47861946D01*
X111834691Y-47861888D01*
X111635208Y-47258240D01*
X111428145Y-46657023D01*
X111213599Y-46058515D01*
X110991552Y-45462666D01*
X110762075Y-44869670D01*
X110701358Y-44718425D01*
X110525201Y-44279611D01*
X110280956Y-43692550D01*
X110029382Y-43108592D01*
X109770519Y-42527829D01*
X109770490Y-42527763D01*
X109598560Y-42154668D01*
X109504408Y-41950351D01*
X109231089Y-41376249D01*
X108950607Y-40805612D01*
X108950575Y-40805548D01*
X108663002Y-40238526D01*
X108368341Y-39675121D01*
X108368327Y-39675094D01*
X108066620Y-39115389D01*
X107757932Y-38559504D01*
X107757931Y-38559503D01*
X107757897Y-38559441D01*
X107442328Y-38007556D01*
X107442311Y-38007526D01*
X107119806Y-37459542D01*
X107119787Y-37459511D01*
X107119769Y-37459480D01*
X106790486Y-36915667D01*
X106454348Y-36375899D01*
X106454347Y-36375897D01*
X106111498Y-35840406D01*
X105761973Y-35309248D01*
X105761953Y-35309219D01*
X105761933Y-35309188D01*
X105640475Y-35129552D01*
X105405828Y-34782506D01*
X105043118Y-34260263D01*
X104673900Y-33742600D01*
X104673858Y-33742542D01*
X104673858Y-33742541D01*
X104298235Y-33229602D01*
X103916195Y-32721369D01*
X103756720Y-32514656D01*
X103527782Y-32217904D01*
X103133121Y-31719367D01*
X102732251Y-31225809D01*
X102732230Y-31225784D01*
X102732205Y-31225753D01*
X102325228Y-30737298D01*
X101912150Y-30253952D01*
X101493069Y-29775830D01*
X101493042Y-29775800D01*
X101493021Y-29775776D01*
X101067953Y-29302898D01*
X100637000Y-28835377D01*
X100200230Y-28373286D01*
X99757710Y-27916698D01*
X99757686Y-27916674D01*
X99757660Y-27916647D01*
X99309535Y-27465709D01*
X98855707Y-27020323D01*
X98396341Y-26580651D01*
X97931506Y-26146763D01*
X97461382Y-25718821D01*
X97461328Y-25718773D01*
X96985799Y-25296673D01*
X96821682Y-25154629D01*
X96505079Y-24880604D01*
X96019056Y-24470474D01*
X95528040Y-24066543D01*
X95528039Y-24066542D01*
X95031982Y-23668768D01*
X94530986Y-23277235D01*
X94025128Y-22892002D01*
X93514488Y-22513131D01*
X92999122Y-22140663D01*
X92479185Y-21774711D01*
X91954708Y-21415294D01*
X91954680Y-21415275D01*
X91425720Y-21062433D01*
X91425685Y-21062410D01*
X90892415Y-20716259D01*
X90892385Y-20716240D01*
X90354759Y-20376748D01*
X89812926Y-20044013D01*
X89812898Y-20043996D01*
X89266971Y-19718084D01*
X88717010Y-19399033D01*
X88716979Y-19399015D01*
X88163037Y-19086854D01*
X87605231Y-18781651D01*
X87457333Y-18703117D01*
X87043685Y-18483471D01*
X86478351Y-18192293D01*
X85909482Y-17908246D01*
X85337134Y-17631355D01*
X84761302Y-17361621D01*
X84182234Y-17099159D01*
X84182225Y-17099155D01*
X84182194Y-17099141D01*
X83901759Y-16976240D01*
X83599830Y-16843920D01*
X83014278Y-16595993D01*
X82612159Y-16431637D01*
X82425723Y-16355436D01*
X81834181Y-16122255D01*
X81239766Y-15896496D01*
X81206753Y-15884428D01*
X80642615Y-15678209D01*
X80576478Y-15654967D01*
X80042692Y-15467384D01*
X80042624Y-15467361D01*
X79440272Y-15264115D01*
X79440256Y-15264110D01*
X79440221Y-15264098D01*
X78835253Y-15068369D01*
X78835248Y-15068367D01*
X78835225Y-15068360D01*
X78227897Y-14880230D01*
X78094582Y-14840755D01*
X77618205Y-14699701D01*
X77006316Y-14526820D01*
X77006311Y-14526818D01*
X77006291Y-14526813D01*
X76392351Y-14361621D01*
X76267806Y-14329776D01*
X75776286Y-14204100D01*
X75776216Y-14204083D01*
X75158337Y-14054311D01*
X74538633Y-13912285D01*
X74538629Y-13912284D01*
X74538563Y-13912269D01*
X73917060Y-13777995D01*
X73917054Y-13777993D01*
X73917018Y-13777986D01*
X73293931Y-13651511D01*
X72814779Y-13560481D01*
X72669254Y-13532834D01*
X72043148Y-13421986D01*
X72043130Y-13421983D01*
X71415750Y-13318989D01*
X71415704Y-13318982D01*
X70787019Y-13223840D01*
X70786970Y-13223833D01*
X70786962Y-13223832D01*
X70157210Y-13136576D01*
X69526316Y-13057196D01*
X68894489Y-12985720D01*
X68261887Y-12922164D01*
X67628476Y-12866527D01*
X67583990Y-12863179D01*
X66994398Y-12818819D01*
X66994364Y-12818816D01*
X66994326Y-12818814D01*
X66994326Y-12818813D01*
X66359871Y-12779056D01*
X66359871Y-12779057D01*
X66359835Y-12779055D01*
X66359800Y-12779053D01*
X65724753Y-12747233D01*
X65724732Y-12747232D01*
X65724728Y-12747232D01*
X65089317Y-12723361D01*
X64453738Y-12707448D01*
X63817930Y-12699490D01*
X63817922Y-12699490D01*
X63182078Y-12699490D01*
X63182070Y-12699490D01*
X62546261Y-12707448D01*
X61910682Y-12723361D01*
X61275271Y-12747232D01*
X61275263Y-12747232D01*
X61275247Y-12747233D01*
X60640200Y-12779053D01*
X60640164Y-12779055D01*
X60640129Y-12779057D01*
X60640128Y-12779056D01*
X60005673Y-12818813D01*
X60005674Y-12818814D01*
X60005635Y-12818816D01*
X60005602Y-12818819D01*
X59500676Y-12856809D01*
X59371523Y-12866527D01*
X58738112Y-12922164D01*
X58105510Y-12985720D01*
X57473683Y-13057196D01*
X56842789Y-13136576D01*
X56213037Y-13223832D01*
X56213018Y-13223834D01*
X56212981Y-13223840D01*
X55704914Y-13300728D01*
X55584249Y-13318989D01*
X54956869Y-13421983D01*
X54330735Y-13532836D01*
X53706068Y-13651511D01*
X53082981Y-13777986D01*
X52996298Y-13796713D01*
X52461437Y-13912269D01*
X52461370Y-13912284D01*
X52461367Y-13912285D01*
X51841662Y-14054311D01*
X51223784Y-14204083D01*
X51223714Y-14204100D01*
X50823176Y-14306513D01*
X50607648Y-14361621D01*
X49993708Y-14526813D01*
X49737772Y-14599124D01*
X49381795Y-14699701D01*
X49176931Y-14760360D01*
X48772102Y-14880230D01*
X48164774Y-15068360D01*
X47801557Y-15185873D01*
X47559779Y-15264098D01*
X47559766Y-15264102D01*
X47559727Y-15264115D01*
X46957376Y-15467361D01*
X46957308Y-15467384D01*
X46561561Y-15606457D01*
X46357384Y-15678209D01*
X45760255Y-15896488D01*
X45760234Y-15896496D01*
X45165819Y-16122255D01*
X45165809Y-16122259D01*
X44574262Y-16355442D01*
X43985721Y-16595993D01*
X43400169Y-16843920D01*
X42817765Y-17099159D01*
X42238697Y-17361621D01*
X41662865Y-17631355D01*
X41090517Y-17908246D01*
X40521648Y-18192293D01*
X39956314Y-18483471D01*
X39394797Y-18781636D01*
X39394769Y-18781651D01*
X38963876Y-19017413D01*
X38836961Y-19086855D01*
X38282989Y-19399033D01*
X37733028Y-19718084D01*
X37187101Y-20043996D01*
X36645239Y-20376749D01*
X36107584Y-20716259D01*
X35574314Y-21062410D01*
X35045291Y-21415294D01*
X34520814Y-21774711D01*
X34000877Y-22140663D01*
X33485508Y-22513133D01*
X32974843Y-22892023D01*
X32469010Y-23277237D01*
X31968040Y-23668750D01*
X31471959Y-24066543D01*
X30980943Y-24470474D01*
X30494921Y-24880604D01*
X30014231Y-25296647D01*
X30014201Y-25296673D01*
X29538672Y-25718773D01*
X29538618Y-25718821D01*
X29068493Y-26146763D01*
X28603658Y-26580651D01*
X28144292Y-27020323D01*
X27690464Y-27465709D01*
X27242340Y-27916647D01*
X27242313Y-27916674D01*
X27242290Y-27916698D01*
X27039906Y-28125515D01*
X26799748Y-28373308D01*
X26363002Y-28835374D01*
X25932068Y-29302875D01*
X25932047Y-29302898D01*
X25506979Y-29775776D01*
X25506957Y-29775800D01*
X25506931Y-29775830D01*
X25087849Y-30253952D01*
X24674771Y-30737298D01*
X24267795Y-31225753D01*
X24267769Y-31225784D01*
X24267749Y-31225809D01*
X24017199Y-31534290D01*
X23866886Y-31719358D01*
X23472206Y-32217919D01*
X23083804Y-32721369D01*
X22701764Y-33229602D01*
X22326141Y-33742541D01*
X22326142Y-33742542D01*
X22326100Y-33742600D01*
X21956882Y-34260263D01*
X21956841Y-34260320D01*
X21956841Y-34260322D01*
X21594189Y-34782481D01*
X21238067Y-35309188D01*
X21238046Y-35309219D01*
X21238027Y-35309248D01*
X20888502Y-35840406D01*
X20888482Y-35840437D01*
X20545651Y-36375899D01*
X20209513Y-36915667D01*
X19880231Y-37459480D01*
X19880212Y-37459511D01*
X19880194Y-37459542D01*
X19687450Y-37787041D01*
X19557671Y-38007556D01*
X19242103Y-38559441D01*
X18933381Y-39115385D01*
X18631658Y-39675121D01*
X18336997Y-40238526D01*
X18049425Y-40805548D01*
X18049393Y-40805612D01*
X17768911Y-41376249D01*
X17768881Y-41376310D01*
X17768880Y-41376314D01*
X17495595Y-41950344D01*
X17229510Y-42527763D01*
X16970622Y-43108582D01*
X16719035Y-43692570D01*
X16474789Y-44279635D01*
X16237924Y-44869670D01*
X16008447Y-45462666D01*
X15786400Y-46058515D01*
X15571854Y-46657023D01*
X15364791Y-47258240D01*
X15165309Y-47861888D01*
X14973337Y-48468169D01*
X14789012Y-49076663D01*
X14612297Y-49687488D01*
X14443274Y-50300358D01*
X14443255Y-50300428D01*
X14281892Y-50915455D01*
X14281874Y-50915524D01*
X14128239Y-51532449D01*
X13982318Y-52151333D01*
X13844175Y-52771907D01*
X13844162Y-52771968D01*
X13844160Y-52771978D01*
X13713778Y-53394310D01*
X13591195Y-54018225D01*
X13476430Y-54643625D01*
X13369502Y-55270413D01*
X13270428Y-55898490D01*
X13270417Y-55898561D01*
X13179224Y-56527742D01*
X13095899Y-57158115D01*
X13020470Y-57789484D01*
X12952949Y-58421747D01*
X12893359Y-59054691D01*
X12841680Y-59688488D01*
X12797942Y-60322840D01*
X12762148Y-60957686D01*
X12734301Y-61592979D01*
X12714411Y-62228407D01*
X12702474Y-62864153D01*
X12698495Y-63500000D01*
X0Y-63500000D01*
X0Y-11500D01*
X3368Y-3368D01*
X11500Y0D01*
X126988500Y0D01*
X126996632Y-3368D01*
G37*
%TD.AperFunction*%
D10*
X0Y0D02*
X127000000Y0D01*
X127000000Y-127000000D01*
X0Y-127000000D01*
X0Y0D01*
M02*
